<svg width="64" height="64" viewBox="0 0 64 64" fill="none" xmlns="http://www.w3.org/2000/svg">
<path fill-rule="evenodd" clip-rule="evenodd" d="M1.06666 7.11973C9.06666 7.33307 17.0667 7.25307 25.0667 7.35973C28.48 7.35973 31.8667 7.35973 35.2533 7.65307L47.1467 7.4664C47.8568 7.41245 48.5699 7.41245 49.28 7.4664C49.4386 7.46367 49.5953 7.50141 49.7353 7.57607C49.8753 7.65072 49.9939 7.75982 50.08 7.89307C50.3339 8.38767 50.4621 8.93717 50.4533 9.49307C50.4533 10.7997 50.2933 12.1597 50.2667 13.1997L50.6667 34.3997C50.6667 34.6826 50.779 34.9539 50.9791 35.154C51.1791 35.354 51.4504 35.4664 51.7333 35.4664C51.8709 35.4701 52.0078 35.4457 52.1356 35.3947C52.2635 35.3437 52.3796 35.2673 52.4769 35.17C52.5742 35.0726 52.6507 34.9565 52.7016 34.8287C52.7526 34.7009 52.777 34.564 52.7733 34.4264L53.3333 13.3331C53.5695 11.7891 53.6765 10.2281 53.6533 8.6664C53.6212 7.77623 53.3742 6.90705 52.9333 6.13307C52.6808 5.6697 52.3386 5.26126 51.9265 4.93161C51.5144 4.60196 51.0408 4.35769 50.5333 4.21307C49.451 3.95496 48.3384 3.84728 47.2267 3.89307L35.3867 4.0264H25.04C17.04 4.2664 9.03999 4.87973 1.03999 5.11973C0.792458 5.11973 0.555061 5.21807 0.380027 5.3931C0.204993 5.56814 0.10666 5.80553 0.10666 6.05307C0.0869907 6.18861 0.0973922 6.32682 0.137127 6.45789C0.176862 6.58895 0.244956 6.70967 0.336577 6.81148C0.428199 6.91328 0.541102 6.99367 0.667277 7.04694C0.793451 7.10021 0.929804 7.12507 1.06666 7.11973Z" fill="#77A4FD"/>
<path fill-rule="evenodd" clip-rule="evenodd" d="M63.8399 44.2402C63.7317 42.9819 63.5266 41.7337 63.2266 40.5069C63.0205 39.7894 62.6763 39.1191 62.2133 38.5336C62.0559 38.3419 61.8613 38.1841 61.6414 38.0695C61.4214 37.9549 61.1805 37.886 60.9333 37.8669C60.5266 37.8475 60.1245 37.9597 59.7866 38.1869C59.5466 38.3469 57.8933 40.1069 57.1199 40.7202C56.3466 41.3336 55.0666 42.5869 53.9733 43.3869L52.5066 44.4536C51.1466 38.6136 53.6533 38.7202 48.0799 38.6402H41.2266C39.9466 38.6402 38.5599 38.4269 37.3599 38.3736C36.4283 38.2939 35.4916 38.2939 34.5599 38.3736C33.4839 38.4713 32.4574 38.8711 31.5987 39.5269C30.74 40.1827 30.0841 41.0678 29.7066 42.0802C28.9166 44.5339 28.547 47.1034 28.6133 49.6802C28.4805 51.2062 28.4805 52.7409 28.6133 54.2669C28.7226 55.1353 29.0331 55.9662 29.5199 56.6936C30.8967 58.3706 32.8812 59.4348 35.0399 59.6536C37.6983 59.9506 40.3815 59.9506 43.0399 59.6536C44.5019 59.6342 45.9618 59.5363 47.4133 59.3602C48.5234 59.2728 49.6173 59.0397 50.6666 58.6669C50.7933 58.6222 50.9098 58.5528 51.0094 58.4626C51.1089 58.3725 51.1896 58.2635 51.2467 58.1419C51.3037 58.0203 51.3361 57.8886 51.3418 57.7544C51.3475 57.6202 51.3265 57.4862 51.2799 57.3602C51.4201 57.3674 51.5602 57.3469 51.6924 57.2998C51.8246 57.2527 51.9461 57.1801 52.0502 57.0859C52.1542 56.9918 52.2387 56.8781 52.2987 56.7513C52.3587 56.6244 52.3931 56.487 52.3999 56.3469C52.3999 55.5736 52.5866 54.8269 52.6933 54.0536C53.236 54.5418 53.8155 54.9875 54.4266 55.3869C55.0327 55.7165 55.6662 55.9931 56.3199 56.2136C57.3066 56.5869 58.2933 56.7736 59.3066 57.1736C59.5471 57.3218 59.8367 57.3686 60.1116 57.3036C60.3866 57.2386 60.6246 57.0672 60.7733 56.8269C60.846 56.7099 60.8948 56.5795 60.9168 56.4435C60.9387 56.3074 60.9334 56.1684 60.9012 56.0344C60.8689 55.9004 60.8103 55.7742 60.7289 55.663C60.6474 55.5519 60.5447 55.458 60.4266 55.3869C59.6418 54.6183 58.8042 53.9054 57.9199 53.2536C57.5388 52.9913 57.1375 52.7594 56.7199 52.5602C56.3188 52.3527 55.8992 52.1831 55.4666 52.0536C54.6592 51.851 53.8398 51.6996 53.0133 51.6002V50.7202V48.2669C53.0133 47.4402 53.0133 47.0936 52.8266 46.5336C53.6266 46.1602 54.3999 45.7602 55.1466 45.3336C56.3999 44.6136 57.5999 43.8402 58.8266 43.0669L59.8133 42.4002C59.8133 43.2269 60.0266 44.0536 60.1066 44.6669C60.3913 46.2198 60.596 47.7863 60.7199 49.3602C60.9599 51.7869 61.1466 54.2136 61.3866 56.6402C61.4068 56.9161 61.5309 57.1741 61.7338 57.3621C61.9367 57.5502 62.2033 57.6543 62.4799 57.6536C62.6201 57.6467 62.7575 57.6123 62.8843 57.5523C63.0111 57.4923 63.1248 57.4078 63.219 57.3038C63.3131 57.1998 63.3858 57.0782 63.4329 56.946C63.4799 56.8138 63.5005 56.6737 63.4933 56.5336C63.4933 53.6802 63.7866 50.8536 63.7866 47.9736C63.9288 46.7469 63.9466 45.5025 63.8399 44.2402ZM47.3333 57.1469C45.9301 57.2315 44.5231 57.2315 43.1199 57.1469C40.6515 57.2973 38.174 57.1721 35.7333 56.7736C34.4376 56.6051 33.2598 55.9348 32.4533 54.9069C32.2359 54.4497 32.1352 53.9458 32.1599 53.4402V49.9736C32.0744 47.8144 32.3264 45.6551 32.9066 43.5736C33.058 43.0874 33.3391 42.6517 33.7197 42.3134C34.1004 41.975 34.566 41.7469 35.0666 41.6536C35.833 41.5121 36.6081 41.423 37.3866 41.3869H41.1733C43.4933 41.3869 45.7866 41.0136 48.1333 40.8536H49.4933V46.1869V48.5069C49.4933 49.2802 49.4933 50.0536 49.6799 50.8269C49.8399 52.6669 50.0533 54.4802 50.1866 56.3469C50.1866 56.5069 50.1866 56.6136 50.3199 56.7736C50.1301 56.7065 49.9231 56.7065 49.7333 56.7736C48.9516 56.9961 48.1456 57.1215 47.3333 57.1469Z" fill="#77A4FD"/>
<path fill-rule="evenodd" clip-rule="evenodd" d="M8.85333 44.9328C7.52 44.9328 5.65333 45.3328 4.02667 45.3328H3.76V44.6928V38.0794C3.76 34.9061 3.76 31.7328 3.52 28.5594C3.14667 23.8394 2.66667 19.1194 2.66667 14.3994V8.50609C2.66667 8.25855 2.56833 8.02115 2.3933 7.84612C2.21827 7.67109 1.98087 7.57275 1.73333 7.57275C1.4858 7.57275 1.2484 7.67109 1.07337 7.84612C0.898333 8.02115 0.8 8.25855 0.8 8.50609C0.346667 12.3994 0.213333 16.3728 0.133333 20.3194C0 23.3061 0 26.2661 0 29.3328V38.1861L0.16 44.9861V46.7994C0.197121 47.1216 0.314135 47.4294 0.500414 47.6948C0.686693 47.9603 0.936335 48.175 1.22667 48.3194C2.08363 48.6104 2.99186 48.7194 3.89333 48.6394C5.52 48.6394 7.36 47.9994 8.69333 47.9194L21.68 47.3594C21.9583 47.3525 22.2228 47.237 22.4171 47.0377C22.6114 46.8384 22.7201 46.5711 22.72 46.2928C22.72 46.1539 22.6923 46.0165 22.6384 45.8885C22.5844 45.7606 22.5054 45.6447 22.406 45.5478C22.3066 45.4508 22.1888 45.3748 22.0595 45.3241C21.9302 45.2735 21.7921 45.2492 21.6533 45.2528L8.85333 44.9328Z" fill="#77A4FD"/>
<path fill-rule="evenodd" clip-rule="evenodd" d="M39.8401 33.7602C39.4384 32.1495 38.7025 30.6413 37.6801 29.3335C37.2211 28.7539 36.6824 28.2422 36.0801 27.8135C35.4937 27.3827 34.8467 27.0412 34.1601 26.8002C33.8387 26.6921 33.5086 26.6118 33.1734 26.5602C35.3576 25.03 36.8894 22.7371 37.4668 20.1335C37.7781 18.4188 37.4399 16.6497 36.518 15.1707C35.5961 13.6918 34.1567 12.6091 32.4801 12.1335C31.9239 11.9245 31.3536 11.7552 30.7734 11.6268C30.1626 11.471 29.5368 11.3815 28.9068 11.3602C26.7956 11.3346 24.7218 11.9179 22.9334 13.0402C21.0999 14.0792 19.6152 15.6381 18.6668 17.5202C18.0761 18.6746 17.8564 19.9833 18.0377 21.2673C18.2191 22.5513 18.7927 23.7479 19.6801 24.6935C21.0372 25.9645 22.7864 26.7357 24.6401 26.8802C22.6607 27.0205 20.7445 27.6369 19.0545 28.6769C17.3645 29.7169 15.9507 31.1497 14.9334 32.8535C14.3126 33.8889 13.8286 35.0004 13.4934 36.1602C12.7645 38.5066 12.709 41.0105 13.3334 43.3868C13.6268 44.4002 15.5734 43.8668 15.6001 43.3868C15.6059 41.3156 15.9947 39.2634 16.7468 37.3335C17.1224 36.4118 17.5681 35.5203 18.0801 34.6668C18.5792 33.8445 19.1503 33.0681 19.7868 32.3468C21.2162 30.5766 23.151 29.2836 25.3334 28.6402C25.5772 28.6009 25.7955 28.4665 25.9404 28.2666C26.0854 28.0667 26.1452 27.8174 26.1068 27.5735C26.0497 27.3639 25.9285 27.1774 25.7601 27.0402H26.1601C26.4076 27.0402 26.645 26.9418 26.8201 26.7668C26.9951 26.5918 27.0934 26.3544 27.0934 26.1068C27.0934 25.8593 26.9951 25.6219 26.8201 25.4469C26.645 25.2718 26.4076 25.1735 26.1601 25.1735C25.2939 25.1588 24.441 24.9584 23.6589 24.5858C22.8768 24.2131 22.1838 23.677 21.6268 23.0135C21.1858 22.3946 20.9487 21.6535 20.9487 20.8935C20.9487 20.1335 21.1858 19.3925 21.6268 18.7735C22.369 17.5898 23.42 16.6309 24.6668 16.0002C25.9121 15.2722 27.331 14.8944 28.7734 14.9068C29.1813 14.866 29.5922 14.866 30.0001 14.9068C30.434 15.0158 30.8614 15.1493 31.2801 15.3068C31.8801 15.4634 32.4375 15.7521 32.9115 16.1518C33.3856 16.5516 33.7642 17.0522 34.0199 17.6171C34.2755 18.1821 34.4016 18.797 34.3889 19.4169C34.3763 20.0369 34.2252 20.6461 33.9468 21.2002C33.4588 22.575 32.5957 23.7857 31.4552 24.6952C30.3147 25.6048 28.9423 26.177 27.4934 26.3468C27.3545 26.3502 27.2177 26.3814 27.091 26.4386C26.9643 26.4957 26.8504 26.5777 26.7559 26.6796C26.6615 26.7815 26.5884 26.9013 26.541 27.032C26.4937 27.1626 26.4729 27.3014 26.4801 27.4402C26.4871 27.7184 26.6025 27.9829 26.8018 28.1772C27.0011 28.3716 27.2684 28.4803 27.5468 28.4802C28.1718 28.4227 28.7888 28.2976 29.3868 28.1068C30.5219 28.5733 31.6111 29.1447 32.6401 29.8135C33.3743 30.2316 34.0704 30.7134 34.7201 31.2535C36.0014 32.1609 37.0817 33.3229 37.8934 34.6668C37.9458 34.7962 38.0236 34.9137 38.1224 35.0123C38.2211 35.1109 38.3386 35.1887 38.468 35.2409C38.5974 35.2932 38.736 35.3189 38.8755 35.3164C39.015 35.314 39.1526 35.2836 39.2801 35.2268C39.4172 35.1722 39.5414 35.0898 39.645 34.9847C39.7486 34.8796 39.8293 34.7542 39.8819 34.6164C39.9345 34.4785 39.958 34.3313 39.9508 34.1839C39.9436 34.0365 39.9059 33.8922 39.8401 33.7602Z" fill="#77A4FD"/>
</svg>
