<svg width="64" height="64" viewBox="0 0 64 64" fill="none" xmlns="http://www.w3.org/2000/svg">
<g clip-path="url(#clip0_457_10708)">
<path fill-rule="evenodd" clip-rule="evenodd" d="M62.9875 41.3055C61.7689 38.4792 59.6445 36.1387 56.9492 34.6526C54.3111 33.1298 51.3116 32.3454 48.2658 32.3816C44.9407 32.4509 41.6695 33.2345 38.6739 34.6793C35.601 36.1607 33.0555 38.5477 31.3798 41.5192C29.6557 45.1438 29.2769 49.2634 30.3111 53.1417C30.6983 55.0952 31.509 56.9401 32.6861 58.5465C33.8632 60.153 35.3782 61.4818 37.1243 62.4396C38.6488 63.1658 40.2828 63.6352 41.9603 63.829C43.609 64.0566 45.2811 64.0566 46.9299 63.829C47.0285 63.8159 47.1236 63.7833 47.2095 63.733C47.2954 63.6827 47.3704 63.6158 47.4301 63.5362C47.4898 63.4566 47.5331 63.3658 47.5573 63.2693C47.5815 63.1728 47.5862 63.0724 47.5711 62.974C47.5617 62.8738 47.5315 62.7766 47.4823 62.6888C47.4332 62.6009 47.3662 62.5243 47.2857 62.4639C47.2051 62.4035 47.1129 62.3607 47.0148 62.3381C46.9167 62.3155 46.8149 62.3137 46.7161 62.3327C45.2117 62.4868 43.6934 62.4419 42.2007 62.1991C40.72 61.9638 39.2861 61.4949 37.9525 60.8098C36.5298 59.9138 35.3163 58.7225 34.3944 57.3165C33.4724 55.9105 32.8635 54.3227 32.6089 52.6607C31.8374 49.3501 32.2732 45.8729 33.8379 42.8551C35.2599 40.426 37.3965 38.4946 39.9564 37.3244C42.5792 36.0726 45.4402 35.3984 48.3459 35.3473C50.8664 35.2974 53.3551 35.915 55.5599 37.1374C57.7806 38.3206 59.5538 40.197 60.6096 42.4811C62.0238 45.6111 62.1486 49.1722 60.9569 52.3935C59.7392 55.6481 57.3859 58.3526 54.3308 60.0082C53.4776 60.4949 52.5836 60.9061 51.659 61.2373C51.0814 61.432 50.4781 61.54 49.8689 61.5579C49.7421 61.5356 49.6119 61.5413 49.4876 61.5746C49.3633 61.608 49.2477 61.6681 49.1491 61.7509C49.0505 61.8337 48.9712 61.937 48.9168 62.0537C48.8624 62.1704 48.8343 62.2975 48.8343 62.4263C48.8343 62.555 48.8624 62.6822 48.9168 62.7988C48.9712 62.9155 49.0505 63.0189 49.1491 63.1016C49.2477 63.1844 49.3633 63.2445 49.4876 63.2779C49.6119 63.3112 49.7421 63.3169 49.8689 63.2946C50.6492 63.2855 51.4237 63.1594 52.1666 62.9205C53.2259 62.5143 54.2382 61.9948 55.1858 61.3709C58.7522 59.5908 61.5457 56.5694 63.041 52.8745C64.5313 49.1585 64.5121 45.0075 62.9875 41.3055Z" fill="#032C4D"/>
<path fill-rule="evenodd" clip-rule="evenodd" d="M48.72 39.6746C48.7625 39.4797 48.7259 39.2759 48.6181 39.1081C48.5104 38.9402 48.3404 38.822 48.1455 38.7795C47.9507 38.737 47.7469 38.7736 47.579 38.8813C47.4112 38.9891 47.293 39.1591 47.2505 39.3539C46.5527 41.3173 45.9552 43.3148 45.4603 45.3388C45.1664 46.6747 44.9527 48.0107 44.6321 49.3198C44.6321 49.3198 44.6321 51.0031 45.9947 51.0833H46.5558L48.9337 50.8962L54.8919 50.1214C55.1212 50.1215 55.3415 50.0323 55.5061 49.8727C55.6707 49.713 55.7666 49.4956 55.7736 49.2664C55.7736 49.0397 55.6835 48.8222 55.5232 48.6618C55.3628 48.5015 55.1454 48.4114 54.9186 48.4114L48.8001 48.2778H47.7848C47.7848 47.7702 47.9451 47.2893 47.9986 46.8083C48.3994 44.4838 48.3994 42.0792 48.72 39.6746Z" fill="#032C4D"/>
<path fill-rule="evenodd" clip-rule="evenodd" d="M11.929 4.00737C11.5147 3.79835 11.0571 3.68945 10.5931 3.68945C10.129 3.68945 9.67145 3.79835 9.25715 4.00737C8.80294 4.35471 7.54718 7.45403 5.94409 19.0498C5.40972 22.6567 4.44786 25.9698 3.80662 29.1493C3.03179 32.6493 2.41727 35.9891 1.7226 39.1419C1.02793 41.4682 0.465944 43.8321 0.0393501 46.2222C-0.0344577 46.6088 -0.00406622 47.008 0.127405 47.379C0.258876 47.7499 0.48669 48.0792 0.787461 48.333C3.2348 49.2761 5.76676 49.9829 8.34873 50.4437C15.055 51.9132 24.0858 53.356 25.5286 53.73C25.755 53.7694 25.9877 53.7188 26.1774 53.589C26.367 53.4593 26.4985 53.2606 26.5439 53.0354C26.5827 52.8122 26.5313 52.5827 26.4011 52.3974C26.2708 52.212 26.0723 52.0859 25.8492 52.0468C24.353 51.6995 15.5359 49.7757 8.96325 48.0391C6.29142 47.3444 4.10053 46.7299 2.8982 46.2489C3.21882 44.2718 4.47458 40.0503 4.55474 39.7564C5.00895 37.5922 5.48987 35.3479 5.89065 32.97C7.25328 25.2484 8.34873 16.4046 10.4595 5.85093V5.71734C10.754 5.88468 11.0573 6.0363 11.3679 6.17155C11.668 6.29194 12.0029 6.29194 12.303 6.17155C12.4776 6.03107 12.6114 5.84643 12.6906 5.63679C12.7697 5.42715 12.7914 5.20015 12.7532 4.97933C12.715 4.75852 12.6185 4.55194 12.4735 4.38103C12.3286 4.21012 12.1406 4.08111 11.929 4.00737Z" fill="#032C4D"/>
<path fill-rule="evenodd" clip-rule="evenodd" d="M47.7314 24.2068C47.9452 23.2983 48.1055 22.4166 48.2658 21.5349C48.4261 20.6532 48.5063 19.7448 48.6131 18.8631C48.8269 16.9394 48.9605 14.9088 49.1475 12.5042C49.1872 12.3554 49.1872 12.1988 49.1475 12.05C49.1475 12.05 49.3613 11.8362 49.388 11.7026C49.4193 11.581 49.4243 11.4541 49.4027 11.3304C49.381 11.2067 49.3331 11.089 49.2623 10.9853C49.1915 10.8816 49.0993 10.7942 48.9919 10.729C48.8846 10.6637 48.7646 10.6222 48.6399 10.6072C47.9452 10.2866 47.5444 10.2331 46.823 9.96594C46.3803 9.89807 45.9298 9.89807 45.4871 9.96594C44.8192 9.96594 43.9107 11.8362 44.552 11.9698C45.4985 12.1334 46.4527 12.2493 47.4108 12.3171C46.8497 14.6149 46.3421 16.5386 45.9146 18.3555C45.7276 19.2639 45.5405 20.1456 45.3802 21.0273C45.2199 21.909 45.0863 22.7907 45.0062 23.6991C44.7924 25.5961 44.7123 27.6267 44.552 30.0581C44.5328 30.1565 44.5336 30.2577 44.5543 30.3558C44.575 30.4539 44.6152 30.5468 44.6725 30.6291C44.7298 30.7113 44.8031 30.7812 44.8879 30.8346C44.9728 30.8879 45.0675 30.9237 45.1665 30.9398C45.3635 30.9647 45.5627 30.9157 45.7256 30.8022C45.8885 30.6886 46.0034 30.5187 46.0482 30.3252C46.2085 29.7107 47.5177 25.0618 47.7314 24.2068Z" fill="#032C4D"/>
<path fill-rule="evenodd" clip-rule="evenodd" d="M55.1325 9.91184C54.9253 8.93132 54.4855 8.01497 53.85 7.24002C53.2149 6.34571 52.3443 5.64501 51.335 5.21579C50.3256 4.78657 49.217 4.64563 48.1323 4.80865L47.1437 4.62163C44.1246 4.00711 41.9337 3.31243 38.9412 2.64447C37.8725 2.40401 36.6969 2.21698 35.361 1.97652C34.0251 1.73605 32.1013 1.49559 30.4181 1.30856C19.0094 0.106241 18.7422 -1.04264 15.6696 1.62918C15.3173 1.90771 15.003 2.23107 14.7345 2.59104C14.4751 2.989 14.2515 3.40924 14.0665 3.8468C13.7888 4.65927 13.5657 5.48939 13.3986 6.33159C12.0894 13.2783 10.5664 20.6259 8.42897 32.2216C8.13507 33.8247 7.11977 36.3629 6.79915 38.6072C6.59489 39.7166 6.64053 40.8575 6.93274 41.947C7.15505 42.4051 7.48074 42.8052 7.88413 43.1159C8.28753 43.4265 8.75759 43.6392 9.25723 43.7372C12.2764 44.5921 19.3033 44.886 24.9141 45.9815C25.1337 46.0295 25.3633 45.9891 25.5533 45.8691C25.7433 45.7491 25.8784 45.5591 25.9294 45.3402C25.9572 45.2297 25.9625 45.1147 25.9451 45.002C25.9277 44.8893 25.888 44.7813 25.8283 44.6842C25.7685 44.5871 25.69 44.5029 25.5972 44.4367C25.5045 44.3704 25.3994 44.3233 25.2882 44.2982C21.414 43.2829 16.6849 42.6684 13.3986 42.0005C11.5283 41.6531 9.04349 41.4661 9.4977 40.8783C9.4977 40.8783 9.65801 41.092 9.68472 41.1989C9.53888 40.1977 9.6118 39.1768 9.89847 38.2065C10.3527 36.2828 11.0741 34.2255 11.3947 32.8628C11.9023 30.5918 12.5169 28.3207 12.8375 26.023C15.5093 7.98813 15.0818 9.29732 16.5513 5.50333C16.8452 4.75522 17.62 2.8315 18.7422 2.40401C21.6842 2.42525 24.6146 2.77475 27.4791 3.44602C29.9104 3.92695 32.3685 4.30101 34.9068 4.80865C38.7008 5.28958 41.1321 5.79723 43.8307 6.198L44.9528 6.35831C41.7199 9.03014 41.8001 10.4996 39.2618 19.7174C39.0214 20.519 38.8611 21.3473 38.7008 22.1755C38.5404 23.0038 38.4068 23.8053 38.3 24.6336C38.0595 26.584 37.8992 28.5345 37.7389 30.4849C37.7199 30.5973 37.7236 30.7125 37.7498 30.8234C37.776 30.9344 37.8241 31.0391 37.8913 31.1312C37.9585 31.2233 38.0435 31.301 38.1412 31.3598C38.2389 31.4186 38.3474 31.4572 38.4603 31.4735C38.6835 31.5123 38.9129 31.4609 39.0983 31.3307C39.2836 31.2004 39.4097 31.0019 39.4489 30.7788C39.9298 28.8818 40.4909 27.0382 40.9718 25.168C41.1855 24.3397 41.3726 23.5382 41.5596 22.7366C41.7466 21.9351 41.8535 21.1068 41.9604 20.2785C42.2432 17.1105 42.9718 13.9983 44.1246 11.034C44.45 9.82414 45.2113 8.77734 46.262 8.095C46.6636 7.7556 47.1327 7.50535 47.6382 7.36079C48.1437 7.21623 48.6742 7.18065 49.1945 7.25643C49.7148 7.3322 50.2131 7.51759 50.6564 7.80033C51.0997 8.08307 51.4779 8.45671 51.766 8.89655C52.1907 9.51517 52.4484 10.233 52.5141 10.9806C52.6052 11.8688 52.6052 12.7641 52.5141 13.6524C52.5141 15.2555 52.2736 16.912 52.0599 18.5686C51.8461 20.2251 51.579 21.8816 51.2316 23.458L50.4034 26.7443C50.3224 26.9431 50.2598 27.1488 50.2163 27.3589C49.9955 27.3989 49.7692 27.3989 49.5484 27.3589C49.1921 27.342 48.8405 27.2699 48.5063 27.1451C47.5178 27.1451 47.0368 28.4276 47.9453 28.8284C48.5312 29.1094 49.1667 29.2728 49.8155 29.3093C50.4325 29.355 51.0505 29.2351 51.6057 28.962C51.8466 28.834 52.0355 28.6262 52.14 28.3742C52.272 28.0077 52.3791 27.6328 52.4607 27.252L53.4759 24.126C53.9947 22.4692 54.4141 20.783 54.7317 19.0762C55.0428 17.3699 55.2657 15.6488 55.3997 13.9196C55.4972 12.5777 55.4073 11.2289 55.1325 9.91184Z" fill="#032C4D"/>
<path fill-rule="evenodd" clip-rule="evenodd" d="M39.1815 13.6268C39.2322 13.4041 39.1971 13.1704 39.0832 12.9723C38.9694 12.7742 38.785 12.6263 38.5669 12.5581C36.1356 11.7299 33.7042 10.9283 31.166 10.3138C30.0973 10.0466 29.0018 9.83285 27.9064 9.64583C26.8109 9.4588 25.7422 9.32521 24.62 9.21833C21.9482 9.03131 19.4634 9.05802 16.8984 9.21833C16.7 9.21833 16.5097 9.29715 16.3694 9.43745C16.2291 9.57775 16.1503 9.76803 16.1503 9.96645C16.1503 10.1649 16.2291 10.3551 16.3694 10.4954C16.5097 10.6357 16.7 10.7146 16.8984 10.7146C19.7573 11.1153 22.5627 11.7566 25.4216 12.2642C27.1315 12.5848 28.8415 12.7986 30.5515 13.0658C33.2233 13.4665 35.6814 13.8139 38.2196 14.3482C38.4403 14.3659 38.6598 14.3023 38.837 14.1694C39.0141 14.0366 39.1366 13.8436 39.1815 13.6268Z" fill="#032C4D"/>
<path fill-rule="evenodd" clip-rule="evenodd" d="M33.9715 22.2813C34.0632 22.0718 34.0698 21.8348 33.99 21.6204C33.9103 21.406 33.7503 21.2311 33.544 21.1324C32.9645 20.8238 32.3559 20.5732 31.7271 20.3843C30.8187 20.1171 29.8836 19.9301 29.0553 19.7163C28.227 19.5026 27.6927 19.3957 26.998 19.3156C25.9705 19.1829 24.9344 19.1293 23.8987 19.1553C22.1537 19.2681 20.4254 19.5636 18.7421 20.037C18.5437 20.076 18.3674 20.1885 18.2485 20.352C18.1295 20.5155 18.0768 20.7179 18.1008 20.9187C18.1338 21.1149 18.2409 21.2909 18.4001 21.4103C18.5592 21.5297 18.7582 21.5832 18.9558 21.5599H20.933C22.2689 21.5599 23.6048 21.8805 24.8338 22.0141C26.0629 22.1477 27.5057 22.0141 28.7614 22.2813H31.4332C31.9502 22.3225 32.461 22.4211 32.9562 22.5752C33.1344 22.6425 33.3297 22.6502 33.5127 22.5973C33.6958 22.5443 33.8567 22.4334 33.9715 22.2813Z" fill="#032C4D"/>
<path fill-rule="evenodd" clip-rule="evenodd" d="M26.9713 28.9091C26.2418 28.6932 25.5016 28.5148 24.7537 28.3747C24.0106 28.2536 23.2613 28.1733 22.5094 28.1342C20.724 28.0872 18.9376 28.1766 17.1657 28.4014C16.9882 28.4348 16.8279 28.5292 16.7126 28.6682C16.5973 28.8073 16.5342 28.9822 16.5342 29.1629C16.5342 29.3435 16.5973 29.5185 16.7126 29.6575C16.8279 29.7966 16.9882 29.8909 17.1657 29.9243C19.1162 30.1915 20.933 30.6725 22.8033 31.0198C23.9255 31.2335 25.0209 31.3671 26.1698 31.5542C27.8798 31.7946 29.563 32.0084 31.273 32.3824C31.4927 32.4502 31.7302 32.4295 31.9348 32.3246C32.1394 32.2198 32.295 32.0392 32.3684 31.8213C32.4362 31.6016 32.4155 31.3642 32.3107 31.1595C32.2058 30.9549 32.0252 30.7993 31.8074 30.7259C30.2309 30.0296 28.6163 29.423 26.9713 28.9091Z" fill="#032C4D"/>
</g>
<defs>
<clipPath id="clip0_457_10708">
<rect width="64" height="64" fill="white"/>
</clipPath>
</defs>
</svg>
