<svg width="64" height="64" viewBox="0 0 64 64" fill="none" xmlns="http://www.w3.org/2000/svg">
<g clip-path="url(#clip0_457_10724)">
<g clip-path="url(#clip1_457_10724)">
<g clip-path="url(#clip2_457_10724)">
<path fill-rule="evenodd" clip-rule="evenodd" d="M63.7649 6.97587C63.6211 6.54454 63.351 6.16641 62.9896 5.8906C62.6282 5.61478 62.1922 5.45402 61.7382 5.4292C60.8276 5.49423 59.973 5.89305 59.3382 6.5492C56.0656 9.86184 53.0607 13.4286 50.3515 17.2159C43.6849 26.0692 35.6315 37.8559 32.0315 43.2959L30.7249 45.2959C27.0891 43.9761 23.3129 43.0812 19.4715 42.6292C17.6993 42.3314 15.8852 42.3949 14.1382 42.8159C13.9035 42.9098 13.6902 43.0504 13.5115 43.2291C13.3327 43.4079 13.1921 43.6211 13.0982 43.8559C13.0107 44.3817 13.0419 44.9204 13.1895 45.4325C13.3372 45.9447 13.5975 46.4174 13.9515 46.8159C15.7781 49.0545 17.8638 51.0686 20.1649 52.8159C25.2315 56.8959 31.6315 60.8159 33.9249 61.1092C34.0441 61.1241 34.165 61.1151 34.2807 61.0828C34.3964 61.0505 34.5046 60.9956 34.5988 60.9211C34.6931 60.8467 34.7717 60.7543 34.8299 60.6492C34.8882 60.5442 34.925 60.4286 34.9382 60.3092C34.9606 60.0657 34.8866 59.8231 34.732 59.6335C34.5774 59.444 34.3546 59.3228 34.1115 59.2959C30.1959 57.7815 26.5833 55.5778 23.4449 52.7892C20.7049 50.7537 18.2084 48.4093 16.0049 45.8025C15.7997 45.5306 15.6127 45.2456 15.4449 44.9492C15.6514 44.8767 15.8666 44.8319 16.0849 44.8159C18.7896 44.9177 21.4738 45.3293 24.0849 46.0425C26.302 46.5476 28.4637 47.2712 30.5382 48.2025C30.764 48.3377 31.0259 48.3999 31.2884 48.3808C31.5508 48.3618 31.801 48.2622 32.0049 48.0959C32.234 47.9617 32.4122 47.7554 32.5115 47.5092V47.3759C32.8049 46.9225 33.3915 46.0159 34.2715 44.7092C37.9249 39.3759 46.0582 27.7492 52.7249 18.9759C55.7115 15.0292 58.3782 11.6425 60.2449 9.69587C60.4855 9.44416 60.7539 9.22052 61.0449 9.0292C60.9115 9.77587 60.5915 10.7625 60.3515 11.6959C58.0757 18.8656 55.2034 25.8322 51.7649 32.5225C47.7155 41.0696 43.0546 49.3133 37.8182 57.1892C37.7552 57.2732 37.7093 57.3689 37.6832 57.4707C37.6572 57.5724 37.6514 57.6783 37.6662 57.7823C37.6811 57.8863 37.7163 57.9864 37.7698 58.0768C37.8233 58.1672 37.8942 58.2462 37.9782 58.3092C38.1522 58.438 38.3698 58.4934 38.5842 58.4635C38.7986 58.4335 38.9928 58.3207 39.1249 58.1492C47.8598 45.5523 55.3019 32.1064 61.3382 18.0159C62.4991 15.4477 63.3927 12.7669 64.0049 10.0159C64.1917 8.99896 64.109 7.95085 63.7649 6.97587Z" fill="#032C4D"/>
<path fill-rule="evenodd" clip-rule="evenodd" d="M24.2983 37.6157C27.6583 33.0024 32.2983 26.9491 36.6449 21.3491L41.9783 14.4157C44.6449 11.1357 46.6716 8.36241 48.1649 6.76241C48.4316 6.49574 48.6716 6.17574 48.8849 5.93574C48.9102 6.06788 48.9102 6.2036 48.8849 6.33574C48.818 7.49192 48.6212 8.6369 48.2983 9.74908C48.0049 11.4024 47.3383 13.4291 46.5383 15.5624C46.4734 15.6634 46.4321 15.7777 46.4174 15.8968C46.4026 16.016 46.4149 16.1369 46.4533 16.2506C46.4917 16.3644 46.5552 16.468 46.6391 16.5539C46.723 16.6398 46.8251 16.7057 46.9379 16.7467C47.0507 16.7877 47.1714 16.8028 47.2908 16.7909C47.4103 16.779 47.5255 16.7403 47.628 16.6778C47.7304 16.6153 47.8175 16.5305 47.8828 16.4297C47.948 16.329 47.9898 16.2148 48.0049 16.0957C49.5034 13.0488 50.6057 9.82259 51.2849 6.49574C51.4983 4.30908 50.5649 3.26908 49.3383 3.13574C48.5835 3.15011 47.8611 3.44478 47.3116 3.96241C44.4512 6.55338 41.8439 9.41071 39.5249 12.4957C37.8449 14.6291 36.0316 17.0557 34.1916 19.5624C30.0049 25.3757 25.8449 31.7757 22.7249 36.5757C22.6314 36.7762 22.6122 37.0033 22.6706 37.2167C22.7289 37.43 22.8612 37.6157 23.0437 37.7406C23.2263 37.8655 23.4473 37.9215 23.6673 37.8986C23.8872 37.8758 24.092 37.7755 24.2449 37.6157H24.2983Z" fill="#032C4D"/>
<path fill-rule="evenodd" clip-rule="evenodd" d="M17.7649 58.7626C16.2716 58.4693 13.4983 55.2959 10.6716 51.6693C9.52492 50.2293 8.40492 48.6559 7.33825 47.1893C6.27158 45.7226 5.09825 43.9626 4.27158 42.5759C3.7029 41.7333 3.21199 40.8408 2.80492 39.9093C2.80492 39.9093 2.80492 39.9093 2.80492 39.7759C5.22189 39.7342 7.6313 40.0578 9.95158 40.7359C10.0514 40.7727 10.1575 40.7894 10.2637 40.7852C10.37 40.781 10.4744 40.7559 10.571 40.7113C10.6676 40.6667 10.7544 40.6036 10.8266 40.5254C10.8987 40.4473 10.9548 40.3557 10.9916 40.2559C11.0284 40.1561 11.0451 40.05 11.0409 39.9438C11.0367 39.8375 11.0115 39.7331 10.967 39.6365C10.9224 39.5399 10.8592 39.4531 10.7811 39.3809C10.703 39.3088 10.6114 39.2527 10.5116 39.2159C8.14853 38.2669 5.66048 37.6651 3.12492 37.4293C2.34806 37.3127 1.5541 37.4143 0.831584 37.7226C0.547704 37.8769 0.322723 38.1206 0.191584 38.4159C0.0186938 39.1376 -0.00904487 39.8864 0.10998 40.6189C0.229006 41.3513 0.492421 42.0528 0.884918 42.6826C2.03081 45.0321 3.41591 47.2572 5.01825 49.3226C9.23158 54.8959 15.0983 60.3893 17.4449 60.7359C17.5623 60.7591 17.6831 60.7589 17.8003 60.7352C17.9176 60.7116 18.029 60.6649 18.1281 60.598C18.2273 60.5311 18.3122 60.4452 18.378 60.3453C18.4438 60.2454 18.4892 60.1334 18.5116 60.0159C18.5665 59.8851 18.59 59.7432 18.5801 59.6016C18.5702 59.46 18.5272 59.3227 18.4546 59.2008C18.3819 59.0789 18.2817 58.9757 18.1619 58.8996C18.0421 58.8235 17.9061 58.7766 17.7649 58.7626Z" fill="#032C4D"/>
</g>
</g>
</g>
<defs>
<clipPath id="clip0_457_10724">
<rect width="64" height="64" fill="white"/>
</clipPath>
<clipPath id="clip1_457_10724">
<rect width="64" height="64" fill="white" transform="translate(0.00488281 0.0957031)"/>
</clipPath>
<clipPath id="clip2_457_10724">
<rect width="64" height="64" fill="white" transform="translate(0.00488281 0.0957031)"/>
</clipPath>
</defs>
</svg>
