<svg width="64" height="64" viewBox="0 0 64 64" fill="none" xmlns="http://www.w3.org/2000/svg">
<path fill-rule="evenodd" clip-rule="evenodd" d="M58.8899 48.3858C58.3037 48.252 57.7066 48.1718 57.1059 48.1461C56.5118 48.1062 55.9158 48.1062 55.3218 48.1461C53.9616 48.2854 52.6162 48.5438 51.3011 48.9183C53.964 46.4291 56.0729 43.4071 57.4905 40.0488C58.9082 36.6906 59.6027 33.0715 59.5289 29.4271C59.8137 21.5667 57.0575 13.899 51.8336 8.01867C49.1403 5.32283 45.9133 3.21965 42.3596 1.84402C38.8059 0.468378 35.0039 -0.149346 31.1974 0.0304608C23.6432 0.352028 16.4821 3.4862 11.1204 8.81749C9.15463 10.7701 7.4537 12.9724 6.06119 15.3678C4.64371 17.732 3.52567 20.2633 2.73277 22.9034C2.67336 23.1257 2.70086 23.3623 2.80968 23.5651C2.91849 23.7679 3.10046 23.9217 3.31858 23.9951C3.55174 24.0643 3.8025 24.0423 4.02004 23.9335C4.23759 23.8247 4.40565 23.6373 4.49018 23.4093C5.32786 20.9795 6.46376 18.6629 7.87185 16.5128C9.27337 14.3703 10.9372 12.4113 12.8245 10.6814C17.9044 6.10958 24.4704 3.53613 31.3039 3.43876C34.6392 3.31694 37.9644 3.87496 41.0772 5.07888C44.1899 6.28279 47.0252 8.10742 49.4105 10.4418C54.1595 15.6438 56.741 22.4641 56.6266 29.507C56.8507 35.5727 54.8101 41.5049 50.9017 46.1491V45.1106C50.8925 44.4498 50.8301 43.7909 50.7153 43.1402C50.6053 42.4921 50.4542 41.8518 50.2626 41.223C48.5585 36.1904 47.8129 36.1904 47.2537 36.3502C46.6945 36.5099 46.375 36.3502 46.9875 41.9419C46.9875 42.5277 47.1472 43.1402 47.2537 43.7526C47.3602 44.365 47.52 44.9775 47.6798 45.5899C47.9993 47.0278 48.4253 48.3858 48.6916 49.8503C48.6916 50.3828 48.2123 50.8887 55.2153 51.5012C56.0981 51.6194 56.9874 51.6816 57.878 51.6875C63.2035 51.6875 63.3633 51.3148 63.4698 50.7556C63.5763 50.1964 63.5497 49.4242 58.8899 48.3858Z" fill="#032C4D"/>
<path fill-rule="evenodd" clip-rule="evenodd" d="M34.3926 49.3982C33.3896 48.3547 32.3129 47.3848 31.1707 46.4958C30.5045 45.9187 29.8018 45.3851 29.0672 44.8981C28.6019 44.5988 28.0414 44.4847 27.4961 44.5786C26.6212 44.8032 25.8389 45.2969 25.2594 45.9899C24.3969 47.172 23.597 48.3985 22.863 49.6644C21.6381 51.7147 21.9577 50.5431 20.36 49.4514L18.4961 47.9603C17.7025 47.2106 16.9886 46.3807 16.3659 45.4839C15.7423 44.6017 15.2324 43.6445 14.8481 42.6348C14.8481 42.6348 14.5819 42.2088 14.3955 41.836C15.3008 41.2768 16.7919 41.0105 17.7239 40.478C18.3162 40.1598 18.8057 39.6795 19.1352 39.0934C19.2634 38.861 19.3306 38.5999 19.3306 38.3345C19.3306 38.0691 19.2634 37.808 19.1352 37.5756C18.6492 36.7151 18.1066 35.8878 17.5109 35.0993C16.4602 33.6485 15.3032 32.2779 14.0493 30.9987C12.9899 29.9817 11.8694 29.0302 10.6943 28.1495C9.38954 27.1377 9.92208 26.6584 6.16762 30.9987C5.15846 32.1026 4.29082 33.328 3.58477 34.6466C2.39242 36.9572 1.59161 39.4497 1.21493 42.0224C0.779396 44.6995 1.00799 47.4425 1.88062 50.0106C3.58079 54.1608 6.53094 57.6786 10.3215 60.0757C12.7602 61.6608 15.467 62.7886 18.3097 63.4042C21.8848 64.336 25.6574 64.1716 29.1379 62.9323C32.6184 61.693 35.6459 59.436 37.8276 56.4544C37.9803 56.2378 38.0468 55.9719 38.014 55.7088C38.014 55.7088 38.2536 55.7088 38.3601 55.7088C38.4592 55.6144 38.5381 55.5007 38.592 55.3749C38.6459 55.249 38.6736 55.1135 38.6736 54.9766C38.6736 54.8397 38.6459 54.7042 38.592 54.5783C38.5381 54.4525 38.4592 54.3388 38.3601 54.2443C37.1885 52.5402 35.8571 50.9159 34.3926 49.3982ZM19.1085 60.3154C16.6613 59.6791 14.3388 58.6349 12.2387 57.2266C9.04531 55.2 6.52481 52.2718 4.99602 48.8124C4.18862 46.7665 3.88717 44.5559 4.11732 42.3685C4.2511 40.0722 4.76394 37.8139 5.63508 35.6851C6.13237 34.4612 6.78571 33.3066 7.57888 32.2501C8.233 31.4273 8.97398 30.6774 9.78895 30.0134C10.7254 30.8508 11.6143 31.7398 12.4517 32.6762C13.5321 33.95 14.503 35.3129 15.3541 36.7502C15.3541 36.7502 15.6203 37.6555 15.9132 38.2413C15.0079 38.5875 13.9162 38.8271 13.0641 39.2265C12.5008 39.4685 11.9864 39.8114 11.5464 40.2383C11.3733 40.4476 11.2459 40.6907 11.1726 40.9521C11.0992 41.2135 11.0814 41.4874 11.1203 41.7561C11.2529 42.5224 11.4671 43.2722 11.7594 43.9928C12.2245 45.2491 12.851 46.4396 13.6233 47.5342C14.3855 48.6416 15.2796 49.652 16.286 50.5431L18.6026 52.3804C19.4527 52.9574 20.3425 53.4735 21.2653 53.9248C21.8579 54.1996 22.5307 54.2469 23.1559 54.058C23.9984 53.7277 24.7156 53.1408 25.2062 52.3804C25.9784 51.342 26.6174 49.7177 27.363 48.6526C27.5176 48.3209 27.6955 48.0005 27.8956 47.694C28.4669 48.1247 29.1058 48.4576 29.7861 48.6792C30.8753 49.4388 31.9158 50.2659 32.9015 51.1556C34.2595 52.4071 35.5642 53.8183 36.7358 55.0964C36.7358 55.0964 36.5228 55.0964 36.4429 55.2828C34.3977 57.7714 31.648 59.5836 28.5545 60.4817C25.4611 61.3798 22.1684 61.3218 19.1085 60.3154Z" fill="#032C4D"/>
<path fill-rule="evenodd" clip-rule="evenodd" d="M30.9045 21.7325C31.7242 20.2486 31.9975 18.5243 31.6767 16.8597C31.4884 15.9933 31.1084 15.18 30.5647 14.4797C30.021 13.7793 29.3273 13.2096 28.5347 12.8123C27.7795 12.4174 26.9467 12.1936 26.0954 12.1568C25.244 12.12 24.395 12.2711 23.6086 12.5993C22.8562 12.909 22.1762 13.3714 21.6116 13.9573C20.8876 14.6941 20.2449 15.5064 19.6944 16.3804C19.621 16.4783 19.5675 16.5897 19.5372 16.7083C19.5068 16.8268 19.5001 16.9502 19.5174 17.0714C19.5347 17.1925 19.5757 17.3091 19.638 17.4144C19.7004 17.5197 19.7829 17.6117 19.8808 17.6851C20.0766 17.8252 20.3191 17.884 20.5574 17.8493C20.7956 17.8145 21.0112 17.6889 21.1589 17.4987C21.7131 16.789 22.3475 16.1457 23.0494 15.5816C23.4376 15.2508 23.8913 15.0059 24.3808 14.8626C24.8347 14.7485 25.3081 14.7346 25.768 14.822C26.2278 14.9093 26.6631 15.0959 27.0435 15.3685C27.3926 15.5971 27.6877 15.8989 27.9084 16.253C28.1291 16.607 28.2701 17.0048 28.3217 17.4189C28.438 18.3474 28.2311 19.2876 27.7359 20.0816C26.8471 21.63 25.7345 23.0387 24.4341 24.2621C24.221 24.5017 22.4104 26.2325 21.7713 26.9248C21.5726 27.1504 21.4322 27.4213 21.3626 27.7138C21.2929 28.0063 21.2961 28.3114 21.3719 28.6023C21.4624 28.8801 21.6312 29.1258 21.8579 29.31C22.0846 29.4942 22.3596 29.6091 22.65 29.6408H24.4607L30.3453 29.4811C30.6234 29.4883 30.8933 29.3866 31.0973 29.1975C31.3013 29.0084 31.4232 28.747 31.4371 28.4692C31.4374 28.1957 31.3325 27.9326 31.1442 27.7343C30.9558 27.536 30.6984 27.4178 30.4252 27.4041L25.6323 27.058C26.1382 26.7384 26.6175 26.4988 26.6974 26.4455C28.3366 25.1032 29.7561 23.513 30.9045 21.7325Z" fill="#032C4D"/>
<path fill-rule="evenodd" clip-rule="evenodd" d="M47.5998 22.3968C47.5929 22.1119 47.4748 21.841 47.2708 21.642C47.0668 21.443 46.7931 21.3316 46.5081 21.3317L43.8454 21.1187V19.3613C43.8454 17.4441 43.4193 15.5802 43.1797 13.663C43.1797 13.4229 43.0843 13.1927 42.9145 13.0229C42.7447 12.8531 42.5145 12.7577 42.2744 12.7577C42.1532 12.7542 42.0326 12.7749 41.9197 12.8188C41.8068 12.8627 41.7038 12.9289 41.6169 13.0133C41.53 13.0977 41.4609 13.1987 41.4138 13.3103C41.3666 13.4219 41.3423 13.5419 41.3424 13.663C41.0761 15.5536 40.73 17.3642 40.4903 19.2814V20.7193H39.5051C38.947 20.6549 38.4207 20.4254 37.9938 20.0601C37.5669 19.6948 37.2587 19.2105 37.1086 18.669C36.5996 17.2143 36.2687 15.7033 36.1234 14.169C36.1039 13.9475 36.0035 13.7409 35.8415 13.5887C35.6794 13.4365 35.467 13.3492 35.2447 13.3435C35.1201 13.34 34.9961 13.3614 34.8799 13.4067C34.7637 13.4519 34.6578 13.52 34.5685 13.6069C34.4791 13.6938 34.408 13.7977 34.3595 13.9126C34.3111 14.0274 34.2861 14.1508 34.2861 14.2755C33.8053 16.4704 33.8877 18.7513 34.5258 20.9057C34.9379 21.7284 35.5431 22.4391 36.2896 22.977C37.0362 23.5149 37.9019 23.864 38.8128 23.9945C39.2918 24.0181 39.7717 24.0181 40.2507 23.9945C40.2507 25.9116 40.5169 27.7489 40.6235 29.6661C40.6199 29.8025 40.6433 29.9382 40.6922 30.0656C40.7412 30.1929 40.8147 30.3094 40.9087 30.4083C41.0027 30.5072 41.1152 30.5866 41.2399 30.642C41.3645 30.6974 41.4989 30.7277 41.6353 30.7312C41.9045 30.7319 42.1639 30.6308 42.3615 30.448C42.5591 30.2652 42.6802 30.0144 42.7004 29.746C42.9933 27.8821 43.3394 26.0181 43.5525 24.1276C43.5396 23.977 43.5396 23.8256 43.5525 23.6749L46.375 23.3554C46.5185 23.374 46.6643 23.3639 46.8039 23.3256C46.9435 23.2873 47.074 23.2217 47.188 23.1325C47.302 23.0433 47.3971 22.9323 47.4678 22.806C47.5385 22.6797 47.5834 22.5406 47.5998 22.3968Z" fill="#032C4D"/>
</svg>
