<svg width="58" height="64" viewBox="0 0 58 64" fill="none" xmlns="http://www.w3.org/2000/svg">
<path d="M41.6825 27.9489C41.5941 27.7402 41.4264 27.5753 41.2164 27.4902C41.0063 27.4052 40.7711 27.4071 40.5625 27.4955C40.3538 27.5839 40.1889 27.7516 40.1038 27.9617C40.0188 28.1717 40.0207 28.4069 40.1091 28.6155C41.3091 31.6822 40.4825 41.8155 36.4558 45.9222C29.6291 52.9889 10.0291 49.7355 10.0291 37.5755C10.2442 34.1354 11.4483 30.8306 13.4967 28.0584C15.5451 25.2863 18.3505 23.1647 21.5758 21.9489C23.2797 24.3763 25.6978 26.2124 28.4937 27.2017C31.2896 28.191 34.3244 28.2844 37.1758 27.4689C37.3986 27.4229 37.594 27.2903 37.719 27.1003C37.844 26.9102 37.8884 26.6783 37.8425 26.4555C37.7965 26.2328 37.6639 26.0374 37.4739 25.9123C37.2838 25.7873 37.0519 25.7429 36.8291 25.7889C31.4958 26.4822 24.2958 22.4822 21.5225 19.0422C21.4128 18.876 21.2417 18.7602 21.0467 18.7201C20.8516 18.6801 20.6487 18.7193 20.4825 18.8289C20.3163 18.9385 20.2004 19.1097 20.1604 19.3047C20.1204 19.4997 20.1595 19.7027 20.2691 19.8689C20.4025 20.1355 20.5625 20.3755 20.6958 20.6155C18.0621 21.5402 15.6571 23.0182 13.6424 24.9501C11.6277 26.882 10.0501 29.223 9.0158 31.8155C0.162468 51.9755 34.0291 60.2155 40.7758 43.4422C42.2425 39.7355 43.3091 31.6555 41.6825 27.9489Z" fill="#77A4FD"/>
<path d="M1.54914 49.2822C4.2158 49.0156 -2.63753 35.5489 9.14914 22.6156C15.8958 15.2555 25.8691 11.4156 34.6425 16.2422C34.7389 16.3132 34.8493 16.3631 34.9663 16.3886C35.0833 16.4141 35.2044 16.4147 35.3217 16.3904C35.439 16.366 35.5498 16.3172 35.647 16.2472C35.7441 16.1772 35.8255 16.0875 35.8857 15.984C35.946 15.8805 35.9837 15.7654 35.9966 15.6463C36.0094 15.5273 35.997 15.4068 35.9603 15.2928C35.9235 15.1788 35.8631 15.0739 35.7831 14.9847C35.7031 14.8956 35.6052 14.8243 35.4958 14.7756C21.1758 5.92222 1.0158 18.8289 0.0291374 37.3356C-0.0871759 41.1354 0.144905 44.938 0.722471 48.6956C0.771308 48.8738 0.880334 49.0296 1.03103 49.1365C1.18172 49.2435 1.36479 49.2949 1.54914 49.2822Z" fill="#77A4FD"/>
<path d="M56.7758 13.3355C56.1625 12.9088 55.5492 13.1488 55.2025 13.0955C53.9523 12.9471 52.788 12.3837 51.8958 11.4955C50.9281 10.1212 50.2894 8.54269 50.0292 6.88212C49.7516 5.19929 49.68 3.48893 49.8158 1.78879C49.5758 -0.557877 47.5758 -0.291211 47.1492 0.855456C47.1492 1.12212 46.7492 11.5221 39.4425 13.6288C39.3292 13.638 39.2194 13.672 39.1208 13.7285C39.0222 13.785 38.9373 13.8625 38.872 13.9555C38.8068 14.0485 38.7628 14.1547 38.7433 14.2667C38.7238 14.3786 38.7292 14.4934 38.7591 14.6031C38.789 14.7127 38.8426 14.8144 38.9163 14.9009C38.9899 14.9874 39.0817 15.0566 39.1852 15.1036C39.2886 15.1506 39.4011 15.1743 39.5147 15.1729C39.6284 15.1714 39.7403 15.145 39.8425 15.0955C41.5254 14.5828 43.0802 13.7186 44.4041 12.5602C45.7281 11.4017 46.791 9.97537 47.5225 8.37546C47.8454 10.1748 48.5851 11.8734 49.6825 13.3355C50.4911 14.2464 51.533 14.9195 52.6958 15.2821C50.6129 16.3917 49.0163 18.2353 48.2158 20.4555C47.3625 16.4821 41.7358 13.7621 41.2825 15.6021C41.2328 15.821 41.2687 16.0506 41.3827 16.2439C41.4967 16.4372 41.6803 16.5797 41.8958 16.6421C42.9039 16.9032 43.8242 17.4278 44.5625 18.1621C45.8385 19.4496 46.5732 21.1766 46.6158 22.9888C46.7492 23.8688 46.6158 24.5355 47.1492 25.0955C48.1892 26.0821 49.0425 24.9621 49.6292 23.6555C50.5892 21.5221 50.2425 20.4021 52.6425 18.5888C55.0425 16.7755 57.5225 15.9221 57.4425 14.3755C57.4174 14.1629 57.3443 13.9589 57.2288 13.7788C57.1133 13.5986 56.9584 13.447 56.7758 13.3355Z" fill="#77A4FD"/>
<path d="M10.9891 53.6821C10.2691 53.1755 10.4025 53.1221 9.36247 50.6955C9.12247 50.1088 9.36247 49.0955 8.2958 48.7488C7.93124 48.6079 7.526 48.6156 7.16704 48.7702C6.80808 48.9247 6.52401 49.2138 6.3758 49.5755C5.7358 50.9621 5.94913 52.9088 3.84247 54.2955C1.7358 55.6821 0.535799 55.1221 0.775799 56.2688C1.0158 57.4155 1.8158 56.8288 2.64247 56.6421C2.82913 57.5488 3.68247 56.9621 5.12247 58.5888C6.00759 59.6062 6.47448 60.9211 6.42913 62.2688C6.6158 63.4688 7.06913 64.2688 8.2158 63.9221C9.36247 63.5755 8.98913 62.7755 9.04247 62.5088C9.38499 61.5676 9.84174 60.672 10.4025 59.8421C11.6291 58.1355 15.0691 57.1755 14.0825 55.2821C13.5491 54.2955 12.3491 54.6688 10.9891 53.6821ZM7.84247 59.0155C7.13135 57.7091 6.03173 56.6561 4.6958 56.0021C5.77634 55.4448 6.69483 54.6182 7.36247 53.6021C7.62913 53.2288 7.36247 52.6155 7.92247 54.3755C8.39335 55.2919 9.13936 56.0379 10.0558 56.5088C9.13109 57.1363 8.37175 57.9779 7.84247 58.9621V59.0155Z" fill="#77A4FD"/>
<path d="M48.5891 28.0555C48.529 27.8646 48.3955 27.7053 48.218 27.6128C48.0404 27.5203 47.8334 27.5021 47.6424 27.5622C47.4515 27.6223 47.2922 27.7558 47.1997 27.9333C47.1072 28.1109 47.089 28.3179 47.1491 28.5088C48.3491 33.8422 47.3091 45.0688 46.3491 50.1888C46.3337 50.3952 46.3916 50.6004 46.5124 50.7683C46.6333 50.9363 46.8095 51.0563 47.0101 51.1072C47.2106 51.1581 47.4227 51.1368 47.6091 51.0468C47.7955 50.9569 47.9442 50.8042 48.0291 50.6155C50.5891 42.6688 51.7091 35.9755 48.5891 28.0555Z" fill="#77A4FD"/>
<path d="M28.6958 42.1355C28.7781 42.0559 28.8435 41.9606 28.8881 41.8553C28.9328 41.7499 28.9558 41.6366 28.9558 41.5222C28.9558 41.4077 28.9328 41.2945 28.8881 41.1891C28.8435 41.0837 28.7781 40.9884 28.6958 40.9088C27.7091 39.7622 26.7758 42.4022 23.9225 41.5222C22.6575 41.1088 21.5438 40.3292 20.7225 39.2822C20.6139 39.1342 20.4562 39.0296 20.2777 38.9872C20.0991 38.9448 19.9112 38.9673 19.7477 39.0507C19.5842 39.134 19.4557 39.2728 19.3851 39.4423C19.3145 39.6117 19.3065 39.8007 19.3625 39.9755C21.2025 45.3355 25.6558 45.7088 28.6958 42.1355Z" fill="#77A4FD"/>
<path d="M30.5892 34.6687C31.636 34.5377 32.6977 34.7333 33.6292 35.2287C33.7921 35.3805 34.0065 35.465 34.2292 35.465C34.4518 35.465 34.6663 35.3805 34.8292 35.2287C35.8958 34.002 31.9492 30.9887 29.1492 32.0554C28.5756 32.2434 28.0449 32.5427 27.5873 32.9363C27.1297 33.3298 26.7542 33.8098 26.4825 34.3487C26.3587 34.5043 26.3018 34.7027 26.3243 34.9002C26.3468 35.0978 26.4469 35.2783 26.6025 35.402C26.7581 35.5258 26.9565 35.5827 27.154 35.5602C27.3515 35.5377 27.5321 35.4376 27.6558 35.282C28.5438 34.7715 29.5711 34.5567 30.5892 34.6687Z" fill="#77A4FD"/>
<path d="M22.0291 34.6687C22.1564 34.8243 22.3403 34.923 22.5404 34.943C22.7404 34.963 22.9402 34.9027 23.0958 34.7754C23.2514 34.6481 23.3501 34.4642 23.3701 34.2641C23.3901 34.0641 23.3298 33.8643 23.2025 33.7087C22.8104 32.984 22.2365 32.3739 21.5371 31.9383C20.8377 31.5027 20.0369 31.2566 19.2136 31.2243C18.3903 31.1921 17.5728 31.3746 16.8414 31.7541C16.1101 32.1336 15.4901 32.697 15.0425 33.3887C14.9475 33.4588 14.8682 33.5479 14.8094 33.6502C14.7506 33.7525 14.7137 33.8659 14.701 33.9832C14.6883 34.1006 14.7001 34.2192 14.7355 34.3318C14.771 34.4443 14.8295 34.5483 14.9072 34.6371C14.9849 34.7259 15.0802 34.7976 15.187 34.8478C15.2939 34.8979 15.4099 34.9253 15.5279 34.9282C15.6459 34.9312 15.7632 34.9097 15.8724 34.865C15.9816 34.8203 16.0804 34.7535 16.1625 34.6687C17.0983 34.1861 18.1561 33.9912 19.2025 34.1087C20.1798 34.0015 21.1665 34.197 22.0291 34.6687Z" fill="#77A4FD"/>
</svg>
