<svg width="40" height="40" viewBox="0 0 40 40" fill="none" xmlns="http://www.w3.org/2000/svg">
<rect width="40" height="40" fill="#77A4FD"/>
<path d="M14.4 6.66699H25.6C29.8667 6.66699 33.3334 10.1337 33.3334 14.4003V25.6003C33.3334 27.6513 32.5186 29.6183 31.0683 31.0686C29.618 32.5189 27.651 33.3337 25.6 33.3337H14.4C10.1334 33.3337 6.66669 29.867 6.66669 25.6003V14.4003C6.66669 12.3493 7.48145 10.3823 8.93173 8.93203C10.382 7.48175 12.349 6.66699 14.4 6.66699ZM14.1334 9.33366C12.8603 9.33366 11.6394 9.83937 10.7392 10.7395C9.83907 11.6397 9.33335 12.8606 9.33335 14.1337V25.867C9.33335 28.5203 11.48 30.667 14.1334 30.667H25.8667C27.1397 30.667 28.3606 30.1613 29.2608 29.2611C30.161 28.3609 30.6667 27.14 30.6667 25.867V14.1337C30.6667 11.4803 28.52 9.33366 25.8667 9.33366H14.1334ZM27 11.3337C27.442 11.3337 27.866 11.5093 28.1785 11.8218C28.4911 12.1344 28.6667 12.5583 28.6667 13.0003C28.6667 13.4424 28.4911 13.8663 28.1785 14.1788C27.866 14.4914 27.442 14.667 27 14.667C26.558 14.667 26.1341 14.4914 25.8215 14.1788C25.5089 13.8663 25.3334 13.4424 25.3334 13.0003C25.3334 12.5583 25.5089 12.1344 25.8215 11.8218C26.1341 11.5093 26.558 11.3337 27 11.3337ZM20 13.3337C21.7681 13.3337 23.4638 14.036 24.7141 15.2863C25.9643 16.5365 26.6667 18.2322 26.6667 20.0003C26.6667 21.7684 25.9643 23.4641 24.7141 24.7144C23.4638 25.9646 21.7681 26.667 20 26.667C18.2319 26.667 16.5362 25.9646 15.286 24.7144C14.0357 23.4641 13.3334 21.7684 13.3334 20.0003C13.3334 18.2322 14.0357 16.5365 15.286 15.2863C16.5362 14.036 18.2319 13.3337 20 13.3337ZM20 16.0003C18.9392 16.0003 17.9217 16.4218 17.1716 17.1719C16.4214 17.922 16 18.9395 16 20.0003C16 21.0612 16.4214 22.0786 17.1716 22.8288C17.9217 23.5789 18.9392 24.0003 20 24.0003C21.0609 24.0003 22.0783 23.5789 22.8284 22.8288C23.5786 22.0786 24 21.0612 24 20.0003C24 18.9395 23.5786 17.922 22.8284 17.1719C22.0783 16.4218 21.0609 16.0003 20 16.0003Z" fill="white"/>
</svg>
