<svg width="65" height="59" viewBox="0 0 65 59" fill="none" xmlns="http://www.w3.org/2000/svg">
<path d="M28.4565 51.1021C27.6956 49.2886 26.4385 47.7266 24.8298 46.5954C23.9093 45.955 22.9156 45.4268 21.8698 45.0221C23.1136 43.8323 23.9812 42.3038 24.3651 40.6259C24.749 38.948 24.6324 37.1944 24.0298 35.5821C23.1967 33.1816 21.4602 31.2006 19.1894 30.0603C16.9187 28.9199 14.2928 28.7101 11.8698 29.4754C10.2824 29.967 8.85728 30.8781 7.74486 32.1125C6.63244 33.347 5.87406 34.859 5.5498 36.4888C5.14589 38.0604 5.16241 39.7107 5.5977 41.274C6.03299 42.8373 6.87174 44.2586 8.0298 45.3954L8.21646 45.5554C7.54414 45.8359 6.89347 46.1657 6.2698 46.5421C5.4874 47.0477 4.76303 47.6379 4.1098 48.3021C3.44332 48.9893 2.84497 49.7395 2.32313 50.5421C1.22837 52.3135 0.452208 54.263 0.0297981 56.3021C-0.0287239 56.5212 -0.000374675 56.7545 0.108932 56.9532C0.218238 57.152 0.40006 57.3008 0.616465 57.3688C0.832176 57.4355 1.06556 57.4141 1.2655 57.3091C1.46543 57.2042 1.61561 57.0242 1.68313 56.8088C2.38588 55.0875 3.33832 53.4791 4.5098 52.0354C4.9898 51.4488 5.52313 50.8888 6.08313 50.3288C6.64313 49.7688 7.1498 49.2888 7.76313 48.7821C8.60638 48.0648 9.49731 47.4055 10.4298 46.8088C10.6627 46.8959 10.904 46.9584 11.1498 46.9954C12.8336 47.3033 14.5593 47.3033 16.2431 46.9954C16.3769 46.972 16.5029 46.9159 16.6099 46.8322C16.7168 46.7485 16.8015 46.6397 16.8565 46.5154C16.8215 46.6283 16.8215 46.7492 16.8565 46.8621C16.9397 47.0692 17.1008 47.2354 17.3052 47.3252C17.5096 47.4149 17.741 47.421 17.9498 47.3421C18.5983 47.108 19.2232 46.8133 19.8165 46.4621C20.9059 47.1523 21.9321 47.9376 22.8831 48.8088C23.451 49.3443 23.9853 49.9142 24.4831 50.5154C24.99 51.1157 25.445 51.758 25.8431 52.4354C26.7905 54.1288 27.5591 55.9162 28.1365 57.7688C28.1491 57.8886 28.1869 58.0044 28.2475 58.1085C28.3081 58.2127 28.39 58.3028 28.488 58.373C28.5859 58.4432 28.6976 58.4918 28.8156 58.5158C28.9337 58.5397 29.0555 58.5383 29.1731 58.5118C29.2906 58.4853 29.4012 58.4341 29.4975 58.3618C29.5938 58.2894 29.6738 58.1975 29.732 58.0921C29.7903 57.9866 29.8256 57.87 29.8355 57.7499C29.8455 57.6299 29.8299 57.509 29.7898 57.3954C29.6429 55.2455 29.194 53.1269 28.4565 51.1021ZM17.5231 45.7688C17.4071 45.8141 17.3033 45.886 17.22 45.9786C17.1366 46.0712 17.0761 46.182 17.0431 46.3021V46.1688C17.0301 46.0703 16.9975 45.9754 16.9473 45.8897C16.8972 45.8039 16.8304 45.7291 16.7509 45.6695C16.6715 45.6099 16.5809 45.5667 16.4845 45.5426C16.3882 45.5184 16.288 45.5137 16.1898 45.5288C5.84313 46.5688 8.0298 37.9021 8.0298 37.2088C8.28147 36.0732 8.82816 35.0242 9.61472 34.1674C10.4013 33.3106 11.3999 32.6764 12.5098 32.3288C14.2627 31.732 16.1778 31.8308 17.8599 32.6049C19.542 33.379 20.8628 34.7692 21.5498 36.4888C21.8975 37.3545 22.0689 38.2809 22.0541 39.2137C22.0393 40.1466 21.8385 41.0671 21.4636 41.9213C21.0886 42.7756 20.5469 43.5465 19.8703 44.1888C19.1937 44.8311 18.3957 45.332 17.5231 45.6621V45.7688Z" fill="#77A4FD"/>
<path d="M62.2698 17.1554L61.6031 16.702C62.2869 15.1446 62.7621 13.5038 63.0165 11.822C63.32 9.5809 63.0256 7.29935 62.1631 5.20869C61.5 3.87411 60.527 2.71772 59.3254 1.83624C58.1238 0.954758 56.7286 0.373823 55.2565 0.142023C53.7778 -0.122024 52.2568 -0.0167686 50.8286 0.44844C49.4004 0.913649 48.1093 1.72441 47.0698 2.80869C46.1687 3.84147 45.4719 5.03596 45.0165 6.32869C44.419 8.06656 43.9641 9.85024 43.6565 11.662L41.8965 11.342H41.7098C41.5649 11.3043 41.4123 11.3094 41.2703 11.3567C41.1282 11.4041 41.003 11.4916 40.9098 11.6087C39.8765 12.8495 38.9823 14.1998 38.2431 15.6354C37.48 17.0379 36.8118 18.49 36.2431 19.982C35.3296 21.7156 34.6226 23.5504 34.1365 25.4487C33.9416 26.4583 34.034 27.5023 34.4031 28.462C34.7893 29.354 35.3837 30.1405 36.1365 30.7554C37.1386 31.5468 38.2417 32.2014 39.4165 32.702C41.4176 33.644 43.4854 34.4372 45.6031 35.0754C47.7185 35.7101 49.8746 36.2001 52.0565 36.542C53.2252 36.7631 54.4139 36.8614 55.6031 36.8354C56.5296 36.8072 57.4391 36.5798 58.2698 36.1687C59.4211 35.588 60.3557 34.6533 60.9365 33.502C61.574 32.0222 62.0739 30.4869 62.4298 28.9154C63.3429 26.3665 63.8818 23.6988 64.0298 20.9954C64.0353 20.2655 63.8806 19.5433 63.5765 18.8798C63.2724 18.2163 62.8263 17.6276 62.2698 17.1554ZM46.8831 7.04869C47.3413 6.04207 47.9938 5.13584 48.8031 4.38202C49.6107 3.69037 50.5704 3.19939 51.6038 2.94914C52.6373 2.69889 53.7152 2.69646 54.7498 2.94202C55.7956 3.0959 56.7919 3.48868 57.6613 4.08989C58.5307 4.6911 59.25 5.48456 59.7631 6.40869C60.5852 7.9935 60.9543 9.77435 60.8298 11.5554C60.7337 13.0262 60.4468 14.4784 59.9765 15.8754C59.2785 15.6131 58.5662 15.3905 57.8431 15.2087L53.3631 14.142C51.0431 13.5554 48.8031 12.8887 46.5365 12.3287L45.0431 12.0087C45.528 10.3105 46.1432 8.65226 46.8831 7.04869ZM61.3631 22.0087C60.9865 24.0729 60.4242 26.0989 59.6831 28.062C59.3799 29.4383 58.933 30.779 58.3498 32.062C58.0424 32.7063 57.5505 33.2447 56.9365 33.6087C56.4465 33.8144 55.9212 33.9231 55.3898 33.9287C54.3986 33.9535 53.4072 33.882 52.4298 33.7154C50.37 33.3903 48.331 32.9451 46.3231 32.382C44.3011 31.84 42.315 31.1721 40.3765 30.382C39.4281 29.9989 38.532 29.4971 37.7098 28.8887C37.225 28.5328 36.8319 28.0666 36.5631 27.5287C36.2825 26.735 36.2825 25.8691 36.5631 25.0754C37.0137 23.5712 37.5478 22.0933 38.1631 20.6487C38.6623 19.2006 39.25 17.7846 39.9231 16.4087C40.4153 15.2927 41.0042 14.222 41.6831 13.2087C43.2031 13.502 44.6965 13.8754 46.1098 14.2754C48.3765 14.9154 50.5898 15.662 52.9098 16.3287L57.2031 17.6087C57.994 17.8324 58.769 18.1086 59.5231 18.4354C59.9536 18.6424 60.3567 18.9021 60.7231 19.2087C61.0463 19.59 61.2731 20.0434 61.3845 20.5307C61.4959 21.0179 61.4885 21.5248 61.3631 22.0087Z" fill="#77A4FD"/>
<path d="M49.9498 21.2087C47.2831 20.382 43.5498 22.5954 45.9231 25.262C49.0698 28.862 55.7098 23.102 49.9498 21.2087Z" fill="#77A4FD"/>
<path d="M31.0165 12.0621C28.5446 11.508 25.9637 11.703 23.6031 12.6221C22.603 13.0066 21.6391 13.4796 20.7231 14.0355C19.8282 14.6128 18.9969 15.2832 18.2431 16.0355C16.4411 17.7948 15.1823 20.0347 14.6165 22.4888C14.6122 22.6559 14.6622 22.8199 14.759 22.9562C14.8558 23.0924 14.9942 23.1937 15.1533 23.2448C15.3125 23.2958 15.484 23.2939 15.642 23.2394C15.8 23.1848 15.936 23.0805 16.0298 22.9421C16.9259 21.0088 18.3032 19.3377 20.0298 18.0888C20.7341 17.5107 21.4733 16.9763 22.2431 16.4888C23.0038 15.9843 23.7966 15.53 24.6165 15.1288C26.4726 14.13 28.564 13.651 30.6698 13.7421C30.8885 13.7717 31.1101 13.7155 31.2882 13.5852C31.4663 13.4549 31.5869 13.2606 31.6249 13.0433C31.6629 12.8259 31.6151 12.6023 31.4917 12.4193C31.3683 12.2364 31.1789 12.1084 30.9631 12.0621H31.0165Z" fill="#77A4FD"/>
<path d="M48.7498 37.2086C48.5484 37.1778 48.343 37.2278 48.1782 37.3476C48.0134 37.4675 47.9026 37.6475 47.8698 37.8486C47.1791 40.0365 46.0341 42.0538 44.5098 43.7686C43.9108 44.532 43.2604 45.2537 42.5631 45.9286C41.8973 46.6172 41.1845 47.2587 40.4298 47.8486C38.7148 49.2696 36.5981 50.1181 34.3765 50.2752C34.1474 50.2679 33.9246 50.3501 33.7553 50.5045C33.586 50.6589 33.4836 50.8732 33.4698 51.1019C33.4626 51.214 33.4775 51.3264 33.5139 51.4328C33.5502 51.5391 33.6072 51.6371 33.6815 51.7214C33.7558 51.8056 33.846 51.8744 33.947 51.9236C34.048 51.9729 34.1576 52.0018 34.2698 52.0086C36.9715 52.2329 39.6715 51.5579 41.9498 50.0886C42.9176 49.5028 43.8127 48.8046 44.6165 48.0086C45.4173 47.1953 46.1322 46.3017 46.7498 45.3419C48.2155 43.1573 49.1305 40.6504 49.4165 38.0352C49.4257 37.8398 49.3629 37.6477 49.2401 37.4953C49.1172 37.343 48.9428 37.241 48.7498 37.2086Z" fill="#77A4FD"/>
</svg>
