<svg width="96" height="96" viewBox="0 0 96 96" fill="none" xmlns="http://www.w3.org/2000/svg">
<g clip-path="url(#clip0_407_8805)">
<rect width="96" height="96" fill="white"/>
<path d="M27.6643 49.3852C31.5932 47.7892 32.02 48.8366 33.7234 48.2408C37.2005 47.0243 35.3728 46.1633 40.458 45.9238L45.2944 48.7326L45.7627 48.9849L46.8112 49.1051C46.1896 53.0226 44.8675 56.7284 41.9333 59.618L40.9885 59.9516C34.0093 63.0006 31.6512 61.5082 25.4181 62.0481C25.2606 64.0924 24.9373 67.0346 24.9912 69.0064C27.6146 70.3828 35.8453 70.7541 39.1608 70.9086C35.2112 79.066 34.5771 79.2811 26.3257 75.6159L25.9983 75.9515C25.1072 77.6457 24.7177 77.8931 23.2962 79.0598L22.3471 79.2248C18.2939 79.0698 18.3727 79.5583 16.0643 76.348L15.4053 76.2055C16.0394 75.18 16.8268 74.0733 17.5065 73.0632L16.4828 71.8322C16.4414 70.4524 16.7522 70.5602 17.0091 69.7021C17.15 68.6546 16.4248 66.6605 16.2922 65.5053C15.8031 61.3276 16.0808 59.4199 20.4365 58.0348C22.5377 57.3669 23.4744 53.4743 24.2494 51.3135L26.9971 48.7703L27.6643 49.3852Z" fill="#032C4D"/>
<path d="M23.9259 68.406C21.0124 68.0359 17.1084 69.6887 16.437 64.2523C15.9811 60.5527 19.4168 61.1166 20.0675 60.4151L19.1599 59.1986L19.363 58.8613C21.0497 59.1849 22.9561 61.0275 24.6885 62.1644L25.4179 62.0468C25.2604 64.0911 24.9371 67.0333 24.991 69.0051L23.9259 68.406Z" fill="#F9F8F9"/>
<path d="M24.6883 62.1665L25.4177 62.0488C25.2603 64.0932 24.937 67.0353 24.9909 69.0071L23.9258 68.408L24.6883 62.1665Z" fill="#032C4D"/>
<path d="M17.9996 73.1944C19.6532 71.9129 22.5502 73.9307 24.2328 74.9321L25.1653 75.6891L25.9983 75.9506C25.1072 77.6448 24.7177 77.8922 23.2962 79.0589L22.3471 79.2238C18.2939 79.0689 18.3727 79.5574 16.0643 76.3471L15.4053 76.2046C16.0394 75.1791 16.8268 74.0724 17.5065 73.0622L17.9996 73.1944Z" fill="#F9F8F9"/>
<path d="M25.1658 75.6895L25.9989 75.9509C25.1078 77.6451 24.7182 77.8925 23.2967 79.0592L22.3477 79.2241C23.4376 77.7586 23.9474 77.793 25.1658 75.6895Z" fill="#757575"/>
<path d="M17.5065 73.0625L17.9996 73.1947C17.3448 74.4804 17.0175 75.2212 16.0643 76.3474L15.4053 76.2048C16.0394 75.1793 16.8268 74.0726 17.5065 73.0625Z" fill="#57646F"/>
<path d="M25.0908 74.3239C25.5426 73.1239 25.8824 71.738 26.819 70.9648C26.9226 72.3748 26.7693 72.611 26.3466 74.0015L25.0908 74.3239Z" fill="#B7B6B7"/>
<path d="M24.2334 74.9334L25.0913 74.3243L26.347 74.002L26.3263 75.6162L25.9989 75.9518L25.1659 75.6904L24.2334 74.9334Z" fill="#032C4D"/>
<path d="M32.9113 51.5898C33.7277 53.8608 31.6141 57.9362 30.7106 60.1541C30.1636 58.1376 32.1653 53.5281 32.9113 51.5898Z" fill="#B7B6B7"/>
<path d="M55.0296 61.6152L56.3889 61.7967C57.3794 61.829 60.6866 65.1035 62.0791 66.0614L61.3497 67.1702C66.3976 72.0171 67.1684 78.0975 74.1599 78.6593L74.218 79.3765C69.713 89.478 51.9337 88.2424 44.0677 83.6384C42.2442 80.3693 39.8405 74.3813 38.4521 70.8412C40.5202 70.4261 43.9558 70.148 46.1441 69.9027C49.4305 67.5083 52.4145 64.7256 55.0296 61.6152Z" fill="#032C4D"/>
<path d="M56.3896 61.7969C57.3802 61.8292 60.6873 65.1037 62.0798 66.0616L61.3505 67.1704C59.9787 65.8462 57.1191 63.344 56.3896 61.7969Z" fill="#E9E8E9"/>
<path d="M42.6543 71.1465C42.7993 71.2347 43.0688 71.3798 43.2097 71.5086C44.54 72.7351 48.8833 81.3453 49.0325 83.0768C46.9852 80.406 43.0024 74.4011 42.6543 71.1465Z" fill="#919192"/>
<path d="M15.4047 76.2051L16.0637 76.3476C18.3721 79.5579 18.2933 79.0694 22.3465 79.2244L23.2956 79.0594C26.8183 82.273 27.9083 82.0969 31.9076 79.5521C32.9022 80.6277 32.9602 82.7276 33.0431 84.2084C33.3042 85.9196 33.4742 85.3814 32.753 86.6596C31.2818 87.7186 27.8917 88.3082 26.0433 88.6973C21.5508 89.6445 11.8654 92.4632 8.67427 87.8222L8.37589 87.6668C5.67376 87.8823 2.30024 88.5332 0.538885 86.0725C0.393833 85.7621 0.207363 85.0333 0.0996094 84.6704C0.35656 83.9772 0.547198 83.2525 1.28904 82.9194C6.05505 80.7698 10.7423 78.5767 15.4047 76.2051Z" fill="#032C4D"/>
<path d="M33.0437 84.209C33.3048 85.9202 33.4747 85.382 32.7536 86.6602C31.2823 87.7192 27.8922 88.3088 26.0438 88.6979C21.5513 89.6451 11.866 92.4638 8.6748 87.8228L9.11413 87.4673C15.3141 88.8719 26.3091 86.9742 32.3391 85.1731L33.0437 84.209Z" fill="#F9F8F9"/>
<path d="M33.0437 84.209C33.3048 85.9202 33.4747 85.382 32.7536 86.6602C31.2823 87.7192 27.8922 88.3088 26.0438 88.6979C21.5513 89.6451 11.866 92.4638 8.6748 87.8228L9.11413 87.4673C12.5415 91.9338 23.6982 87.9446 28.2984 87.2117C29.6619 86.995 31.2782 86.6403 32.4345 85.9073L32.3391 85.1731L33.0437 84.209Z" fill="#032C4D"/>
<path d="M8.87434 85.3613L9.21836 85.9078L9.11475 87.4674L8.67542 87.8229L8.37704 87.6675C5.67492 87.883 2.30139 88.5339 0.540039 86.0731L0.96692 85.8444C3.41209 85.803 6.54107 85.8689 8.87434 85.3613Z" fill="#E9E8E9"/>
<path d="M0.540039 86.0725L0.96692 85.8438C4.00888 88.0629 6.61983 86.0058 8.37704 87.6668C5.67492 87.8823 2.30139 88.5332 0.540039 86.0725Z" fill="#032C4D"/>
<path d="M8.87402 85.3602C10.5442 83.8073 15.6832 81.1274 17.6559 81.7667C15.849 83.9308 11.572 82.9803 9.21804 85.9067L8.87402 85.3602Z" fill="#919192"/>
<path d="M28.1659 31.1397C27.623 30.6159 27.5525 30.6064 26.9184 30.1838L26.7319 31.5188L26.334 31.4939C19.9807 23.5942 32.5506 16.4494 39.5256 17.2648C42.1158 17.5495 44.4781 18.884 46.0612 20.9569C48.1044 23.607 47.3211 24.8422 47.5863 27.9343C47.7314 29.6012 48.3406 30.2045 48.0837 32.0653L47.6195 32.4191C43.2804 32.0371 44.0719 28.5459 40.6321 28.947C41.1543 32.2612 40.4953 33.9472 39.7742 37.2498C39.4095 35.5672 39.2976 33.9343 38.1372 32.7593L37.097 32.6163C36.3261 32.6018 35.8495 32.3255 35.1367 32.0226C32.5216 31.8714 31.2617 31.9058 28.829 31.0091L28.1659 31.1397Z" fill="#032C4D"/>
<path d="M35.4306 31.3667C34.4732 30.93 32.8776 29.9986 32.6621 28.9648C34.1831 29.3335 34.8503 29.5975 36.2801 30.1713C38.1658 28.6524 38.112 28.8132 39.9852 30.0649L40.6317 28.9453C41.1539 32.2596 40.495 33.9455 39.7738 37.2482C39.4091 35.5656 39.2973 33.9327 38.1368 32.7576L37.0966 32.6147C36.3258 32.6002 35.8492 32.3238 35.1363 32.0209L35.4306 31.3667Z" fill="#E9E8E9"/>
<path d="M39.9861 30.0649L40.6326 28.9453C41.1548 32.2596 40.4959 33.9455 39.7747 37.2482C39.41 35.5656 39.2982 33.9327 38.1377 32.7576L37.6445 31.844C38.9003 31.411 38.4858 32.596 40.0731 31.9944L39.9861 30.0649Z" fill="#032C4D"/>
<path d="M35.431 31.3672C36.4132 31.9029 36.6204 31.8031 37.097 32.6151C36.3261 32.6006 35.8495 32.3243 35.1367 32.0214L35.431 31.3672Z" fill="#57646F"/>
<path d="M29.9355 4.61723C30.926 -0.404507 36.9105 -0.532949 39.4883 2.85838C39.625 3.66675 39.7576 4.36698 39.9359 5.16707C41.6931 6.33176 44.7474 7.72848 43.2969 10.0077C41.5894 10.9255 41.0134 11.1053 39.1898 10.4718L38.3154 10.3558C35.4434 11.7297 35.3646 11.6352 32.4346 10.3516L31.1664 10.686C30.2049 10.6769 30.2049 10.6019 29.4009 10.1279C28.8455 8.91678 29.3677 7.55653 29.6703 6.15566L29.2683 5.26774L29.9355 4.61723Z" fill="#F9F8F9"/>
<path d="M29.9355 4.61723C30.926 -0.404507 36.9105 -0.532949 39.4883 2.85838C39.6251 3.66675 39.7577 4.36698 39.9359 5.16706C41.6931 6.33176 44.7475 7.72848 43.297 10.0077C41.5895 10.9255 41.0134 11.1053 39.1899 10.4718L39.6789 9.81506C41.1543 9.98328 41.5895 9.82377 42.3355 8.68145C41.3284 4.57249 34.9212 6.45563 32.0533 7.10448C34.4446 5.4662 35.29 4.37982 38.2616 4.9139L38.6926 4.60148C37.155 0.457299 31.8461 -0.694133 30.4122 5.08791L29.9355 4.61723Z" fill="#032C4D"/>
<path d="M29.9355 4.61719L30.4121 5.08787L30.6276 5.90245L31.2451 6.01931C31.3487 6.81566 31.4358 6.85459 31.1332 7.57511C31.6015 8.18916 31.7673 8.42119 32.331 8.97433L32.6293 9.25939L32.4346 10.3516L31.1664 10.686C30.2049 10.6768 30.2049 10.6018 29.4009 10.1278C28.8455 8.91674 29.3677 7.55648 29.6703 6.15562L29.2683 5.2677L29.9355 4.61719Z" fill="#032C4D"/>
<path d="M31.1659 10.685C30.6479 10.1 30.366 9.72126 29.9102 9.101L30.0676 8.6875L32.3305 8.97339L32.6289 9.25845L32.4341 10.3507L31.1659 10.685Z" fill="#E9E8E9"/>
<path d="M37.2296 9.40645C36.4836 9.11062 36.5292 9.0957 35.9531 8.51977L36.4463 8.06733C38.1662 7.97079 38.2159 7.67329 39.4551 8.5003L39.6789 9.81497L39.1898 10.4717L38.3154 10.3557L37.4699 9.83113L37.2296 9.40645Z" fill="#032C4D"/>
<path d="M39.455 8.5L39.6788 9.81467L39.1898 10.4714L38.3153 10.3554L37.4698 9.83083L37.2295 9.40616C37.9921 9.16543 38.7132 8.82028 39.455 8.5Z" fill="#E9E8E9"/>
<path d="M32.6293 9.25977C34.7305 10.3598 35.2403 10.9693 37.4699 9.83155L38.3154 10.3561C35.4434 11.73 35.3646 11.6356 32.4346 10.352L32.6293 9.25977Z" fill="#032C4D"/>
<path d="M51.7346 36.0798C50.0727 35.2524 49.2107 34.9163 47.843 33.6543L47.8306 33.2109C49.3516 33.757 50.1804 34.6197 51.6144 35.148C53.5498 35.861 56.9897 36.4084 58.7427 37.2685C68.283 41.9464 82.5645 67.8891 77.3923 78.2608L77.0732 75.6538C77.6534 60.7211 68.1877 40.507 52.9323 36.1515C51.2912 38.2936 48.158 43.1794 46.9935 45.5498L47.8265 46.6284L47.2255 48.7112L46.8111 49.1032L45.7626 48.983L45.2942 48.7307C45.4973 47.7815 46.0112 46.3188 45.6838 45.6161L44.4986 46.1987C43.6738 45.8925 43.0936 42.7005 41.7467 40.4224C41.0712 40.9685 40.1221 41.7811 39.3803 42.2244C36.0441 44.2161 35.3478 39.745 32.2892 39.1703C31.365 38.9959 31.2573 38.9039 30.4202 38.4552C29.467 37.0502 30.2088 35.8826 29.583 33.9973L30.0389 33.6961C31.5764 35.6518 30.3207 36.8331 31.622 38.2874C38.3815 39.1339 35.2359 44.9503 42.0658 39.1144C43.0439 41.1811 44.2374 43.5424 44.9917 45.6675C46.9769 42.7415 49.5671 38.7788 51.7346 36.0798Z" fill="#032C4D"/>
<path d="M46.9936 45.5508L47.8266 46.6293L47.2257 48.7122L46.8112 49.1041L45.7627 48.984L46.9936 45.5508Z" fill="#F9F8F9"/>
<path d="M73.4391 12.4116C64.1599 8.28444 63.7247 9.11227 54.2176 10.2853C56.7166 4.25005 74.2556 13.3517 77.0448 10.0773C76.4438 5.54981 67.952 5.25068 64.8396 3.43216L65.0012 3C68.4079 3.59996 77.6664 5.6472 77.828 10.0594C77.2602 11.0626 77.0572 11.3054 76.3112 12.1933C79.2205 14.6101 82.938 15.3584 85.1304 18.8251C85.3251 19.1326 86.726 19.7565 87.2233 20.3088L86.5146 20.4021C84.9853 19.5535 85.1511 19.3513 83.5099 19.3638C82.594 19.3899 81.5165 19.3364 80.5882 19.3157C74.4379 19.7246 74.8234 21.0373 72.0052 21.462C73.7873 18.6515 80.3685 19.3555 82.623 17.8175C82.6686 15.343 76.6717 13.6766 74.5788 12.9188C72.345 13.5357 69.8087 14.1589 67.6868 15.0348C62.5436 12.3934 52.0045 9.31157 51.6398 18.2417C51.0886 17.7536 50.869 16.7514 50.8731 16.0942C50.927 11.3658 59.6053 11.4379 62.7218 12.0715C64.4583 12.4241 66.286 13.5514 67.5666 14.3134C69.4067 13.6683 71.5742 12.8421 73.4391 12.4116Z" fill="#043E6D"/>
<path d="M80.5879 19.3165C81.9763 18.8528 81.9763 19.0861 83.5097 19.3646C82.5938 19.3907 81.5162 19.3372 80.5879 19.3165Z" fill="#757575"/>
<path d="M67.3841 20.2424C69.3236 20.0311 68.6398 19.8828 70.2479 20.5552C71.5699 22.1123 71.1472 23.4241 70.7079 25.2451L69.5516 25.7365C67.5167 26.8175 63.7661 29.8827 62.5145 29.9399L62.0586 29.4282C62.2327 27.2927 64.9803 22.52 66.6464 20.8834L67.3841 20.2424Z" fill="#032C4D"/>
<path d="M64.7439 27.2649C64.5366 24.5232 65.6639 22.4677 68.1174 21.2699C69.5099 21.3092 68.9338 21.0623 69.9202 21.9958C70.0777 23.1866 70.1398 23.2843 69.7668 24.3914C68.2666 23.5541 68.3039 23.2355 66.8326 23.4306L66.3892 24.0774C67.4377 24.5936 68.0262 24.6169 68.3536 25.426C67.0523 26.403 66.2234 26.6691 64.7439 27.2649Z" fill="#F9F8F9"/>
<path d="M62.6016 29.1218C63.0616 28.2057 63.1901 28.0698 63.8615 27.278L64.7442 27.2656L64.7484 27.5486C64.0977 28.7415 64.1474 28.4117 62.6016 29.1218Z" fill="#E9E8E9"/>
<path d="M8.15276 26.5957C9.00235 26.9326 10.4488 27.4045 11.0746 27.9866C11.7667 29.5992 11.6423 29.3025 13.412 29.9381C9.88513 29.467 4.2198 28.7254 2.02743 32.2456C1.98599 33.2532 2.16005 33.8801 2.86045 34.6006C11.1119 43.116 16.197 35.0398 20.6439 35.5031C19.3384 36.0405 16.3254 36.9814 15.8198 37.9534L17.3906 38.2729L17.3988 38.4494C16.6487 38.9611 16.0478 39.3957 15.3225 39.953C15.2355 42.1018 17.7138 42.7502 19.4503 43.1571L19.9186 43.2648L19.7197 43.5851C16.1058 44.364 15.9276 43.0282 14.5641 40.5952C13.3167 38.3711 6.07231 39.0643 2.94332 36.403C1.94867 35.5702 1.37258 34.3429 1.36429 33.0469C1.34772 28.5373 7.14985 29.7935 8.7993 28.1345L7.40265 26.9077L8.15276 26.5957Z" fill="#57646F"/>
<path d="M50.7814 2.46302C48.9413 2.76424 49.3806 2.9743 47.9757 2.30266C47.5571 -0.710382 52.8453 -1.2983 54.5362 0.592721C57.6569 4.09095 54.3538 7.52577 49.9276 6.39091C50.6488 6.05198 51.4528 5.80049 52.2112 5.53242C51.3284 3.4508 51.2911 4.16717 51.776 2.4568L51.0715 2.37931L50.7814 2.46302Z" fill="#032C4D"/>
<path d="M50.7822 2.46361C49.4436 1.9979 49.4021 2.2494 48.8965 1.32958C50.3926 -0.0294386 52.6679 0.227037 54.2842 1.29602L54.6157 2.28338L54.28 2.80502C53.2771 2.24442 52.643 1.91919 51.5862 1.47254L51.1842 1.67637L51.0723 2.37991L50.7822 2.46361Z" fill="#E9E8E9"/>
<path d="M51.7766 2.45703C53.3805 3.18336 53.6084 2.99856 54.5907 4.31408C54.1141 5.4216 53.7203 5.48996 52.5309 5.9217L52.2118 5.53265C51.329 3.45103 51.2917 4.16741 51.7766 2.45703Z" fill="#E9E8E9"/>
<path d="M52.2113 5.5332L52.5304 5.92225C51.6684 6.09337 50.7939 6.29101 49.9277 6.39169C50.6489 6.05276 51.4529 5.80128 52.2113 5.5332Z" fill="#757575"/>
<path d="M26.9308 46.683C28.6673 43.1856 25.4389 36.6913 28.2943 35.6211L28.8082 36.41C27.826 40.7207 26.765 45.1956 32.4055 46.4005L32.7122 46.4643C31.4482 47.4487 30.7437 45.7901 27.6644 49.3841L26.9972 48.7692L24.2494 51.3124L24.0215 49.88C24.6058 48.3772 25.6585 47.7354 26.9308 46.683Z" fill="#032C4D"/>
<path d="M26.9308 46.6845C27.4696 46.5109 27.9587 46.3104 28.4518 46.0332L29.0817 46.3527C28.3275 47.3827 27.8882 47.8451 26.9972 48.7707L24.2494 51.3139L24.0215 49.8815C24.6058 48.3787 25.6585 47.7369 26.9308 46.6845Z" fill="#B7B6B7"/>
<path d="M17.983 14.2854C21.5388 15.7716 28.5552 11.8939 29.2183 13.042C26.9016 14.1098 22.55 15.4095 19.9639 16.2618L18.3518 15.6759C14.8167 16.29 7.64693 18.7076 6.20469 22.3679C5.91044 23.1079 5.98504 24.0016 6.3083 24.5647C6.673 25.1936 7.59303 26.1126 8.15252 26.5949L7.40241 26.9069L5.77366 25.5002C1.63759 18.1831 15.803 16.7143 17.5892 14.6658L17.983 14.2854Z" fill="#043E6D"/>
<path d="M55.0293 61.6156C56.7575 59.1222 59.2068 55.4636 61.5608 53.6562C59.9155 56.2661 58.6846 58.2077 56.7658 60.6544C58.4318 62.1393 62.17 65.6019 63.9853 66.5665C66.9526 68.1431 68.3865 68.279 71.2752 70.4778C67.3546 68.8727 65.5476 68.5391 62.0788 66.0618C60.6863 65.1039 57.3791 61.8294 56.3886 61.7971L55.0293 61.6156Z" fill="#57646F"/>
<path d="M78.3828 81.4904C82.378 80.3792 91.9142 81.4357 95.7435 83.1324L96.1 83.6065C92.3079 83.4009 88.9344 82.1724 84.6532 81.9831C82.4484 81.9926 80.513 82.1169 78.3828 81.4904Z" fill="#043E6D"/>
<path d="M78.3828 81.49C81.143 81.4448 81.9635 81.4696 84.6532 81.9826C82.4484 81.9921 80.513 82.1164 78.3828 81.49Z" fill="#757575"/>
<path d="M20.0059 19.5981C21.6471 19.4953 23.0106 19.6884 24.6103 20.0045C23.6323 20.8117 20.0142 20.7006 18.5968 20.9003C16.5164 21.1937 14.5105 22.3803 12.6539 23.3151C11.8084 23.9225 11.1867 24.319 10.1631 24.5539C12.0819 21.9241 16.9184 20.2999 20.0059 19.5981Z" fill="#57646F"/>
<path d="M23.2174 6.19197C24.8503 5.80001 27.5234 5.50872 29.2682 5.26758L29.6701 6.1555C27.196 6.22055 25.1155 6.43724 22.7698 7.33303C21.2364 9.04962 17.7966 12.0892 17.9831 14.2852L17.5893 14.6655C16.7853 11.3832 20.88 8.16544 23.2174 6.19197Z" fill="#57646F"/>
<path d="M76.108 82.9808C78.9593 82.7898 85.8928 82.4832 88.139 84.3531L87.563 84.7024C83.601 83.8095 79.237 84.5097 75.4697 83.4498L76.108 82.9808Z" fill="#57646F"/>
<path d="M87.2232 20.3086C93.1662 23.6506 86.8336 28.6777 82.2375 29.2474L82.2002 28.3334C85.5944 27.7799 89.113 26.7714 88.6323 22.539L86.5145 20.4018L87.2232 20.3086Z" fill="#043E6D"/>
<path d="M87.2233 20.3086L88.6324 22.539L86.5146 20.4018L87.2233 20.3086Z" fill="#B7B6B7"/>
<path d="M65.7468 19.4805C60.6368 17.7399 60.3798 18.3602 55.0419 19.6057L54.959 19.4661C57.2384 17.9471 57.9015 17.8373 60.5995 17.1855C63.1524 17.7743 63.8445 17.9678 66.186 19.0857L65.7468 19.4805Z" fill="#043E6D"/>
<path d="M15.7988 27.0449L16.0847 27.601L15.0652 28.8548L15.2932 29.5255L17.4772 30.3832L17.5311 31.231C16.3997 31.0632 14.5513 30.3385 13.4116 29.9378C11.642 29.3022 11.7663 29.5989 11.0742 27.9863C13.7805 28.8974 13.6852 28.5904 15.7988 27.0449Z" fill="#032C4D"/>
<path d="M53.1731 21.2363L53.314 21.3499C54.1927 26.8162 57.6781 24.892 60.6661 27.6337C59.4394 27.5408 58.192 27.3482 57.0398 26.899C55.5603 26.3231 53.4342 25.2827 52.883 23.7012C52.51 22.6351 52.7338 22.1852 53.1731 21.2363Z" fill="#757575"/>
<path d="M81.0775 29.5488L81.6743 30.7214C79.8301 33.1974 76.2866 34.658 73.2695 33.8161L73.3152 33.4502C76.2659 32.6505 80.0083 33.3806 81.0775 29.5488Z" fill="#57646F"/>
<path d="M40.9883 59.9507L41.9332 59.6172C41.8171 63.195 43.5329 64.1057 45.0788 66.885L44.2955 66.9381C42.704 65.5355 41.1541 62.046 40.9883 59.9507Z" fill="#57646F"/>
<path d="M35.4229 82.8843C37.7105 82.2914 39.936 82.1174 42.2362 82.7907L41.801 83.1826C39.7993 83.4594 37.0847 83.8609 35.4229 82.8843Z" fill="#57646F"/>
<path d="M35.4229 82.8843C37.7105 82.2914 39.936 82.1174 42.2362 82.7907L35.4229 82.8843Z" fill="#B7B6B7"/>
<path d="M15.7988 27.0449C18.0078 25.6133 18.7952 25.4828 21.3854 24.8203L21.5677 24.974C19.3256 26.3206 18.2771 26.5394 16.0848 27.6009L15.7988 27.0449Z" fill="#57646F"/>
<path d="M34.0884 62.8027C34.9629 65.0132 35.3317 67.5336 35.6301 69.8821C35.4354 69.6604 35.3649 69.5958 35.2157 69.3629C34.1465 67.6985 33.7403 64.7223 34.0884 62.8027Z" fill="#043E6D"/>
<path d="M47.8265 46.6292C49.6086 44.9569 49.8904 44.6988 52.0952 43.6758C50.338 45.7661 48.6803 46.7369 47.2256 48.712L47.8265 46.6292Z" fill="#57646F"/>
<path d="M44.4736 55.7988C46.6287 56.3267 48.502 58.2766 50.1597 59.6874C47.669 59.1023 46.1687 57.595 44.4736 55.7988Z" fill="#606A72"/>
<path d="M55.6924 44.4565C57.06 44.1371 58.2536 44.0853 59.5963 44.585C60.7443 45.013 61.3992 45.6362 61.8923 46.7399C59.9652 45.361 57.893 45.1783 55.6924 44.4565Z" fill="#57646F"/>
<path d="M80.7207 28.746C81.2387 27.9761 81.0605 27.6977 81.1061 26.5977C81.935 27.6675 81.5786 26.6225 82.2002 28.3345L82.2375 29.2485L81.6739 30.7215L81.0771 29.549L80.7207 28.746Z" fill="#032C4D"/>
<path d="M81.0765 29.5492C79.4146 29.3362 78.0511 29.3081 76.6006 28.5063C77.8439 28.0874 79.3525 28.5171 80.7201 28.7462L81.0765 29.5492Z" fill="#57646F"/>
<path d="M77.0737 75.6543L77.3928 78.2613C76.0044 78.9242 75.7019 79.1409 74.2182 79.3754L74.1602 78.6582C76.7214 77.953 76.4479 77.9696 77.0737 75.6543Z" fill="#919192"/>
<path d="M69.5518 25.7356L70.7081 25.2441C70.9111 25.8826 71.1018 26.493 71.3297 27.1236L71.0355 27.7422C69.9952 27.0701 70.0118 26.9529 69.5518 25.7356Z" fill="#E9E8E9"/>
<path d="M28.166 31.1383L28.8291 31.0078C29.0861 31.5829 29.7657 33.2427 30.0393 33.6972L29.5834 33.9985C28.912 33.2029 28.5639 32.1174 28.166 31.1383Z" fill="#919192"/>
<path d="M17.4775 30.3828C18.7623 30.7114 19.1933 30.6028 20.0554 31.4452C18.8784 31.5434 18.7043 31.4729 17.5314 31.2306L17.4775 30.3828Z" fill="#57646F"/>
<path d="M66.1863 19.0859L67.3841 20.2419L66.6464 20.8829L65.7471 19.4808L66.1863 19.0859Z" fill="#919192"/>
<path d="M34.756 43.5605L35.303 43.6509L35.1538 44.9722L34.5156 44.9287L34.756 43.5605Z" fill="#032C4D"/>
</g>
<defs>
<clipPath id="clip0_407_8805">
<rect width="96" height="96" fill="white"/>
</clipPath>
</defs>
</svg>
