<svg width="96" height="96" viewBox="0 0 96 96" fill="none" xmlns="http://www.w3.org/2000/svg">
<rect width="96" height="96" fill="white"/>
<path d="M44.17 25.5845C45.5124 24.4466 45.2128 24.3638 46.7157 24.0547C47.5573 24.949 47.5252 25.135 47.8239 26.3799C50.1684 25.9863 52.2796 25.4492 54.5781 24.8814C54.5113 26.1077 54.5005 25.7575 53.648 26.9305L53.8349 27.4247C53.0371 30.2571 54.4176 31.0664 53.2686 32.399L52.0324 32.8125C51.526 36.5843 53.9732 45.2585 55.1036 49.2028L54.6149 51.8523C53.6216 48.136 53.1394 45.3339 52.6295 41.507C52.5163 40.6587 51.6331 40.1498 50.9814 39.6868C49.3285 39.3769 47.4255 40.2022 45.7284 40.7289C46.4377 43.3784 47.4241 46.6942 47.8933 49.3411C51.7111 52.5446 52.2228 52.9304 51.591 57.8809C59.0788 59.5628 59.4374 56.9966 62.8385 65.9048C60.3518 73.5126 56.1633 76.5123 49.0696 80.3227C48.1483 80.7735 48.0745 80.7605 47.3105 81.5018C43.4979 83.9554 42.3558 79.8589 41.4067 77.2232L39.6198 78.2029C36.8305 78.7535 29.7048 83.2488 25.0133 83.4092C21.6507 83.8557 17.5779 83.084 14.7057 81.2287C13.8489 80.6782 12.6968 79.0179 11.4425 78.1163C10.6715 77.9689 10.165 77.44 9.53301 76.9372C2.62247 67.5521 8.71378 50.577 14.3846 41.6133C19.0188 34.2877 23.9362 30.0373 32.3471 28.058C35.2457 29.8765 41.8472 35.3008 44.1548 34.9986C45.1703 33.3045 44.5906 27.6249 44.17 25.5845Z" fill="#F9F8F9"/>
<path d="M50.8169 57.748L51.5909 57.8824C59.0787 59.5644 59.4373 56.9981 62.8384 65.9064C60.3517 73.5141 56.1632 76.5139 49.0695 80.3242C48.1482 80.7751 48.0744 80.7621 47.3104 81.5033C43.4978 83.9569 42.3557 79.8604 41.4066 77.2248L39.6197 78.2045C36.8304 78.755 29.7047 83.2503 25.0131 83.4107C21.6506 83.8572 17.5778 83.0856 14.7055 81.2302C13.8488 80.6797 12.6967 79.0195 11.4424 78.1178L11.4449 77.4849C19.6357 78.0571 21.1563 73.6138 25.5213 67.714L25.5942 66.5349C26.9817 65.3471 27.4894 65.1954 29.1176 64.5192L30.2983 63.8906C32.4567 62.9933 34.5809 62.0179 36.6665 60.9602C37.6534 60.7695 37.9326 60.4314 38.7074 59.8028L39.0665 59.1482C39.6232 59.6901 40.6374 60.5007 41.2635 61.0339C43.5464 60.3837 49.3301 59.0832 50.8169 57.748Z" fill="#032C4D"/>
<path d="M39.6201 78.205C39.5008 77.9709 39.4895 77.6718 39.4453 77.3814C42.3192 75.4827 50.6018 71.2648 53.9665 71.1348L54.1724 71.4902C50.3165 73.4192 44.9941 74.3686 41.4069 77.2253L39.6201 78.205Z" fill="#B7B6B7"/>
<path d="M25.5943 66.5333C26.9818 65.3455 27.4896 65.1938 29.1177 64.5176C27.9639 65.5319 26.6163 66.6677 25.5215 67.7124L25.5943 66.5333Z" fill="#E9E8E9"/>
<path d="M44.17 25.5845C45.5124 24.4466 45.2128 24.3638 46.7156 24.0547C47.5573 24.949 47.5252 25.135 47.8239 26.3799C50.1684 25.9863 52.2796 25.4492 54.5781 24.8814C54.5113 26.1077 54.5005 25.7575 53.648 26.9305L53.8349 27.4247C53.0371 30.2571 54.4176 31.0664 53.2686 32.399L52.0324 32.8125C51.526 36.5843 53.9732 45.2585 55.1036 49.2028L54.6149 51.8523C53.6215 48.136 53.1394 45.3339 52.6295 41.507C52.5163 40.6587 51.6331 40.1498 50.9814 39.6868C49.3285 39.3769 47.4254 40.2022 45.7284 40.7289C46.4377 43.3784 47.4241 46.6942 47.8933 49.3411C51.7111 52.5446 52.2228 52.9304 51.591 57.8809L50.817 57.7465C50.9614 53.9322 51.2259 53.6136 48.4353 51.0954L47.2841 50.6806C45.9616 45.503 44.8416 38.0053 40.6041 34.8508C38.1309 32.6569 34.6426 30.4088 31.7405 28.7971C22.6996 31.6035 17.3676 37.3377 13.0752 45.6018C8.65186 54.1186 4.35782 67.9942 10.318 76.5427L9.53301 76.9372C2.62247 67.5521 8.71378 50.577 14.3846 41.6132C19.0188 34.2877 23.9362 30.0373 32.3471 28.058C35.2457 29.8765 41.8472 35.3008 44.1548 34.9986C45.1703 33.3045 44.5906 27.6249 44.17 25.5845Z" fill="#032C4D"/>
<path d="M44.1699 25.5845C45.5123 24.4466 45.2127 24.3638 46.7156 24.0547C47.5572 24.949 47.5251 25.135 47.8238 26.3799C50.1683 25.9863 52.2795 25.4492 54.578 24.8814C54.5112 26.1077 54.5004 25.7575 53.6479 26.9305L51.7258 27.592L51.7271 28.1807L52.7851 29.1591L52.7504 30.9975C50.053 32.7852 49.4871 37.0898 45.8852 36.0247C44.0394 33.4983 45.8497 29.4638 46.5681 26.9314C45.632 27.4645 45.9204 27.5426 45.1598 27.4455L44.1699 25.5845Z" fill="#F9F8F9"/>
<path d="M52.7847 29.1602L53.2265 30.1073C53.1268 30.3093 52.8848 30.8629 52.75 30.9986L52.7847 29.1602Z" fill="#757575"/>
<path d="M50.8395 35.4395C50.7845 36.4009 50.7845 36.5904 50.252 37.3797C48.9746 38.0573 47.8728 38.6681 46.4077 38.8449C46.3089 38.8571 46.2091 38.8645 46.1098 38.874L47.5433 39.0994L46.0045 39.1536L45.6207 39.4969C44.9569 38.8129 44.7718 38.2311 44.5029 37.349C45.2257 36.58 48.7275 36.99 50.5325 35.6709C50.6362 35.5955 50.7372 35.5166 50.8395 35.4395Z" fill="#F9F8F9"/>
<path d="M35.6263 54.9121L39.0664 59.1482L38.7074 59.8027C37.9326 60.4313 37.6533 60.7694 36.6665 60.9602C34.5809 62.0179 32.4567 62.9932 30.2982 63.8906L30.0103 63.288L29.79 62.9065C32.3201 60.7694 31.9481 58.4286 34.2964 55.7292C34.8146 56.1254 34.8276 56.1259 35.4268 56.2408L35.6011 56.5472C35.2642 55.3408 35.1714 55.8615 35.6263 54.9121Z" fill="#032C4D"/>
<path d="M33.5723 60.3173L34.1286 60.3217C34.8865 60.3303 35.2295 60.2783 35.9736 60.1699C36.3105 60.4907 36.4995 60.5817 36.6669 60.9589C34.5813 62.0166 32.4571 62.992 30.2986 63.8893L30.0107 63.2867C31.8739 62.4458 32.7064 62.1336 33.5723 60.3173Z" fill="#757575"/>
<path d="M33.5723 60.3183C35.4753 59.4339 36.7154 59.2736 38.7078 59.8024C37.933 60.431 37.6537 60.7691 36.6669 60.9598C36.4995 60.5827 36.3104 60.4917 35.9735 60.1709C35.2295 60.2792 34.8865 60.3313 34.1286 60.3226L33.5723 60.3183Z" fill="#B7B6B7"/>
<path d="M25.5944 66.5346C22.0324 68.8754 20.0158 70.4273 16.1279 72.248C19.7396 69.4346 25.7726 64.6576 29.7904 62.9062L30.0106 63.2877L30.2985 63.8903L29.1178 64.5189C27.4897 65.1951 26.9819 65.3468 25.5944 66.5346Z" fill="#043E6D"/>
<path d="M30.1126 48.0052C29.0716 47.2631 27.7096 46.5131 27.2695 45.3869L27.8202 45.3579L27.6168 45.3574L28.0353 45.8256L28.4667 45.7211C32.6652 49.0967 33.1296 50.1146 35.6271 54.9116C35.1723 55.8609 35.2651 55.3403 35.602 56.5467L35.4277 56.2402C34.8284 56.1254 34.8154 56.1249 34.2973 55.7287C34.6554 54.1122 32.2039 50.5875 31.2469 48.9203C30.9859 48.8236 30.3658 48.2276 30.1126 48.0052Z" fill="#032C4D"/>
<path d="M30.1123 48.0059C30.7649 48.4224 30.8377 48.3453 31.2466 48.9209C30.9856 48.8243 30.3655 48.2282 30.1123 48.0059Z" fill="#919192"/>
<path d="M33.418 36.3142C35.1649 34.1923 38.1936 34.6137 40.6044 34.8521C39.7285 35.4061 34.822 36.0559 33.418 36.3142Z" fill="#032C4D"/>
<path d="M47.2839 50.6816L48.4351 51.0965C48.4516 52.5747 48.5218 52.791 48.0041 54.1331L47.5315 54.0763C46.966 52.6094 47.0758 52.2613 47.2839 50.6816Z" fill="#57646F"/>
<path d="M10.3182 76.543L11.4451 77.4837L11.4427 78.1165C10.6717 77.9692 10.1652 77.4403 9.5332 76.9375L10.3182 76.543Z" fill="#B7B6B7"/>
<path d="M32.1481 55.0898L32.3696 55.6126C30.013 58.7182 24.1001 60.088 21.018 62.9447L20.6152 62.6369C22.9597 59.338 28.6554 57.1533 32.1481 55.0898Z" fill="#57646F"/>
<path d="M20.8866 65.0293L20.8957 65.6579C19.5988 67.2401 17.0375 68.1807 15.2058 69.0911C15.1678 68.7963 15.2659 68.4582 15.314 68.1678L20.8866 65.0293Z" fill="#57646F"/>
<path d="M71.3849 14.207C78.5783 14.5404 85.7743 14.328 92.9321 14.804C93.6172 14.8495 94.8035 15.9284 95.3156 16.394L95.9998 18.509C95.2501 30.2501 94.2424 41.4485 94.0425 53.2737C93.9328 59.7548 95.352 71.9056 94.7762 77.697C93.8912 75.0787 93.8669 70.8652 93.8704 68.0822L92.802 67.5143C93.1888 70.5011 92.9247 75.742 92.7218 78.8718L89.7716 82.188C85.8974 81.8369 82.0254 81.4641 78.1555 81.0653L77.0624 80.0205C75.6541 79.7604 74.3464 79.8168 72.9151 79.8125L71.4868 79.431L71.9109 78.538C70.2112 78.5033 69.9493 78.4903 68.3523 77.9267L68.3298 77.6494C70.6417 77.4586 76.481 78.0872 77.4423 77.645C77.2623 76.5786 77.2641 76.1365 76.6865 75.2045C72.227 73.4618 69.9588 66.8467 73.6114 63.2054C75.8943 60.9296 75.4412 61.8009 78.7435 61.3674L78.433 60.9426C74.0528 57.9081 72.9857 51.5822 73.8573 46.5264C74.463 43.0138 76.3002 42.0645 79.1198 40.3162C76.4693 37.9056 75.0674 37.1665 74.5185 33.676C75.9849 23.5366 84.4106 20.8711 90.9492 28.5439L92.1828 28.1334C92.6567 24.7981 92.8454 21.1737 93.0426 17.8028L92.5327 17.3884C85.7417 17.3169 78.9529 17.0997 72.1714 16.736C71.0909 17.179 71.1586 17.186 70.5242 18.2064C68.0614 26.6335 68.8132 67.1719 66.4692 71.1773L65.2881 71.0776L64.9247 71.5588L64.4617 71.5675C63.7098 60.0366 67.2909 30.6992 67.8619 17.5592C67.9187 16.2574 70.209 14.9483 71.3849 14.207Z" fill="#E9E8E9"/>
<path d="M74.5182 33.6753C75.9847 23.5359 84.4103 20.8704 90.949 28.5432C91.0721 29.926 91.2291 31.2317 91.1788 32.6206L90.9754 33.9787L91.9202 35.1955C91.7242 36.9568 91.4229 39.0995 91.298 40.8309C89.2042 41.505 87.256 43.1037 87.4095 45.5148C88.6414 46.6601 88.4666 48.958 88.6769 50.9746L88.8443 50.5662C88.2004 54.4547 86.7873 58.0765 83.9087 60.8465L83.4243 60.2483C81.4744 60.8551 80.6164 60.7251 78.6894 60.4303L78.4328 60.9419C74.0526 57.9074 72.9855 51.5815 73.857 46.5257C74.4627 43.0131 76.2999 42.0637 79.1196 40.3155C76.469 37.9048 75.0672 37.1657 74.5182 33.6753Z" fill="#F9F8F9"/>
<path d="M74.5182 33.6758L75.5021 33.668C76.0627 36.3565 76.0358 35.0716 77.5742 37.1203C78.8195 38.7793 79.6633 40.0351 81.6171 40.9593C82.7297 40.5124 83.0783 40.29 84.1051 39.6528C84.3067 42.2125 80.7694 43.8424 82.7618 46.1521C84.3748 46.6328 84.9822 46.4317 86.6386 46.2145L87.4095 45.5153C88.6414 46.6606 88.4666 48.9585 88.6769 50.9751L88.8443 50.5668C88.2004 54.4552 86.7873 58.077 83.9087 60.847L83.4243 60.2488C81.4744 60.8557 80.6164 60.7256 78.6894 60.4309L78.4328 60.9424C74.0526 57.9079 72.9855 51.582 73.857 46.5262C74.4627 43.0136 76.2999 42.0643 79.1196 40.316C76.469 37.9053 75.0672 37.1662 74.5182 33.6758Z" fill="#F9F8F9"/>
<path d="M74.5182 33.6758L75.5021 33.668C76.0627 36.3565 76.0358 35.0716 77.5742 37.1203C78.8195 38.7793 79.6633 40.0351 81.6171 40.9593C82.7297 40.5124 83.0783 40.29 84.1051 39.6528C84.3067 42.2125 80.7694 43.8424 82.7618 46.1521C84.3748 46.6328 84.9822 46.4317 86.6386 46.2145L87.4095 45.5153C88.6414 46.6606 88.4666 48.9585 88.6769 50.9751L88.8443 50.5668C88.2004 54.4552 86.7873 58.077 83.9087 60.847L83.4243 60.2488C85.7627 57.5568 88.7385 51.2105 87.0926 47.792C86.1239 47.0386 83.5952 47.0681 82.2211 46.9666C81.0989 51.0466 80.7777 52.1096 78.7029 55.7986C78.4414 53.9055 82.2168 46.0762 81.1792 43.9933C76.1872 40.9862 74.4784 42.395 74.5534 48.1262C74.6145 52.8131 75.3486 57.0756 78.6894 60.4309L78.4328 60.9424C74.0526 57.9079 72.9855 51.582 73.857 46.5262C74.4627 43.0136 76.2999 42.0643 79.1196 40.316C76.469 37.9053 75.0672 37.1662 74.5182 33.6758Z" fill="#032C4D"/>
<path d="M74.5186 33.6753C75.985 23.5359 84.4106 20.8704 90.9493 28.5432C91.0724 29.926 91.2294 31.2317 91.1791 32.6206L90.9757 33.9787L90.7823 35.1235L89.8635 34.814L89.5462 34.4998L89.0072 34.5921L88.5055 35.8466C88.3828 35.1691 88.0208 34.6025 87.7012 33.9635C85.1807 31.738 84.2641 34.9809 81.4206 30.5962C79.1156 31.2859 80.112 32.6899 77.0963 34.446L75.5024 33.6674L74.5186 33.6753Z" fill="#032C4D"/>
<path d="M89.8634 34.8145L90.7822 35.124C89.5122 37.5966 89.3028 39.8681 86.4333 40.1858L86.0938 39.6808C87.3455 38.0921 88.7027 36.457 89.8634 34.8145Z" fill="#032C4D"/>
<path d="M78.6897 60.4301C80.6166 60.7249 81.4747 60.8549 83.4246 60.248L83.909 60.8463L83.9211 61.3925C86.3753 61.9864 88.0515 62.4025 90.4081 63.2738L91.0316 65.2722C90.9501 68.1203 91.2454 76.3869 89.7547 78.0949L89.2738 79.222C87.9635 78.8275 84.3963 78.433 82.9169 78.2423C80.3352 77.1976 80.144 77.2756 77.4423 77.6441C77.2623 76.5777 77.2641 76.1355 76.6865 75.2035C72.227 73.4609 69.9588 66.8458 73.6115 63.2045C75.8943 60.9286 75.4412 61.8 78.7435 61.3665L78.4331 60.9416L78.6897 60.4301Z" fill="#032C4D"/>
<path d="M82.9162 78.2432C82.8395 76.661 82.4748 75.8113 83.2584 74.8359C85.1298 75.2304 86.3013 76.9514 89.7541 78.0958L89.2732 79.2229C87.9629 78.8284 84.3957 78.434 82.9162 78.2432Z" fill="#F9F8F9"/>
<path d="M95.2762 18.2402L95.9998 18.5082C95.2502 30.2493 94.2425 41.4476 94.0426 53.2728C93.9329 59.754 95.3521 71.9047 94.7762 77.6962C93.8913 75.0779 93.867 70.8643 93.8705 68.0813L92.8021 67.5135C93.1888 70.5002 92.9248 75.7411 92.7219 78.8709L89.7717 82.1871C85.8975 81.836 82.0254 81.4632 78.1556 81.0644L77.0625 80.0197C81.1127 80.3491 85.4322 80.891 89.495 81.3288C90.5413 80.2798 91.4974 79.2047 91.6153 77.6701C93.1199 58.1414 92.7205 37.665 95.2762 18.2402Z" fill="#032C4D"/>
<path d="M92.8018 67.5138L93.2592 65.6844L93.6373 65.6367C93.897 66.8375 93.9265 66.8678 93.8701 68.0816L92.8018 67.5138Z" fill="#B7B6B7"/>
<path d="M71.3849 14.207C78.5783 14.5404 85.7743 14.328 92.9321 14.804C93.6172 14.8495 94.8035 15.9284 95.3156 16.394L94.6652 17.0308L92.7547 15.2734L91.0021 15.4932C89.4637 15.5491 87.5403 15.4576 86.0795 15.6003C80.4787 16.146 72.7477 12.8073 68.6086 17.5735C67.656 29.8183 66.405 44.215 66.0009 56.469C65.6983 57.3923 65.684 57.0412 65.8188 57.9255L65.5934 60.4571C65.2751 62.5595 65.0921 63.4482 65.2547 65.5766L65.2881 71.0776L64.9247 71.5588L64.4617 71.5675C63.7098 60.0366 67.2909 30.6992 67.8619 17.5592C67.9187 16.2574 70.209 14.9483 71.3849 14.207Z" fill="#032C4D"/>
<path d="M87.4091 45.5159C87.2556 43.1048 89.2037 41.5061 91.2976 40.832C90.8961 45.7561 89.8398 58.6195 90.4074 63.2752C88.0508 62.4039 86.3745 61.9877 83.9203 61.3938L83.9082 60.8476C86.7869 58.0776 88.2 54.4558 88.8438 50.5674L88.6765 50.9757C88.4662 48.9591 88.6409 46.6612 87.4091 45.5159Z" fill="#E9E8E9"/>
<path d="M93.9632 17.6816C93.3505 27.5531 92.3684 37.3526 91.8095 47.2848C91.4912 52.941 91.5337 59.8833 91.0316 65.2716L90.4081 63.2732C89.8405 58.6175 90.8968 45.7541 91.2983 40.8301C91.4232 39.0987 91.7245 36.956 91.9205 35.1947L90.9757 33.9779L91.1791 32.6198C91.2294 31.2309 91.0724 29.9252 90.9492 28.5423L92.1828 28.1318C92.6567 24.7965 92.8454 21.1721 93.0426 17.8013L93.9632 17.6816Z" fill="#032C4D"/>
<path d="M90.9492 28.5433L92.1828 28.1328C92.1832 28.982 92.1321 30.7134 92.2222 31.4803L91.584 33.4149L91.179 32.6208C91.2293 31.2319 91.0724 29.9262 90.9492 28.5433Z" fill="#E9E8E9"/>
<path d="M91.179 32.621L91.5839 33.4151L92.2222 31.4805C92.1775 32.4727 92.1597 34.3077 91.9204 35.1959L90.9756 33.9791L91.179 32.621Z" fill="#919192"/>
<path d="M69.0589 25.2603C69.0936 23.2285 69.0247 19.4241 69.9426 17.7461L70.5245 18.2047C68.0616 26.6318 68.8135 67.1702 66.4695 71.1756C65.9817 69.537 66.1473 67.9201 66.2106 66.2165C66.2045 66.0041 66.3749 65.3408 66.4283 65.1024C66.7023 54.7554 67.8505 42.6103 68.4085 32.0088C68.3773 31.5927 68.4991 31.3092 68.6041 30.8726L68.8564 26.7042C68.7298 25.8238 68.7411 26.1754 69.0589 25.2603Z" fill="#032C4D"/>
<path d="M69.0581 25.2617C69.0599 26.2041 69.2411 26.1547 68.8556 26.7057C68.729 25.8253 68.7403 26.1768 69.0581 25.2617Z" fill="#919192"/>
<path d="M68.4083 32.0092C68.3771 31.5931 68.4989 31.3096 68.6038 30.873C68.5635 31.2272 68.557 31.7444 68.4083 32.0092Z" fill="#919192"/>
<path d="M66.2101 66.2176C66.204 66.0052 66.3745 65.3419 66.4278 65.1035C66.3966 65.2856 66.2851 66.0875 66.2101 66.2176Z" fill="#757575"/>
<path d="M77.4416 77.644C80.1433 77.2756 80.3345 77.1975 82.9162 78.2422C84.3956 78.433 87.9628 78.8275 89.2731 79.2219C87.4963 80.336 75.5229 78.6281 72.1192 78.5153L71.9102 78.537C70.2105 78.5023 69.9486 78.4893 68.3516 77.9258L68.3291 77.6484C70.641 77.4576 76.4803 78.0862 77.4416 77.644Z" fill="#032C4D"/>
<path d="M72.1716 16.7355L72.1348 16.1395C75.5138 15.8035 87.3627 16.4364 91.6779 16.4204L92.5329 17.3879C85.7419 17.3164 78.9531 17.0992 72.1716 16.7355Z" fill="#043E6D"/>
<path d="M65.5934 60.457C65.8839 62.8889 65.929 63.24 65.2548 65.5766C65.0922 63.4481 65.2752 62.5595 65.5934 60.457Z" fill="#757575"/>
<path d="M91.6777 16.4199C92.9551 16.7806 93.0813 16.758 93.9632 17.6822L93.0427 17.8019L92.5328 17.3875L91.6777 16.4199Z" fill="#757575"/>
<path d="M95.3154 16.3926L95.9997 18.5076L95.276 18.2397L94.665 17.0294L95.3154 16.3926Z" fill="#757575"/>
<path d="M66.0009 56.4688C66.0104 57.3921 66.1843 57.3661 65.8188 57.9253C65.6839 57.041 65.6982 57.3921 66.0009 56.4688Z" fill="#919192"/>
<path d="M71.9114 78.5373L72.1204 78.5156L72.9156 79.8118L71.4873 79.4303L71.9114 78.5373Z" fill="#919192"/>
<path d="M35.9279 25.5493C35.5503 21.4853 34.9927 17.6568 37.9329 14.5187C43.6516 8.41646 57.2735 14.3037 57.4222 22.5634C57.469 25.1635 56.056 26.6808 53.8351 27.4246L53.6482 26.9304C54.5006 25.7574 54.5115 26.1077 54.5783 24.8813C52.2798 25.4492 50.1686 25.9863 47.8241 26.3799C47.5254 25.1349 47.5575 24.9489 46.7158 24.0546C45.213 24.3637 45.5126 24.4465 44.1702 25.5845C38.4042 28.413 39.4422 25.4466 36.927 25.9195L35.9279 25.5493Z" fill="#032C4D"/>
<path d="M50.0088 82.0137L50.0951 82.0527L50.0998 82.5209C45.5887 85.7677 39.2374 84.4759 34.1253 83.6869C33.7285 83.2361 33.8529 83.5179 33.8686 82.7983C40.3504 82.937 43.4502 84.2808 50.0088 82.0137Z" fill="#032C4D"/>
<path d="M8.27312 82.2316C9.95656 81.9369 10.5556 81.7244 12.2068 82.327C11.2155 83.1463 1.55674 84.4814 0 84.5941C2.40659 83.4454 5.62649 82.8429 8.27312 82.2316Z" fill="#032C4D"/>
<path d="M8.27246 82.2316C9.9559 81.9369 10.555 81.7244 12.2061 82.327C10.9893 82.3703 9.51177 82.275 8.27246 82.2316Z" fill="#606A72"/>
<path d="M65.8694 77.6934C67.9806 79.5704 68.6726 79.345 71.4862 79.4317L72.9145 79.8131C74.3458 79.8175 75.6535 79.7611 77.0618 80.0212L78.1549 81.0659C74.0869 80.6021 68.3188 80.9922 65.6738 78.452L65.8694 77.6934Z" fill="#032C4D"/>
<path d="M53.9745 82.716C54.7459 83.1192 55.5905 82.8721 56.5041 82.755C58.5186 82.703 62.2823 82.3865 63.8098 83.6827C61.5356 84.0728 58.8698 83.5613 56.2331 83.739C55.6244 83.9081 54.053 83.9341 53.3545 83.9688L53.9745 82.716Z" fill="#032C4D"/>
<path d="M53.9745 82.7168C54.7459 83.1199 55.5905 82.8728 56.5041 82.7558L56.0181 83.4191L56.2331 83.7398C55.6244 83.9089 54.053 83.9349 53.3545 83.9696L53.9745 82.7168Z" fill="#606A72"/>
<path d="M47.3105 81.5013C48.0745 80.7601 48.1483 80.7731 49.0697 80.3223C51.6227 80.5043 52.6533 80.2963 53.9745 82.7151L53.3545 83.9679C51.6621 83.8379 52.6221 83.5084 51.8065 82.0216C50.0825 81.0029 49.6858 81.419 47.3105 81.5013Z" fill="#032C4D"/>
<path d="M55.1032 49.2031C55.2792 51.0897 55.5299 55.093 54.8426 56.8061C54.0873 55.9552 54.3162 55.2183 53.5869 54.3777L54.1636 53.564L54.6145 51.8526L55.1032 49.2031Z" fill="#919192"/>
<path d="M68.3524 77.9262C66.3674 76.9292 65.9672 74.8658 66.386 72.8457L66.7602 72.9324C67.1544 75.0262 67.3009 75.7848 68.3299 77.6488L68.3524 77.9262Z" fill="#57646F"/>
<path d="M63.7156 76.3909L63.2451 76.0138C63.8188 75.3852 63.853 75.3072 64.5567 74.8477C65.4517 75.5889 64.9916 76.3302 65.8701 77.6914L65.6746 78.45L63.7156 76.3909Z" fill="#032C4D"/>
<path d="M63.7148 76.3926L65.8694 77.6931L65.6738 78.4517L63.7148 76.3926Z" fill="#919192"/>
<path d="M35.9279 25.5488L36.9269 25.919C35.9786 26.8822 35.9097 26.9087 34.6796 27.5087L34.5469 27.0999L35.9279 25.5488Z" fill="#757575"/>
<path d="M53.5872 54.3795C52.7998 53.6924 52.6194 53.672 52.3545 52.6594L52.9273 52.5566L54.1639 53.5658L53.5872 54.3795Z" fill="#57646F"/>
</svg>
