<svg width="96" height="96" viewBox="0 0 96 96" fill="none" xmlns="http://www.w3.org/2000/svg">
<g clip-path="url(#clip0_407_13883)">
<rect width="96" height="96" fill="white"/>
<path d="M43.275 38.7344L44.3804 39.0338L45.4857 40.6198L47.1675 42.532L48.5029 43.2138C51.0813 44.4293 52.2246 44.7021 54.9714 44.3463C56.9164 43.4836 57.0991 43.2583 58.8188 41.7375L60.2112 42.2296C60.7686 43.9639 60.835 44.2811 60.8967 46.1459C63.2805 50.2933 65.3916 49.3179 67.4268 55.6118C69.7158 57.1741 88.7892 55.0396 93.2676 55.1879C93.1964 58.6416 91.74 70.2065 92.2713 71.7006C93.3221 72.4714 94.3207 72.1482 95.5898 72.0237L96.0001 72.3558L95.7938 73.0139C93.8986 73.3963 92.6509 72.8301 91.6878 73.8381L90.9525 78.9935C88.5615 79.0824 84.1045 78.8067 82.3634 80.8316C82.8046 83.4997 85.53 83.6864 86.0898 86.3427C84.5931 88.5187 76.7346 88.332 74.2819 88.4594C72.2373 86.8319 71.3905 86.4079 70.0408 83.8258C70.0432 83.3099 70.074 83.6331 69.7965 82.9008L65.9538 82.5806C64.3741 82.5036 61.1433 82.7763 59.4497 82.8623C56.0127 79.533 52.4215 75.1721 48.0902 75.4063C45.3955 75.5516 44.8452 75.7176 42.0795 75.2018L41.5102 75.0921C38.1917 76.8886 35.286 76.3343 31.7802 75.5546L30.6037 74.8875L28.6562 75.1365C28.7677 74.6177 28.725 74.1226 28.7084 73.589C31.0544 71.1907 32.5036 68.6055 28.9171 66.554L29.0192 63.9126L29.2469 62.4866C30.9168 62.039 30.8978 61.8611 31.0757 59.9489C29.6501 58.6504 30.1103 59.2849 29.4793 56.928L29.6051 54.7965C29.0903 53.9724 29.2564 53.5277 29.3584 52.4159L30.8764 51.6807L31.849 49.4987C32.6151 48.9384 33.1465 48.476 33.8723 47.8357C36.3036 40.774 37.5015 39.8194 43.275 38.7344Z" fill="#FEFEFE"/>
<path d="M43.275 38.7344L44.3804 39.0338L45.4857 40.6198L47.1675 42.532L48.5029 43.2138C51.0813 44.4293 52.2246 44.7021 54.9714 44.3463C56.9164 43.4836 57.0991 43.2583 58.8188 41.7375L60.2112 42.2296C60.7686 43.9639 60.835 44.2811 60.8967 46.1459C63.2805 50.2933 65.3916 49.3179 67.4268 55.6118L67.4126 56.8242C66.2598 57.2452 65.5008 57.0941 64.7228 57.5447C64.2009 61.4876 63.8 64.556 63.5818 68.5255C62.8109 70.6008 62.9769 72.3468 62.4859 73.6602C60.4057 73.4852 58.7381 73.0673 56.9923 74.6089L56.7266 74.0604L56.8974 66.1835L56.8571 65.0955C54.9998 65.5609 51.6268 65.9078 49.8075 65.2378C47.9146 67.4464 46.2471 66.2161 44.5203 67.1707C41.7996 69.7766 41.7948 69.5394 42.0913 73.7907L41.5102 75.0921C38.1917 76.8886 35.286 76.3343 31.7802 75.5546L30.6037 74.8875L28.6562 75.1365C28.7677 74.6177 28.725 74.1226 28.7084 73.589C31.0544 71.1907 32.5036 68.6055 28.9171 66.554L29.0192 63.9126L29.2469 62.4866C30.9168 62.039 30.8978 61.8611 31.0757 59.9489C29.6501 58.6504 30.1103 59.2849 29.4793 56.928L29.6051 54.7965C29.0903 53.9724 29.2564 53.5277 29.3584 52.4159L30.8764 51.6807L31.849 49.4987C32.6151 48.9384 33.1465 48.476 33.8723 47.8357C36.3036 40.774 37.5015 39.8194 43.275 38.7344Z" fill="#01335B"/>
<path d="M47.1679 42.5332L48.5033 43.2151C51.0817 44.4306 52.225 44.7033 54.9718 44.3476C53.4537 46.4139 54.7393 45.984 53.9044 46.743C51.0129 50.9942 49.3999 48.1037 46.7978 45.2665C46.5867 43.6864 46.6579 44.2675 47.1679 42.5332Z" fill="#FEFEFE"/>
<path d="M47.1679 42.5332L48.5033 43.2151C51.0817 44.4306 52.225 44.7033 54.9718 44.3476C53.4537 46.4139 54.7393 45.984 53.9044 46.743L53.641 46.2212C52.3957 45.486 48.9136 44.7448 47.3813 44.3654L46.7978 45.2665C46.5867 43.6864 46.6579 44.2675 47.1679 42.5332Z" fill="#3F5160"/>
<path d="M49.8076 65.2378C51.6151 63.9156 54.9288 64.2921 56.8572 65.0955C55 65.561 51.627 65.9078 49.8076 65.2378Z" fill="#ABACAC"/>
<path d="M48.5619 50.9316C49.5724 53.4901 49.1265 58.0318 48.7802 60.8008L48.1113 59.8462C47.7721 56.9498 47.5965 53.662 48.5619 50.9316Z" fill="#858585"/>
<path d="M54.4873 50.8711L55.1657 51.5677C55.7184 54.0254 55.6639 56.4979 55.6971 59.0297L54.8384 58.413C54.3118 55.9761 54.4755 53.3791 54.4873 50.8711Z" fill="#727273"/>
<path d="M53.1641 58.834C53.7594 59.3498 54.1295 59.839 54.5731 60.5535L54.2102 61.4814C53.9848 61.9795 54.1485 61.7215 53.6456 62.1751L53.1641 58.834Z" fill="#9B9B9B"/>
<path d="M51.3398 59.3477C51.5438 59.5107 51.7645 59.6442 51.9518 59.8339C52.8508 60.7618 52.6967 61.7253 52.7773 63.0475C52.6634 62.9971 52.5377 62.9764 52.4334 62.8963C51.468 62.1641 51.5343 60.6195 51.3398 59.3477Z" fill="#858585"/>
<path d="M67.4264 55.613C69.7154 57.1753 88.7888 55.0408 93.2671 55.1891C93.196 58.6428 91.7396 70.2077 92.2709 71.7018C93.3217 72.4726 94.3203 72.1494 95.5894 72.0249L95.9997 72.357L95.7934 73.0151C93.8981 73.3976 92.6504 72.8313 91.6874 73.8393L90.9521 78.9947C88.5611 79.0836 84.1041 78.808 82.363 80.8328C82.8042 83.5009 85.5296 83.6876 86.0894 86.3439C84.5927 88.5199 76.7342 88.3332 74.2815 88.4607C72.2368 86.8331 71.3901 86.4091 70.0404 83.827C70.0428 83.3111 70.0736 83.6343 69.7961 82.9021L65.9534 82.5819C64.3736 82.5048 61.1429 82.7775 59.4493 82.8635C56.0122 79.5343 52.421 75.1734 48.0897 75.4076C45.3951 75.5528 44.8448 75.7189 42.079 75.203L41.5098 75.0933L42.0909 73.7919C41.7944 69.5407 41.7991 69.7778 44.5198 67.1719C46.2467 66.2173 47.9142 67.4476 49.8071 65.239C51.6264 65.909 54.9994 65.5622 56.8567 65.0967L56.897 66.1847L56.7262 74.0616L56.9919 74.6101C58.7377 73.0685 60.4052 73.4865 62.4855 73.6614C62.9765 72.3481 62.8105 70.602 63.5814 68.5268L62.8034 79.1074C66.9022 79.0481 71.2738 78.7901 75.3917 78.6271C75.3988 77.047 75.1521 75.117 76.1673 73.9994C78.2547 71.7018 80.1333 71.2097 81.936 74.4707C82.0356 75.8344 81.9906 76.8246 82.5646 77.9749C84.263 78.4818 88.0084 77.8741 89.9084 77.6695C90.7932 71.8737 91.6328 62.3604 92.0669 56.3986C85.188 56.7662 70.8564 58.0114 64.7223 57.5459C65.5004 57.0953 66.2594 57.2464 67.4122 56.8255L67.4264 55.613Z" fill="#034173"/>
<path d="M49.3066 66.7232C52.1886 66.9455 54.0934 67.0819 56.8971 66.1836L56.7263 74.0605C55.7965 75.0388 53.9748 75.4924 52.7722 75.5191C49.1193 75.5991 49.3778 69.3705 49.3066 66.7232Z" fill="#FEFEFE"/>
<path d="M44.52 67.1719C45.9575 69.2026 48.8134 67.8211 46.968 73.0358C45.0537 74.9361 44.4346 74.4411 42.0911 73.7918C41.7946 69.5406 41.7993 69.7778 44.52 67.1719Z" fill="#FEFEFE"/>
<path d="M65.9541 82.5808C69.3176 82.0768 71.3955 81.7359 74.7946 82.3555L75.0199 82.818C72.961 83.8111 72.2755 83.734 70.0411 83.8259C70.0435 83.3101 70.0743 83.6333 69.7968 82.901L65.9541 82.5808Z" fill="#EDEDED"/>
<path d="M56.9922 74.6093C58.738 73.0677 60.4055 73.4856 62.4858 73.6605C61.276 76.0678 59.172 76.2635 57.0254 75.721L56.9922 74.6093Z" fill="#FEFEFE"/>
<path d="M76.5547 74.1953C78.1084 74.1479 79.1497 73.9077 80.4306 75.0669C81.581 78.0789 81.2892 81.7076 81.4102 85.0071C79.8043 85.1168 78.6302 85.4311 77.3208 84.1326C76.8749 82.9201 76.6804 82.176 76.7088 80.833C76.7587 78.6096 76.6496 76.4158 76.5547 74.1953Z" fill="#FEFEFE"/>
<path d="M55.3223 77.3062C57.6445 77.0987 58.6407 76.4732 61.0151 76.9416C62.1726 77.9732 61.7314 77.2707 62.0588 79.4111C62.8178 80.2857 63.4227 80.422 64.3857 80.8074L64.381 81.2491L63.0432 80.4576L63.7667 81.6019L63.2875 80.7748L62.9934 81.6938L59.6654 81.5693L55.3223 77.3062Z" fill="#FEFEFE"/>
<path d="M62.0584 79.4121C62.8174 80.2867 63.4223 80.423 64.3853 80.8084L64.3806 81.2501L63.0428 80.4586L63.7663 81.6029L63.2871 80.7758L62.993 81.6948L59.665 81.5703C60.3458 81.2857 61.0265 81.013 61.7097 80.7462L62.0584 79.4121Z" fill="#EDEDED"/>
<path d="M71.7959 84.7153C71.8979 84.7065 72.0023 84.6946 72.1043 84.6887C72.2751 84.6769 72.4482 84.6739 72.619 84.659C73.8904 84.5582 74.4407 84.6086 75.6172 85.2845C76.6704 85.8952 77.6501 86.337 78.772 86.7253L79.1942 86.8676C75.7453 87.2175 74.6162 87.4961 71.7959 84.7153Z" fill="#EDEDED"/>
<path d="M82.3565 84.4316C83.303 84.737 83.9956 85.1609 84.8448 85.736L84.9302 86.4861L82.3091 86.5928L81.875 86.077L82.3565 84.4316Z" fill="#EDEDED"/>
<path d="M59.983 16.7278C59.964 14.7978 59.7553 12.4291 60.391 10.7541C63.4462 7.94072 65.5525 8.91609 68.9824 9.92109C69.6751 9.16511 69.8055 8.9309 70.3819 8.02077C71.9308 8.03856 71.6984 8.19568 73.1335 9.86771L74.5922 10.01C75.4058 9.04651 75.1876 9.36076 75.7783 8.19864C77.3438 8.00891 77.3556 8.0919 78.3732 9.77875C79.8273 10.1256 79.1774 10.2413 80.4179 9.73728L81.2031 8.29056C82.7828 8.00596 82.7804 8.25497 83.9665 9.79359C85.3636 10.0752 84.7469 10.2502 85.9471 9.70171C86.9766 7.88441 86.3195 8.32907 87.8352 8C89.1541 8.91902 89.0236 9.68688 89.2181 9.77286C91.239 10.6563 91.4241 9.42007 92.7856 11.184C93.5209 14.7059 93.2007 36.89 93.0465 41.6066C89.1541 41.6037 61.5723 41.1975 60.2107 42.2291L58.8183 41.7371C57.0986 43.2579 56.916 43.4832 54.9709 44.3459C52.2241 44.7017 51.0808 44.4289 48.5024 43.2134L47.167 42.5315L45.4852 40.6194L44.3799 39.0334L43.2745 38.734C41.2986 36.0125 38.6396 36.7061 38.3787 32.6683C38.1889 29.7097 39.2065 28.8885 37.2994 26.7688C36.9839 19.1587 42.8049 18.551 46.612 14.8956C47.25 14.282 48.1656 13.2414 49.0504 13.4845C53.0045 14.5992 56.202 15.0469 59.983 16.7278Z" fill="#034173"/>
<path d="M49.5795 37.4742C51.8922 37.6106 52.3974 37.1984 54.4421 35.8555L54.9165 36.1045L54.2073 38.5148L54.7196 38.9268C56.5532 37.6758 58.4935 36.7982 60.1634 39.0513C59.6463 40.2579 59.4636 40.6403 58.8184 41.7372C57.0987 43.2581 56.9161 43.4834 54.971 44.3461C52.2242 44.7018 51.0809 44.4291 48.5025 43.2136L47.1671 42.5317L45.4854 40.6196C46.3322 39.6502 46.6476 38.6571 47.855 37.3852C48.244 37.3912 49.2616 37.3497 49.5795 37.4742Z" fill="#FEFEFE"/>
<path d="M47.855 37.3849C48.244 37.3908 49.2616 37.3493 49.5795 37.4738L49.3754 39.1726C49.3161 41.3011 49.5225 40.2902 48.5547 42.2468L48.5025 43.2133L47.1671 42.5314L45.4854 40.6192C46.3322 39.6498 46.6476 38.6567 47.855 37.3849Z" fill="#EDEDED"/>
<path d="M48.5552 42.2481C47.623 41.2935 47.6538 41.2639 46.9707 39.995L47.3218 39.574C48.2848 39.7104 48.4722 39.6067 49.3759 39.1738C49.3166 41.3024 49.523 40.2914 48.5552 42.2481Z" fill="#034173"/>
<path d="M51.9258 40.3145C53.2897 40.2197 54.2859 40.116 55.5526 40.8067L55.7186 41.7197C54.5587 41.3403 53.3846 41.3729 52.1938 41.3343L51.9258 40.3145Z" fill="#727273"/>
<path d="M42.7124 32.0059C48.2748 33.4526 44.7381 33.6779 47.8549 37.3866C46.6476 38.6584 46.3321 39.6516 45.4853 40.621L44.3799 39.035C43.488 36.3164 43.4145 36.3609 41.5098 35.3737L42.4491 34.3094L42.283 32.6996L42.7124 32.0059Z" fill="#FEFEFE"/>
<path d="M41.5105 35.3735L40.7775 35.2875C39.582 34.1432 39.9568 34.8606 39.5654 33.1085C40.1442 31.2646 39.6721 31.9198 40.9008 30.9355C42.2458 31.146 41.6504 30.8317 42.7131 32.0057L42.2838 32.6995L42.4498 34.3092L41.5105 35.3735Z" fill="#C8C8C8"/>
<path d="M89.8824 16.7799C90.8597 16.6198 90.6273 16.6672 91.6354 16.8332C92.366 19.0003 92.0007 36.8531 91.9746 40.5085C88.2529 40.4996 62.934 40.8464 61.4182 40.0015L61.3779 38.3324C62.7324 34.9765 64.2552 39.8325 67.0731 38.5666C67.5641 37.0073 67.4432 36.8946 67.2368 35.264C66.046 33.6572 65.6713 34.1553 63.4629 33.9182L63.4606 33.9211L63.7808 33.3638C64.796 33.2719 65.8112 33.1651 66.8241 33.0465C67.7207 31.6828 67.3697 32.4655 67.6163 30.4348C66.3758 28.1876 66.7932 30.4288 65.0024 28.3388C66.2168 28.0423 66.3686 28.1876 67.2202 27.15C67.4076 25.5224 67.4716 25.5965 67.0589 24.0609C64.3904 22.9165 64.0393 21.8285 63.4273 18.5289L63.3135 17.8886C62.6208 17.4854 62.2082 17.4143 61.812 16.7887L63.387 16.8065C70.9277 16.6109 82.4936 16.2818 89.8824 16.7799Z" fill="#FEFEFE"/>
<path d="M63.3867 16.8065C70.9274 16.6109 82.4933 16.2818 89.8821 16.7799C86.6775 18.0695 79.1654 16.6494 78.449 18.0339C76.7744 18.2177 75.3559 17.9805 74.4118 19.3086C74.3146 20.4915 74.2363 21.4105 74.2079 22.6053C73.7287 20.8087 73.8639 20.3403 73.9967 18.3659L74.0418 17.7285C70.6617 16.848 66.9874 17.9716 63.3867 16.8065Z" fill="#EDEDED"/>
<path d="M74.208 22.6046C74.2365 21.4098 74.3147 20.4908 74.412 19.308C75.356 17.9798 76.7745 18.217 78.4491 18.0332L78.6437 22.7469L78.4966 23.6125L74.208 23.7282V22.6046Z" fill="#034173"/>
<path d="M78.6437 22.7458L78.4966 23.6115L74.208 23.7271V22.6035L78.6437 22.7458Z" fill="#EDEDED"/>
<path d="M74.5921 27.902C75.7734 27.902 77.1539 27.8101 78.2877 28.1095L78.385 29.0759C78.487 31.5958 78.7834 31.1482 77.8892 32.8795C74.9526 34.5249 74.3051 32.6186 74.2529 29.3131L74.5921 27.902Z" fill="#034173"/>
<path d="M74.5921 27.902C75.7734 27.902 77.1539 27.8101 78.2877 28.1095L78.385 29.0759C77.1776 29.1234 75.4081 29.1175 74.2529 29.3131L74.5921 27.902Z" fill="#C8C8C8"/>
<path d="M75.5625 30.4691C75.7476 30.0748 76.0891 29.8406 76.4544 29.8584C76.8197 29.8732 77.147 30.143 77.3036 30.5551C77.4625 30.9642 77.4269 31.4534 77.2087 31.821C76.898 32.3457 76.3121 32.4761 75.8756 32.1174C75.4391 31.7587 75.3016 31.0353 75.5625 30.4691Z" fill="#FEFEFE"/>
<path d="M74.208 23.727L78.4966 23.6113C78.5132 25.3782 78.5796 26.3506 78.2879 28.1086C77.154 27.8092 75.7735 27.9011 74.5922 27.9011C74.3669 26.6441 74.3053 25.0432 74.208 23.727Z" fill="#3F5160"/>
<path d="M75.6959 24.9379C76.0398 24.428 76.6423 24.3391 77.0716 24.7364C77.5033 25.1336 77.6101 25.8807 77.3207 26.441C77.1167 26.8353 76.7538 27.0577 76.3766 27.0132C76.0019 26.9717 75.6769 26.6693 75.5346 26.2335C75.3899 25.7977 75.4539 25.2996 75.6959 24.9379Z" fill="#EDEDED"/>
<path d="M86.8892 22.627L87.9969 22.9471L87.9447 23.3651C89.7048 23.8988 89.1165 23.2999 89.9894 24.8474L90.0012 27.9099L89.8328 29.0957L90.0107 31.4762C89.4462 33.0919 89.8661 32.3775 88.4903 33.4536C86.8916 33.5633 87.6672 33.7234 86.123 32.7036C85.3972 30.8952 85.6368 31.4021 85.8289 29.0423L85.7957 27.895C85.4826 25.3425 85.2999 25.0787 86.6211 23.294L86.8892 22.627Z" fill="#3F5160"/>
<path d="M85.8293 29.043L89.8333 29.0964L90.0112 31.4769C89.4466 33.0926 89.8665 32.3782 88.4907 33.4543C86.892 33.564 87.6676 33.7241 86.1234 32.7043C85.3976 30.8959 85.6372 31.4028 85.8293 29.043Z" fill="#034173"/>
<path d="M87.0287 30.4614C87.2161 30.1056 87.5434 29.904 87.8826 29.9396C88.2218 29.9752 88.5207 30.239 88.6583 30.6274C88.7982 31.0158 88.7555 31.4693 88.5492 31.8073C88.2432 32.3053 87.6786 32.4151 87.2682 32.0504C86.8603 31.6887 86.7535 30.9861 87.0287 30.4614Z" fill="#FEFEFE"/>
<path d="M90.0015 27.9113L89.8331 29.0972L85.8291 29.0437L85.7959 27.8965L90.0015 27.9113Z" fill="#C8C8C8"/>
<path d="M87.3417 24.725C87.7616 24.4404 88.2834 24.5797 88.5728 25.054C88.8598 25.5313 88.8266 26.1984 88.4922 26.6253C88.1577 27.0522 87.624 27.1055 87.2374 26.7557C86.8507 26.4059 86.7298 25.7537 86.9504 25.226C87.0381 25.0155 87.1757 24.8406 87.3417 24.725Z" fill="#EDEDED"/>
<path d="M86.8892 22.627L87.9969 22.9471L87.9447 23.3651L87.3422 24.7229C87.1762 24.8385 87.0386 25.0135 86.9508 25.2239L86.6211 23.294L86.8892 22.627Z" fill="#858585"/>
<path d="M79.9791 27.7509C79.9838 25.0027 79.647 25.6282 80.75 23.8998C82.3772 23.1024 81.5873 23.135 83.2027 23.6746C84.5832 25.3703 84.3294 25.729 83.9831 28.0829L83.9996 28.9545C84.187 31.4003 84.4385 30.8815 83.6723 32.7344C82.178 33.7453 82.9299 33.6 81.3715 33.4073C79.6233 31.8805 79.8581 31.9724 80.0408 29.2776L80.4772 28.5069L79.9791 27.7509Z" fill="#3F5160"/>
<path d="M80.0408 29.2782C80.8615 29.1122 83.0674 29.0262 83.9996 28.9551C84.187 31.4009 84.4385 30.8821 83.6723 32.7349C82.178 33.7459 82.9299 33.6005 81.3715 33.4078C79.6233 31.8811 79.8581 31.973 80.0408 29.2782Z" fill="#3F5160"/>
<path d="M81.2696 30.4692C81.5447 29.9 82.1354 29.7162 82.5932 30.0601C83.0486 30.404 83.1957 31.1451 82.9205 31.7143C82.6454 32.2835 82.0524 32.4673 81.5969 32.1234C81.1415 31.7795 80.9944 31.0384 81.2696 30.4692Z" fill="#FEFEFE"/>
<path d="M79.9795 27.752C81.3315 27.8024 82.6646 27.7727 83.9835 28.0839L84 28.9556C83.0678 29.0267 80.8619 29.1127 80.0412 29.2787L80.4776 28.5079L79.9795 27.752Z" fill="#C8C8C8"/>
<path d="M81.3652 24.9517C81.6783 24.4596 82.2452 24.3588 82.658 24.7205C83.0683 25.0792 83.1846 25.7789 82.9213 26.3155C82.7363 26.692 82.3994 26.9084 82.046 26.8788C81.6925 26.8491 81.3818 26.5763 81.2395 26.1732C81.0972 25.767 81.147 25.2986 81.3652 24.9517Z" fill="#EDEDED"/>
<path d="M68.6768 34.0982C70.0051 34.0389 71.248 33.8669 72.517 34.4658C73.1931 35.8977 73.0508 36.793 73.0674 38.4384C71.8292 38.6014 70.5103 39.0016 69.3433 38.3287C68.6032 36.8641 68.7384 35.8087 68.6768 34.0982Z" fill="#3F5160"/>
<path d="M68.5723 23.5985C69.9385 23.5125 71.2265 23.2843 72.5216 23.9483C73.1953 25.3891 73.0554 26.2192 73.0601 27.8675C71.7579 27.989 70.6027 28.1995 69.3479 27.6244C68.5438 26.1777 68.66 25.3298 68.5723 23.5985Z" fill="#034173"/>
<path d="M74.3243 34.1429C75.5862 34.0747 76.7057 33.962 77.9345 34.4364C78.6888 35.9275 78.499 36.891 78.5013 38.6312C77.2465 38.6935 76.1412 38.7913 74.9196 38.3318C74.1535 36.8673 74.3432 35.8653 74.3243 34.1429Z" fill="#034173"/>
<path d="M86.8895 22.6288L85.7769 22.0121C85.5682 20.3134 85.4544 20.269 86.1019 18.7066C87.9948 17.3578 89.2282 18.2946 90.1818 20.5476C89.8307 22.3442 89.6291 22.7236 87.9972 22.949L86.8895 22.6288Z" fill="#3F5160"/>
<path d="M80.039 18.3147C81.2416 18.2525 82.3257 18.1695 83.5069 18.5311C84.3419 19.963 84.1379 20.9414 84.1687 22.6816C82.9258 22.7231 81.7801 22.8328 80.5775 22.3495C79.8113 20.888 80.0201 20.0312 80.039 18.3147Z" fill="#3F5160"/>
<path d="M68.5938 29.0668C69.9126 28.9838 71.1057 28.8534 72.4008 29.2951C73.1978 30.6707 73.065 31.3851 73.1291 33.0542C71.8411 33.2291 70.7405 33.4099 69.4572 33.0364C68.5369 31.6282 68.6934 30.8456 68.5938 29.0668Z" fill="#3F5160"/>
<path d="M69.9983 30.4609C70.1905 30.0904 70.5273 29.874 70.8807 29.9006C71.2365 29.9244 71.552 30.1853 71.7085 30.5825C71.8651 30.9798 71.839 31.4511 71.6421 31.8187C71.3385 32.3761 70.7336 32.5272 70.283 32.1537C69.8346 31.7831 69.7066 31.0272 69.9983 30.4609Z" fill="#EDEDED"/>
<path d="M47.7551 14.9766L48.775 16.2276C49.7665 16.1357 50.7628 16.0468 51.7567 16.0557C55.5258 16.0913 59.7148 16.6694 62.4165 20.2921C63.8682 22.2398 64.1647 24.0363 64.0105 26.6778C63.9323 27.9941 63.7781 28.7204 63.0001 29.595C60.3387 28.4091 57.9358 26.7638 55.1463 25.9841C54.8166 26.9209 54.7549 27.0513 54.0741 27.7213C52.7339 26.2539 51.6594 24.4544 50.5327 22.7349C48.1038 27.9556 49.2329 25.0858 46.0378 26.6659C45.1506 28.0593 44.4153 29.4527 43.1059 30.259C42.0219 29.7788 41.232 29.6809 40.0792 29.7046C39.5147 29.7165 39.3961 29.4794 38.9335 29.1029C38.7983 28.6582 38.6916 28.3973 38.6869 27.8814C38.6561 25.5394 40.537 20.7842 41.9579 19.207C43.6064 17.3779 45.7626 18.036 47.4847 15.4094C47.5795 15.2671 47.665 15.1189 47.7551 14.9766Z" fill="#FEFEFE"/>
<path d="M61.2173 10.8613L63.0508 11.1015C63.2074 11.2705 63.3616 11.4424 63.5229 11.6054C64.5808 12.6846 64.9912 13.0729 66.3219 12.895C66.5069 12.56 66.8745 11.8693 67.1022 11.6084C67.7782 10.8317 68.3238 11.1282 69.1327 11.2823L69.9226 12.6905C70.7884 13.2212 70.8405 13.2152 71.7941 13.0047C72.0384 12.6045 72.4938 11.727 72.8496 11.4098C73.5517 10.7872 74.0072 10.9858 74.7947 11.1192L75.5015 12.7231C76.3626 13.1885 76.4195 13.2123 77.3351 12.9603C77.5225 12.6194 77.8926 11.9138 78.1226 11.638C78.7939 10.8258 79.2968 11.0748 80.1365 11.1815C80.3025 11.5284 80.6322 12.2606 80.841 12.5423C81.4126 13.3131 81.8562 13.1322 82.601 13.0551C82.8168 12.7172 83.1964 12.1065 83.4383 11.8248C84.2306 10.8999 84.5982 11.0867 85.6229 11.1489C86.2325 11.9998 86.0428 11.6825 86.5172 12.5304C86.6192 12.7142 86.7164 12.901 86.8184 13.0848L87.8432 13.2123L88.3199 12.48C88.8916 11.5669 89.3944 11.3208 90.2412 10.891C91.1379 11.0481 91.1284 11.0629 91.7356 11.9049C92.0155 13.1974 92.082 13.7933 91.7617 15.0799C90.3148 16.245 64.8986 15.6462 61.611 15.4061C60.9872 14.1669 61.2149 12.2873 61.2173 10.8613Z" fill="#FEFEFE"/>
<path d="M52.4377 27.3574C53.0592 28.1134 53.3272 28.4632 54.008 29.1332L55.4597 29.4326L56.6029 28.3683C57.9692 29.0472 57.4237 28.5077 58.2397 30.1353C58.1566 32.1601 58.4294 31.3092 57.5233 32.83C54.6603 34.5199 53.3912 32.6907 51.1758 30.7489L52.4211 30.0908L51.7902 28.9465L52.4377 27.3574Z" fill="#FEFEFE"/>
<path d="M52.4376 27.3574C53.0591 28.1134 53.3271 28.4632 54.0078 29.1332C53.0401 29.5601 53.2109 29.3644 52.421 30.0908L51.79 28.9465L52.4376 27.3574Z" fill="#EDEDED"/>
<path d="M51.4679 29.9622L49.3924 29.8851C47.426 31.3852 47.3833 31.5334 45.2651 31.3526L45.1963 30.5936C46.4131 28.7319 49.243 26.7456 51.0813 26.0371L52.4381 27.3563L51.7905 28.9454L51.4679 29.9622Z" fill="#FEFEFE"/>
<path d="M56.1836 33.5647C57.7135 33.5083 60.3464 32.9926 61.5846 34.2851C62.1326 34.8573 61.8835 35.8355 61.8811 36.6656C60.5077 37.2259 59.1011 37.5669 57.6993 36.9918C56.6058 35.7496 56.5821 35.2871 56.1836 33.5647Z" fill="#EDEDED"/>
<path d="M47.3096 32.6601C49.359 32.5889 50.9246 32.2954 52.7439 33.6532L52.9502 34.7887L52.4474 35.7047L51.6741 35.6632C51.2638 34.5426 51.5507 35.0288 50.8035 34.2106L50.5142 34.4892L50.0991 34.8776C49.442 35.5031 49.1099 35.8589 48.2726 35.9626C47.4353 34.7353 47.4875 34.2224 47.3096 32.6601Z" fill="#EDEDED"/>
<path d="M87.2041 9.90792C87.6738 9.78637 87.4153 9.76859 87.9632 10.1421L87.7355 11.3843C87.3322 11.4258 87.5955 11.4376 86.9717 11.1234L87.2041 9.90792Z" fill="#9B9B9B"/>
<path d="M65.1808 9.87526L65.5556 9.60547L65.9493 9.87822L65.7098 11.4969C65.4963 11.6036 65.2496 11.5236 65.0195 11.5147L65.1808 9.87526Z" fill="#858585"/>
<path d="M51.7904 28.9453L52.4214 30.0896L51.1761 30.7477C50.7278 30.8248 49.7766 30.8219 49.2832 30.8397L49.3971 30.5284L51.4678 29.9621L51.7904 28.9453Z" fill="#3F5160"/>
<path d="M76.279 9.82422L76.8412 9.91614L76.6657 11.5022L76.1035 11.3806L76.279 9.82422Z" fill="#9B9B9B"/>
<path d="M81.7203 9.86914L82.3465 9.93139L82.133 11.4908L81.6064 11.3811L81.7203 9.86914Z" fill="#C8C8C8"/>
<path d="M31.7803 75.5548C31.8111 76.6398 31.7684 77.2861 31.7233 78.3771C30.0914 81.4455 28.4784 80.2477 26.2938 81.2853C18.3926 85.0296 10.2779 82.8892 2.51196 79.7823C0.372398 78.9285 2.14192 77.7664 1.52994 75.5281C0.540808 75.2791 0.818345 75.4747 0 74.8522C1.38763 73.524 2.7136 72.5428 4.19136 71.3955C4.476 68.7926 2.1016 65.9376 2.40048 62.6944C3.58411 62.2704 3.96127 62.2319 5.01444 61.4196C5.31332 60.13 5.24691 60.1834 4.9931 58.8523C4.00635 58.2179 4.0348 58.3068 3.38012 57.204C3.65053 54.773 3.93755 52.348 4.24354 49.9259L3.43942 48.2657C0.502867 42.1883 4.08935 44.2576 5.18047 42.3662C4.77249 39.7455 4.46649 38.3196 3.80944 35.773C6.36885 32.5683 28.6231 33.0722 31.7115 36.2058C31.804 37.2197 30.5753 44.7853 30.4235 47.6431L31.8491 49.499L30.8765 51.681L29.3584 52.4162C29.2564 53.5279 29.0904 53.9726 29.6051 54.7967L29.4794 56.9283C30.1104 59.2851 29.6502 58.6507 31.0758 59.9492C30.8979 61.8613 30.9169 62.0392 29.247 62.4869L29.0193 63.9129L28.9172 66.5543C32.5037 68.6058 31.0544 71.1909 28.7085 73.5892C28.7251 74.1229 28.7678 74.618 28.6563 75.1368L30.6038 74.8878L31.7803 75.5548Z" fill="#034173"/>
<path d="M28.6559 75.1377L30.6033 74.8887C30.7101 76.2642 30.6911 76.3146 30.5298 77.6932C28.6132 80.2901 20.6574 81.719 17.4102 82.5432C17.4718 81.4848 17.5454 80.6014 17.6521 79.549C19.7205 76.9046 24.5381 76.8275 28.1127 75.3659L28.6559 75.1377Z" fill="#FEFEFE"/>
<path d="M29.479 56.929C27.3964 57.264 19.5497 59.443 18.3115 57.3055C20.6029 55.1413 26.7085 54.7441 29.6047 54.7975L29.479 56.929Z" fill="#FEFEFE"/>
<path d="M29.3586 52.4157C27.0411 52.7389 20.8454 54.3872 19.1779 54.2212C18.0133 53.1421 18.3169 53.8298 18.0986 52.1993L18.1461 53.1095L18.1271 52.1756C20.4137 51.3989 27.9449 50.3524 30.3026 50.5125L30.8767 51.6805L29.3586 52.4157Z" fill="#FEFEFE"/>
<path d="M29.2469 62.4867C26.8014 62.7536 22.6313 64.4167 20.4443 62.8129C22.2067 60.7317 28.6847 59.7593 31.0757 59.949C30.8978 61.8612 30.9168 62.0391 29.2469 62.4867Z" fill="#FEFEFE"/>
<path d="M28.9176 66.5535C26.1922 66.3045 23.5688 68.5339 19.8661 68.1485L19.4628 67.1346L19.043 67.6119L20.312 68.1811L19.394 67.9855L19.4178 67.1168C21.6427 65.3351 26.3773 64.3776 29.0197 63.9121L28.9176 66.5535Z" fill="#FEFEFE"/>
<path d="M18.3901 34.3496L28.7701 36.152L18.1648 37.7292C14.519 36.8843 10.8518 36.1728 7.17285 35.5888L18.3901 34.3496Z" fill="#EDEDED"/>
<path d="M4.23412 63.7715C8.1266 64.3822 14.2203 64.5008 17.693 66.6501C18.4307 67.1096 18.3737 67.8182 18.6252 68.752C18.3737 68.7342 18.1199 68.7223 17.8685 68.6956C15.2118 68.417 5.62886 67.6106 4.1084 65.3545L4.23412 63.7715Z" fill="#FEFEFE"/>
<path d="M5.14453 53.7148C8.3847 54.4145 13.857 54.1418 16.618 56.3623C17.275 56.8929 17.275 57.8623 17.4671 58.7754C14.7275 58.3456 7.56401 58.1143 5.49561 55.9413C5.05916 55.4817 5.18486 54.3848 5.14453 53.7148Z" fill="#FEFEFE"/>
<path d="M3.91309 45.2812C7.11531 45.8534 16.0602 46.4582 18.3895 48.3941L18.5627 49.9534C15.0877 49.239 6.75712 49.0018 4.14079 46.894L3.91309 45.2812Z" fill="#FEFEFE"/>
<path d="M11.1384 62.4744C9.63926 61.8756 7.78672 61.9823 6.66001 60.9417L6.58887 60.1532C9.04628 59.0948 17.123 60.675 19.2507 62.5249L19.2697 63.2956C18.0528 63.9804 15.6239 63.2008 14.0963 62.9547C13.0953 62.4359 12.2722 62.5485 11.1384 62.4744Z" fill="#FEFEFE"/>
<path d="M28.3811 37.3747C29.6193 37.3184 29.6738 37.1286 30.5681 38.1662L30.4661 38.8096C27.7691 40.5202 22.8164 40.4727 19.7446 40.8492C19.1611 41.1486 19.5098 41.0804 18.6867 40.7484L18.5088 39.6604C19.5928 38.187 26.3127 37.8787 28.3811 37.3747Z" fill="#EDEDED"/>
<path d="M6.72223 41.3594C9.68963 41.8337 17.2279 42.2754 19.3271 43.9564L19.3556 45.489C16.5306 45.0028 8.57242 44.4574 6.6748 42.6253L6.72223 41.3594Z" fill="#FEFEFE"/>
<path d="M28.4309 45.9473C28.7227 46.2704 28.725 46.7596 28.8199 47.2221C27.5888 49.0512 22.2328 49.3684 20.1928 49.7301C20.0292 49.4751 19.9058 48.9296 19.8086 48.6213L20.2023 47.9454C22.7807 46.7092 25.7078 46.4335 28.4309 45.9473Z" fill="#FEFEFE"/>
<path d="M27.7428 41.8947L28.4711 41.7969L29.0807 42.5232L28.7367 43.2881C26.5426 44.4176 23.912 44.5421 21.5709 44.9334L20.8166 44.806L20.6885 44.2071C21.9148 42.3424 25.8713 42.2001 27.7428 41.8947Z" fill="#FEFEFE"/>
<path d="M5.05957 50.7827C8.66978 50.0653 15.0695 51.9063 18.4425 53.5042C15.4277 53.8481 7.32485 53.0862 5.05957 50.7827Z" fill="#EDEDED"/>
<path d="M8.39648 74.7571C11.0579 74.6118 15.7734 75.3974 17.9367 77.3837C15.1852 78.2049 11.0128 75.9578 8.39648 74.7571Z" fill="#C8C8C8"/>
<path d="M11.1387 62.4746C12.2725 62.5487 13.0956 62.4361 14.0966 62.9549L14.5402 63.9273C15.9942 64.2445 16.4899 64.4579 17.8989 65.0716C15.4937 64.7603 12.6069 64.953 11.1387 62.4746Z" fill="#727273"/>
<path d="M15.157 78.7891L16.0371 79.3435C16.4736 80.8732 16.2387 81.3682 15.9327 82.9128C15.501 82.5185 15.1665 82.0383 14.7989 81.555C14.5522 80.0994 14.5901 80.1053 15.157 78.7891Z" fill="#EDEDED"/>
<path d="M16.2961 38.2637L17.0765 38.907C17.622 40.2262 17.399 41.0356 17.297 42.4941L16.5783 41.8716C16.0185 40.3774 16.1609 39.8705 16.2961 38.2637Z" fill="#EDEDED"/>
<path d="M5.82742 38.2388C6.19271 37.8978 5.93419 38.0935 6.679 37.8652L6.65054 38.7339C6.18562 39.3861 6.47737 39.1608 5.75391 39.3683L5.82742 38.2388Z" fill="#EDEDED"/>
<path d="M38.6043 78.4927C42.8336 78.0925 47.4899 79.0945 51.7192 79.5777C49.6888 82.7854 47.2693 87.9408 43.9176 88.5723C39.2163 87.76 34.4746 87.4013 29.7686 86.5386L38.6043 78.4927Z" fill="#034173"/>
<path d="M39.1907 79.6133C42.6491 79.7141 46.1596 80.2714 49.6109 80.6271C48.1711 82.9247 46.3969 86.4407 44.1245 87.253L32.2383 85.8923C34.4727 83.6836 36.8708 81.6826 39.1907 79.6133Z" fill="#FEFEFE"/>
</g>
<defs>
<clipPath id="clip0_407_13883">
<rect width="96" height="96" fill="white"/>
</clipPath>
</defs>
</svg>
