<svg width="96" height="96" viewBox="0 0 96 96" fill="none" xmlns="http://www.w3.org/2000/svg">
<g clip-path="url(#clip0_407_9069)">
<rect width="96" height="96" fill="white"/>
<path d="M7.22439 49.4964C6.95534 44.3184 10.6967 39.3135 14.5434 38.0317C18.5285 36.7062 23.3831 37.9683 26.8944 40.6049C28.9142 42.1205 28.8674 41.7794 29.4757 44.5962C34.7105 38.619 42.5676 41.8817 48.6154 43.3218C50.218 43.702 53.3862 43.4193 54.6632 44.5012L55.0064 45.661C54.8777 51.0583 53.741 57.6374 52.2944 62.7277L52.1072 63.8145C50.4851 63.6902 47.9623 63.1176 46.8237 64.3555C46.6053 65.335 45.8645 66.8092 45.4472 67.723C43.9636 70.9662 38.8555 70.2888 39.3273 65.854C39.4794 64.4261 40.6881 63.5611 41.5596 62.7716C38.8262 62.6498 36.1572 62.5474 33.4296 62.2623C31.6145 71.4926 25.7519 68.5831 20.597 65.2838C20.1466 65.6932 19.1406 66.6216 18.6142 66.663C10.5602 67.282 6.23982 65.3764 -0.0126953 60.291C2.60958 54.6768 3.0697 53.4366 7.22439 49.4964Z" fill="#01335B"/>
<path d="M7.22439 49.4964C6.95534 44.3184 10.6967 39.3135 14.5434 38.0317C18.5285 36.7062 23.3831 37.9683 26.8944 40.6049C28.9142 42.1205 28.8674 41.7794 29.4757 44.5962C29.0663 45.0568 28.8109 45.2517 28.3527 45.6074L28.0057 46.3945L27.5163 47.1328L27.2102 48.6436C27.7932 49.1187 27.4812 49.0456 28.1402 48.897C27.8341 50.2908 27.3077 53.3537 27.7347 54.5965C27.0777 54.7159 26.9763 54.4892 26.2198 54.1335L24.3111 55.8684C24.4476 56.7724 24.5568 56.5288 24.3248 57.1355L19.784 58.2734C18.8989 58.1833 18.5538 58.0054 17.7661 58.3465L16.337 60.1789L15.3934 60.8904C16.9999 62.8081 17.6959 63.2394 19.6047 64.6308L20.597 65.2838C20.1466 65.6932 19.1406 66.6216 18.6142 66.663C10.5602 67.282 6.23982 65.3764 -0.0126953 60.291C2.60958 54.6768 3.0697 53.4366 7.22439 49.4964Z" fill="#3F5160"/>
<path d="M13.9237 55.8842L13.5864 55.6333C10.5196 53.3866 9.46289 54.661 8.54071 50.0556C5.8112 36.4222 26.0544 36.1103 28.1561 43.8542L28.006 46.3932L27.5166 47.1316C24.7189 44.1466 25.5494 36.8511 20.4433 42.899C18.3396 43.5691 16.4875 44.3757 14.339 44.4317L13.5455 44.9897C13.6761 46.7539 13.7463 46.5492 13.565 48.2183C13.3193 50.4869 13.8359 53.4232 13.9237 55.8842Z" fill="#FEFEFE"/>
<path d="M14.8945 42.4316C15.9844 41.9467 17.8853 41.3205 18.9244 41.9638L20.4432 42.8995C18.3396 43.5696 16.4874 44.3762 14.3389 44.4322C14.8185 43.4648 14.682 43.6232 14.8945 42.4316Z" fill="#EDEDED"/>
<path d="M14.8945 42.4316C15.9844 41.9467 17.8853 41.3205 18.9245 41.9638C17.7059 42.9312 17.1464 43.0652 15.7524 42.6997C15.4638 42.6242 15.1772 42.5364 14.8945 42.4316Z" fill="#3F5160"/>
<path d="M1.33691 59.9714C2.48526 57.6833 5.45262 50.1221 8.01445 51.5744C8.46482 52.939 8.32835 52.4955 8.02031 54.2183C10.5841 56.6452 12.4518 59.1989 15.3939 60.8899C17.0004 62.8076 17.6964 63.2389 19.6051 64.6303C18.6985 65.6488 18.7278 65.7731 17.4858 65.9461C16.3433 64.7472 16.6144 65.4393 16.2342 63.9895L15.0039 64.0967C13.6509 65.164 12.1477 64.6278 10.2332 64.852C6.90121 64.9446 3.89485 62.1571 1.33691 59.9714Z" fill="#FEFEFE"/>
<path d="M15.0035 64.0978C11.8295 62.4336 6.92609 61.186 4.91211 60.0066L5.10512 59.6289C9.17209 60.221 12.6795 61.2518 16.2337 63.9906L15.0035 64.0978Z" fill="#034173"/>
<path d="M23.4587 43.471L24.2698 41.8652L24.4374 42.6133C25.7437 48.342 27.8532 47.2991 26.2194 54.134L24.3107 55.869C21.4525 57.0703 20.893 57.3626 17.8281 56.6877C18.6528 55.4986 19.4522 54.2851 20.2262 53.0448C20.969 51.9678 20.7877 52.5623 20.9047 51.2684C21.8249 49.5725 21.5948 49.3752 22.827 48.8074L22.1446 47.5988L21.9906 46.6826C21.3219 45.9467 21.2283 45.7981 20.6766 44.916C21.1035 43.7732 21.4077 43.8828 22.4897 43.1104C23.1955 43.5782 22.9615 43.6562 23.4587 43.471Z" fill="#FEFEFE"/>
<path d="M22.1455 47.5983L23.1223 46.6699L23.6994 46.7942C23.791 47.8663 23.5707 48.1514 22.8279 48.8069L22.1455 47.5983Z" fill="#3F5160"/>
<path d="M23.6537 50.2832L24.4686 50.6048L24.7318 51.27C24.5213 52.7954 23.6303 54.0041 22.905 55.22C22.7822 55.1493 22.6496 55.1054 22.5365 55.0104C21.8288 54.411 21.7781 54.1015 21.6553 53.1219C22.1154 51.7452 22.7178 51.1775 23.6537 50.2832Z" fill="#858585"/>
<path d="M14.8281 45.6207C17.2808 44.9165 19.8348 44.283 21.9794 42.5261C23.2136 41.5149 22.9211 41.4199 24.2703 41.8633L23.4592 43.4691C22.9621 43.6543 23.196 43.5763 22.4902 43.1085C21.4082 43.8809 21.104 43.7713 20.6771 44.9141C21.2288 45.7962 21.3224 45.9448 21.9911 46.6807L22.1452 47.5969L22.8275 48.8055C21.5954 49.3733 21.8254 49.5706 20.9052 51.2666C20.7882 52.5604 20.9695 51.9659 20.2267 53.0429C19.4527 54.2832 18.6533 55.4967 17.8286 56.6858C17.1268 56.4665 16.7388 56.3983 16.0233 56.2594C16.9298 54.2052 17.0858 52.8334 16.0155 50.8767C15.5514 49.4902 15.1381 47.1461 14.8281 45.6207Z" fill="#9B9B9B"/>
<path d="M20.2269 53.0445C19.601 52.3476 19.5854 52.4158 19.2852 51.4533L19.6478 51.0391L20.9053 51.2681C20.7883 52.562 20.9697 51.9674 20.2269 53.0445Z" fill="#3F5160"/>
<path d="M19.5933 45.0879L19.7083 45.5386C19.4685 46.5767 19.2502 46.6181 18.6204 47.3028L18.2383 47.0689C18.2656 46.3257 19.1546 45.6069 19.5933 45.0879Z" fill="#3F5160"/>
<path d="M17.5711 52.7832C17.7505 52.9197 17.9532 53.0195 18.1092 53.1926C18.7097 53.8602 18.5947 54.445 18.5362 55.3222C17.9318 55.0323 17.8596 54.9446 17.458 54.3671L17.5711 52.7832Z" fill="#032C4D"/>
<path d="M21.3635 46.2109C21.5897 46.9931 21.5936 47.1661 21.4883 47.9897L20.8761 48.3991L20.5778 48.2602L20.4258 47.807L21.3635 46.2109Z" fill="#3F5160"/>
<path d="M16.3367 60.1788C14.6912 59.4137 13.1724 58.2806 11.8506 56.8357L11.9013 56.302C12.7825 56.2509 16.9996 57.7713 17.7658 58.3464L16.3367 60.1788Z" fill="#EDEDED"/>
<path d="M16.015 50.877C17.0853 52.8336 16.9294 54.2055 16.0228 56.2596C14.3305 54.683 14.1024 53.4671 14.9739 51.0889L16.015 50.877Z" fill="#9B9B9B"/>
<path d="M16.2334 63.9902C16.6136 65.4401 16.3426 64.748 17.4851 65.9469C15.2703 65.462 12.6168 65.3158 10.2324 64.8528C12.147 64.6286 13.6501 65.1647 15.0032 64.0974L16.2334 63.9902Z" fill="#EDEDED"/>
<path d="M41.5599 62.7711C42.3358 62.6858 42.5347 62.5152 43.1547 62.8125C43.956 63.1171 45.0692 63.5825 45.8549 63.8213C46.0226 63.9187 46.6718 64.3184 46.8239 64.355C46.6056 65.3345 45.8647 66.8087 45.4475 67.7224C43.9638 70.9657 38.8557 70.2883 39.3275 65.8535C39.4796 64.4256 40.6884 63.5606 41.5599 62.7711Z" fill="#032C4D"/>
<path d="M45.8542 63.8213C44.6337 69.9033 43.6589 65.7877 40.75 67.8321C41.2121 64.4475 40.711 64.3086 43.1539 62.8125C43.9552 63.1171 45.0685 63.5825 45.8542 63.8213Z" fill="#FEFEFE"/>
<path d="M28.1402 48.8965C29.1579 49.8834 29.772 50.2659 30.2283 51.7621C29.9319 53.8259 29.232 53.8771 27.7347 54.596C27.3077 53.3533 27.8341 50.2903 28.1402 48.8965Z" fill="#FEFEFE"/>
<path d="M19.7842 58.2727L24.3249 57.1348C23.2624 58.7966 23.6347 58.7381 22.2836 59.2693C21.3907 58.9428 20.6635 58.6553 19.7842 58.2727Z" fill="#EDEDED"/>
<path d="M54.6634 44.5C63.2711 45.1384 64.5325 48.5377 71.3153 52.8214C73.0525 53.9203 90.0008 58.3673 91.6814 58.2771C93.1553 59.917 96.0973 62.8484 95.9842 65.3436C95.6976 71.662 89.5699 67.8388 87.6046 66.6302C74.1716 69.391 64.7158 71.0845 52.1074 63.8133L52.2946 62.7266C53.7412 57.6363 54.8779 51.0572 55.0065 45.6599L54.6634 44.5Z" fill="#FEFEFE"/>
<path d="M54.6634 44.5C63.2711 45.1384 64.5325 48.5377 71.3153 52.8214C73.0525 53.9203 90.0008 58.3673 91.6814 58.2771C93.1553 59.917 96.0973 62.8484 95.9842 65.3436C95.6976 71.662 89.5699 67.8388 87.6046 66.6302C74.1716 69.391 64.7158 71.0845 52.1074 63.8133L52.2946 62.7266C56.5877 65.4216 64.0315 68.2482 68.9153 67.8656C72.53 67.5829 84.2824 67.3514 86.8696 65.1024C86.6376 63.577 84.6802 63.5283 83.5728 63.4844C73.5516 63.075 65.3436 63.248 56.7924 55.7746C59.5629 56.7128 63.7156 59.2446 66.1195 60.2095C69.4281 61.5375 85.0525 63.5453 87.5481 62.3148C87.8152 61.7154 88.3942 59.8172 87.8659 59.286C86.1541 57.6631 81.4125 56.2669 79.1685 56.2425C69.0362 56.1402 65.0336 45.9401 55.0065 45.6599L54.6634 44.5Z" fill="#3F5160"/>
<path d="M89.2289 59.2656C91.0616 59.385 92.2061 60.2086 93.5084 61.8315C94.5066 63.0742 95.304 64.3218 95.2865 66.1274C93.4031 65.9763 90.5917 64.7556 89.4726 62.7672C88.7747 61.5294 89.0866 60.6667 89.2289 59.2656Z" fill="#FEFEFE"/>
<path d="M87.5225 63.3691C87.6531 63.3935 87.7857 63.4081 87.9163 63.4423C89.5014 63.8614 93.1316 66.2298 93.9953 67.9502C92.4297 68.1597 90.5035 67.5432 89.1582 66.5344C87.9767 65.6499 87.8597 64.9408 87.5225 63.3691Z" fill="#FEFEFE"/>
<path d="M34.0853 70.3809C35.6079 70.4905 37.9046 70.9364 39.1797 72.0061C40.2578 72.9126 41.5115 74.5768 41.6577 76.2728C41.761 77.4497 41.5895 78.171 41.0182 79.114C40.0551 80.7149 38.7527 81.3996 37.2047 81.519C35.3857 82.0186 33.7402 82.0112 32.0752 80.8343C31.0146 80.0814 30.1353 78.9434 29.8916 77.3937C29.6459 75.8318 30.1392 74.5257 30.7572 73.2245C32.0713 72.5812 32.9896 72.1011 33.8903 70.7C33.9566 70.5952 34.019 70.4881 34.0853 70.3809Z" fill="#3F5160"/>
<path d="M30.7936 76.5028L30.6182 75.8863C31.3551 74.1489 33.1449 72.9647 34.5311 71.7975C35.3792 71.7098 34.9737 71.7147 35.9154 72.3775C35.9349 73.4253 35.9622 73.1061 35.775 74.0807C36.4457 74.2123 37.1124 74.3561 37.7792 74.512C38.3368 76.1836 38.7482 77.48 39.1947 79.2003C38.2998 80.8962 37.8884 80.5404 36.2994 80.3455L36.1688 79.8435L36.8083 78.6544C35.9719 78.1403 34.8587 78.5253 33.7766 78.6691L33.917 79.3611L34.9327 79.5706C34.7846 80.6209 34.9639 80.1311 34.1373 80.9133C31.8211 80.2773 31.669 78.9298 31.9478 76.4785L30.7936 76.5028Z" fill="#EDEDED"/>
<path d="M30.7939 76.5024C32.6695 75.1403 34.7225 74.2533 36.7131 76.0151C35.7577 77.5843 34.2058 75.6545 31.9481 76.4781L30.7939 76.5024Z" fill="#034173"/>
<path d="M37.0361 72.2969C37.1824 72.3042 37.3305 72.2993 37.4768 72.3139C38.5179 72.4041 39.0696 72.7867 39.7013 73.8223C40.5572 75.2234 40.68 76.7024 40.4578 78.3789C40.1068 78.1425 39.8241 77.8575 39.5102 77.5504C39.1846 74.5655 37.4378 74.1975 37.0361 72.2969Z" fill="#EDEDED"/>
<path d="M19.4738 28.6269C16.4811 27.4694 11.332 24.1507 12.3653 19.4429C13.1218 18.5048 13.3226 18.4755 14.3189 17.9443C15.2859 17.4229 15.8532 14.55 17.0893 14.5111C19.7018 14.4282 25.8179 14.6207 26.085 18.7729C25.4397 20.5395 23.4647 22.3962 21.9186 22.0502C22.137 20.8367 23.7942 21.1267 24.9152 19.1091C25.0946 17.9614 25.0517 18.0321 24.6929 16.9307C23.4198 15.9584 22.3475 16.3191 20.7449 16.4629C19.7798 15.5856 19.6492 15.5077 18.5594 14.8717C16.3504 15.0885 17.2317 16.5652 15.5589 18.7217C14.5684 18.9264 14.1941 18.9117 13.3421 19.6086C12.2211 23.6828 18.688 26.7969 20.2575 28.8779L20.1464 30.5518C20.7274 30.9807 20.4408 30.9466 20.9867 30.8126C19.2885 32.3282 18.573 32.857 18.9045 35.6738C17.8555 35.3522 18.3332 35.6543 17.5124 34.5481C16.6468 32.4574 18.456 30.3033 19.4738 28.6269Z" fill="#3F5160"/>
<path d="M20.2578 28.8789L20.1467 30.5529C20.7277 30.9818 20.4411 30.9477 20.987 30.8136C19.2888 32.3293 18.5733 32.858 18.9047 35.6749C17.8558 35.3532 18.3335 35.6554 17.5127 34.5491L18.0625 34.61C18.4427 31.9394 19.0529 31.184 20.2578 28.8789Z" fill="#EDEDED"/>
<path d="M20.9873 30.8145C22.0401 29.6863 21.9485 30.0981 22.3794 28.658C21.9173 26.5771 19.5934 24.7617 18.9812 23.2924L19.6713 22.7246L20.2211 22.9171C20.3908 26.8987 22.0597 24.4644 23.4654 27.2959C23.672 32.7882 19.8819 29.6521 19.7318 35.6074C19.0942 35.8048 19.3691 35.8365 18.9051 35.6757C18.5737 32.8588 19.2892 32.3301 20.9873 30.8145Z" fill="#3F5160"/>
</g>
<defs>
<clipPath id="clip0_407_9069">
<rect width="96" height="96" fill="white"/>
</clipPath>
</defs>
</svg>
