<svg width="96" height="96" viewBox="0 0 96 96" fill="none" xmlns="http://www.w3.org/2000/svg">
<g clip-path="url(#clip0_407_8629)">
<rect width="96" height="96" fill="white"/>
<path d="M35.3011 27.6977C42.4108 20.2366 53.7171 20.2305 60.834 27.6977C68.7621 27.8378 76.846 27.7282 84.7862 27.7191C87.5726 33.9565 94.2219 47.7738 96.1826 53.6854C94.8113 61.3292 76.8679 60.6808 72.8515 55.1557C72.759 54.6717 72.664 54.1846 72.5714 53.6976C75.029 47.0949 80.9208 34.8697 83.4222 28.9581L61.7352 29.0737C64.9722 37.2837 64.8188 43.4937 64.1977 52.4678C61.2384 53.0644 54.3796 53.0857 52.319 54.2394L51.9585 55.5423L51.2692 55.6306L51.1182 59.4814C51.1158 59.9684 51.0647 60.6716 51.1718 61.0826C49.4644 61.107 48.2929 61.1557 46.605 60.903L45.6575 61.6245C44.6199 68.3002 46.1568 86.9485 45.2118 94.9302C41.5632 94.8846 36.8137 94.023 33.2308 93.1342L34.1271 80.0962C32.7534 81.1891 30.386 83.2103 28.8515 83.4782C24.5258 84.2332 14.7491 75.0003 14.0963 69.938L15.9645 68.9273L18.5122 66.5072L19.0773 65.1222C21.5056 66.1572 24.8376 70.0415 26.8689 72.1693C33.0774 61.7463 34.2684 59.2227 44.2765 55.4693L44.4933 54.8148C43.1756 53.0096 35.7639 53.2105 32.5099 52.6321C30.9389 43.8955 31.2994 36.9397 34.5485 28.9245C27.2635 29.0159 19.9809 29.025 12.6958 28.955C14.827 34.06 22.2534 49.451 23.5272 53.932C21.7273 60.9395 3.35758 61.2501 0.196108 54.7174C-0.227695 52.0355 9.46132 31.9839 11.215 27.6977C19.1625 27.8317 27.3366 27.7038 35.3011 27.6977Z" fill="#3F5160"/>
<path d="M44.2768 55.4688L44.9515 55.6149C45.9574 64.4367 43.9504 86.3453 45.2121 94.9297C41.5635 94.8841 36.814 94.0225 33.2312 93.1337L34.1275 80.0957C32.7538 81.1886 30.3863 83.2098 28.8519 83.4777C24.5261 84.2327 14.7494 74.9998 14.0967 69.9375L15.9648 68.9268L18.5125 66.5067L19.0776 65.1216C21.5059 66.1566 24.8379 70.041 26.8692 72.1688C33.0777 61.7458 34.2687 59.2222 44.2768 55.4688Z" fill="#01335B"/>
<path d="M51.118 59.4814C49.1451 60.3063 46.9798 60.6899 45.5842 58.5621C45.1628 53.8802 49.3667 52.7448 51.269 55.6306L51.118 59.4814Z" fill="#FEFEFE"/>
<path d="M48.1029 31.8145C48.9115 32.3654 49.5716 33.4583 50.3023 34.1858C52.962 36.8342 55.5341 38.0731 58.7491 39.1599C58.4179 42.3136 58.1061 45.5708 56.691 48.3044C54.9105 51.7473 52.2995 52.6576 49.2964 53.5221C45.8791 53.3729 43.6164 52.6727 40.9811 49.8295C39.4076 48.1309 37.2083 45.0594 37.3471 42.2406C37.5322 38.478 42.5058 37.3152 44.6686 35.787C45.8645 34.9438 46.8023 33.6166 47.7181 32.3563L48.1029 31.8145Z" fill="#FEFEFE"/>
<path d="M50.4517 47.0352L50.7659 47.644C50.688 47.7444 50.6198 47.8601 50.5297 47.9453C49.3459 49.0747 47.434 48.7916 46.0578 48.5968C45.785 48.0366 45.8922 48.3898 45.8849 47.4857C47.3365 47.5253 48.6494 47.4796 50.0791 47.1326L50.4517 47.0352Z" fill="#858585"/>
<path d="M40.9111 41.3184C42.0656 41.7324 43.1178 41.6167 44.2967 41.5406L44.2699 42.4965C43.7292 42.9379 43.2932 42.9865 42.6672 43.1387C41.6296 42.5725 41.5225 42.5056 40.9111 41.3184Z" fill="#858585"/>
<path d="M51.1426 41.3262C52.3068 41.6823 53.566 41.5728 54.7619 41.588L55.327 42.3764C54.6864 42.5986 53.7828 43.0309 53.1252 43.0157C51.9707 42.9852 51.7783 42.3581 51.1426 41.3262Z" fill="#727273"/>
<path d="M47.4719 42.9149C47.696 42.8205 47.9445 42.8875 48.1807 42.8996L48.3707 45.5511C47.7496 44.9574 47.3575 44.5252 46.958 43.682L47.4719 42.9149Z" fill="#3F5160"/>
<path d="M33.1602 37.7048C35.854 24.0641 43.8405 21.4309 54.287 24.2772C59.1631 25.6075 61.7864 31.5253 62.8629 37.306C62.7801 39.0808 63.0139 40.2193 62.2881 41.2878L61.8594 41.2177C61.5818 40.9985 59.4676 39.0686 59.7258 39.2664C54.1189 34.9925 52.1193 36.6972 48.3391 28.9986C43.0806 37.6622 42.1647 34.7581 35.5885 40.2497C34.8773 40.8402 35.0527 40.8281 34.0224 41.4856C33.1285 40.268 33.3745 39.7292 33.1602 37.7048Z" fill="#FEFEFE"/>
<path d="M11.5315 30.1094C14.4738 34.0363 19.8712 48.0666 22.2167 53.3208L12.5009 53.3026L1.09961 53.2477C4.80423 45.7288 8.10943 37.8354 11.5315 30.1094Z" fill="#FEFEFE"/>
<path d="M84.2752 30.1094C87.3953 34.1976 92.1667 47.6435 95.0042 53.2752L84.3458 53.3117L73.8652 53.2599C77.3774 45.5735 80.8482 37.8567 84.2752 30.1094Z" fill="#FEFEFE"/>
<path d="M73.709 54.621C76.9338 54.4232 92.6121 53.4977 94.507 55.0776L93.8762 55.9483C92.159 56.8676 90.4248 57.5069 88.5664 57.8143C83.7536 58.618 77.6986 58.4262 73.709 54.621Z" fill="#FEFEFE"/>
<path d="M0.985352 54.6173C4.96764 54.392 18.8849 53.5001 21.8077 54.9461L21.2305 55.8654C19.5328 56.7878 17.806 57.4179 15.9695 57.7467C11.0032 58.6325 5.16249 58.459 0.985352 54.6173Z" fill="#FEFEFE"/>
<path d="M62.8629 37.3047C63.4255 41.8983 63.7738 46.7476 62.8531 51.3198C61.231 51.8282 57.5093 52.0687 55.6533 52.2453C56.82 50.3153 58.4982 47.2437 60.0667 45.9408L62.4001 44.0078L61.8594 41.2163L62.288 41.2864C63.0139 40.2179 62.7801 39.0794 62.8629 37.3047Z" fill="#FEFEFE"/>
<path d="M62.8629 37.3047C63.4255 41.8983 63.7738 46.7476 62.8531 51.3198C62.668 48.6623 63.0626 46.5497 62.4001 44.0078L61.8594 41.2163L62.288 41.2864C63.0138 40.2179 62.78 39.0794 62.8629 37.3047Z" fill="#EDEDED"/>
<path d="M33.7693 43.4199C35.4937 46.391 35.3354 45.1673 37.3619 47.3834C38.3848 48.5006 40.1556 51.0394 41.1274 52.4275C38.8184 52.324 35.5205 52.5553 33.6914 51.0333C33.2968 49.7608 33.3528 50.1779 33.2529 48.8354C33.2895 46.9115 33.192 45.1886 33.7693 43.4199Z" fill="#FEFEFE"/>
<path d="M33.1603 37.7031C33.3746 39.7275 33.1286 40.2663 34.0225 41.4839C33.9689 41.9527 33.8666 43.009 33.7692 43.4199C33.1919 45.1886 33.2894 46.9115 33.2528 48.8354C32.5757 44.668 32.7194 41.8279 33.1603 37.7031Z" fill="#EDEDED"/>
<path d="M35.1484 41.373C35.3287 41.4278 35.5187 41.4522 35.6916 41.5374C36.907 42.128 36.8729 43.4462 37.2065 44.8647C36.8363 44.9134 36.4174 44.8221 36.0447 44.7856C35.2458 43.5588 35.3068 42.9164 35.1484 41.373Z" fill="#FEFEFE"/>
<path d="M59.3631 41.2559C60.1815 41.4811 60.3033 41.5177 60.9658 42.2482L61.0389 44.51L59.8624 44.6135C59.122 43.6729 59.3802 42.5405 59.3631 41.2559Z" fill="#FEFEFE"/>
<path d="M51.9591 55.543C60.9954 58.2035 64.3151 62.3192 69.2059 72.1639C71.4419 69.9934 74.5668 66.7362 76.9854 65.202L77.5456 66.4318C78.2495 67.0802 79.5209 68.1822 80.1225 68.8671C81.2064 69.3328 81.1041 69.1624 82.0077 69.9386L82.2294 70.8093C81.0651 74.9919 72.7742 82.7727 69.1475 83.0649C65.6499 83.3511 64.6854 82.2704 62.0549 79.8534L62.9707 93.4088C58.8739 94.1546 55.425 94.596 51.3283 95.0313C51.1772 83.7163 51.1237 72.3983 51.1724 61.0833C51.0652 60.6723 51.1164 59.9691 51.1188 59.482L51.2698 55.6313L51.9591 55.543Z" fill="#01335B"/>
<path d="M45.434 0.617581C47.061 0.401448 48.6807 0.197496 50.2955 0.660203C52.5339 1.29947 54.8015 3.2142 55.8999 5.7743C56.6233 7.46075 56.8523 9.41814 56.3262 11.2446C55.4713 14.2035 53.3328 15.7469 51.1675 16.9736C49.2604 17.3207 47.4409 17.6312 45.5509 16.998C43.4879 16.31 41.4444 14.7271 40.3946 12.3405C39.5957 10.5262 39.4447 8.5749 40 6.61753C40.911 3.3999 43.086 1.94177 45.434 0.617581Z" fill="#032C4D"/>
<path d="M48.625 1.33984C49.3727 1.55293 50.1132 1.80559 50.8463 2.09783C52.4563 2.76449 53.9834 4.08563 54.7288 6.04604C55.664 8.51482 55.0722 10.7005 54.3902 13.1328C52.5123 13.1449 50.1424 9.93947 48.7443 8.44176C48.6347 6.08562 48.6542 3.70513 48.625 1.33984Z" fill="#FEFEFE"/>
<path d="M46.2502 1.49219L47.1635 1.96099C47.77 3.83922 47.5045 6.27752 47.4704 8.28055L42.5309 13.4921C41.7856 12.6672 41.9732 12.999 41.4544 11.9244C40.7773 10.515 40.5654 8.77373 41.0184 7.20601C41.9025 4.14971 43.9972 2.68548 46.2502 1.49219Z" fill="#FEFEFE"/>
<path d="M47.1606 10.3672C47.5966 11.7888 47.7671 13.5604 47.4164 15.0155C46.3349 16.1875 45.9379 15.8679 44.5472 15.804L43.8457 14.7507L43.9358 13.7766C44.9296 12.4798 46.0159 11.4479 47.1606 10.3672Z" fill="#FEFEFE"/>
<path d="M48.7118 10.4766C50.0514 11.5298 51.2279 12.6318 52.4091 13.9469L52.414 15.0518C51.0939 15.5572 50.4728 16.0199 49.1186 15.5816C48.4122 14.1052 48.668 12.1417 48.7118 10.4766Z" fill="#FEFEFE"/>
<path d="M14.0967 69.938C12.2749 68.0111 6.11024 68.6077 4.20312 64.6595C4.37362 63.0492 4.09354 63.7189 5.136 62.6291C6.66802 62.3247 9.09878 63.4723 10.7769 64.0172C11.1472 63.2866 11.1813 62.9152 11.3566 62.0811C13.3928 61.0827 17.5578 63.314 19.0777 65.1222L18.5126 66.5073L15.9649 68.9274L14.0967 69.938Z" fill="#3F5160"/>
<path d="M15.9647 68.9269C13.607 67.3713 11.4417 68.2359 9.48828 66.6195L9.76351 65.3257C12.338 65.4384 13.4486 65.1005 15.9695 64.3242C17.1728 64.5951 17.6258 65.417 18.5123 66.5068L15.9647 68.9269Z" fill="#EDEDED"/>
<path d="M76.9854 65.2017C78.5296 63.5945 82.8504 60.9887 84.7892 61.8989C84.9791 62.5869 85.1911 63.2048 85.4468 63.8624C87.9433 64.5412 89.4364 60.7665 91.8257 63.4697C91.8379 67.8197 85.4492 68.6721 82.6239 69.2109L82.0077 69.9384C81.104 69.1622 81.2063 69.3326 80.1225 68.8669C79.5209 68.182 78.2494 67.08 77.5455 66.4316L76.9854 65.2017Z" fill="#3F5160"/>
<path d="M77.5449 66.431C78.8504 65.0398 81.3153 62.8937 83.0885 63.3838L81.5978 64.3823L81.7099 65.0186C83.2906 65.5148 86.7492 65.8983 87.5969 66.3854C84.7983 68.3397 82.5746 67.1251 80.1219 68.8663C79.5203 68.1814 78.2488 67.0794 77.5449 66.431Z" fill="#FEFEFE"/>
</g>
<defs>
<clipPath id="clip0_407_8629">
<rect width="96" height="96" fill="white"/>
</clipPath>
</defs>
</svg>
