<svg width="96" height="96" viewBox="0 0 96 96" fill="none" xmlns="http://www.w3.org/2000/svg">
<g clip-path="url(#clip0_407_13971)">
<rect width="96" height="96" fill="white"/>
<path d="M48.3266 21.3555C48.6635 23.4117 49.2956 29.0457 50.1834 30.1399C58.0678 30.2168 68.1729 28.5324 73.2783 37.3107C75.0342 37.3753 78.7723 37.3476 80.2921 37.9131C99.3489 40.4274 97.1135 43.7438 92.5073 64.912L91.9982 66.083L90.8965 66.4826L90.412 66.3535C89.3446 66.3842 88.8823 66.4211 87.8273 66.6117C86.7108 68.336 87.0575 70.7027 86.4993 72.6698C83.708 82.4716 67.3318 71.2867 65.4504 81.236C63.5642 82.7544 46.3567 81.8907 43.2113 81.8108C43.7474 79.6377 45.6829 73.0018 44.9107 71.3543C42.299 73.7517 39.2839 74.8337 35.9762 74.3603C24.3832 72.6944 12.6968 70.841 1.17761 68.5788C0.336542 68.4159 0.279957 67.8995 -0.0126953 67.1342C1.6842 64.9304 12.0967 63.3505 14.3789 58.903L14.1748 57.7565C12.1877 55.5558 7.51021 56.6347 4.85912 56.1121C3.16469 55.7771 1.87606 55.4114 0.208674 54.9196L0.1275 54.5723C4.082 54.3356 9.62269 55.147 13.6288 55.6541C14.5142 53.4657 15.343 51.4556 16.1152 49.1965C16.666 46.1566 19.5262 46.716 20.7263 43.0553L21.8846 41.9273C22.4871 40.6395 22.4256 40.5964 22.8142 39.161C22.6617 36.9173 21.1271 34.9594 20.1533 32.9123L20.5738 32.104L20.9968 32.0671C22.401 31.7136 22.4183 31.5876 23.8078 32.2116L24.184 32.5189L26.7048 32.9984L27.172 32.4021L27.986 33.1828L29.405 32.8908L28.8246 34.5875L29.3509 35.6633C30.3519 35.0055 30.7478 35.0731 31.8766 34.9317C32.2529 35.1161 33.1554 35.6202 33.5022 35.6602L34.9851 38.2052C36.291 38.5894 35.6688 38.242 36.6943 39.8403C37.3558 40.7931 37.828 40.7132 38.5756 41.4878C39.6061 42.4314 39.0404 42.1302 40.3562 42.3515C41.817 40.9499 41.0939 37.6335 41.598 34.861L42.1244 35.2391C43.1966 33.4472 44.0819 32.7955 45.5329 31.4309L45.8649 30.2967L46.9765 31.3417C47.0748 31.2833 47.5372 30.5272 47.6232 30.395L48.0758 29.516L46.2042 25.8768C48.3881 24.174 48.1471 24.1924 48.3266 21.3555Z" fill="#727273"/>
<path d="M48.3262 21.3555C48.6632 23.4117 49.2952 29.0457 50.183 30.1399C58.0674 30.2168 68.1725 28.5324 73.2779 37.3107C75.0338 37.3753 78.7719 37.3476 80.2917 37.9131C99.3486 40.4274 97.1131 43.7438 92.5069 64.912L91.9979 66.083L90.8961 66.4826L90.4116 66.3535C88.304 65.7818 88.0114 65.8709 85.8103 66.0492C87.9966 77.8427 78.7375 76.3612 72.6877 75.2701C73.1648 71.551 73.3443 68.3298 74.1903 64.623C76.1208 56.1767 71.1359 57.6182 66.5813 58.2329C68.6078 53.9022 69.589 51.4156 70.767 46.6177C69.9481 47.6412 67.9413 52.8787 67.4913 53.9821C57.6124 78.2208 48.4762 68.7724 44.9374 47.0265C44.3226 43.2459 41.733 39.9018 42.124 35.2391C43.1962 33.4472 44.0815 32.7955 45.5325 31.4309L45.8645 30.2967L46.9761 31.3417C47.0745 31.2833 47.5368 30.5272 47.6229 30.395L48.0754 29.516L46.2039 25.8768C48.3877 24.174 48.1467 24.1924 48.3262 21.3555Z" fill="#FEFEFE"/>
<path d="M73.1357 38.4028C74.2449 37.7911 78.6371 38.0339 80.2922 37.9141C99.3491 40.4283 97.1136 43.7448 92.5074 64.9129L91.9983 66.0839L90.8966 66.4835L90.4121 66.3544C88.3045 65.7827 88.0118 65.8719 85.8108 66.0501C83.868 62.6814 80.7078 59.5586 79.5618 57.2442C76.8886 51.8346 75.959 45.0173 73.3497 38.9007L73.1357 38.4028Z" fill="#01335B"/>
<path d="M48.3265 21.3555C48.6634 23.4117 49.2954 29.0457 50.1832 30.1399C50.8153 30.8807 50.8694 30.6378 50.9161 31.3356C50.6529 34.3877 48.8577 38.3189 50.1341 40.8946L50.8645 41.0575C52.3867 39.6006 53.7663 35.78 54.7574 33.4963C55.4263 36.5423 52.3351 40.0093 51.5358 43.5932C52.3744 44.9733 52.522 45.4036 53.7786 46.2027L54.9222 44.4815L55.4116 44.5461C54.6837 52.9432 59.8752 53.309 59.8752 58.1346C59.2579 57.6643 50.9382 43.9651 49.4996 41.8689C46.514 37.5228 51.4276 35.8845 48.3584 30.0477L48.0756 29.516L46.2041 25.8768C48.3879 24.174 48.147 24.1924 48.3265 21.3555Z" fill="#034173"/>
<path d="M50.1836 30.1411C58.068 30.2179 68.1731 28.5335 73.2785 37.3118C75.0344 37.3764 78.7725 37.3487 80.2923 37.9143C78.6373 38.0341 74.245 37.7913 73.1359 38.403C70.6053 34.6409 68.7067 32.7536 64.7744 32.0098C63.3726 32.8213 59.8288 35.2033 58.5057 34.4011C59.4501 32.8028 60.8469 32.1481 62.2807 31.2322C58.6361 31.2291 54.5193 31.1092 50.9164 31.3367C50.8697 30.639 50.8156 30.8818 50.1836 30.1411Z" fill="#727273"/>
<path d="M20.9971 32.0678C22.4013 31.7143 22.4186 31.5883 23.8081 32.2122L24.1844 32.5196L26.7051 32.9991L27.1723 32.4028L27.9864 33.1835L29.4054 32.8915L28.825 34.5882L29.3513 35.6639L30.4087 37.2222C30.9325 38.2704 31.6974 39.3339 31.6556 40.3174C35.3912 42.5366 37.5111 44.3131 41.5369 42.5335C41.9943 42.3337 42.4468 42.1247 42.8993 41.9095C44.0896 48.6408 45.6242 55.6487 47.6113 62.0818C45.73 61.7283 43.7846 61.3257 41.9033 61.0398C40.0171 58.3566 38.9252 56.5493 37.2652 53.6262L36.6356 53.5463C31.8523 58.6947 27.1945 63.3973 20.5029 63.4588C17.1779 63.4895 14.8613 62.6504 14.999 57.6865C15.0974 52.738 16.7943 49.6213 19.856 46.6644C21.3144 45.2567 21.821 44.393 22.5785 42.2999L21.8849 41.928C22.4875 40.6401 22.426 40.5971 22.8145 39.1617C22.6621 36.918 21.1275 34.96 20.1536 32.913L20.5741 32.1046L20.9971 32.0678Z" fill="#FEFEFE"/>
<path d="M24.1836 32.5191L26.7043 32.9986L27.1716 32.4023L27.9856 33.183L29.4046 32.891L28.8242 34.5877L29.3505 35.6635L30.4079 37.2218C30.9318 38.2699 31.6966 39.3334 31.6548 40.317C30.8236 41.5526 28.352 51.0408 26.3354 55.3593C26.0625 53.7211 30.0711 42.3332 30.017 39.4256C29.9629 36.5671 26.4387 34.975 24.1836 32.5191Z" fill="#034173"/>
<path d="M20.5738 32.1033L20.9968 32.0664C23.0749 36.4371 25.2907 37.7711 22.5782 42.2985L21.8847 41.9266C22.4872 40.6388 22.4257 40.5958 22.8143 39.1604C22.6618 36.9166 21.1272 34.9587 20.1533 32.9117L20.5738 32.1033Z" fill="#858585"/>
<path d="M36.6353 53.5465C35.9123 52.0712 35.2655 51.2136 35.418 49.5508L35.9467 49.6184C36.864 51.3243 36.8567 51.5794 37.2649 53.6264L36.6353 53.5465Z" fill="#C8C8C8"/>
<path d="M29.3506 35.6632C30.3515 35.0054 30.7475 35.073 31.8763 34.9316L31.9082 35.9398C31.4286 36.3547 30.895 36.8404 30.408 37.2215L29.3506 35.6632Z" fill="#ABACAC"/>
<path d="M33.5019 35.6602L34.9849 38.2051L34.8742 38.6846L34.1118 38.5709C33.2043 36.7636 33.374 37.7103 33.5019 35.6602Z" fill="#727273"/>
<path d="M31.4827 60.0117C36.8464 61.1766 42.965 61.819 48.0729 63.1591C48.9656 64.4992 49.8608 65.8977 50.8052 67.1764C46.9023 68.6855 43.0978 70.5881 39.2786 72.0389C34.6699 73.508 32.8279 72.8257 28.2119 71.8298C19.0315 70.5696 9.86576 69.1619 0.714844 67.6067C5.30629 65.3568 9.91254 63.5925 14.472 61.3487C20.2611 66.6815 25.9568 65.0556 31.4827 60.0117Z" fill="#FEFEFE"/>
<path d="M28.4628 69.9048C31.2491 67.9746 34.001 67.824 37.0309 69.0012H37.2399C38.4326 69.4161 38.0539 69.0873 38.8876 70.0862L39.2786 72.041C34.6699 73.5102 32.828 72.8278 28.2119 71.832C28.48 71.0267 28.4062 70.8239 28.4628 69.9048Z" fill="#034173"/>
<path d="M28.2119 71.8314C28.48 71.0261 28.4062 70.8233 28.4628 69.9043C30.4154 72.0589 36.6619 72.9564 38.8876 70.0856L39.2786 72.0405C34.6699 73.5097 32.828 72.8273 28.2119 71.8314Z" fill="#EDEDED"/>
<path d="M37.0314 69H37.2404C36.9305 70.1065 37.115 69.7315 36.3846 70.5122C35.1279 70.5215 35.6468 70.8165 34.7295 69.8268L37.0314 69Z" fill="#EDEDED"/>
<path d="M29.1914 63.9494C32.1081 63.4515 40.0983 64.432 42.5674 66.2301C39.3703 66.5804 31.749 66.0825 29.1914 63.9494Z" fill="#034173"/>
<path d="M10.0459 66.075C12.7142 65.74 15.4439 66.3516 17.9991 67.3045C15.0824 67.5627 12.7585 67.744 10.0459 66.075Z" fill="#9B9B9B"/>
<path d="M49.2073 70.1096C53.7176 69.9405 58.2451 70.0174 62.7578 70.0051C63.2546 73.7641 64.076 77.2435 65.0228 80.8611L44.2617 80.9226C44.8519 79.3858 45.2897 77.7352 45.7668 76.1339L46.2881 73.2508L47.0136 72.7191C48.9933 73.4906 50.7984 73.8502 52.8494 74.1053C51.5165 74.4188 48.7548 74.5909 47.9383 75.8112C48.1621 75.9618 48.3761 76.1493 48.6146 76.263C49.9328 76.8992 58.1443 76.7271 59.4452 76.0909L59.0739 75.2426L59.4551 74.3266L59.851 73.3953C56.1916 71.628 51.5657 73.635 47.9334 71.6157L47.7809 70.9733L49.2073 70.1096Z" fill="#FEFEFE"/>
<path d="M46.1748 78.0544C48.6734 77.3567 57.9104 77.5442 60.0573 79.1087C56.3365 79.6681 49.5317 80.1445 46.1748 78.0544Z" fill="#858585"/>
<path d="M72.8528 60.625C72.8773 60.6527 72.9093 60.6773 72.9265 60.7111C73.7774 62.5122 72.8282 68.1523 72.4519 70.3008C72.1027 72.3017 71.1018 75.8487 69.4319 76.697C68.1384 77.3487 66.166 76.906 64.8872 76.3436C64.4741 74.0015 64.024 70.7311 64.2896 68.3521C64.6806 64.8236 67.644 65.3031 69.5352 63.7355C70.6615 62.8042 71.7362 61.6116 72.8528 60.625Z" fill="#FEFEFE"/>
<path d="M71.5733 59.5142L72.2323 59.3145C71.0002 61.5644 67.6286 63.1473 65.644 64.2753C65.0537 63.7804 64.8816 63.3717 64.5078 62.634C64.6209 61.7088 64.4758 61.7457 64.9874 61.1679C66.7261 59.1915 69.387 59.4712 71.5733 59.5142Z" fill="#FEFEFE"/>
<path d="M36.7658 54.9531C37.0511 55.3466 37.3338 55.743 37.6019 56.158C38.202 57.0862 38.8365 57.7778 38.7233 58.9857L37.5773 58.8812C36.269 58.7521 35.2091 58.9273 34.1221 57.9714C34.4836 56.5575 35.8288 55.7615 36.7658 54.9531Z" fill="#FEFEFE"/>
<path d="M62.9543 64.9609C62.9666 64.9825 62.9813 64.9978 62.9887 65.0224C63.3478 66.3656 63.4978 66.8236 63.2617 68.176C62.1206 69.1473 60.9992 68.9167 59.6835 68.8583L59.563 68.846L59.3662 68.4219C60.6278 67.3461 61.7911 66.1996 62.9543 64.9609Z" fill="#FEFEFE"/>
<path d="M20.1536 32.9124C14.967 22.797 38.9177 -0.488812 48.3269 21.3555C48.1474 24.1925 48.3883 24.1741 46.2045 25.8768L48.076 29.516L47.6235 30.3951C47.5374 30.5272 47.0751 31.2833 46.9768 31.3417L45.8652 30.2967L45.5331 31.4309C44.0822 32.7956 43.1969 33.4472 42.1246 35.2391L41.5983 34.8611C41.0942 37.6335 41.8172 40.9499 40.3564 42.3515C39.0407 42.1302 39.6064 42.4314 38.5759 41.4878C37.8283 40.7133 37.3561 40.7932 36.6946 39.8403C35.669 38.2421 36.2913 38.5894 34.9854 38.2052L33.5024 35.6602C33.1557 35.6203 32.2532 35.1162 31.8769 34.9318C30.7481 35.0731 30.3522 35.0055 29.3512 35.6633L28.8249 34.5875L29.4053 32.8909L27.9863 33.1828L27.1723 32.4022L26.7051 32.9984L24.1843 32.519L23.808 32.2116C22.4186 31.5877 22.4013 31.7136 20.9971 32.0671L20.5741 32.104L20.1536 32.9124Z" fill="#01335B"/>
<path d="M37.6902 27.876C39.628 27.8606 39.8765 27.713 41.3987 28.9978C42.68 31.1401 42.2398 32.5448 41.5979 34.8623C41.0937 37.6348 41.8168 40.9512 40.356 42.3528C39.0403 42.1315 39.6059 42.4327 38.5755 41.4891C37.8279 40.7145 37.3557 40.7944 36.6941 39.8416C35.6686 38.2433 36.2908 38.5907 34.985 38.2065L33.502 35.6615C33.1553 35.6215 32.2527 35.1174 31.8765 34.933C30.7477 35.0744 30.3517 35.0068 29.3508 35.6646L28.8245 34.5888L29.4049 32.8921L27.9859 33.1841L27.1719 32.4034C29.6361 27.3934 32.1175 30.9404 36.4212 29.9876C36.7532 29.6495 37.4024 28.3862 37.6902 27.876Z" fill="#FEFEFE"/>
<path d="M36.6943 39.8413L38.7429 38.8086L39.193 39.1221C38.9471 40.4284 39.0085 40.2501 38.5757 41.4888C37.8281 40.7142 37.3559 40.7942 36.6943 39.8413Z" fill="#034173"/>
<path d="M43.059 25.4808C44.1017 24.5618 43.5312 24.8476 44.8592 24.6816L46.2044 25.8773L48.0759 29.5165L47.6234 30.3955C47.5373 30.5277 47.075 31.2838 46.9766 31.3422L45.865 30.2971L45.533 31.4313C44.082 32.796 43.1967 33.4476 42.1245 35.2396L41.5982 34.8615C42.24 32.544 42.6803 31.1393 41.399 28.997C39.8767 27.7122 39.6283 27.8598 37.6904 27.8752C40.1571 26.8762 41.4998 28.5052 43.059 25.4808Z" fill="#034173"/>
<path d="M43.0586 25.4808C44.1013 24.5618 43.5307 24.8476 44.8587 24.6816L46.2039 25.8773L48.0755 29.5165L47.6229 30.3955C47.5369 30.5277 47.0746 31.2838 46.9762 31.3422L45.8646 30.2971L45.5326 31.4313C44.7505 28.7942 43.6021 28.6743 43.0586 25.4808Z" fill="#034173"/>
<path d="M43.0586 25.4805C44.844 26.3503 46.054 29.2856 46.9762 31.3419L45.8646 30.2968L45.5326 31.431C44.7505 28.7938 43.6021 28.674 43.0586 25.4805Z" fill="#EDEDED"/>
<path d="M44.8594 24.6816L46.2046 25.8773L48.0761 29.5165L47.6236 30.3955C46.6276 28.3208 45.4053 27.1713 44.8594 24.6816Z" fill="#C8C8C8"/>
<path d="M41.2656 27.2695C41.9665 27.5154 42.7781 27.9242 43.2724 28.625C44.0224 29.6823 44.0249 30.334 43.9757 31.6249L43.6634 31.6464L41.2656 27.2695Z" fill="#C8C8C8"/>
<path d="M24.7199 25.2383L25.3519 25.4043C25.7921 26.3448 25.8093 26.2833 26.4093 26.9964L26.2717 27.5128C24.7641 28.982 23.7608 29.5936 23.8075 32.2124C22.418 31.5884 22.4007 31.7144 20.9965 32.0679L20.5735 32.1048C20.5022 28.2105 22.1499 26.9042 24.7199 25.2383Z" fill="#C8C8C8"/>
<path d="M24.7196 25.2383L25.3517 25.4043C25.7919 26.3448 25.809 26.2833 26.4091 26.9964L26.2714 27.5128L25.7943 27.2699C24.1097 27.5251 23.7728 29.5137 22.0488 30.4665C22.8456 28.4256 24.5425 26.7597 24.7196 25.2383Z" fill="#034173"/>
<path d="M36.4217 29.9866C35.7601 29.4917 35.0986 29.003 34.4346 28.5174L34.6092 28.0656L37.6906 27.875C37.4029 28.3852 36.7537 29.6485 36.4217 29.9866Z" fill="#9B9B9B"/>
<path d="M15.4883 73.3438C18.5329 73.7095 28.1806 74.5148 30.4111 75.775L30.8243 76.7063C29.7865 79.4357 25.8959 81.366 23.6432 82.7737C20.579 82.2419 9.09425 80.7358 7.0752 78.8271L7.08997 78.1048L8.2335 77.1551C10.2452 76.485 13.4865 74.4871 15.4883 73.3438Z" fill="#858585"/>
<path d="M16.0046 74.7386C17.6129 74.0132 28.0525 76.4322 30.6765 76.7088C28.3673 78.3071 25.9793 79.9146 23.7069 81.5775C21.6879 81.2855 13.506 80.2589 12.1976 78.9587L12.1533 78.7282C14.2707 77.4895 14.8463 77.133 16.0046 74.7386Z" fill="#FEFEFE"/>
<path d="M8.2334 77.1551C10.2451 76.485 13.4864 74.4871 15.4882 73.3438L16.0047 74.7392C14.8464 77.1336 14.2709 77.4901 12.1535 78.7288C10.8353 78.2646 9.53189 77.696 8.2334 77.1551Z" fill="#034173"/>
<path d="M13.3752 75.6641L13.7072 75.7532L13.808 76.3587L12.1333 78.0953L11.5824 77.5697L11.5332 76.9273L13.3752 75.6641Z" fill="#C8C8C8"/>
<path d="M16.8576 36.6113C18.6627 38.643 20.2858 40.0999 20.726 43.0567C19.5259 46.7174 16.6658 46.1581 16.1149 49.1979L15.4263 48.2758C14.7451 47.7809 14.0663 47.283 13.39 46.7759C12.1579 45.8753 11.8899 45.949 11.3193 44.2923C11.7546 40.7607 14.4082 39.0426 16.8576 36.6113Z" fill="#EDEDED"/>
<path d="M16.8576 36.6113C18.6627 38.643 20.2858 40.0999 20.726 43.0567C19.0881 41.858 18.011 39.6266 16.6977 37.8531C14.8754 39.8755 13.7294 40.9728 12.2809 43.4594L12.2637 44.5844C13.1933 44.9286 12.8096 45.0208 13.4343 44.6796L14.7131 45.9828C15.1706 48.5001 16.1346 45.8445 15.4263 48.2758C14.7451 47.7809 14.0663 47.283 13.39 46.7759C12.1579 45.8753 11.8899 45.949 11.3193 44.2923C11.7546 40.7607 14.4082 39.0426 16.8576 36.6113Z" fill="#727273"/>
<path d="M13.4346 44.6781C15.4438 43.0306 15.6406 42.3944 18.0678 41.918L18.3999 42.4405L17.9449 44.2693L19.2434 43.4671L19.5877 44.0142C18.4662 45.385 18.3581 45.3082 16.9218 45.9444L17.0177 45.7139C16.3439 45.9383 16.0734 46.0397 15.3971 46.3409L14.7134 45.9813L13.4346 44.6781Z" fill="#032C4D"/>
<path d="M33.463 77.2031C34.5992 77.2185 35.3837 77.2769 36.4756 77.7441L36.8174 78.7983L36.2001 80.4519C35.0959 80.498 34.5254 80.5595 33.5245 79.8679C33.1162 78.7 33.2466 78.4756 33.463 77.2031Z" fill="#727273"/>
<path d="M90.8965 66.4827L91.9982 66.0831L92.5073 64.9121C93.5647 66.0647 94.6665 66.2676 95.9871 66.7348L95.6748 67.2511C94.1919 67.3157 92.281 67.1282 90.8965 66.4827Z" fill="#ABACAC"/>
</g>
<defs>
<clipPath id="clip0_407_13971">
<rect width="96" height="96" fill="white"/>
</clipPath>
</defs>
</svg>
