<svg width="96" height="96" viewBox="0 0 96 96" fill="none" xmlns="http://www.w3.org/2000/svg">
<g clip-path="url(#clip0_407_9157)">
<rect width="96" height="96" fill="white"/>
<path d="M60.4913 31.9366C58.8835 31.7341 57.1757 31.724 55.7971 30.7952C54.8361 28.9781 55.25 21.0137 55.6882 19.4876C58.581 9.4049 73.6481 9.54155 74.1384 22.3803C74.4036 29.3299 77.0877 30.9192 69.4683 31.8024C72.8337 33.7916 73.8492 34.3611 75.782 38.5623C76.7617 38.9976 77.8652 39.4556 78.8251 39.9238C80.3033 37.6967 80.9573 37.021 82.9256 35.4519C80.8419 33.9309 78.6853 30.9369 77.7842 27.7836C75.6208 20.257 87.6173 14.7095 91.7745 17.1087C92.8578 17.7313 92.6169 19.9482 92.8558 20.3556C96.2638 26.179 97.0373 31.5873 90.11 34.0878C89.8589 34.1763 89.6078 34.2624 89.3567 34.3434C100.348 40.7463 94.4231 44.4413 95.0427 57.156C95.2047 60.4891 97.1548 70.0454 96.1524 72.6976C95.0185 73.5151 94.4089 73.5378 93.1332 73.8162C93.0988 76.8228 92.9773 80.0901 93.3357 83.0385C93.1697 84.519 93.3519 84.9771 92.3739 85.8705C90.9585 87.1662 88.2045 87.2826 86.5643 87.0194C86.3173 86.6828 85.6491 85.9995 85.3433 85.6629C83.7538 86.2425 81.5223 86.3336 80.4167 87.5104C78.5254 87.5534 76.6543 87.6977 75.0006 86.5614L74.4038 86.531C72.1815 86.7284 66.8845 88.4974 65.5846 86.4348C66.0162 84.6987 66.1486 85.0049 67.43 83.575C67.4028 80.7987 67.4449 79.4118 66.9812 76.6912C66.5127 76.0434 66.3934 75.2158 66.1486 74.3224L65.0833 73.758C63.6936 75.3398 64.0613 83.1625 64.0617 85.5971C62.4168 86.3462 57.9993 88.1532 56.9487 85.7338C57.4025 84.2988 58.1082 83.9774 59.1733 83.1473C60.6412 81.1075 59.6129 75.269 59.3462 72.4775C54.1571 71.6929 55.6238 70.8805 51.076 68.5041L50.6159 68.2662C49.2455 68.9369 47.8687 69.5215 46.4794 70.1264C46.4533 73.5202 46.4847 79.2499 46.1196 82.4539L46.6329 82.9044C48.3381 84.3798 48.5511 83.6788 49.5126 85.5769C48.8186 88.0976 42.6796 87.0017 40.9491 86.3943C40.6606 84.109 40.0128 72.9178 38.7039 71.8473C37.5292 74.1984 36.8857 83.0714 36.5149 86.3209C33.8584 87.3535 25.3889 87.6977 22.7316 86.6879C22.5405 86.655 20.8958 86.7689 20.5925 86.7866C18.234 87.4395 16.6392 88.1051 14.5693 86.3462C14.1082 85.2402 13.6749 76.7824 13.3076 74.244L12.1147 73.9554C11.926 77.8605 11.3979 82.7297 11.112 86.7436C9.19881 86.9106 3.85339 87.9533 2.95229 85.4731C3.76125 83.7395 3.71488 84.1622 5.29797 82.9828C5.3089 77.4227 5.49784 70.6882 5.14428 65.1786C5.0153 63.1667 3.72642 62.9338 2.60602 61.8987C1.88454 61.2331 1.72154 58.7124 1.57392 57.4344C0.130549 50.5658 -0.280311 43.7807 2.40819 37.1298C4.13849 32.8477 6.66419 31.8759 9.99217 30.6864L10.8864 31.0787C12.2595 30.198 13.8015 30.9799 15.6782 31.1166L15.7243 30.0891L15.9228 30.0031C16.9531 30.5371 16.5657 30.1271 17.1837 31.1799C22.128 33.1817 22.9829 35.6999 24.2284 41.627C24.6853 40.4148 25.1642 39.2152 25.6643 38.0308C28.4543 31.5545 30.3239 30.1195 35.689 28.1176L36.2657 29.1274C37.2044 30.2131 37.5667 30.8585 38.8177 31.1495C40.1256 30.8003 40.3392 30.1853 41.2085 28.9072L41.8486 28.0695C46.9166 30.4232 48.6805 31.7873 51.0776 38.2686C51.6367 39.8048 52.1719 41.3512 52.6826 42.9127C55.3496 40.4603 54.0539 36.4895 60.4913 31.9366Z" fill="#3F5160"/>
<path d="M41.2085 28.9061L41.8486 28.0684C46.9166 30.422 48.6805 31.7861 51.0776 38.2675C51.6367 39.8037 52.1719 41.35 52.6826 42.9115L52.9894 43.7948C51.902 44.8729 51.2157 45.5284 50.2563 46.7634C43.3713 38.885 34.0913 42.8989 37.9713 54.8822C37.0819 55.9097 36.5903 55.5579 34.9991 55.6743L34.0388 55.4364C32.2861 55.0366 32.2032 54.9606 30.5066 55.6111L29.877 53.6168L29.2227 52.5918C28.644 50.4482 28.9482 48.6564 28.1906 47.219L27.0065 46.2066C23.5345 41.6436 14.7418 42.6584 15.3514 49.6586L15.6456 50.7291L14.964 51.6858C15.4759 53.1435 16.6216 53.2144 17.5693 55.1479C17.2108 55.3655 16.0686 56.021 15.8011 56.2488C14.2472 55.649 9.89741 55.9426 8.14422 56.0894L7.57339 56.0362L6.87378 55.6591C6.05956 56.4411 6.42202 56.0641 6.04599 57.7294L2.67063 57.9571L1.57392 57.4332C0.130549 50.5646 -0.280311 43.7796 2.40819 37.1286C4.13849 32.8465 6.66419 31.8747 9.99217 30.6852L10.8864 31.0775C12.2595 30.1968 13.8015 30.9788 15.6782 31.1155L15.7243 30.088L15.9228 30.0019C16.9531 30.5359 16.5657 30.1259 17.1837 31.1787C22.128 33.1806 22.9829 35.6987 24.2284 41.6259C24.6853 40.4136 25.1642 39.214 25.6643 38.0296C28.4543 31.5533 30.3239 30.1184 35.689 28.1165L36.2657 29.1263C37.2044 30.212 37.5667 30.8573 38.8177 31.1484C40.1256 30.7991 40.3392 30.1841 41.2085 28.9061Z" fill="#01335B"/>
<path d="M28.1914 47.2195C28.8471 45.7213 29.0591 45.124 29.9411 43.8535C29.9409 47.1081 29.9199 50.3627 29.8778 53.6174L29.2235 52.5924C28.6448 50.4488 28.9489 48.657 28.1914 47.2195Z" fill="#EDEDED"/>
<path d="M10.8867 31.0767C12.2598 30.196 13.8018 30.978 15.6785 31.1147C15.265 32.3143 14.2625 33.6506 13.5592 34.6983L10.8867 31.0767Z" fill="#FEFEFE"/>
<path d="M52.9899 43.795C54.3351 43.2787 55.9143 42.6131 57.2607 42.2031C79.4513 49.9499 42.4164 77.0295 36.3262 69.6952L36.5289 69.2397C38.9683 69.394 41.279 69.4902 43.8257 68.6601C49.9876 66.6532 61.8101 59.1645 62.5843 50.3725C63.0994 44.5239 56.8734 41.4312 52.976 45.7462C51.9724 47.1584 51.3147 48.558 49.9558 48.8009L48.9399 47.9708L48.3204 48.7301L47.505 47.7531L47.1124 48.1226C46.8827 50.5294 47.0682 51.7695 46.9803 54.0422L46.7023 55.2064L45.5971 55.1709C44.2803 55.3886 42.8975 55.6645 41.5764 55.7126L40.3449 56.1883C42.9621 60.6071 45.4627 62.0294 49.0332 64.7854L48.7437 65.3397C45.4568 65.613 39.8844 58.0384 37.9718 54.8824C34.0919 42.8991 43.3719 38.8853 50.2569 46.7636C51.2163 45.5286 51.9025 44.8731 52.9899 43.795Z" fill="#EDEDED"/>
<path d="M40.3446 56.1878C35.7187 47.5527 40.4311 41.0739 47.5629 45.7787C48.1236 46.5759 48.5365 47.044 48.9396 47.9703L48.3202 48.7296L47.5048 47.7526L47.1121 48.1221C46.8825 50.5289 47.068 51.769 46.9801 54.0417L46.7021 55.2059L45.5969 55.1704C44.2801 55.3881 42.8972 55.664 41.5762 55.712L40.3446 56.1878Z" fill="#01335B"/>
<path d="M47.5635 45.7793C48.1242 46.5765 48.5371 47.0447 48.9403 47.9709L48.3208 48.7302L47.5054 47.7533L47.1128 48.1228C46.8831 50.5295 47.0686 51.7697 46.9807 54.0423C46.3518 51.3318 46.143 48.0697 47.5635 45.7793Z" fill="#032C4D"/>
<path d="M67.8468 67.7773C72.3381 68.4151 74.4135 68.5416 78.874 67.876L79.7913 68.5467L80.2226 73.6513C80.2003 74.6611 80.1274 75.4001 80.2752 76.3871L79.0562 77.3514C77.9243 76.992 78.4143 76.8756 77.4707 77.2704L75.3575 77.3766L74.1261 77.3994C74.2954 78.3055 74.5639 79.5076 74.6247 80.4009C74.6105 81.6967 74.736 83.9669 74.2569 84.9868L74.4041 86.5305C72.1818 86.7279 66.8848 88.497 65.585 86.4344C66.0165 84.6983 66.1489 85.0045 67.4303 83.5746C67.4031 80.7983 67.4453 79.4114 66.9816 76.6908C66.513 76.0429 66.3937 75.2153 66.1489 74.322C67.0103 72.7934 66.8204 73.6184 66.7442 71.7583L66.8299 70.9383C67.0783 69.6653 67.1373 68.7112 67.8468 67.7773Z" fill="#01335B"/>
<path d="M72.1905 77.2146L72.9431 75.6353L73.3356 75.6328L74.1261 77.3993C74.2954 78.3053 74.5639 79.5074 74.6247 80.4008C74.6105 81.6966 74.736 83.9667 74.2569 84.9866L74.4041 86.5304C72.1818 86.7278 66.8848 88.4968 65.585 86.4342C66.0165 84.6981 66.1489 85.0043 67.4303 83.5744C67.4031 80.7981 67.4453 79.4113 66.9816 76.6907L68.172 76.9842L70.8316 77.2348L72.1905 77.2146Z" fill="#3F5160"/>
<path d="M72.1912 77.2146L72.9439 75.6353L73.3364 75.6328L74.1269 77.3993C74.2962 78.3053 74.5647 79.5074 74.6254 80.4008C74.6112 81.6966 74.7368 83.9667 74.2577 84.9866C71.9337 82.4685 71.1132 81.0386 72.1912 77.2146Z" fill="#FEFEFE"/>
<path d="M68.1719 76.9844L70.8314 77.2349C70.9187 79.2165 71.1667 79.8062 69.9224 81.1197L69.2119 80.8641C68.1656 79.2722 68.477 79.3659 68.1719 76.9844Z" fill="#FEFEFE"/>
<path d="M67.0918 84.6851C67.8052 84.6573 68.5271 84.6092 69.2393 84.6775C69.9306 84.7459 69.9494 84.6219 70.4255 85.3204L70.1075 86.3808C69.0754 86.4795 68.0988 86.5377 67.0649 86.4542L66.667 85.8315L67.0918 84.6851Z" fill="#FEFEFE"/>
<path d="M68.1318 82.2041C68.8213 82.0725 69.3891 81.8852 70.0705 82.1484C70.6359 82.3686 70.6958 83.1455 70.9177 83.7757C70.2817 83.8162 69.7686 83.8567 69.1439 83.6517C68.5024 83.4416 68.4512 82.8798 68.1318 82.2041Z" fill="#EDEDED"/>
<path d="M7.57366 56.0371L8.1445 56.0903L8.55029 56.1763C11.3038 56.7356 13.0539 55.6575 14.2418 57.0925C14.3813 58.8514 14.0593 58.8489 13.9771 60.4509L13.2121 61.6175L12.5862 62.0959C11.5415 64.242 10.6827 79.1332 10.3537 82.818C8.76007 82.9193 8.40774 83.0104 6.88377 82.5954C5.11115 79.9304 6.94492 62.0579 6.88438 57.9251C6.85583 55.9739 6.4233 58.5527 6.79751 56.5559L7.57366 56.0371Z" fill="#FEFEFE"/>
<path d="M54.599 53.5232C55.6269 51.2885 56.7985 47.6265 58.0412 46.0245L58.4126 46.2092C58.9093 49.9447 57.0223 55.849 56.1157 59.787C54.2431 61.3383 52.3018 63.0011 50.3914 64.4613L46.5732 61.7028C46.6014 59.8098 46.5712 57.0183 46.702 55.2062L46.98 54.0421C47.0679 51.7694 46.8824 50.5293 47.1121 48.1225L47.5047 47.753L48.3201 48.7299L48.9396 47.9707L49.9555 48.8008C51.3144 48.5578 51.9721 47.1583 52.9757 45.7461C53.1389 47.8593 53.1136 48.8058 53.8018 50.7925L53.8814 52.354C54.2971 52.9209 54.32 52.8602 54.599 53.5232Z" fill="#FEFEFE"/>
<path d="M48.9397 47.9707L49.9557 48.8008C51.3146 48.5578 51.9723 47.1583 52.9758 45.7461C53.139 47.8593 53.1137 48.8058 53.802 50.7925L53.8816 52.354C54.2973 52.9209 54.3202 52.8602 54.5992 53.5232L54.4696 54.0041L53.9126 54.7406L53.3648 54.5457C52.3352 54.571 51.1546 54.5229 50.1648 54.7988L49.5707 54.3103C48.9813 52.1541 48.6967 50.9545 48.3203 48.7299L48.9397 47.9707Z" fill="#01335B"/>
<path d="M53.3646 54.5455L53.9124 54.7403L54.4694 54.0039L54.5081 54.8416C54.7979 60.5915 50.9098 61.3103 48.85 57.1117C48.766 55.4464 48.7694 56.0007 49.5705 54.3101L50.1646 54.7985C51.1544 54.5227 52.3349 54.5708 53.3646 54.5455Z" fill="#3F5160"/>
<path d="M53.3652 54.5469L53.442 56.3766C52.5856 57.0802 52.904 56.8448 51.8079 57.0827C51.1508 56.8094 50.4967 56.5285 49.8457 56.2324L50.1652 54.8C51.155 54.5241 52.3356 54.5722 53.3652 54.5469Z" fill="#EDEDED"/>
<path d="M70.7474 54.7715C73.9468 56.8265 74.7625 54.3615 76.4432 56.7202C78.2549 59.2637 79.6865 57.3023 81.191 60.8606L80.9399 61.5136L78.8036 62.2095C78.4027 63.5762 78.7591 66.2942 78.8745 67.876C74.414 68.5416 72.3386 68.4151 67.8473 67.7773C68.1373 65.6742 68.4325 64.2443 68.2851 62.1057C66.8504 60.4987 66.6601 61.549 66.0391 59.7825C66.5728 57.6743 69.2257 55.7863 70.7474 54.7715Z" fill="#FEFEFE"/>
<path d="M19.1471 58.5469C22.0164 59.6756 23.2795 58.3874 24.5842 58.9416C27.5602 60.2045 28.1655 64.3804 31.2726 66.7062C31.9007 67.0984 32.0609 67.144 32.6151 67.6679L33.0889 68.3563C31.2286 69.5558 27.1792 64.9877 25.9867 63.3275C26.1952 65.3471 26.4032 68.2221 26.8645 70.1025C23.6592 70.515 21.8252 70.6086 18.6026 70.5403L16.9605 70.0999C16.3087 68.3638 17.4755 66.8048 16.9018 64.026L16.4361 63.7957C15.4981 65.499 16.4063 69.2926 15.033 71.4235L14.3352 71.3401L13.959 70.6213C13.9683 68.05 14.6916 65.2003 15.2086 62.6594L19.1471 58.5469Z" fill="#FEFEFE"/>
<path d="M31.2725 66.707C31.9006 67.0993 32.0608 67.1449 32.615 67.6687C31.7416 67.2385 32.0126 67.4157 31.2725 66.707Z" fill="#9B9B9B"/>
<path d="M31.784 65.9782C31.7696 63.3032 31.1155 57.9025 32.0837 55.9133C32.3032 55.4628 33.4566 55.5058 34.0395 55.4375L34.9998 55.6754L35.5763 55.7716C35.9345 55.8374 37.0093 55.9968 37.18 56.2651C38.6683 58.601 45.6479 64.0498 45.2542 66.945C43.9421 67.8612 41.907 68.1092 40.361 68.4382C40.1795 66.3908 39.8924 61.6709 39.114 60.1423L38.5817 60.1523C37.7857 61.9543 37.4206 65.915 36.9955 68.218C35.7164 68.5951 33.0801 66.7501 31.784 65.9782Z" fill="#FEFEFE"/>
<path d="M18.6024 70.5413C21.8251 70.6097 23.659 70.516 26.8643 70.1035C27.233 71.2247 27.5961 72.2952 27.9264 73.4366C27.9788 76.0762 28.5245 77.1999 26.5689 78.7512C24.5375 78.1464 24.66 78.1616 22.4801 78.5007C21.9777 78.1717 21.8994 78.2223 21.3273 78.0705L19.7145 78.6981C18.6838 77.992 17.7831 78.2729 16.574 78.3792C16.1085 78.2274 16.0552 78.1211 15.6267 77.8148L15.2305 75.4385C16.1022 72.6293 15.0988 72.3787 16.4414 70.8628C17.1797 70.8349 17.8775 70.7185 18.6024 70.5413Z" fill="#01335B"/>
<path d="M15.6464 50.7303C17.2787 50.0445 17.4867 49.9863 19.1897 50.2546C20.2714 49.1157 21.1184 47.8073 22.3133 47.7617C22.8068 48.4855 23.2454 49.1486 23.7136 49.9002C24.6624 49.9913 24.7576 49.9281 25.7103 49.7256C26.8842 50.328 27.2325 51.0391 28.0692 52.2261C24.8639 53.0866 24.7163 59.5628 17.5701 55.1491C16.6224 53.2156 15.4767 53.1447 14.9648 51.687L15.6464 50.7303Z" fill="#FEFEFE"/>
<path d="M22.7698 53.7852C22.9166 53.8813 22.95 54.1344 23.0288 54.3166C22.31 55.0151 21.3848 55.0329 20.5098 55.1898L20.2441 54.3976C20.9265 53.6535 21.8778 53.8535 22.7698 53.7852Z" fill="#034173"/>
<path d="M27.1647 66.4004C28.4131 67.4583 29.4332 68.3896 30.7923 69.2298C30.8221 71.4392 30.8513 80.9221 31.1084 82.5368C29.3702 84.3336 28.424 85.9685 26.3213 84.4424C26.3559 82.6354 26.4877 80.5804 26.5691 78.7506C28.5248 77.1993 27.9791 76.0756 27.9267 73.436C27.7094 70.9482 27.5028 68.878 27.1647 66.4004Z" fill="#FEFEFE"/>
<path d="M31.9666 82.2765C31.9398 79.5483 31.66 73.358 32.1523 70.9942L32.5828 70.4805C33.7133 70.9942 36.3813 71.4244 36.8825 71.923C37.1867 75.7875 35.8123 79.2952 36.1053 82.7523L31.9666 82.2765Z" fill="#FEFEFE"/>
<path d="M41.1152 71.4566C42.5033 71.1681 44.0787 70.8923 45.4348 70.5C45.4081 72.9296 45.1987 80.5776 45.4227 82.5947C44.0494 82.6225 42.7202 82.8554 41.5235 82.0936C41.1673 80.6688 40.5874 73.1346 40.8577 71.7806L41.1152 71.4566Z" fill="#FEFEFE"/>
<path d="M77.4705 77.2705C78.4142 76.8757 77.9241 76.9922 79.0561 77.3515C78.9609 79.5812 78.7361 81.5982 79.2079 83.7241L79.7607 84.4124L79.6798 85.1717L79.9065 85.5513L80.5161 86.3637L80.4168 87.5101C78.5255 87.5531 76.6545 87.6974 75.0007 86.5611L74.404 86.5307L74.2568 84.9869C74.7359 83.967 74.6103 81.6969 74.6245 80.4011C74.5638 79.5077 74.2953 78.3056 74.126 77.3996L75.3573 77.3768L77.4705 77.2705Z" fill="#3F5160"/>
<path d="M77.4706 77.2695C78.5074 78.3957 78.1044 79.7927 77.2357 80.8076L76.4804 80.762C75.4437 79.5751 75.733 79.5017 75.3574 77.3758L77.4706 77.2695Z" fill="#FEFEFE"/>
<path d="M79.9069 85.5509C78.9228 86.6998 79.3258 86.348 77.8132 86.6593C76.5374 86.1 76.9991 86.5834 76.291 85.3054L76.6286 84.6803C78.0642 84.4145 78.2465 84.5967 79.6801 85.1712L79.9069 85.5509Z" fill="#FEFEFE"/>
<path d="M74.6246 80.4004C75.0083 83.1615 75.034 83.7487 75.0008 86.5604L74.404 86.53L74.2568 84.9862C74.7359 83.9663 74.6104 81.6962 74.6246 80.4004Z" fill="#C8C8C8"/>
<path d="M31.1084 82.5361L31.9667 82.2754L36.1055 82.7512C36.5927 83.9761 36.3655 84.9783 36.5157 86.3196C33.8592 87.3522 25.3897 87.6963 22.7324 86.6866C23.1631 84.8669 22.8466 85.3047 23.8469 84.1558C24.6043 84.0824 24.7758 83.9583 25.5167 83.6951L26.3212 84.4417C28.4239 85.9678 29.3702 84.3329 31.1084 82.5361Z" fill="#01335B"/>
<path d="M15.3514 49.6599C14.7419 42.6597 23.5346 41.6449 27.0065 46.2079C27.4935 47.7517 27.8544 48.2148 27.6849 49.6852C25.953 49.541 22.3601 46.4533 22.0947 46.4786C20.5328 46.6229 17.4699 49.2474 15.3514 49.6599Z" fill="#FEFEFE"/>
<path d="M29.2235 52.5918L29.8777 53.6168L30.5073 55.611C30.6634 59.1794 30.7727 62.753 30.8357 66.329C30.1825 64.9067 27.2546 59.3389 27.2463 58.524C26.9485 57.7015 26.5111 56.8764 26.1328 56.0969C27.1319 54.1583 27.6811 53.8825 29.2235 52.5918Z" fill="#FEFEFE"/>
<path d="M45.4221 82.5949L46.1197 82.4531L46.633 82.9036C48.3382 84.3791 48.5512 83.6781 49.5127 85.5762C48.8187 88.0968 42.6797 87.001 40.9492 86.3936C41.0397 85.3712 41.1296 84.6144 41.2777 83.6021L41.9669 83.0554C43.4579 83.1313 43.9816 83.0757 45.4221 82.5949Z" fill="#01335B"/>
<path d="M59.5977 84.4569C62.5539 79.947 59.0463 75.7155 61.6764 72.3926C62.8888 72.4761 62.2858 72.3065 63.4683 73.3239C63.5677 74.979 63.1597 80.9872 63.0927 83.1485C61.9425 83.6293 60.7824 84.1608 59.5977 84.4569Z" fill="#FEFEFE"/>
<path d="M86.1902 78.9167C86.2367 76.5378 85.9472 76.4795 86.7713 74.6953L87.4112 74.708C88.9663 76.9553 89.6528 81.5209 88.2819 84.0492L86.5891 84.8666L86.5648 87.0178C86.3177 86.6812 85.6495 85.9979 85.3438 85.6613L85.7467 84.6945C85.9654 84.0998 86.0747 80.0556 86.1902 78.9167Z" fill="#FEFEFE"/>
<path d="M85.7467 84.6957C85.9654 84.101 86.0747 80.0568 86.1902 78.918C86.2226 80.3226 86.2226 83.6657 86.5891 84.8679L86.5648 87.0191C86.3177 86.6825 85.6495 85.9991 85.3438 85.6625L85.7467 84.6957Z" fill="#C8C8C8"/>
<path d="M89.4851 84.4298C90.0318 80.7754 90.1148 80.4666 89.313 76.5312C89.1125 75.5568 89.643 75.0254 90.1472 74.4332C91.508 74.0662 91.0281 73.8663 92.0547 74.3623C92.6318 76.4477 91.9616 79.7605 92.48 82.5646C91.6599 83.8022 90.7385 83.9591 89.4851 84.4298Z" fill="#FEFEFE"/>
<path d="M80.2755 76.3872L80.7979 74.8864L81.2556 74.8535C82.1202 76.8883 82.5009 81.4639 81.294 83.3671L79.7612 84.4123L79.2084 83.724C78.7365 81.5981 78.9613 79.5811 79.0565 77.3514L80.2755 76.3872Z" fill="#FEFEFE"/>
<path d="M82.3818 84.076C83.8276 80.7455 81.9282 77.9414 82.9549 74.7526C83.9896 73.8896 83.4105 74.1452 84.8138 74.2135C85.6865 75.2714 84.9839 80.7151 85.1823 83.0637L82.3818 84.076Z" fill="#FEFEFE"/>
<path d="M63.0927 83.149C63.7506 83.8551 63.8103 84.546 64.0622 85.5963C62.4173 86.3454 57.9998 88.1524 56.9492 85.733C57.403 84.298 58.1087 83.9766 59.1738 83.1465L59.5976 84.4574C60.7824 84.1613 61.9425 83.6299 63.0927 83.149Z" fill="#01335B"/>
<path d="M92.4793 82.5645L93.3358 83.0377C93.1698 84.5183 93.352 84.9763 92.374 85.8697C90.9586 87.1655 88.2046 87.2819 86.5645 87.0187L86.5888 84.8675L88.2816 84.0501C88.7817 84.2652 89.0227 84.4702 89.4844 84.4297C90.7378 83.959 91.6592 83.802 92.4793 82.5645Z" fill="#01335B"/>
<path d="M66.7446 71.7575L66.3564 72.7369L65.7694 72.8913C64.2412 70.8818 65.3658 64.9497 66.3208 62.7226L66.7667 62.5605C67.2162 63.7627 66.8562 69.0495 66.8303 70.9375L66.7446 71.7575Z" fill="#FEFEFE"/>
<path d="M79.7911 68.5471C79.7344 66.4896 79.4995 65.0065 80.2548 63.2324L80.7307 63.2577C82.0307 66.1276 82.1279 71.1715 80.2224 73.6517L79.7911 68.5471Z" fill="#EDEDED"/>
<path d="M85.1814 83.0625C85.4123 83.6395 85.6532 84.0976 85.7464 84.6949L85.3434 85.6616C83.7539 86.2412 81.5224 86.3323 80.4168 87.5091L80.516 86.3627L79.9065 85.5503L79.6797 85.1707L79.7607 84.4114L81.2936 83.3662L82.381 84.0748L85.1814 83.0625Z" fill="#01335B"/>
<path d="M16.7963 84.2012L18.2364 84.2037L18.7077 84.3783C19.7592 85.1502 19.907 85.1249 20.5692 86.4334L20.5935 86.7851C18.235 87.4381 16.6402 88.1037 14.5703 86.3448L15.9981 85.2591C16.4529 85.2439 16.8105 84.7681 16.7963 84.2012Z" fill="#01335B"/>
<path d="M53.8019 50.7922C53.5672 48.4209 53.3453 45.6522 55.8052 44.9512C57.2319 46.7885 54.886 50.5797 53.8815 52.3538L53.8019 50.7922Z" fill="#FEFEFE"/>
<path d="M45.5969 55.1719L45.4719 61.0914C44.2031 59.7248 41.9524 57.6572 41.5762 55.7135C42.8972 55.6654 44.2801 55.3895 45.5969 55.1719Z" fill="#FEFEFE"/>
<path d="M16.5741 78.3783C17.0354 79.6563 17.0619 81.3519 16.4253 82.5439L16.0205 82.5465C14.6581 81.0406 13.9301 77.7709 14.586 75.7032L15.2306 75.4375L15.6268 77.8139C16.0553 78.1201 16.1086 78.2264 16.5741 78.3783Z" fill="#EDEDED"/>
<path d="M21.3277 78.0703C21.8997 78.2222 21.9781 78.1715 22.4805 78.5005L22.7961 85.1641C20.1014 82.7042 20.5017 81.8792 21.3277 78.0703Z" fill="#FEFEFE"/>
<path d="M2.6709 57.9582L6.04626 57.7305C6.11652 58.9225 5.79841 59.173 5.47503 60.3043L5.33935 60.7927C4.39917 61.2989 4.89083 61.1925 3.81275 60.8408C2.59982 59.3881 2.93637 60.1398 2.6709 57.9582Z" fill="#FEFEFE"/>
<path d="M15.8015 56.2497C16.4827 56.2447 17.2035 56.1536 17.8323 56.3712L17.9175 57.1178L18.1605 56.5509L17.9985 57.2823C17.243 57.6569 16.6839 57.8593 15.9094 58.1478L15.8562 59.7625L15.4352 60.1649C14.8854 58.5553 15.2849 57.748 15.8015 56.2497Z" fill="#EDEDED"/>
<path d="M19.714 78.6973L19.6838 80.9016C18.9323 82.2125 19.4201 81.6507 17.8994 82.2429L17.9583 79.5071C18.7503 78.4214 18.2418 78.8112 19.714 78.6973Z" fill="#FEFEFE"/>
<path d="M26.1324 56.0977C26.5107 56.8771 26.9481 57.7022 27.2459 58.5247C26.2752 58.3703 25.5632 58.3906 24.7607 57.7149L24.927 57.0568C25.5687 56.6797 25.5385 56.7304 26.1324 56.0977Z" fill="#9B9B9B"/>
<path d="M13.9769 60.4512C14.6622 61.6837 14.3287 63.0528 13.8967 64.47L13.5916 64.3005L13.2119 61.6178L13.9769 60.4512Z" fill="#EDEDED"/>
<path d="M12.9153 70.584C12.9546 72.31 12.9293 72.6188 13.3081 74.2436L12.1152 73.955L12.1448 71.4293L12.9153 70.584Z" fill="#EDEDED"/>
<path d="M15.9973 85.2606C15.5438 85.2758 15.1653 84.8303 15.1517 84.2634C15.1384 83.6965 15.4952 83.2233 15.9488 83.2056C16.4025 83.1879 16.7816 83.6333 16.7956 84.2027C16.8097 84.7696 16.4521 85.2454 15.9973 85.2606Z" fill="#EDEDED"/>
<path d="M23.8467 84.1573C23.9121 83.3297 23.827 83.7701 24.1697 82.8641L24.7927 82.8008L25.5164 83.6967C24.7755 83.9599 24.604 84.0839 23.8467 84.1573Z" fill="#EDEDED"/>
<path d="M12.1445 71.4289C12.2344 69.6598 12.2776 69.3688 12.6623 67.6504C13.026 68.8981 12.9114 69.2144 12.915 70.5835L12.1445 71.4289Z" fill="#9B9B9B"/>
<path d="M18.2363 84.2048L18.1826 83.1546L18.8504 82.7598L19.4632 83.2255C19.2581 84.2074 19.4618 83.7948 18.7075 84.3795L18.2363 84.2048Z" fill="#EDEDED"/>
<path d="M68.373 32.7461C71.4084 33.799 73.0378 35.5123 75.1215 38.3316C74.0947 38.329 73.0212 38.2936 72.0031 38.4758C70.1912 38.7998 68.2416 40.1639 67.1524 42.0164C66.2883 43.4868 66.0152 45.2786 66.3321 47.0527C66.8752 50.0896 69.0819 51.9296 71.0433 53.5316C67.22 55.7005 65.6163 57.5353 64.6433 62.7892C64.4596 63.7813 64.3327 65.0872 63.9232 65.9729C63.4522 66.9929 62.8634 67.5421 61.9619 67.8432C60.6497 68.2811 57.6842 68.1697 56.5274 67.2207C56.0952 66.8664 56.1343 66.2615 56.027 65.6769C56.9803 62.5766 60.3415 60.1673 62.163 57.634C63.7179 55.4701 65.3613 52.5521 65.1368 49.4848C64.9636 47.121 63.6041 44.7421 62.0957 43.3805C59.825 41.3306 57.0715 41.4571 54.4395 41.986C56.3281 37.6609 57.8739 35.0618 61.3327 32.5664C62.3829 34.4797 63.5276 36.1096 64.7937 37.7976C66.0567 36.1981 67.201 34.4494 68.373 32.7461Z" fill="#FEFEFE"/>
<path d="M87.4638 56.1969L87.9599 56.0273C89.8472 57.5661 91.7992 57.2724 93.9274 56.9915C94.8002 62.0076 95.1586 67.135 95.4927 72.2421C93.3463 72.7053 91.1938 73.0115 89.0311 73.3177C86.8321 73.3202 84.6168 73.133 82.4177 73.0216C82.6485 69.0938 83.1305 62.1848 81.3627 58.8669C81.2979 58.7429 81.2271 58.6214 81.1582 58.4974L81.2918 57.6926C83.3552 57.2421 85.4126 56.7435 87.4638 56.1969Z" fill="#FEFEFE"/>
<path d="M90.8923 36.1855C102.892 45.3648 87.7172 58.6844 82.91 55.369L82.2803 53.9669C82.6913 52.5927 87.8448 50.7478 89.3939 49.6798C90.2464 47.4223 90.7809 46.2176 91.1859 43.7299L90.9369 43.0921L90.6858 43.0896L89.5174 43.6413C89.8657 40.3917 89.9831 39.673 90.7931 36.5753L90.8923 36.1855Z" fill="#FEFEFE"/>
<path d="M82.8675 25.9658C84.5624 25.2471 85.3096 24.8346 86.9073 23.8223C88.1668 25.2674 89.562 26.9022 90.943 28.1474L91.1293 29.1647L90.8478 30.9009C89.1347 32.8471 88.9403 34.8363 85.5546 35.3551C83.2016 35.7144 81.3002 32.9255 80.466 30.5238C80.0144 29.2635 80.0043 28.0487 80.4113 26.8162C81.3286 25.8975 81.6931 26.019 82.8675 25.9658Z" fill="#FEFEFE"/>
<path d="M80.466 30.5228C80.0144 29.2625 80.0043 28.0477 80.4113 26.8152C81.3286 25.8965 81.6931 26.018 82.8675 25.9648C82.5739 27.1088 82.5699 27.0227 82.8189 28.1844C84.9006 29.4042 84.5745 28.9511 85.6295 31.1732C86.2755 30.5506 86.4172 29.4573 86.5813 28.3235C87.1219 28.8955 86.8607 28.7943 87.2718 28.8829C87.5451 30.0647 87.8387 31.034 87.8529 32.2614C86.3767 33.2307 87.3163 32.3121 86.2553 32.5323C85.3643 31.7452 83.556 32.2108 82.4788 32.3956C82.7055 31.2415 82.7379 31.2542 82.6731 30.085L82.1224 29.6117C81.1787 29.7787 81.2415 29.8041 80.466 30.5228Z" fill="#EDEDED"/>
<path d="M82.4785 32.3956C83.5558 32.2109 85.364 31.7452 86.255 32.5323C84.5642 33.413 84.1288 33.127 82.4785 32.3956Z" fill="#034173"/>
<path d="M86.5811 28.3235L87.3789 28.2324L87.2715 28.8829C86.8605 28.7943 87.1217 28.8955 86.5811 28.3235Z" fill="#034173"/>
<path d="M65.2517 18.0098C65.8989 18.893 66.5766 19.5258 67.3177 20.2774L69.1606 21.5251C72.2547 23.8458 68.3306 28.1785 66.2792 29.4186C65.1857 29.1883 64.7467 29.2871 63.6644 29.3908C59.8435 27.9761 59.9164 26.8018 58.9521 22.2615C62.0157 21.024 62.8244 20.3837 65.2517 18.0098Z" fill="#FEFEFE"/>
<path d="M67.3169 20.2773L69.1598 21.525C67.4963 22.178 68.7795 23.0384 67.3493 24.7416L66.7995 24.5417L66.4443 23.6838C66.657 21.8895 66.6733 21.9325 67.3169 20.2773Z" fill="#EDEDED"/>
<path d="M63.9039 26.7626C64.7773 26.5323 65.434 26.2235 66.2735 26.5323L66.0285 27.4813C64.8631 27.5244 64.2609 27.5927 63.2422 26.9321L63.9039 26.7626Z" fill="#858585"/>
<path d="M63.9033 26.7636C63.8152 25.1717 63.3673 24.1872 64.5814 23.3926C64.9344 25.2831 65.2375 25.3135 63.9033 26.7636Z" fill="#C8C8C8"/>
<path d="M56.3896 21.8981C57.039 17.6818 58.5883 14.4196 62.154 13.6806C68.2977 12.4025 71.9458 14.622 73.1534 21.9993L72.5529 22.298C70.0022 21.3312 67.8986 19.6153 66.0502 17.2389L65.7256 16.8162C64.753 16.5555 63.488 18.2512 62.5345 19.0484C60.7503 20.539 58.9463 21.3185 56.9595 22.2549L56.3896 21.8981Z" fill="#FEFEFE"/>
<path d="M76.5026 45.3043C77.7074 45.1195 79.1836 46.8557 79.7546 48.0553C79.4266 51.8641 74.6481 53.1902 72.1149 52.35C69.6395 51.5275 69.2128 49.4674 67.0421 48.5082L66.8027 47.8528C68.0965 46.3368 70.4059 44.6918 72.0623 43.9199C73.7296 44.3552 74.396 44.6184 75.9072 45.5953L76.5026 45.3043Z" fill="#FEFEFE"/>
<path d="M75.9075 45.5957L76.5028 45.3047C76.6223 46.5448 76.8876 47.8127 75.9522 48.5644C75.3348 47.2686 75.5614 47.59 75.9075 45.5957Z" fill="#727273"/>
<path d="M71.8066 50.4599C72.3309 49.7437 72.8681 49.0452 73.4177 48.3594C74.1388 49.3641 74.222 49.6652 75.1526 50.3435C73.8735 51.4899 73.1164 51.4697 71.8066 50.4599Z" fill="#EDEDED"/>
<path d="M71.8066 50.4596C73.3213 50.2268 73.6684 50.1205 75.1526 50.3432C73.8735 51.4896 73.1164 51.4694 71.8066 50.4596Z" fill="#034173"/>
<path d="M70.389 46.123C70.878 46.2673 71.0989 46.4267 71.5163 46.7532C71.6539 47.9073 71.5027 48.1174 71.1017 49.1955C71.0647 49.1524 71.0244 49.1145 70.9908 49.0664C70.1911 47.9453 70.3712 47.558 70.389 46.123Z" fill="#858585"/>
<path d="M93.7131 28.5806C90.6149 25.4525 89.9609 27.5835 87.6039 22.4333C86.316 22.2587 85.4736 24.091 84.1878 24.5566C80.8527 25.7714 80.6158 23.7949 79.0992 28.0365C77.8052 25.3564 79.2632 21.712 81.2253 20.4947C86.8385 17.0072 94.7661 20.0847 94.2659 29.026L93.7131 28.5806Z" fill="#FEFEFE"/>
<path d="M86.2834 39.291C86.8058 39.5163 88.0755 39.8276 88.3691 40.3894C89.2661 42.0977 88.7316 46.3469 88.2415 48.245C87.9115 49.5281 87.713 49.5382 86.8059 50.2114C85.9068 50.6593 85.1251 51.1402 84.1329 51.0567C83.3169 48.2399 83.8353 43.3656 83.9568 40.316C84.629 39.6909 85.4775 39.5517 86.2834 39.291Z" fill="#FEFEFE"/>
<path d="M71.2162 39.5288C73.2772 39.42 75.2884 39.3188 77.2681 40.2122C78.5418 40.7866 79.4875 41.6927 79.9775 43.3098C80.2549 44.226 80.1759 45.132 79.8196 45.9823C79.0602 45.3117 78.3009 44.5904 77.4787 44.0488C76.523 43.4187 76.4217 43.6414 75.4173 44.0438C75.1083 43.6793 74.7991 43.2364 74.5067 42.8492C73.213 42.6139 72.2641 42.5126 71.0079 43.0162C69.9593 43.4389 68.9009 43.821 67.8469 44.2209L67.5752 43.902C68.4809 41.4522 69.3383 40.817 71.2162 39.5288Z" fill="#FEFEFE"/>
<path d="M82.7559 36.7969C83.1771 40.8133 83.4505 48.0412 82.2963 51.7944C81.5835 52.4752 81.5572 52.5714 80.6723 52.5663L80.0445 51.6071C80.6682 50.3215 81.1076 49.2459 81.2474 47.7325C81.5308 44.6399 80.9639 42.7721 79.4492 40.3299C80.4941 39.0493 81.6139 37.9332 82.7559 36.7969Z" fill="#FEFEFE"/>
<path d="M59.3996 45.5742C59.7781 45.8248 60.3386 46.1386 60.6638 46.5131C61.3922 47.3559 61.7285 48.2973 61.8261 49.5172C62.0426 52.2251 60.1829 54.8875 58.9481 56.8742C58.2887 57.4462 58.6192 57.3981 58.0002 57.2665C57.8698 53.1818 59.899 49.9727 59.3996 45.5742Z" fill="#FEFEFE"/>
<path d="M72.4924 25.199L73.469 25.0547C73.828 26.6542 74.1419 27.3881 73.7436 28.9597C72.3363 31.3564 68.5383 30.8679 66.2188 31.0173C69.1039 28.8408 70.4776 25.9126 72.4924 25.199Z" fill="#FEFEFE"/>
<path d="M56.1478 26.5056L56.7974 25.0352C59.5831 27.1028 60.2209 28.7504 63.8634 31.3318C61.2648 31.0306 56.3863 31.7114 55.7646 28.1455L56.1478 26.5056Z" fill="#FEFEFE"/>
<path d="M63.6187 30.2693C64.6229 30.3731 64.7681 30.4844 65.7567 30.2617C66.2095 31.0766 66.4727 31.5904 66.8631 32.4534C66.5871 34.3667 65.8954 34.7918 64.7359 36.4242C64.0867 35.3891 63.6103 34.5666 63.0109 33.4834C62.8446 31.5524 62.8428 32.2383 63.6187 30.2693Z" fill="#FEFEFE"/>
<path d="M52.3735 66.873C55.9735 68.5687 59.7239 68.9989 63.5455 68.5333L63.8535 68.4928L63.989 69.5431C63.3594 69.6418 62.7286 69.7253 62.0967 69.7936C59.4385 70.0796 54.165 69.948 52.04 67.7234L52.3735 66.873Z" fill="#EDEDED"/>
<path d="M5.96872 83.7866C6.72544 83.7486 7.53784 83.6651 8.2901 83.7764C9.20942 83.9131 9.78167 84.1738 10.2861 85.1279L10.0524 85.6467L8.85809 85.9985C7.47021 86.0162 5.31082 86.3351 4.06934 85.5607C4.39454 84.4826 5.17191 84.3029 5.96872 83.7866Z" fill="#FEFEFE"/>
<path d="M93.7533 51.8203C94.0287 52.167 94.1846 52.739 94.2899 53.1996C94.5592 54.3967 94.4438 54.5207 93.9537 55.533C92.6213 56.4137 91.5461 56.3276 90.0639 56.2947L89.833 55.8443C90.0355 54.8395 92.6963 52.9769 93.484 52.1189L93.7533 51.8203Z" fill="#FEFEFE"/>
<path d="M77.542 54.1595C78.194 53.9925 78.9392 53.8102 79.6034 53.8229C80.5288 53.8431 81.0107 54.1671 81.6546 54.9365C81.606 55.9336 81.4865 56.0146 80.9742 56.8016C80.0691 56.7966 79.6783 56.5258 78.9554 55.8324C78.7812 55.6654 78.6152 55.4831 78.4431 55.3136C78.0016 54.8808 77.8903 54.7593 77.542 54.1595Z" fill="#EDEDED"/>
<path d="M87.5998 16.8555C88.6892 16.9643 90.0945 16.9896 91.0239 17.8171C91.8136 18.5207 91.8298 19.0142 91.9331 20.1075C90.5906 19.3204 88.3409 19.0876 87.3203 17.8981L87.5998 16.8555Z" fill="#EDEDED"/>
<path d="M63.6745 70.4199C64.0888 70.5313 63.8211 70.4224 64.398 70.964L63.9987 71.5917C62.5557 72.0675 61.2371 71.9485 59.765 71.8675L59.0674 71.2222C60.1894 70.3794 62.3575 70.5414 63.6745 70.4199Z" fill="#C8C8C8"/>
<path d="M23.5859 78.4141L25.0035 78.781C25.629 79.844 25.4023 80.7221 25.3775 82.0179L24.1221 81.7142C23.4182 80.5779 23.6033 79.8237 23.5859 78.4141Z" fill="#FEFEFE"/>
<path d="M88.4074 35.3711C88.4702 35.6596 88.3608 35.9684 88.3223 36.2645C87.5387 37.2085 87.075 37.5653 86.0463 38.0056L85.6494 36.6365C86.2832 35.6242 87.4172 35.6444 88.4074 35.3711Z" fill="#FEFEFE"/>
<path d="M93.7124 28.5801L94.2652 29.0255C93.5524 30.9995 93.0037 31.7639 91.3412 32.6699L91.3027 32.0473C92.6453 30.7035 92.949 30.4782 93.7124 28.5801Z" fill="#C8C8C8"/>
<path d="M38.6411 63.2363C39.2115 64.9725 39.3205 66.8528 39.2186 68.7104C38.5067 68.2928 38.8185 68.594 38.3027 67.7791C38.3015 66.2227 38.451 64.7725 38.6411 63.2363Z" fill="#C8C8C8"/>
<path d="M89.2659 36.3906C89.4805 36.6513 89.5595 36.9955 89.681 37.3321C89.3772 38.5038 89.0269 38.7443 88.302 39.5465L87.8828 38.8151C88.0144 37.6206 88.6017 37.2233 89.2659 36.3906Z" fill="#EDEDED"/>
<path d="M91.1291 29.164L91.9432 28.377L92.5 28.7666C92.2874 30.2497 92.0545 30.3333 90.8477 30.9002L91.1291 29.164Z" fill="#EDEDED"/>
<path d="M74.4884 53.6426L74.6004 54.2981C74.0034 55.2269 73.6707 55.0675 72.7788 55.2623L72.375 54.4676L72.5793 53.8476L74.4884 53.6426Z" fill="#EDEDED"/>
<path d="M73.1537 22L73.4688 25.0547L72.4922 25.199C72.59 24.4296 72.5513 23.1237 72.5531 22.2987L73.1537 22Z" fill="#EDEDED"/>
<path d="M84.0662 37.2076C84.3517 36.8533 84.8033 36.8204 85.1212 37.1291C85.4391 37.4379 85.5242 37.9947 85.3196 38.4275C85.1617 38.7615 84.864 38.9539 84.5542 38.9159C84.2444 38.8805 83.9791 38.6223 83.8738 38.2553C83.7706 37.8884 83.8455 37.4809 84.0662 37.2076Z" fill="#EDEDED"/>
<path d="M63.6639 29.3901C64.7462 29.2863 65.1852 29.1876 66.2787 29.4179L64.8886 29.838L65.7571 30.2607C64.7685 30.4834 64.6233 30.372 63.6191 30.2683L64.1936 29.9418L63.6639 29.3901Z" fill="#727273"/>
<path d="M56.3896 21.8984L56.9595 22.2553L56.7971 25.0341L56.1475 26.5045L56.3896 21.8984Z" fill="#858585"/>
<path d="M90.6856 43.0898C90.226 44.5096 90.07 44.9449 89.4646 46.2635L89.2763 45.732L89.5516 45.9345L89.6245 45.7016L89.252 45.2233L89.5172 43.6415L90.6856 43.0898Z" fill="#ABACAC"/>
<path d="M14.3672 72.9988L14.7463 72.7559L15.2083 72.9482L14.9741 74.2769L14.4911 74.2819L14.3672 72.9988Z" fill="#C8C8C8"/>
<path d="M35.6896 28.1162C35.8808 24.0416 29.9433 23.1203 29.9072 19.3545C29.974 19.1419 30.0407 18.9293 30.1073 18.7168C29.7554 7.10292 37.9873 5.6452 45.8096 10.3803C50.8865 23.3051 41.0664 24.4971 41.8493 28.068L41.2092 28.9058C40.3399 30.1838 40.1263 30.7988 38.8183 31.1481C37.5673 30.857 37.2051 30.2117 36.2663 29.126L35.6896 28.1162Z" fill="#3F5160"/>
<path d="M36.2666 29.1257C37.1661 26.3317 38.3254 26.3418 40.4997 27.2959C40.9223 28.1007 40.9001 28.0146 41.2095 28.9055C40.3402 30.1835 40.1265 30.7985 38.8186 31.1478C37.5676 30.8567 37.2054 30.2114 36.2666 29.1257Z" fill="#FEFEFE"/>
<path d="M35.1762 13.998C36.0891 14.608 36.863 15.1698 37.9273 15.2078C40.1525 15.2837 42.3777 15.2938 44.2451 16.9793C44.6754 17.9132 44.9593 18.4953 44.7254 19.6037C44.1505 22.3243 43.2774 24.1744 41.2664 25.5258C40.131 25.7815 38.815 26.1762 37.675 25.8143C35.6981 25.1867 32.1409 22.6002 31.1266 20.3478C30.8451 19.7252 31.0221 19.5962 31.1875 18.9812L32.4456 18.7028C33.21 16.8755 34.0528 15.5039 35.1762 13.998Z" fill="#FEFEFE"/>
<path d="M40.418 17.0037C41.2885 16.9531 41.7536 16.7785 42.5522 17.2872C42.5022 18.2084 42.4247 19.122 42.3421 20.0406H41.7917C41.3648 18.9828 40.7636 18.0919 40.418 17.0037Z" fill="#858585"/>
<path d="M36.9092 22.9336C37.9214 22.9918 39.4416 22.7843 40.2086 23.5688L39.3091 24.1079C38.259 24.1686 37.7362 23.6321 36.9092 22.9336Z" fill="#034173"/>
<path d="M35.9343 19.1562L36.4531 19.0879L36.3148 19.7485C35.7851 20.042 36.0822 19.956 35.4121 19.9256L35.9343 19.1562Z" fill="#727273"/>
<path d="M36.3305 8.87828C38.7337 8.74668 41.1432 8.77199 43.3712 10.088C44.5459 10.7814 45.3249 11.8621 45.7125 13.4109C45.986 14.5068 46.0796 16.2808 45.614 17.2501C44.1018 14.2688 41.3994 14.6864 38.9468 13.3957C38.6351 13.4463 38.8419 13.3957 38.3271 13.707L37.8616 13.993C36.6744 14.074 35.8577 13.2262 34.8955 12.472C34.0533 13.7703 32.8027 16.458 31.5553 16.9237C31.1315 15.9342 31.0607 14.7674 31.2557 13.6665C31.674 11.3028 34.5954 10.374 36.0537 9.12123L36.3305 8.87828Z" fill="#FEFEFE"/>
<path d="M9.99266 30.6853C10.0763 27.1523 4.6353 26.2514 4.91576 20.7545C5.26242 13.9542 10.1364 12.1068 14.8485 12.494C23.7677 13.2305 22.9164 24.8518 17.3594 30.5512L17.1842 31.1788C16.5662 30.126 16.9536 30.536 15.9233 30.002L15.7248 30.0881L15.6787 31.1156C13.802 30.9789 12.26 30.1969 10.8869 31.0776L9.99266 30.6853Z" fill="#3F5160"/>
<path d="M15.7249 30.0888C10.5824 29.9369 10.9586 28.2413 6.75565 24.6476C6.08459 24.0731 6.08074 23.5036 6.10423 22.7722L6.66311 22.1977C9.11834 21.7573 10.6332 24.5185 13.2105 25.1866L12.9953 25.7459C13.1354 26.4166 13.3065 27.0695 13.3646 27.7453L13.7311 27.3934L15.9902 27.973C16.5549 28.836 16.4423 28.4488 16.5677 29.494L15.9233 30.0027L15.7249 30.0888Z" fill="#FEFEFE"/>
<path d="M12.9951 25.7461C13.1352 26.4168 13.3063 27.0697 13.3644 27.7455C12.8708 27.8391 12.7104 27.7859 12.2082 27.753L12.0928 27.2342L12.9951 25.7461Z" fill="#034173"/>
<path d="M13.2104 25.1857C13.9272 24.3454 13.603 24.4795 14.4476 24.2214L14.8435 23.3711C14.9054 23.9532 14.8392 24.1379 14.7771 24.7377L15.1541 25.4185L15.5273 25.3957C16.1166 25.3628 15.8847 25.3704 16.6345 25.378L17.8047 26.8535L18.1557 26.1777C17.5453 25.3096 17.5208 25.3249 16.738 24.6871L17.0634 24.5403L16.7518 24.7428L17.0719 25.0262C17.9349 24.2366 17.6883 24.4973 19.1021 24.682L19.5559 25.2869C19.4439 27.0989 17.8448 28.8503 16.5675 29.4931C16.4422 28.4479 16.5548 28.8351 15.99 27.9721L13.731 27.3925L13.3645 27.7443C13.3064 27.0686 13.1352 26.4156 12.9951 25.745L13.2104 25.1857Z" fill="#EDEDED"/>
<path d="M13.7314 27.3935C15.0104 26.4925 14.3177 26.7684 15.9406 26.7937L16.3252 27.3884L15.9905 27.973L13.7314 27.3935Z" fill="#034173"/>
<path d="M10.3418 16.3845C11.6519 16.3415 12.9606 16.2503 14.2667 16.1137C17.8946 15.7821 18.3682 16.1744 19.9791 20.1705C19.6227 22.1142 19.7751 22.6862 18.7357 23.8883C17.7603 23.7036 17.8253 23.739 17.1018 22.8987C16.871 21.8029 17.1122 22.1395 16.5673 21.5017C15.5925 21.9446 14.681 21.727 13.8804 20.9576C11.6552 18.8166 11.4683 21.5625 9.57414 21.3423C9.22181 20.3224 10.0354 17.7663 10.3418 16.3845Z" fill="#FEFEFE"/>
<path d="M16.5674 21.5011L16.8804 20.499C17.7609 19.7422 18.8319 20.0712 19.9792 20.1699C19.6228 22.1136 19.7753 22.6856 18.7359 23.8877C17.7605 23.703 17.8255 23.7384 17.102 22.8982C16.8711 21.8023 17.1123 22.1389 16.5674 21.5011Z" fill="#9B9B9B"/>
<path d="M10.633 13.5363C12.9576 13.3465 14.8455 13.3288 17.0743 14.3613L17.2667 14.9637L16.0258 15.1358C14.0479 15.2775 11.0058 16.0038 9.16211 15.2421C9.38586 14.255 9.9646 14.0728 10.633 13.5363Z" fill="#FEFEFE"/>
<path d="M7.93228 15.4395L9.01563 16.5986C9.13874 17.411 9.14684 17.7197 8.90021 18.5118C8.58472 19.5267 8.33039 20.5137 8.09125 21.564L6.77889 21.0502C6.50775 20.5086 6.27529 20.2227 6.24613 19.5596C6.16817 17.7804 7.02957 16.6466 7.93228 15.4395Z" fill="#FEFEFE"/>
<path d="M11.2351 22.5565L11.9124 22.2224L12.4077 22.6071L13.5216 22.1465L14.3156 22.8956C13.9155 23.3486 13.3775 23.8877 12.8265 23.9889C11.9776 24.1484 11.6131 23.9889 11.0225 23.341L11.2351 22.5565Z" fill="#C8C8C8"/>
<path d="M18.8184 15.4434C19.0996 15.6509 19.6055 16.0027 19.8365 16.2684C20.4932 17.0226 20.4553 17.4983 20.4727 18.5157L20.2472 18.5183L18.8184 15.4434Z" fill="#C8C8C8"/>
</g>
<defs>
<clipPath id="clip0_407_9157">
<rect width="96" height="96" fill="white"/>
</clipPath>
</defs>
</svg>
