<svg width="96" height="96" viewBox="0 0 96 96" fill="none" xmlns="http://www.w3.org/2000/svg">
<g clip-path="url(#clip0_404_4141)">
<path d="M13.8394 19.9029C15.2898 19.5843 17.2113 19.1063 18.6371 18.8906C19.9441 19.6353 20.9357 20.2164 22.1727 21.0718L22.6425 21.4266C25.1822 23.843 23.1936 24.2391 23.9472 26.6798L24.0499 26.8296C23.1352 26.8942 22.7539 26.8603 21.924 27.2099C22.1801 27.8839 22.2824 28.3384 22.7028 28.9081L23.0076 29.6838C22.121 31.6381 21.0875 34.092 18.467 33.6143L18.3527 34.0184C18.8938 34.1921 21.4417 35.0136 21.657 35.2502C24.2578 38.1099 24.5103 43.8597 24.2404 47.5254C24.1971 48.1126 22.8026 49.4651 22.3515 49.9138C22.1252 52.3332 22.851 56.8121 23.182 59.1514C23.4174 60.5114 23.6699 61.5531 22.8368 62.7991C23.008 63.4944 22.9314 63.4424 23.2924 64.0393C22.7209 65.3608 21.5004 65.682 21.1372 66.7315C19.9981 70.0211 19.3617 73.2892 18.1357 76.5918L17.6417 76.3051C17.5526 75.3961 17.4902 74.4845 17.4544 73.5719L17.0653 73.6388L16.2346 79.3427C13.646 78.8223 9.73563 78.8478 8.02307 76.9672C7.02343 74.9177 8.15997 72.57 8.28364 70.3588C8.43022 67.7396 8.55195 65.1313 8.76667 62.5163C7.76348 61.6757 6.74124 60.7538 5.75064 59.8887L5.43228 59.5304L5.22886 59.1505C4.37937 58.3347 0.455397 52.6651 0.172554 51.7357C-0.740875 48.7356 2.1983 41.3415 3.69033 38.5815C5.44035 35.3442 7.85388 33.5503 11.2696 32.549C11.9028 31.8117 12.7959 30.6409 12.5169 29.699C11.5512 26.4374 9.80247 22.1635 13.8394 19.9029Z" fill="#F9F8F9"/>
<path d="M12.0294 57.5879L12.2247 58.094C14.3773 58.5492 15.4609 61.4212 17.8667 62.1455C19.5728 62.5119 21.9311 62.3621 22.8375 62.7982C23.0086 63.4935 22.9321 63.4416 23.293 64.0384C22.7215 65.36 21.5011 65.6812 21.1378 66.7306C19.9987 70.0203 19.3623 73.2883 18.1363 76.5909L17.6423 76.3043C17.5532 75.3952 17.4909 74.4837 17.455 73.5711L17.066 73.6379L16.2352 79.3418C13.6467 78.8215 9.73626 78.847 8.0237 76.9663C7.02406 74.9169 8.1606 72.5691 8.28426 70.3579C8.43085 67.7387 8.55258 65.1305 8.76729 62.5155C7.7641 61.6749 6.74186 60.753 5.75127 59.8879L5.43291 59.5295L5.22949 59.1496L5.6883 58.7671C6.60076 59.4831 7.50451 60.3617 8.36208 61.1542C9.7608 59.9498 10.362 59.1893 11.5444 57.7477L12.0294 57.5879Z" fill="#032C4D"/>
<path d="M17.0654 73.6379C17.1529 72.5888 17.1248 71.3874 17.6505 70.5352C17.892 72.4568 17.6963 75.2729 18.1358 76.5909L17.6418 76.3043C17.5527 75.3953 17.4903 74.4837 17.4545 73.5711L17.0654 73.6379Z" fill="#919192"/>
<path d="M11.6872 58.8105C11.9248 59.082 12.0001 59.3561 12.1289 59.6889C11.7608 60.7383 10.9249 61.2203 10.0696 61.8623L9.7002 61.2312C9.94914 60.145 10.8845 59.5214 11.6872 58.8105Z" fill="#F9F8F9"/>
<path d="M13.8403 19.9029C15.2907 19.5843 17.2122 19.1063 18.638 18.8906C19.945 19.6353 20.9366 20.2164 22.1735 21.0718L22.6433 21.4266C25.1831 23.843 23.1945 24.2391 23.9481 26.6798L24.0508 26.8296C23.136 26.8942 22.7547 26.8603 21.9249 27.2099C21.934 27.6166 21.9834 29.8162 21.8884 29.9398C20.6063 31.6064 20.4232 30.6506 20.6683 32.5555C19.7058 33.174 19.0413 32.9996 17.8502 32.8944L16.9335 32.6655L16.7272 32.8721C17.2751 33.7899 17.3539 34.1666 17.1854 35.1527C16.4944 35.6989 16.3949 35.8584 15.3598 35.789C13.8387 35.6747 12.4322 34.9371 11.4733 33.7508C11.1998 33.4141 11.3338 33.4984 11.4051 32.826L11.2705 32.549C11.9037 31.8117 12.7968 30.6409 12.5178 29.699C11.5521 26.4374 9.80334 22.1635 13.8403 19.9029Z" fill="#032C4D"/>
<path d="M11.405 32.8253C14.2137 31.3146 14.1272 29.7335 13.9984 26.9135L14.5033 26.4522L15.0574 26.5862C15.267 27.175 15.3231 27.5446 15.8152 27.9226C16.4975 27.1495 17.1245 26.3828 17.7764 25.5865C19.4851 26.1969 20.0801 26.6185 21.4924 25.3234L21.0723 24.8331L21.6616 24.4141L22.0981 24.8444C22.3771 26.4787 22.4956 25.9235 21.9248 27.2092C21.9338 27.6159 21.9832 29.8155 21.8883 29.9391C20.6061 31.6058 20.423 30.6499 20.6681 32.5548C19.7056 33.1733 19.0411 32.999 17.85 32.8937L16.9333 32.6649L16.727 32.8715C17.2749 33.7892 17.3537 34.1659 17.1852 35.1521C16.4942 35.6982 16.3948 35.8577 15.3596 35.7883C13.8385 35.674 12.4321 34.9364 11.4731 33.7501C11.1996 33.4135 11.3336 33.4977 11.405 32.8253Z" fill="#F9F8F9"/>
<path d="M16.7266 32.8722L15.9772 32.6143C15.2943 31.9283 15.2039 31.897 14.9785 30.9941C15.8987 31.0965 16.1193 31.7372 16.9329 32.6656L16.7266 32.8722Z" fill="#919192"/>
<path d="M13.8398 19.9029C15.2902 19.5843 17.2117 19.1063 18.6375 18.8906C19.9445 19.6353 20.9361 20.2164 22.1731 21.0718C19.5028 21.5673 17.3021 18.8638 14.113 20.6412L13.8398 19.9029Z" fill="#032C4D"/>
<path d="M14.1133 20.6403C17.3024 18.8629 19.5031 21.5664 22.1734 21.0709L22.6431 21.4257L22.36 21.5038C21.4527 21.7611 15.7138 20.801 14.1133 20.6403Z" fill="#B7B6B7"/>
<path d="M11.2696 32.5488L11.4043 32.8258C11.3329 33.4982 11.1989 33.4139 11.4724 33.7506C12.4314 34.9369 13.8378 35.6745 15.3589 35.7888C16.3941 35.8582 16.4935 35.6987 17.1845 35.1525C17.353 34.1664 17.2742 33.7897 16.7263 32.872L16.9326 32.6654L17.8493 32.8942L18.0304 34.9666C17.6481 35.9715 17.7867 35.6497 16.8758 36.4189C14.7425 37.0158 12.2848 34.9547 9.84379 33.8697C8.66689 33.9876 8.72921 34.1774 7.69147 34.9104L8.64235 35.2352L8.01726 35.8249L8.19032 36.7168C9.58872 38.1688 10.1518 38.4093 10.4272 40.2761L10.075 41.1589L9.80698 41.2173C9.79665 39.5717 9.87059 39.3164 8.61717 38.1188C7.87971 37.4138 5.89561 35.8605 5.11747 37.1904C2.97225 40.8584 0.905166 46.847 0.601981 51.0221C0.534822 51.945 4.93439 57.9298 5.68767 58.7677L5.22886 59.1503C4.37936 58.3346 0.455397 52.6649 0.172554 51.7355C-0.740875 48.7354 2.1983 41.3413 3.69033 38.5813C5.44035 35.344 7.85388 33.5502 11.2696 32.5488Z" fill="#043E6D"/>
<path d="M7.69119 34.9102L8.64207 35.2349L8.01697 35.8247L8.19004 36.7166L6.89174 36.0787L6.82812 35.5735L7.69119 34.9102Z" fill="#E9E8E9"/>
<path d="M21.9244 27.209C22.1804 27.883 22.2828 28.3375 22.7032 28.9072L23.008 29.6829C22.1213 31.6372 21.0878 34.0911 18.4673 33.6134L18.353 34.0175C18.8941 34.1912 21.442 35.0127 21.6573 35.2493C24.2582 38.109 24.5106 43.8588 24.2407 47.5245C24.1974 48.1117 22.8029 49.4642 22.3519 49.9129C22.1255 52.3323 22.8514 56.8112 23.1823 59.1505L22.9308 61.7891C22.3289 57.502 20.4908 45.0954 21.8275 41.1111L22.1074 41.0949C22.14 42.8268 22.0154 47.1465 22.4465 48.5907L22.7832 48.6621C24.6475 46.2862 22.8517 39.3709 22.1549 36.5053C20.8563 35.7326 19.7888 35.1451 18.4408 34.463L18.0307 34.9659L17.8496 32.8935C19.0407 32.9988 19.7052 33.1731 20.6677 32.5546C20.4227 30.6497 20.6057 31.6055 21.8879 29.9389C21.9828 29.8153 21.9334 27.6157 21.9244 27.209Z" fill="#032C4D"/>
<path d="M9.82435 41.2168C9.45788 45.4181 9.09302 46.788 7.56128 50.6804L8.97614 54.7971C10.1937 55.6806 11.2489 56.3052 12.0293 57.5893L11.5443 57.7491C8.15634 54.4152 8.64551 56.0066 7.03014 51.0619C6.00596 51.12 3.88399 51.2937 3.0332 50.864C4.28275 50.3385 5.69342 50.4315 7.08309 50.3937C8.18379 47.25 8.4266 44.7224 9.82435 41.2168Z" fill="#032C4D"/>
<path d="M23.1821 59.1504C23.4175 60.5104 23.67 61.552 22.837 62.798C21.9306 62.3619 19.5723 62.5117 17.8662 62.1453C19.4541 62.2251 21.5661 62.4998 22.9306 61.789L23.1821 59.1504Z" fill="#B7B6B7"/>
<path d="M8.01758 35.8241L8.64268 35.2344C9.51607 35.6963 10.1615 35.9045 10.6374 36.7431C9.59389 36.7599 8.96523 36.3083 8.01758 35.8241Z" fill="#032C4D"/>
<path d="M12.6836 56.4258C14.307 56.5317 15.275 56.9636 16.5285 57.952C15.2373 57.6802 13.6122 57.3997 12.6836 56.4258Z" fill="#57646F"/>
<path d="M23.8711 63.4803C24.3564 61.3721 25.2207 59.0631 25.819 56.9716C27.5132 51.3504 26.7554 44.5264 33.7325 42.8116C39.0494 41.5049 49.4403 45.8682 44.8935 52.3824C45.2397 53.1361 45.703 54.0429 45.9009 54.8308C45.4957 56.3748 44.9507 59.3572 43.9627 60.4463C43.139 60.8475 42.87 60.7462 41.9143 60.6816L41.5233 61.1545C41.6702 61.3211 49.7871 65.7573 50.5662 66.217L50.2869 66.5986C45.2287 64.4774 43.8422 64.215 38.504 64.0103C36.673 65.911 35.5904 66.7238 36.519 69.4234C34.5914 68.721 36.1548 65.2731 35.3111 64.2873C31.2809 66.9575 34.4993 70.0103 33.6169 71.5303C31.1953 72.0804 29.413 70.7856 27.7392 69.253L26.942 69.2546L26.5859 68.8717C25.1684 67.6709 24.5136 65.257 23.8711 63.4803Z" fill="#032C4D"/>
<path d="M40.8183 52.5376C41.7172 52.2296 41.7602 52.1922 42.4795 51.552L43.6128 50.543C44.535 51.0055 44.3955 51.2454 44.8934 52.3816C45.2395 53.1354 45.7028 54.0421 45.9008 54.8301C45.4956 56.3741 44.9505 59.3564 43.9625 60.4456C43.1388 60.8468 42.8699 60.7454 41.9142 60.6809L41.5232 61.1538C41.6701 61.3203 49.787 65.7566 50.5661 66.2163L50.2868 66.5978C45.2285 64.4767 43.8421 64.2143 38.5039 64.0096L38.5239 63.8388L38.5139 63.3427C38.6282 62.4789 38.6602 62.5079 39.1364 61.7494L39.1684 61.5302C38.8542 60.7257 38.8568 58.7696 38.8142 57.8141L39.0725 57.5145L39.6876 57.4961L39.9301 57.458C40.0867 56.6862 40.3479 55.8634 40.5694 55.1016L40.2911 55.0231C40.251 53.9498 40.4648 53.5544 40.8183 52.5376Z" fill="#F9F8F9"/>
<path d="M40.8183 52.5376C41.7172 52.2296 41.7602 52.1922 42.4795 51.552L43.6128 50.543C44.535 51.0055 44.3955 51.2454 44.8934 52.3816C45.2395 53.1354 45.7028 54.0421 45.9008 54.8301C45.4956 56.3741 44.9505 59.3564 43.9625 60.4456C43.1388 60.8468 42.8699 60.7454 41.9142 60.6809L41.5232 61.1538C41.6701 61.3203 49.787 65.7566 50.5661 66.2163L50.2868 66.5978C45.2285 64.4767 43.8421 64.2143 38.5039 64.0096L38.5239 63.8388L38.5139 63.3427C38.6282 62.4789 38.6602 62.5079 39.1364 61.7494L39.1684 61.5302C42.1563 61.34 39.7296 61.2322 42.0155 59.6466C42.7976 59.7225 42.8234 59.7628 43.6148 59.5582C44.4672 58.5875 44.9612 56.3766 45.347 55.0428C44.7416 53.7619 44.4685 52.972 44.02 51.6405C42.3381 53.0473 41.4986 53.1599 40.5694 55.1016L40.2911 55.0231C40.251 53.9498 40.4648 53.5544 40.8183 52.5376Z" fill="#032C4D"/>
<path d="M39.1362 61.75C41.088 62.137 42.4703 62.3327 44.2861 63.1994L44.4728 63.5696C43.5128 63.8953 43.2994 63.8004 42.2555 63.6774C41.2685 63.7924 39.573 63.8033 38.5237 63.8395L38.5137 63.3434C38.628 62.4795 38.6599 62.5086 39.1362 61.75Z" fill="#F9F8F9"/>
<path d="M38.5137 63.3418C39.617 63.3815 41.2556 63.3515 42.2555 63.6759C41.2685 63.7908 39.573 63.8018 38.5237 63.8379L38.5137 63.3418Z" fill="#919192"/>
<path d="M26.5855 68.8714C26.3634 67.7381 25.9065 66.9785 25.6514 65.9146C24.8416 62.5374 26.2704 60.4315 27.9132 57.6289C26.7889 60.9818 25.1203 64.3577 26.7805 67.6316C27.0602 68.1945 27.3805 68.7365 27.7389 69.2527L26.9417 69.2543L26.5855 68.8714Z" fill="#B7B6B7"/>
<path d="M40.2915 55.0227C39.5863 55.2641 39.9431 55.2312 39.1801 55.0808C38.7268 54.1379 38.7972 54.5572 39.1075 53.3867C40.0393 52.4932 39.5814 52.7088 40.8187 52.5371C40.4652 53.5539 40.2514 53.9494 40.2915 55.0227Z" fill="#F9F8F9"/>
<path d="M38.8145 57.8128C38.6902 56.6907 38.5059 56.8073 39.0034 56.1484L39.4974 56.4683L39.6879 57.4949L39.0728 57.5132L38.8145 57.8128Z" fill="#E9E8E9"/>
<path d="M36.3972 61.4141L36.828 61.9325C36.4977 63.0494 36.7631 62.7227 35.9207 63.3535L35.7324 62.8773L36.3972 61.4141Z" fill="#E9E8E9"/>
<path d="M36.3975 61.4131L36.689 60.5293C37.0752 61.161 36.9425 60.999 36.8282 61.9315L36.3975 61.4131Z" fill="#757575"/>
<path d="M65.1303 52.1631C60.2189 46.423 70.5159 41.0409 75.4831 42.9358C79.9663 44.646 81.3124 47.5915 83.2933 51.5375C85.8472 54.2839 88.9702 55.7962 86.8572 59.8196C87.4923 62.3148 87.5023 62.3345 89.3592 64.2423L89.0444 64.6703C88.264 63.8475 88.1839 63.4379 87.2986 63.4111C86.8895 64.0222 86.4988 64.6455 86.1272 65.2798C85.6354 65.4167 85.5018 65.3757 85.1589 65.6623C84.2622 71.4915 80.3712 69.4575 77.4905 66.2995L77.2728 66.2404C76.742 66.8383 76.6468 67.0294 75.8851 67.3154C74.6007 63.0918 73.9404 64.6413 72.1116 61.3832C71.6127 60.4942 72.4174 58.3037 71.7019 56.3517C71.0936 56.3856 70.9996 56.4741 70.5137 56.1522L70.6538 55.5195C71.4012 55.4637 71.6144 55.4892 72.3121 55.1654C72.2304 54.077 71.9892 53.8971 71.3325 52.9581C69.7178 52.2964 70.8659 53.3845 68.5163 53.1896C67.2551 52.481 66.5464 51.285 65.685 50.1045L65.4431 50.2434L65.4393 52.0604L65.1303 52.1631Z" fill="#032C4D"/>
<path d="M83.2938 51.5371C85.8478 54.2835 88.9707 55.7958 86.8578 59.8192L86.7109 58.856C85.3564 56.29 82.9532 55.5576 82.8047 52.5175L83.2938 51.5371Z" fill="#F9F8F9"/>
<path d="M83.2938 51.5371C85.8478 54.2835 88.9707 55.7958 86.8578 59.8192L86.7109 58.856C87.6259 56.3149 85.9796 55.271 84.1892 53.8025L83.7446 53.3661L82.8047 52.5175L83.2938 51.5371Z" fill="#032C4D"/>
<path d="M85.1589 65.6619C85.0756 64.6948 85.074 64.648 85.3197 63.7031C85.9474 64.0327 85.8334 64.3381 86.1273 65.2794C85.6355 65.4162 85.5018 65.3752 85.1589 65.6619Z" fill="#B7B6B7"/>
<path d="M32.8563 11.8125C37.0021 12.4465 42.6193 13.9507 39.1063 19.5123L39.0266 19.9335C38.6049 22.1047 38.4493 23.6351 37.0328 25.415C36.5475 26.0248 36.2411 26.2324 36.5775 26.5949C38.2953 28.4439 41.9399 28.8077 42.6603 31.5224C42.4394 32.8282 41.4895 33.4864 40.4479 34.3102C39.8541 36.1162 41.2993 36.8345 40.7278 38.6651L40.2022 38.7032C38.9995 35.9155 40.9077 36.3393 38.034 32.3524L38.5064 31.4046L38.3159 31.1609L38.5419 30.5415L37.9498 30.5311L37.3679 28.4849L37.1842 28.7628C36.7638 29.3884 36.575 29.8552 35.8769 30.076C34.5921 29.7822 33.3358 29.371 32.0598 29.5456C31.6769 29.7871 31.0831 30.0579 31.1354 30.5931C31.4709 34.0426 31.6513 37.0114 31.415 40.5125L31.3772 40.7691L31.0663 40.8966C30.7334 39.3546 30.869 35.601 30.8793 33.8676C30.7857 32.6997 30.7951 32.1003 30.3266 30.9976C29.5726 31.0818 29.1474 31.1877 28.4067 30.9921L28.5294 30.6477C29.2033 30.5198 29.4803 30.5182 30.0579 30.1283C29.9443 29.2302 28.377 26.7818 27.8271 25.8453C29.1529 24.6984 30.2488 23.7552 29.6398 21.9155C28.0984 20.4394 27.996 20.5469 28.0683 18.4235C27.801 14.0857 28.9298 13.2322 32.8563 11.8125Z" fill="#032C4D"/>
<path d="M32.8565 11.8125C37.0023 12.4465 42.6194 13.9507 39.1065 19.5123L38.2718 18.5487L38.112 18.0639C37.0533 17.9525 36.7327 17.4686 35.9439 16.7191L35.58 16.9147C31.7781 18.6152 31.4158 17.6413 28.6616 18.4764L28.0685 18.4235C27.8012 14.0857 28.9299 13.2322 32.8565 11.8125Z" fill="#032C4D"/>
<path d="M35.9434 16.7192L36.5297 16.1543C37.5035 16.6085 37.4861 17.0004 38.1115 18.064C37.0528 17.9526 36.7322 17.4687 35.9434 16.7192Z" fill="#E9E8E9"/>
<path d="M35.9435 16.7188C36.7323 17.4683 37.0529 17.9522 38.1116 18.0635L38.2715 18.5484C38.4055 23.486 36.238 29.0482 31.1077 23.1435C30.5136 22.4595 30.1923 21.0269 29.4675 20.6227C28.3584 20.0042 28.6493 19.6569 28.6613 18.4761C31.4154 17.641 31.7777 18.6149 35.5796 16.9144L35.9435 16.7188Z" fill="#F9F8F9"/>
<path d="M35.944 16.7188C36.7328 17.4683 37.0534 17.9522 38.1121 18.0635L38.2719 18.5484C36.7592 18.4435 36.5371 18.1165 35.5801 16.9144L35.944 16.7188Z" fill="#57646F"/>
<path d="M35.9326 22.5098L35.6701 23.1657L34.85 23.2742L34.3799 22.9265L35.9326 22.5098Z" fill="#606A72"/>
<path d="M38.6351 30.049L39.5618 30.0312L39.6806 30.3476L39.3254 31.0716C40.2663 31.4041 40.6195 31.2469 41.542 30.8092C41.3402 31.9745 41.3938 32.2734 40.6182 33.0762C39.2457 33.1185 39.1649 32.5701 38.5069 31.4051L38.3164 31.1614L38.5424 30.5419L38.6351 30.049Z" fill="#E9E8E9"/>
<path d="M38.6353 30.048L38.377 28.9753L38.6375 28.5918C39.8832 28.7555 40.8903 29.7897 41.5422 30.8082C40.6197 31.2459 40.2665 31.4031 39.3256 31.0706L39.6807 30.3465L39.5619 30.0302L38.6353 30.048Z" fill="#757575"/>
<path d="M30.8797 33.8672C31.6298 36.4383 31.0709 38.2486 31.4154 40.5121L31.3776 40.7687L31.0667 40.8962C30.7338 39.3542 30.8694 35.6006 30.8797 33.8672Z" fill="#B7B6B7"/>
<path d="M30.4101 25.7998C29.9506 24.7569 29.9158 25.1032 30.1809 24.2207C30.9793 24.2785 33.2782 26.0565 35.3469 26.6672L35.6876 27.2492C36.3847 28.0882 36.201 27.6211 36.2785 28.6918C35.5358 29.3871 35.9714 29.1799 34.8949 29.2596L34.3315 28.7309C34.3551 28.5472 34.3751 28.2163 34.4445 28.0698L34.0861 27.6153L33.152 27.6634C32.2483 27.0275 31.3342 26.4061 30.4101 25.7998Z" fill="#F9F8F9"/>
<path d="M34.0859 27.6152L34.8392 27.0703L35.6874 27.2491C36.3845 28.0881 36.2008 27.621 36.2783 28.6917C35.5357 29.3871 35.9712 29.1798 34.8948 29.2596L34.3313 28.7308C34.3549 28.5471 34.3749 28.2163 34.4443 28.0697L34.0859 27.6152Z" fill="#F9F8F9"/>
<path d="M34.0859 27.6152L34.8392 27.0703L35.6874 27.2491L35.4369 28.0371L34.4443 28.0697L34.0859 27.6152Z" fill="#032C4D"/>
<path d="M32.9213 28.132C32.9449 28.5491 32.7269 29.0197 32.5836 29.4491C30.6317 30.5379 28.7112 27.3244 29.3241 25.8398L30.0961 25.9147L30.4102 25.7988C31.3343 26.405 32.2484 27.0264 33.1521 27.6624L32.9213 28.132Z" fill="#F9F8F9"/>
<path d="M30.0957 25.9147L30.4099 25.7988C31.3339 26.405 32.248 27.0264 33.1518 27.6624L32.9209 28.132C31.5351 27.2895 31.2574 27.039 30.0957 25.9147Z" fill="#919192"/>
<path d="M55.511 54.7363C57.6559 56.8423 60.6441 56.2864 63.6737 57.7206C64.4467 59.8682 64.7861 61.3983 65.2881 63.6008C62.7277 66.3233 62.564 69.3069 61.8004 73.0172L59.877 70.3919C59.0072 71.9659 56.9656 75.8508 55.9608 77.0736L55.1277 76.7695C53.4688 72.7312 53.844 69.7256 50.2871 66.5977L50.5664 66.2161C51.155 66.5628 51.3781 66.6325 52.0045 66.8737C52.916 66.0841 55.1355 58.4824 55.5798 56.9905C55.9233 55.8364 55.7974 55.9862 55.2598 55.1379L55.511 54.7363Z" fill="#032C4D"/>
<path d="M53.9214 23.9233C51.1498 21.5236 52.5892 19.2747 55.284 17.6555C58.9193 15.4708 64.5539 16.1073 66.1699 20.5656C66.8941 22.5631 68.2564 26.9722 67.6658 29.1092C66.9326 31.076 62.4174 31.2706 60.9967 30.2958C58.6084 28.6566 61.2357 25.2504 61.0019 23.9036L60.5318 23.7213L59.4198 24.5257C58.5199 23.6041 57.8841 22.8994 56.8067 22.1602L56.5374 23.0176L56.1761 23.116C55.5704 22.5714 55.3679 22.2993 54.5753 22.0779L54.3689 23.0305L53.9214 23.9233Z" fill="#032C4D"/>
<path d="M56.7209 49.2058L56.6909 49.4782C56.5776 50.6087 56.5818 50.8056 56.8059 51.9093L57.1685 52.1307C57.9043 51.3095 58.3828 47.9436 58.6653 46.5985C59.2394 48.0147 58.4283 51.6258 57.5591 52.9048L57.0041 53.093C55.75 52.4474 55.9919 51.5242 55.9612 50.1484C54.9086 49.5489 53.1402 50.917 52.097 49.4718C49.6034 46.0172 48.3005 34.2778 52.6908 31.9733C53.9629 31.8965 54.0659 32.0214 54.8276 33.1454C53.7014 33.3678 53.3614 33.2481 52.2771 32.8859C49.5188 35.1568 50.5233 46.8703 52.4864 48.8407C57.3338 53.7056 57.9954 38.7318 58.2366 37.7699C59.6792 39.4982 57.3774 47.0433 56.7209 49.2058Z" fill="#032C4D"/>
<path d="M69.2801 61.8438L69.7141 62.3254C68.5068 62.8806 65.4343 64.6215 65.6028 66.0689C69.1493 65.8029 71.0934 66.8094 72.9722 70.0284C72.4883 70.2427 71.0918 68.3995 70.1822 67.7801C68.2256 66.4479 67.173 66.5799 64.8986 66.5128C63.1803 70.9677 63.7918 77.325 62.9765 81.3607L62.5887 81.4814C62.232 79.7157 63.0098 70.8674 63.5022 68.8195C64.4269 64.9711 66.1375 63.7486 69.2801 61.8438Z" fill="#043E6D"/>
<path d="M58.9774 29.7871C59.5579 30.6887 59.6106 30.7229 59.5993 31.7572L60.1114 32.4848C62.3234 32.4221 63.9349 31.4754 66.5606 31.4557C68.6919 34.1388 70.7425 36.4275 70.8349 40.0028L70.5465 40.2895C69.9473 39.4563 69.9037 37.8439 69.3215 36.6121C68.5085 34.8922 67.6274 33.5762 66.5977 31.9909C61.7393 32.5109 60.0668 34.2114 56.7863 34.6123L56.304 35.3735L56.1157 34.6401L55.4367 34.4532L55.1387 34.1123L56.0566 33.4199C57.0753 33.0839 57.5506 33.7989 59.0242 33.6966C59.0778 32.211 59.2741 31.1242 58.3891 30.037L58.9774 29.7871Z" fill="#032C4D"/>
<path d="M58.9779 29.7871C59.5585 30.6887 59.6111 30.7229 59.5998 31.7572C59.1123 32.2992 59.1303 32.9435 59.0247 33.6966C59.0783 32.211 59.2747 31.1242 58.3896 30.037L58.9779 29.7871Z" fill="#57646F"/>
<path d="M54.8271 33.1445L56.0567 33.4189L55.1387 34.1113L55.4367 34.4522L56.1157 34.6391L56.304 35.3725C53.8711 37.7493 53.7429 43.1611 52.5111 44.9633L52.0326 44.7021C51.9822 43.7269 52.7688 42.7069 52.907 41.7327C53.5375 37.2832 51.5186 36.828 54.8271 33.1445Z" fill="#032C4D"/>
<path d="M55.139 34.1113L55.437 34.4522C54.8636 35.5869 54.5197 36.7409 53.5036 37.2109L54.0141 36.7199L53.4678 36.7683C53.7064 35.5756 54.345 35.0158 55.139 34.1113Z" fill="#E9E8E9"/>
<path d="M89.3597 64.2422C92.5375 68.2472 94.4548 72.1282 95.4971 77.142C95.7076 78.1559 96.2381 79.4374 95.8787 80.4113C95.1019 79.4365 94.3179 75.1832 93.7354 73.4911C92.6686 70.3125 91.0836 67.3321 89.0449 64.6702L89.3597 64.2422Z" fill="#043E6D"/>
<path d="M23.947 26.6792C25.018 26.6608 25.5808 26.6614 26.6292 26.4648C27.2349 27.0123 27.6217 28.7516 27.4586 29.5276L26.9772 29.3785L26.2763 27.4607C25.0054 27.5566 24.0639 28.6254 22.7026 28.9075C22.2822 28.3377 22.1799 27.8832 21.9238 27.2092C22.7536 26.8596 23.1349 26.8935 24.0497 26.829L23.947 26.6792Z" fill="#032C4D"/>
<path d="M21.9238 27.2103C22.7536 26.8607 23.1349 26.8946 24.0497 26.8301L24.4265 27.4169C23.7281 27.8524 22.9961 28.1733 22.7026 28.9086C22.2822 28.3389 22.1799 27.8843 21.9238 27.2103Z" fill="#E9E8E9"/>
<path d="M37.9497 30.5312L38.5418 30.5416L38.3158 31.161L38.5063 31.4048L38.0339 32.3525C37.8925 33.3128 38.402 37.4718 38.1418 40.1165C37.4479 39.091 37.2086 32.3867 37.127 30.7495L37.9497 30.5312Z" fill="#043E6D"/>
<path d="M70.1268 73.0738C69.5153 72.2772 69.411 72.2213 69.2725 71.2655L69.7122 71.2109L70.0458 71.78C71.7147 74.1594 74.2296 77.9533 74.6187 80.8795C72.8606 78.1876 72.1703 75.5907 70.1268 73.0738Z" fill="#043E6D"/>
<path d="M70.1268 73.0738C69.5153 72.2772 69.411 72.2213 69.2725 71.2655L69.7122 71.2109L70.0458 71.78L70.1268 73.0738Z" fill="#757575"/>
<path d="M45.7099 75.459C46.4118 76.6117 46.704 82.3208 46.642 83.8822L46.4196 84.1882C45.6637 82.3795 45.7063 81.3107 45.6589 79.341C45.3369 77.9152 45.2591 76.8499 45.7099 75.459Z" fill="#032C4D"/>
<path d="M45.6589 79.341C45.3369 77.9152 45.2591 76.8499 45.7099 75.459C45.7635 76.8412 45.8494 77.9649 45.6589 79.341Z" fill="#919192"/>
<path d="M23.8254 74.916C25.1892 76.5691 24.5603 81.7565 24.5134 83.9096L24.1638 83.8925C23.074 82.3847 23.7763 76.8635 23.8254 74.916Z" fill="#032C4D"/>
<path d="M65.1229 53.4453L65.5278 54.0438L64.9921 55.1471C65.4287 56.2514 66.931 59.7561 67.8671 60.1748C67.5287 60.3584 67.1135 60.617 66.7593 60.7213C65.9885 58.9575 65.1384 57.6314 64.3745 55.9167C64.0115 55.1026 64.6809 54.2736 65.1229 53.4453Z" fill="#032C4D"/>
<path d="M53.9635 25.3066L54.4676 26.2476L54.6361 26.4681C55.5928 27.7409 55.5905 28.6112 56.8701 29.5437C57.5624 29.486 57.8032 29.4659 58.5016 29.311L58.9775 29.7865L58.3893 30.0363C55.3264 30.8675 53.4414 27.7948 53.9635 25.3066Z" fill="#032C4D"/>
<path d="M24.4102 29.5727C25.2128 29.5075 25.7424 29.5485 26.5137 29.7864C27.1714 30.3226 27.556 30.8307 27.8166 31.6503C28.3748 33.4067 27.9386 35.7018 27.0872 37.2896C26.3093 36.1382 27.8401 33.1294 27.0342 31.4208C26.4621 30.2077 25.5906 29.9733 24.4102 29.5727Z" fill="#57646F"/>
<path d="M73.3467 72.3379C75.232 74.3644 75.7453 77.9411 76.259 80.5793C74.8887 79.4644 73.8252 74.2114 73.3467 72.3379Z" fill="#043E6D"/>
<path d="M67.8666 60.1748C69.1426 59.8132 70.2817 59.6202 71.3621 60.5434C71.4729 61.7652 70.7809 61.8459 69.7148 62.324L69.2808 61.8423C69.6647 61.6028 70.1561 61.2216 70.5349 60.9472L70.3376 60.6389C69.1455 60.6912 67.9522 60.7187 66.7588 60.7213C67.113 60.617 67.5282 60.3584 67.8666 60.1748Z" fill="#032C4D"/>
<path d="M5.43313 59.5293L5.75148 59.8876L6.09116 64.2241C6.55061 64.7203 6.95292 65.2339 7.37719 65.759L7.25449 65.9363C4.89456 64.1825 5.2804 62.145 5.43313 59.5293Z" fill="#043E6D"/>
<path d="M42.4795 32.6523C42.7536 32.9048 42.9402 33.1359 43.1188 33.4658C44.141 35.3523 44.0823 37.548 43.5757 39.5632L43.215 39.5335C43.2405 37.1664 42.9638 34.9678 42.4795 32.6523Z" fill="#043E6D"/>
<path d="M22.4287 66.8223C22.5088 66.8697 22.595 66.9081 22.6689 66.9646C23.902 67.9053 23.9773 71.439 24.1029 72.8754C22.9873 71.9367 22.7057 68.2804 22.4287 66.8223Z" fill="#032C4D"/>
<path d="M55.127 76.7695L55.96 77.0736C56.2338 78.1811 56.8311 80.0902 56.5173 81.0786L56.5095 80.5957L56.1995 80.3739C55.8056 79.1402 55.4563 78.0252 55.127 76.7695Z" fill="#57646F"/>
<path d="M24.2891 40.7441C25.9316 41.8769 26.2993 43.3123 26.9018 45.1233C25.5515 44.2072 24.9862 42.2222 24.2891 40.7441Z" fill="#032C4D"/>
<path d="M49.0842 67.9082C49.1804 68.6839 47.2366 71.3309 46.7536 72.1976C46.6916 71.9687 46.6745 71.9571 46.681 71.6798C46.7158 70.1617 48.0322 68.8605 49.0842 67.9082Z" fill="#606A72"/>
<path d="M55.2597 55.1384C54.6014 53.9688 54.7163 53.8581 54.8335 52.7057L55.1926 52.4804L55.0298 52.2422L55.3485 52.4959C55.4231 53.2564 55.467 53.9737 55.5109 54.7368L55.2597 55.1384Z" fill="#606A72"/>
<path d="M53.9209 23.9222L54.3684 23.0293C54.7852 24.1171 54.9664 25.1143 54.4672 26.2476L53.9632 25.3067C54.1314 24.7769 54.0155 24.4796 53.9209 23.9222Z" fill="#757575"/>
<path d="M17.1064 78.1914L17.2798 78.3554C17.6689 79.1831 17.2895 80.2212 17.1106 81.0815L16.6708 80.6696C16.5068 79.7012 16.7641 79.0946 17.1064 78.1914Z" fill="#032C4D"/>
<path d="M65.4395 52.0605L65.9512 53.0777C65.8473 53.325 65.651 53.8379 65.527 54.0451L65.1221 53.4467L65.1305 52.1632L65.4395 52.0605Z" fill="#757575"/>
<path d="M25.1211 40.1183C25.4165 39.9501 25.5867 39.9421 25.9186 39.9043L25.9454 40.5502C25.5266 40.5167 25.4456 40.3682 25.1211 40.1183Z" fill="#032C4D"/>
</g>
<defs>
<clipPath id="clip0_404_4141">
<rect width="96" height="72.3756" fill="white" transform="translate(0 11.8125)"/>
</clipPath>
</defs>
</svg>
