<svg width="96" height="96" viewBox="0 0 96 96" fill="none" xmlns="http://www.w3.org/2000/svg">
<g clip-path="url(#clip0_407_8761)">
<rect width="96" height="96" fill="white"/>
<path d="M17.1557 36.1305C15.0914 24.9931 21.9376 25.4001 23.8945 19.0958C29.1556 2.14371 37.7882 -4.88828 52.0448 4.63065C56.1764 7.38943 57.8035 13.4472 58.7913 19.6035C59.7515 24.761 58.2573 26.8717 58.9214 31.0785C62.9392 31.8314 62.5795 34.3972 66.1768 38.3484C67.7623 44.1447 67.4884 54.7493 67.2144 60.8869C67.1923 61.4174 63.9548 67.84 63.6421 69.1072C60.7643 80.7154 76.0859 95.7276 84.1161 90.4916C84.1521 88.1928 81.0501 87.3624 79.6472 86.9989C70.7619 84.6977 67.6406 80.3481 66.6306 69.2435C66.4397 67.7152 66.1519 66.7299 66.5531 65.2988L66.4231 65.7117C67.9256 68.2194 69.1598 76.9623 70.2777 80.6209C75.5325 84.2094 78.5597 85.4931 84.1244 87.904C84.9213 88.2488 85.5937 89.1459 85.9562 90.1599C85.1371 92.0493 83.6983 92.1208 82.0795 92.7472C81.1248 92.4131 79.5005 94.7741 79.4064 94.8198C72.6906 98.0313 63.7113 95.3029 56.6523 94.6199C55.3407 94.493 54.2864 92.9011 53.7745 91.581C50.2688 90.5774 44.3773 92.5296 41.0263 90.2699C38.2888 93.3756 35.584 94.3553 32.2119 94.6562C13.6921 96.392 7.84652 88.4062 10.0107 65.4063C10.8843 56.1219 9.19383 41.3759 17.1557 36.1305Z" fill="#727273"/>
<path d="M19.1935 34.8089C21.289 33.3719 22.4936 32.4627 24.8066 31.5293C26.9218 35.5058 27.8413 36.3289 31.3063 38.3804L31.4187 50.1162C30.6394 48.5294 29.9252 46.5914 28.7052 45.7095C28.9617 48.3413 33.4129 56.2822 34.7038 59.0015C32.797 60.555 32.5341 60.8089 31.1173 63.0257L31.4878 63.3827C32.9536 62.3479 32.9882 62.2414 34.1578 60.8608C41.1448 61.2872 47.7696 61.5583 54.6761 63.1323C56.5633 61.2696 57.1278 59.9581 59.6542 60.4243C62.247 60.9037 63.982 61.4867 64.1508 65.1917C63.5365 67.4743 63.5835 67.3577 62.2138 69.0627C59.4466 70.093 57.7864 69.2222 55.0746 69.7413C47.4586 71.199 34.2325 75.2364 27.2497 70.3112C23.697 67.8053 19.3509 60.3877 15.1394 56.5326L14.9697 56.8213L15.5583 57.0572L15.5813 57.8495C19.4669 63.411 23.3021 68.8532 28.3278 72.8037C26.0183 75.3373 21.434 81.2031 22.5984 85.4252C24.927 79.6413 25.5537 77.5338 29.1604 72.9984C35.8488 74.2718 41.2002 73.6258 47.9196 72.7079C45.5551 78.2919 40.8593 91.8336 35.4365 92.8134C9.63912 97.4604 9.60537 83.087 11.7679 56.7657C12.0512 53.3169 11.7706 48.959 12.8424 45.2028C17.2692 29.6884 24.6193 39.7109 28.2818 40.3365C27.6736 36.4724 22.1745 35.78 19.453 35.4636L19.1935 34.8089Z" fill="#FEFEFE"/>
<path d="M40.7294 78.0938L41.1204 78.5516C41.3035 80.4828 39.2614 84.5727 38.4019 86.5433L38.0176 85.4913C38.6731 82.3334 39.4587 80.8774 40.7294 78.0938Z" fill="#858585"/>
<path d="M20.495 67.873C21.0413 67.9156 20.7684 67.798 21.2613 68.3763C20.1417 69.6963 18.397 70.306 16.9061 71.0036L16.1816 70.5533C16.8651 69.2191 19.0434 68.5703 20.495 67.873Z" fill="#727273"/>
<path d="M17.1552 36.1305C15.0909 24.9931 21.937 25.4001 23.8939 19.0958C29.1551 2.14371 37.7877 -4.88828 52.0442 4.63065C56.1758 7.38943 57.8029 13.4472 58.7908 19.6035C59.751 24.761 58.2567 26.8717 58.9208 31.0785L58.0409 32.4726C57.3325 29.5008 57.9855 27.8625 56.9257 26.5023C55.0745 27.1408 53.6328 27.4302 51.7332 27.8352C51.4111 27.3282 51.2091 26.6286 50.9783 26.0047C49.7705 28.807 48.3047 32.2187 45.4834 30.725C45.9336 29.3033 45.7498 29.8279 46.8323 28.7223C45.7269 27.8158 45.1823 27.8318 43.8593 27.4154L43.644 28.0261C43.0953 29.5523 42.9592 30.4017 41.8534 31.2888C39.723 31.3503 38.3121 29.7536 36.1764 28.2637L35.934 28.7451L37.1529 30.5182C36.4686 33.2663 33.8916 34.2872 31.7836 37.0391C29.1418 35.5644 27.6531 34.7652 26.0158 31.6775L24.8065 31.5295C22.4935 32.4629 21.289 33.3721 19.1934 34.8091C18.1001 35.3382 18.0769 35.2168 17.457 36.4238L17.1552 36.1305Z" fill="#01335B"/>
<path d="M38.2522 17.1657C39.2046 16.9793 41.5724 16.5162 42.417 16.6846C45.8427 17.3687 51.2737 10.8281 53.8125 13.6889C54.164 17.9926 52.3723 22.0424 50.9782 26.004C49.7703 28.8064 48.3046 32.2181 45.4832 30.7244C45.9334 29.3026 45.7497 29.8273 46.8322 28.7216C45.7267 27.8152 45.1822 27.8311 43.8592 27.4147L43.6439 28.0255C43.0952 29.5517 42.959 30.401 41.8533 31.2881C39.7229 31.3497 38.3119 29.7529 36.1762 28.2631L35.9339 28.7445L37.1528 30.5176C36.4685 33.2656 33.8914 34.2866 31.7834 37.0384C29.1416 35.5637 27.6529 34.7645 26.0156 31.6768C29.7142 30.1403 33.3812 27.129 33.532 21.7872C34.3649 20.0248 34.4875 19.5752 35.7825 18.2361C36.9541 18.0251 37.2983 18.0448 38.2522 17.1657Z" fill="#FEFEFE"/>
<path d="M33.5322 21.7867C32.3484 20.5949 32.1769 19.981 31.4355 18.3583C31.5711 16.8868 31.3534 17.5352 32.2848 16.4891C35.2509 15.6625 34.628 16.6035 37.3287 17.0268L38.2524 17.1652C37.2985 18.0443 36.9543 18.0246 35.7827 18.2356C34.4877 19.5747 34.3651 20.0243 33.5322 21.7867Z" fill="#EDEDED"/>
<path d="M58.7908 19.6035C59.751 24.761 58.2568 26.8717 58.9209 31.0785L58.0409 32.4726C57.3326 29.5008 57.9856 27.8625 56.9258 26.5024L57.1057 25.3507C59.0343 23.6094 58.6857 22.4788 58.7908 19.6035Z" fill="#3F5160"/>
<path d="M48.5007 73.9824C52.1201 78.5704 57.3663 83.3115 54.007 89.9983L53.7745 91.5806C50.2689 90.5769 44.3774 92.5292 41.0264 90.2695C43.8245 85.9426 46.4151 79.0787 48.5007 73.9824Z" fill="#FEFEFE"/>
<path d="M41.0264 90.2696C45.1923 89.7567 49.7893 89.9535 54.007 89.9984L53.7745 91.5806C50.2689 90.577 44.3774 92.5293 41.0264 90.2696Z" fill="#858585"/>
<path d="M56.9254 26.502C57.9852 27.8621 57.3322 29.5004 58.0406 32.4722C55.5584 32.798 50.9791 33.9406 50.2979 30.2094L51.7329 27.8348C53.6325 27.4298 55.0742 27.1404 56.9254 26.502Z" fill="#FEFEFE"/>
<path d="M39.4591 33.1822C42.5959 32.6105 48.9448 32.0526 51.809 33.6736C55.0604 42.0239 55.0936 38.9954 61.2339 43.2704C63.6164 44.9287 63.835 57.0649 61.8454 59.8237C61.5189 59.7625 61.1952 59.7013 60.8686 59.6401C59.2443 55.628 56.7096 44.485 54.6647 41.7227C52.6862 41.5429 42.631 43.5076 38.9062 43.6975C39.365 47.5899 41.4583 58.3968 38.4552 60.2878C35.5627 58.966 34.2286 55.5477 32.593 52.3411C32.8794 42.6824 30.2299 36.0969 39.4591 33.1822Z" fill="#FEFEFE"/>
<path d="M55.3426 70.8596C56.6349 70.6798 60.4342 70.7943 61.9173 70.788C63.5195 77.5081 65.5506 87.4206 71.8541 89.4092C73.7524 90.0085 78.6474 90.7624 78.9435 93.8937C77.1753 95.0004 75.3241 94.9941 73.3179 95.2438C71.1153 95.3102 68.243 94.8835 66.0348 94.5359C62.717 94.0137 56.9199 95.1121 55.1268 91.0049C55.4699 89.7886 56.7096 85.968 56.527 84.9578C55.7439 80.6061 51.1814 75.4392 48.7959 72.4775L55.3426 70.8596Z" fill="#FEFEFE"/>
<path d="M51.277 42.4492C52.5983 42.6671 53.8159 42.5191 54.4634 44.0083C56.4502 48.5858 58.4176 54.2676 60.0142 58.9808C58.2488 57.1644 54.372 52.7117 52.7062 51.8329L51.7956 52.7279C51.989 54.766 54.3555 56.0051 55.7805 57.0354L55.7362 57.6399C53.0355 58.7912 49.8196 60.5163 47.0721 59.6403C45.3363 56.6761 48.0627 54.0937 49.7659 51.8257C48.6405 50.6048 48.9759 50.9725 47.5251 50.2113C46.8266 48.5696 46.8991 49.3937 47.1961 47.6749C50.5808 43.965 52.0006 46.4267 52.6509 50.5696L53.2873 50.443C54.004 47.0326 53.2624 46.4651 51.4693 44.1061L51.277 42.4492Z" fill="#FEFEFE"/>
<path d="M63.3839 37.1426C66.8595 40.1614 66.627 55.7118 65.2711 59.679L64.6679 59.4293C63.2151 53.494 65.4676 46.0898 63.2207 40.9762C62.3075 40.7044 62.2466 40.6847 61.375 40.5505C62.2715 39.7298 61.9423 39.9529 62.9716 39.5133C62.4376 38.7725 62.706 38.9126 62.3324 38.7621C62.515 38.2676 63.0602 37.5987 63.3839 37.1426Z" fill="#EDEDED"/>
<path d="M56.9924 34.0498C58.7827 32.496 58.2846 32.4462 60.1524 32.2988C61.8404 33.6846 62.0424 35.3426 63.3844 37.1423C63.0607 37.5985 62.5155 38.2674 62.3329 38.7619C60.3157 39.3695 57.056 39.4308 55.9187 36.8404L56.937 36.3528C56.0488 35.9921 55.4151 35.6718 54.5518 35.2236C55.1301 34.1968 55.6641 34.4078 56.9924 34.0498Z" fill="#FEFEFE"/>
<path d="M56.937 36.3537C56.0488 35.993 55.4151 35.6728 54.5518 35.2246C55.1301 34.1978 55.6641 34.4087 56.9924 34.0508L57.5818 35.5469L56.937 36.3537Z" fill="#EDEDED"/>
<path d="M40.2021 44.0996C41.7302 44.2736 41.9457 44.1262 43.342 44.8535C41.2221 48.3507 42.8497 53.7323 42.653 58.9199C43.0813 59.529 42.9707 59.1658 42.9391 60.0304L42.0785 59.6493C40.8153 57.3509 40.4374 47.2928 40.2021 44.0996Z" fill="#EDEDED"/>
<path d="M44.2748 45.2031L45.3575 45.4086C46.2566 46.7387 45.6865 49.3992 45.9909 52.1597L47.3001 52.3842L47.2513 53.3401L44.5036 56.2503L44.2059 56.8763L43.695 56.5557L43.5868 55.4891C44.3077 54.0823 44.3716 54.1051 44.8531 52.5872C44.2792 51.522 43.7313 50.4354 43.21 49.3287C43.257 47.0247 43.2531 47.1512 44.2748 45.2031Z" fill="#EDEDED"/>
<path d="M54.9473 59.2807L56.3088 59.1738L56.425 59.7545C55.0497 61.0583 54.7979 61.4692 53.0712 61.8697C51.6799 61.602 51.3966 61.6871 50.1992 60.7374C51.5667 59.6075 53.1985 59.6103 54.9473 59.2807Z" fill="#EDEDED"/>
<path d="M51.4688 44.1061C49.8445 44.3316 48.7805 44.4662 47.1523 44.4873C48.5531 43.8762 49.9527 43.2958 51.2765 42.4492L51.4688 44.1061Z" fill="#EDEDED"/>
</g>
<defs>
<clipPath id="clip0_407_8761">
<rect width="96" height="96" fill="white"/>
</clipPath>
</defs>
</svg>
