<svg width="96" height="96" viewBox="0 0 96 96" fill="none" xmlns="http://www.w3.org/2000/svg">
<g clip-path="url(#clip0_407_8585)">
<rect width="96" height="96" fill="white"/>
<path d="M52.0082 45.8496L52.5015 45.8755C56.9662 49.1365 58.9314 49.984 64.3787 51.1809L64.058 51.9355C65.982 55.5019 68.9832 61.6405 70.5783 65.4374C69.1846 66.6841 66.3315 68.7609 65.6531 70.1399C66.5905 72.6183 71.3923 71.3791 72.7614 72.4597C68.6831 72.996 68.7159 72.9726 65.1721 71.3791C64.6048 72.6491 64.5883 74.7277 64.4732 76.1892C66.389 77.5246 79.8243 76.7429 82.0279 75.6422L82.1965 74.9106C79.1624 71.1888 72.4325 72.7387 71.1251 67.8213L71.3923 67.3363C73.933 68.3495 83.5779 73.6311 82.879 76.5867C81.5099 77.8058 77.8304 77.694 76.0791 77.4913L71.2032 77.4987C68.2925 78.0655 65.5092 78.0199 63.0631 76.1037L62.0024 76.3767L61.2583 75.8806C61.7475 75.6303 62.43 75.1231 62.9028 74.7959C63.7949 73.1247 64.8145 71.6064 64.4404 69.7798L62.5533 69.151C61.7722 68.204 58.512 60.8012 57.7309 59.1361C56.9087 61.5106 56.1851 63.5632 55.5725 66.0137L55.9754 66.3602L56.0741 66.7227C54.3638 67.8505 54.1665 68.9549 53.591 71.0269C52.2096 72.084 51.5641 73.6372 50.4829 74.9677C45.2247 81.4297 33.3188 79.3393 27.5796 74.7696C26.7697 73.6089 25.968 71.5287 25.376 70.1514L25.6679 69.6943C33.5161 72.511 42.2359 70.2324 45.7592 62.0367C46.2936 60.7905 45.7263 60.3384 45.1425 59.1846C45.6112 56.8344 48.4026 49.7945 49.4058 47.1262L48.7521 46.3527C49.1591 45.5438 49.747 46.7654 52.0082 45.8496Z" fill="#032C4D"/>
<path d="M71.2031 77.4994C73.2299 76.9836 73.9617 76.8221 76.079 77.492L71.2031 77.4994Z" fill="#606A72"/>
<path d="M42.1666 26.7396C29.6111 5.8369 66.2951 10.846 56.2268 22.899C56.1611 26.2143 58.2289 26.8395 55.5608 28.9118C55.7787 29.703 63.6433 37.1486 64.9713 38.581C68.5768 42.4696 74.4681 52.7224 64.0586 51.9349L64.3793 51.1803C58.932 49.9834 56.9668 49.1359 52.5021 45.8749L52.0088 45.849C52.8146 43.4647 56.7202 43.2518 56.4735 40.1691C56.0706 35.0734 50.134 33.9287 46.0146 33.7996C43.3383 33.7158 41.0072 36.2398 39.3258 35.9649C40.2055 34.373 44.584 33.2801 46.2572 32.8572C43.2931 32.4552 39.9918 29.7269 38.6762 30.7955L39.112 32.2328L38.4337 32.4313C37.7265 31.7745 37.6854 31.6607 36.7851 31.262C26.3345 33.724 23.8966 52.787 22.8194 61.5174C21.2695 56.3373 25.0066 45.1737 26.9306 40.1367C29.2452 34.0775 34.195 31.0261 39.9795 29.0499C41.6527 28.4769 41.6075 28.0931 42.1666 26.7396Z" fill="#032C4D"/>
<path d="M42.166 26.7396C29.6105 5.8369 66.2945 10.846 56.2262 22.899L55.6876 22.546L55.1614 21.8398C55.589 21.063 55.7534 20.7885 55.8315 19.8764L56.0207 19.9356L55.9261 20.3499L55.8069 19.9011L49.6977 24.3335C49.2043 23.054 49.4469 23.0392 48.526 22.4732C46.643 23.2948 46.6883 23.7794 46.0387 25.7729C44.1229 27.3767 43.7241 26.1777 42.8032 27.0207L42.166 26.7396Z" fill="#032C4D"/>
<path d="M60.0377 40.8664C61.6945 39.9914 62.4921 39.6737 64.2517 39.0391C66.6567 42.0082 73.4813 51.7966 64.3791 51.1801C58.9318 49.9832 56.9667 49.1357 52.502 45.8747C53.982 44.6042 56.9872 41.5269 58.2494 40.6889L60.0377 40.8664Z" fill="#F9F8F9"/>
<path d="M58.249 40.6895L60.0374 40.867C62.4506 41.4235 63.7333 41.2871 64.6624 43.7376L64.4898 44.3048L64.2431 43.5062C63.9225 43.2595 62.7467 42.5962 62.3356 42.3528C61.2913 42.2394 59.2974 41.1814 58.249 40.6895Z" fill="#032C4D"/>
<path d="M62.3359 42.3535C62.7471 42.5968 63.9229 43.2602 64.2435 43.5068C63.705 44.5323 63.8735 45.2023 62.9567 46.0593C62.3442 45.3642 62.4017 43.402 62.3359 42.3535Z" fill="#757575"/>
<path d="M42.8038 27.0213C43.7247 26.1783 44.1235 27.3772 46.0393 25.7734C46.6889 23.78 46.6436 23.2954 48.5265 22.4738C49.4474 23.0397 49.2049 23.0545 49.6982 24.334L55.8074 19.9016L55.9266 20.3504L56.0212 19.9361L55.8321 19.877C55.754 20.789 55.5895 21.0636 55.162 21.8404L55.6882 22.5465C56.4323 29.4273 54.4754 26.4232 53.386 32.2794C48.9336 31.1692 44.1194 32.5318 41.4142 30.3316L41.3525 29.5428C42.2118 28.6135 42.2159 28.5404 42.6887 27.3275L42.8038 27.0213Z" fill="#F9F8F9"/>
<path d="M53.3859 32.2805C54.2657 31.4688 54.4753 31.218 54.9604 30.1251L55.3674 29.9727C56.6871 31.3755 57.5176 32.1885 58.5495 33.8247C57.9451 34.5876 56.165 34.8481 55.0057 35.179C52.8103 34.269 50.5245 33.2756 48.3086 32.4351C50.0353 32.6007 51.984 33.0269 53.3859 32.2805Z" fill="#F9F8F9"/>
<path d="M62.9855 37.3963C63.1869 37.9783 63.1376 37.7461 63.0718 38.3881C61.2793 39.0844 60.6544 39.5768 59.0716 40.2948C56.9544 39.6372 56.3171 37.7572 56.4857 35.6779C58.1301 33.5751 60.1323 35.0157 61.9248 36.294L62.9855 37.3963Z" fill="#F9F8F9"/>
<path d="M93.4949 41.2602C91.1967 40.64 85.3178 39.3625 83.3527 38.448C76.0348 35.0452 68.795 35.2437 61.4277 33.1245C66.764 32.1348 90.317 37.7176 95.9986 39.358C96.0192 50.2368 95.8711 61.1152 95.5505 71.9895C89.8647 69.6623 82.8675 66.0836 77.1201 63.4424C77.264 55.1037 76.8858 45.6675 77.1777 37.6733L77.6093 37.6165L79.0277 38.598L79.3771 38.0872C79.6649 39.9959 79.4799 41.8829 79.3771 43.8139L79.7554 44.1801C84.7093 41.4394 89.5852 42.3042 92.2739 47.527C92.3972 47.7658 92.5123 48.007 92.6233 48.2512L93.4702 47.6688L93.4949 41.2602Z" fill="#F9F8F9"/>
<path d="M93.4949 41.2602C91.1967 40.64 85.3178 39.3625 83.3527 38.448C76.0348 35.0452 68.795 35.2437 61.4277 33.1245C66.764 32.1348 90.317 37.7176 95.9986 39.358C96.0192 50.2368 95.8711 61.1152 95.5505 71.9895C89.8647 69.6623 82.8675 66.0836 77.1201 63.4424C77.264 55.1037 76.8858 45.6675 77.1777 37.6733L77.6093 37.6165L79.0277 38.598L79.3771 38.0872C79.6649 39.9959 79.4799 41.8829 79.3771 43.8139L79.7554 44.1801C79.706 45.4592 79.5539 46.0317 80.1172 47.1209L79.2003 47.7054C80.3268 52.3675 79.1346 52.3712 82.0905 56.1016L81.6424 57.4222L82.0042 58.1094C83.5376 58.4892 84.845 57.7366 86.5676 57.2471C86.2798 58.7646 83.8336 59.8061 82.4029 58.9265C80.9805 58.0494 80.3679 56.9134 79.5251 55.5698C79.4265 57.5377 79.077 60.0207 79.9198 61.7202L80.6311 62.2221L82.4318 61.4194C82.7565 62.3491 82.7935 62.4925 82.9457 63.4662C84.1132 64.6019 86.1195 65.0552 87.7516 65.4971C89.0631 64.019 91.8957 59.5624 92.3397 59.3092L92.7138 59.7884C92.241 61.6988 89.7208 64.5283 88.3641 66.1L93.4333 68.3261C93.3716 63.4942 93.4291 59.3803 93.4908 54.6043C93.3017 53.8114 93.0098 53.0178 92.7467 52.2426C92.6398 51.6088 92.6398 49.0391 92.6233 48.2512L93.4702 47.6688L93.4949 41.2602Z" fill="#57646F"/>
<path d="M77.6084 37.6152L79.0268 38.5967L79.3762 38.0859C79.664 39.9946 79.479 41.8816 79.3762 43.8125L79.7545 44.1788C79.7051 45.4578 79.553 46.0304 80.1163 47.1196L79.1994 47.7041L78.8336 47.8241C79.1542 50.603 78.7184 59.007 78.7431 62.5681C80.0957 63.1156 81.4154 63.7481 82.7392 64.3634L82.5706 64.3141C83.212 64.9429 82.9899 64.9105 83.7464 65.1583L82.9694 64.6351L82.4884 64.8554C81.588 64.5886 78.9363 63.2343 77.9455 62.7559C78.0401 58.2503 78.4759 41.2679 77.6084 37.6152Z" fill="#B7B6B7"/>
<path d="M79.0271 38.5988L79.3765 38.0879C79.6643 39.9967 79.4793 41.8836 79.3765 43.8146L79.1545 43.7497C78.3487 42.3493 78.7475 40.1676 79.0271 38.5988Z" fill="#57646F"/>
<path d="M93.47 47.6699L93.4905 54.6054C93.3014 53.8126 93.0095 53.0189 92.7464 52.2437C92.6395 51.6099 92.6395 49.0402 92.623 48.2523L93.47 47.6699Z" fill="#E9E8E9"/>
<path d="M79.7544 44.1797C84.7084 41.439 89.5842 42.3038 92.2729 47.5266C92.3963 47.7654 92.5114 48.0067 92.6224 48.2508C92.6388 49.0387 92.6388 51.6084 92.7457 52.2422C92.018 53.2139 91.5452 53.987 90.5627 54.7034L89.5267 55.0766C89.0333 54.5398 89.206 54.7395 88.984 53.9607C90.427 52.7362 90.5298 52.7975 89.7856 51.2496L89.1895 51.0996L88.0754 51.9989C86.6447 51.7136 85.4278 49.1904 84.1822 48.4267C83.1338 47.7864 81.3331 47.4053 80.1162 47.1205C79.553 46.0313 79.7051 45.4588 79.7544 44.1797Z" fill="#032C4D"/>
<path d="M89.9588 58.6211L90.4686 58.8315C89.1612 60.536 86.4931 63.7543 84.2031 62.5932C84.1045 61.1636 84.0798 60.952 84.6266 59.6392C85.1528 60.0572 85.2309 60.4912 85.4858 61.1328L85.5927 61.4193L86.4191 61.633C87.9937 61.0268 88.7953 59.8891 89.9588 58.6211Z" fill="#043E6D"/>
<path d="M89.5273 55.0763L90.5633 54.7031C90.6044 55.7648 90.8141 57.9489 90.4688 58.8314L89.959 58.6209C89.9384 57.5507 89.6877 56.1627 89.5273 55.0763Z" fill="#919192"/>
<path d="M10.5802 14.4434L11.3326 15.0463C12.9359 18.1105 11.9575 46.9721 11.8876 52.0383C8.5904 57.2504 5.24394 62.43 1.84399 67.5767L0.816202 66.9043C-0.536374 64.7814 0.19538 35.3185 0.215936 30.6703C3.81321 25.3608 6.97885 19.7553 10.5802 14.4434Z" fill="#043E6D"/>
<path d="M10.593 15.7773C12.1429 18.2344 11.407 47.1737 11.0164 51.9941C7.44792 56.0554 5.18265 61.4886 1.80738 65.8043L1.07563 65.863C0.997514 54.2025 1.20304 42.5576 0.989258 30.8933C4.13842 25.8218 7.34106 20.7827 10.593 15.7773Z" fill="#B7B6B7"/>
<path d="M1.65918 31.0048C4.42189 26.3981 7.34495 21.886 10.4119 17.4766C10.4736 27.6447 10.7819 40.1647 10.2803 50.2042C10.2022 48.3032 10.1446 46.7143 9.87741 44.8289L9.82396 44.4541C9.66774 46.3111 9.71707 47.7451 8.69339 49.2757C7.95338 50.3892 7.8054 50.5207 7.8424 51.6263L8.38505 52.0669C9.07573 51.7624 9.14977 51.8096 9.91445 51.7574C9.05521 53.9268 4.91934 61.0094 2.78975 62.2421L2.15667 61.9486C1.36732 59.5047 1.86885 35.7771 1.65918 31.0048Z" fill="#032C4D"/>
<path d="M2.54297 31.18C4.726 27.6346 7.24614 23.3135 9.67996 20.0254C10.1527 23.7171 9.8403 34.4763 9.8403 39.0082L8.8783 38.3872C6.17726 36.8023 4.63967 38.3033 2.74853 40.1788C2.7033 37.1788 2.63341 34.1792 2.54297 31.18Z" fill="#F9F8F9"/>
<path d="M7.48842 27.5547C7.8831 27.7294 7.67754 27.6163 8.15855 27.9813C8.73 28.4162 8.81632 28.9324 8.86566 29.6496C9.02188 31.9472 7.45144 34.6016 6.07009 36.3278C5.99198 36.2941 5.9015 36.2724 5.82749 36.2259C4.98881 35.7047 4.75862 35.2078 4.67228 34.2275C4.46672 31.8905 6.06185 29.2752 7.48842 27.5547Z" fill="#032C4D"/>
<path d="M7.25006 29.2949L7.70639 29.745C8.09695 31.6953 6.91705 33.5859 6.01259 35.2366L5.47812 34.8531C5.22323 32.7923 6.27571 31.0269 7.25006 29.2949Z" fill="#F9F8F9"/>
<path d="M9.02617 42.3155L9.83195 42.1914L9.82372 44.4549C9.66749 46.3119 9.71682 47.7459 8.69314 49.2765C7.95313 50.39 7.80515 50.5215 7.84215 51.6271L8.3848 52.0677L7.90383 53.0036C6.33747 53.6021 4.6683 53.2675 2.9375 53.1212C2.97039 50.9305 3.05263 48.6986 3.11019 46.5046C5.21922 44.3632 6.15657 42.9123 9.02617 42.3155Z" fill="#F9F8F9"/>
<path d="M2.7482 40.1789C4.63934 38.3034 6.17694 36.8024 8.87798 38.3873L9.83998 39.0083L9.83175 42.1916L9.02597 42.3158C6.15637 42.9126 5.21902 44.3635 3.10999 46.5049C1.97942 45.3454 2.11919 41.6257 2.7482 40.1789Z" fill="#032C4D"/>
<path d="M8.87793 38.3867L9.83993 39.0078L9.8317 42.1911L9.02593 42.3152C9.05882 41.1179 8.9396 39.6074 8.87793 38.3867Z" fill="#B7B6B7"/>
<path d="M2.74849 54.0391C4.38474 54.1879 6.07853 54.1492 7.723 54.1829C6.85965 55.9014 5.82777 57.363 4.66431 58.8899C4.19153 59.6141 3.68585 60.2536 3.11851 60.908L2.46484 60.3769C2.58818 59.2754 2.94582 59.0066 3.62006 58.1529C3.06094 56.7394 2.88005 55.5376 2.74849 54.0391Z" fill="#F9F8F9"/>
<path d="M66.114 15.8079C59.0551 10.0791 81.1815 1.04621 80.9718 13.4889C80.9266 16.0812 80.9389 19.283 78.7929 20.828L78.3242 21.9838C78.3818 22.4425 78.4352 23.1302 78.5873 23.5375L79.9522 24.5301C83.1096 25.602 84.9802 25.8984 86.8343 28.6189L86.7932 28.9736C84.4046 27.8314 83.5084 26.5872 80.4908 25.2399C77.5883 30.3858 70.55 33.3727 69.5798 25.7228L68.5972 24.9275L68.3258 24.2095L68.3628 23.7722L67.1706 21.9246C65.7564 19.3295 66.8869 18.685 66.114 15.8079Z" fill="#F9F8F9"/>
<path d="M66.114 15.8079C59.0551 10.0791 81.1815 1.04621 80.9718 13.4889C80.9266 16.0812 80.9389 19.283 78.7929 20.828L78.3242 21.9838L77.7815 21.9592C77.5595 21.2802 77.4937 21.0052 77.3663 20.3032L78.9779 18.3525L78.8875 17.4914L78.2543 17.1005L76.9223 17.8465C75.1915 16.3056 71.4586 12.8745 69.0659 13.3714C67.7708 14.1494 67.6763 14.3036 67.0473 15.6833L66.114 15.8079Z" fill="#032C4D"/>
<path d="M79.3071 25.6575L79.9526 24.5293C83.1099 25.6012 84.9805 25.8976 86.8347 28.6181L86.7936 28.9728C84.405 27.8306 83.5087 26.5864 80.4911 25.2391C77.5886 30.3851 70.5503 33.3719 69.5801 25.7221L70.094 25.8635L71.3068 25.9769C71.9152 26.8951 72.5072 27.8215 73.091 28.7562C76.6389 29.3559 77.3584 28.3596 79.3071 25.6575Z" fill="#032C4D"/>
<path d="M70.0938 25.8633L71.3065 25.9767C71.915 26.8949 72.507 27.8214 73.0908 28.756L73.3745 29.1091L72.6468 29.3553C70.7762 28.6315 70.5254 27.7494 70.0938 25.8633Z" fill="#F9F8F9"/>
<path d="M68.7167 23.3555C70.9984 25.642 71.9646 25.21 75.0027 23.9375C73.9338 24.8828 73.2761 25.3645 72.4662 26.5643C72.6676 27.3522 72.8361 27.9856 73.091 28.7579C72.5072 27.8232 71.9152 26.8968 71.3068 25.9786L70.094 25.8651L69.5801 25.7237L68.5975 24.9284L68.3262 24.2104L68.3632 23.7731L68.7167 23.3555Z" fill="#032C4D"/>
<path d="M66.1143 15.8081L67.0475 15.6836C67.1585 17.0445 67.2119 20.192 67.6436 21.2146L67.1709 21.9249C65.7566 19.3297 66.8872 18.6852 66.1143 15.8081Z" fill="#032C4D"/>
<path d="M77.7812 21.959L78.324 21.9836C78.3815 22.4423 78.4349 23.13 78.587 23.5373L78.3404 24.1612C77.5962 23.1563 77.8306 23.4551 77.7812 21.959Z" fill="#043E6D"/>
<path d="M78.5875 23.5371L79.9524 24.5297L79.3069 25.658L78.3408 24.161L78.5875 23.5371Z" fill="#919192"/>
<path d="M67.6436 21.2148L68.7167 23.355L68.3631 23.7726L67.1709 21.9251L67.6436 21.2148Z" fill="#57646F"/>
<path d="M16.2988 3.43376C18.7244 2.24715 33.7549 -0.985492 35.7406 0.294826C36.0777 2.79586 36.2175 27.5407 35.9461 27.909L34.4168 29.4992C33.7919 28.8469 34.24 23.7705 33.8207 21.6928C30.3509 24.6817 31.5595 29.6677 24.1512 25.0011C22.7945 24.1474 23.0001 24.0882 22.6589 22.6324L23.4235 21.4227C23.8881 29.0241 33.8823 25.9509 33.7467 17.7228L33.7302 15.5016C33.611 11.0425 33.5987 6.58133 33.6973 2.12179C29.2655 2.98205 22.5355 4.50035 18.2558 5.03221C18.2804 10.5953 17.9844 21.3389 18.4654 26.3406C19.2054 26.4363 21.5653 25.1112 22.4409 24.6883C23.0042 25.5017 24.9241 28.1371 25.1214 28.8843C24.0772 27.9382 22.297 25.9361 21.1911 25.9489L20.7389 26.2016L19.9249 27.0861L18.671 27.3044C17.4376 29.4154 19.2301 31.6669 17.7994 33.1219L16.7963 33.5765L16.562 34.5408L16.1549 34.3151C15.5999 31.2243 15.4519 5.06879 16.2988 3.43376Z" fill="#032C4D"/>
<path d="M16.2988 3.43376C18.7244 2.24715 33.7549 -0.985492 35.7406 0.294826C36.0777 2.79586 36.2175 27.5407 35.9461 27.909L34.4168 29.4992C35.0869 25.9127 34.2647 6.87027 34.3017 1.26852C31.0538 1.61254 27.5963 2.39635 24.3773 3.04206L24.1841 2.43334C21.816 2.86286 18.6258 3.59159 16.2988 3.43376Z" fill="#57646F"/>
<path d="M24.1836 2.43369C27.9289 1.46821 31.4398 0.958969 35.1686 0.164062C35.2344 3.8998 35.0823 26.3331 35.9457 27.9093L34.4163 29.4996C35.0864 25.913 34.2642 6.87062 34.3012 1.26887C31.0534 1.61289 27.5959 2.3967 24.3768 3.04241L24.1836 2.43369Z" fill="#B7B6B7"/>
<path d="M24.1841 2.43555L24.3773 3.04426C22.4492 3.43309 19.2835 3.96988 17.5322 4.62915C17.4993 8.66369 17.0882 30.942 17.7994 33.1241L16.7963 33.5787L16.562 34.543L16.1549 34.3173C15.5999 31.2265 15.4519 5.07099 16.2988 3.43596C18.6258 3.59379 21.816 2.86506 24.1841 2.43555Z" fill="#E9E8E9"/>
<path d="M16.7963 33.5783L16.562 34.5425L16.1549 34.3169C15.5999 31.226 15.4519 5.07057 16.2988 3.43555C17.6062 8.54202 15.9659 27.0234 16.7963 33.5783Z" fill="#043E6D"/>
<path d="M58.5291 0.908203C63.553 1.15029 86.5468 3.57899 91.0691 4.84164C90.8923 9.28473 91.1184 33.8274 90.3578 35.7053C89.9467 35.679 88.7093 35.5421 88.4256 35.5746L88.1214 34.7859L86.7729 34.2125L88.2077 33.1126C88.035 27.6958 88.7709 11.0554 87.9898 7.04387C87.0237 6.33157 85.3833 6.38131 84.0965 6.27321L83.5826 6.15771L80.824 5.89055L80.3389 5.79355C74.316 5.07386 66.2663 3.88602 60.3504 3.48734C60.3339 5.56133 60.412 8.49886 60.0379 10.466L58.8251 11.4417C57.3369 9.95058 58.3441 3.2288 58.5291 0.908203Z" fill="#757575"/>
<path d="M84.0957 6.27205C85.88 5.27451 87.9355 5.56181 89.0291 7.34768C88.8071 13.9198 89.3375 27.4312 88.7002 32.9972L88.2398 33.1435L88.2069 33.1115C88.0342 27.6947 88.7701 11.0542 87.989 7.04271C87.0228 6.33042 85.3825 6.38015 84.0957 6.27205Z" fill="#032C4D"/>
<path d="M60.0374 10.466C59.6509 9.20791 59.7167 3.99046 60.4074 3.0106C64.3747 2.97196 73.004 4.29133 77.4194 4.71961L80.3507 4.96087L80.5275 5.50629L80.3384 5.79359C74.3155 5.0739 66.2658 3.88606 60.3498 3.48738C60.3334 5.56137 60.4115 8.4989 60.0374 10.466Z" fill="#043E6D"/>
<path d="M80.2979 3.94141C82.2918 4.28132 88.3228 5.04663 89.844 5.75317C90.1318 6.7318 89.9632 7.13501 89.7659 8.12721L89.3548 8.15104L89.03 7.34873C87.9364 5.56287 85.8808 5.27557 84.0966 6.27311L83.5827 6.15761L80.8241 5.89045L80.339 5.79345L80.5281 5.50614L80.3513 4.96073L80.2979 3.94141Z" fill="#B7B6B7"/>
<path d="M80.8242 5.89021C82.0411 5.39617 82.111 5.42823 83.4554 5.51166C83.6568 6.05914 83.6979 5.84377 83.5828 6.15737L80.8242 5.89021Z" fill="#043E6D"/>
<path d="M80.2977 3.94141L80.3512 4.96073L77.4199 4.71946C78.4724 3.98292 78.9575 4.06512 80.2977 3.94141Z" fill="#E9E8E9"/>
<path d="M19.8588 19.2495C19.3778 16.8742 19.1106 14.6272 20.4879 12.4615C21.6308 10.6707 23.4561 9.42616 25.5405 9.01802C29.294 8.26915 32.6158 9.86554 32.2006 14.0982C30.9713 14.727 31.2303 13.7833 30.1861 14.1989C28.3854 14.9153 27.6166 14.5988 25.8653 13.9675C23.8302 15.3029 23.5137 16.9876 23.6905 19.3995C22.9052 18.9252 22.5352 18.5976 21.5691 18.6794L20.5454 19.4591L20.5125 18.6872L19.8588 19.2495Z" fill="#032C4D"/>
<path d="M21.2408 76.6763L21.6273 76.4379C22.9347 76.4009 26.1619 76.246 27.2472 76.641C23.9378 77.3163 15.4564 78.7035 13.4666 81.3525L13.5365 82.1515C15.9909 84.0886 27.2925 84.1979 31.0665 84.888C36.6947 85.9172 42.5696 88.8996 48.0621 88.0257C53.7232 87.1252 59.4542 86.6846 64.3506 83.5379L64.6219 83.7639C63.2776 86.8659 54.3235 87.6266 51.2894 88.4429C44.0003 90.4039 37.1017 86.8416 29.8661 85.7323C24.5997 84.9246 19.029 84.549 13.8407 83.3886C13.0267 83.1934 12.78 82.3529 12.5498 81.7101C13.8777 77.8046 19.1236 79.0401 21.2408 76.6763Z" fill="#043E6D"/>
<path d="M55.9762 66.3594L56.9506 65.6426C58.7472 66.0598 59.4995 67.0972 58.9075 68.9578L59.1706 69.2221C60.3505 70.3808 60.6054 70.5534 62.0361 71.4198C59.4749 71.3631 60.4534 70.3191 56.3792 71.8744C55.0225 71.6533 54.7635 71.6767 53.5918 71.0261C54.1674 68.9541 54.3647 67.8497 56.0749 66.7219L55.9762 66.3594Z" fill="#F9F8F9"/>
<path d="M58.9075 68.959L59.1706 69.2233C60.3505 70.3819 60.6054 70.5545 62.0361 71.421C59.4749 71.3643 60.4534 70.3203 56.3792 71.8756C55.0225 71.6544 54.7635 71.6779 53.5918 71.0272C56.4655 70.952 57.6824 71.8649 58.9075 68.959Z" fill="#032C4D"/>
<path d="M55.9762 66.3594L56.9505 65.6426C58.7471 66.0598 59.4995 67.0972 58.9075 68.9578L55.6309 69.7096C56.634 68.9813 57.1808 68.696 57.8838 67.6981L57.5015 67.061L56.0748 66.7219L55.9762 66.3594Z" fill="#043E6D"/>
<path d="M19.9248 27.0876L20.7388 26.2031C21.8036 28.5998 24.6321 32.1148 27.5757 30.7782C27.107 30.0889 26.7699 30.0042 26.0299 29.6347C27.3578 29.0893 27.4729 29.7703 27.8881 29.6557C29.2983 29.2652 28.768 27.0856 30.0178 27.0975C30.0095 29.6729 28.1471 29.5073 29.1215 31.5159C27.8265 32.3326 25.0309 33.2101 23.5714 33.2636C22.3627 33.3478 20.9402 33.6783 20.0605 33.1777C21.4624 32.2229 22.8232 32.0634 24.4923 31.6844C22.4326 30.005 21.6762 29.1246 19.9248 27.0876Z" fill="#757575"/>
<path d="M60.6211 30.8836C61.098 30.7969 61.5872 30.7204 62.0724 30.7188C64.9625 30.7093 76.9096 32.1479 78.5746 33.8429C74.4881 33.3172 63.8278 32.5445 60.6211 30.8836Z" fill="#032C4D"/>
<path d="M44.251 82.6553C46.286 82.3746 58.5332 83.0524 60.3791 83.6323C56.605 85.2028 48.0867 84.0421 44.251 82.6553Z" fill="#043E6D"/>
<path d="M29.1211 31.5156L29.8159 31.8313C28.3811 33.4388 21.0756 35.0163 18.8473 35.214L18.8145 34.8983C21.1249 33.6624 21.4291 33.9965 23.5711 33.2633C25.0305 33.2098 27.8261 32.3323 29.1211 31.5156Z" fill="#032C4D"/>
<path d="M42.8525 55.752C43.0128 55.8835 43.0786 56.1387 43.1608 56.3257C39.7527 58.1626 35.8429 59.939 33.6229 63.2288L33.2734 62.6274C34.7987 59.4215 39.7403 57.1757 42.8525 55.752Z" fill="#57646F"/>
<path d="M62.0028 76.3756C60.0541 76.9782 54.0312 75.5733 52.2881 74.5918C56.761 74.8314 57.1763 75.1574 61.2587 75.8795L62.0028 76.3756Z" fill="#043E6D"/>
<path d="M32.1516 17.8922L31.6953 18.0167L31.1485 17.6324L30.8977 17.8646L30.7456 17.6468L32.0448 16.648L31.9173 16.0463L30.4332 16.2526L30.2852 15.6003C31.3212 14.9456 31.5555 15.0705 32.8546 15.179L33.7303 15.5017L33.7468 17.7228L32.1516 17.8922Z" fill="#032C4D"/>
<path d="M32.8544 15.1797L33.73 15.5023L33.7465 17.7235L32.1514 17.8928L32.8544 15.1797Z" fill="#E9E8E9"/>
<path d="M43.1362 59.8027L43.387 59.9951L43.3952 60.4719C41.1957 62.3428 38.9058 64.0666 36.5994 65.7958C36.3158 65.5635 36.4556 65.7321 36.3281 65.1973C38.5276 63.3136 40.8011 61.5138 43.1362 59.8027Z" fill="#57646F"/>
<path d="M21.2405 76.6767L21.0391 76.1325C22.1532 74.3848 25.7998 74.0355 27.58 74.7704C25.882 76.2348 24.0855 74.8374 21.627 76.4383L21.2405 76.6767Z" fill="#032C4D"/>
<path d="M88.4251 35.5744C86.6244 35.2607 83.1052 34.7684 81.6211 33.8489C83.3108 33.6294 85.0704 33.9784 86.7724 34.2122L88.1209 34.7856L88.4251 35.5744Z" fill="#032C4D"/>
<path d="M25.376 70.1509C22.3214 68.4674 22.2228 67.8858 22.3009 64.5898C23.4561 65.2409 23.1765 66.9203 23.9248 68.1879C23.9248 68.1879 25.5446 69.5874 25.6679 69.6939L25.376 70.1509Z" fill="#57646F"/>
<path d="M68.5967 24.927C64.0333 26.5168 64.6664 28.2817 63.4907 28.8202L63.4824 27.8136C64.8227 25.4145 65.8422 25.1625 68.3254 24.209L68.5967 24.927Z" fill="#57646F"/>
<path d="M19.8594 19.2498L20.513 18.6875L20.546 19.4594C20.8502 19.8104 21.323 20.3521 21.6272 20.7007C21.6971 20.7829 23.4114 21.0961 23.4238 21.4245L22.6591 22.6341C20.7639 21.3131 20.4884 21.1774 19.8594 19.2498Z" fill="#032C4D"/>
<path d="M30.4453 83.4479C32.4803 83.2428 35.2554 82.8091 37.0643 83.9456C34.7579 84.304 32.6736 84.0673 30.4453 83.4479Z" fill="#757575"/>
<path d="M38.4003 82.5627C39.5267 82.4764 41.3932 82.2639 42.3347 82.9285L41.2987 83.1114C40.1352 83.3264 38.6387 83.8685 37.5205 83.4871L38.4003 82.5627Z" fill="#043E6D"/>
<path d="M30.5692 21.6777L30.3266 22.3197C29.3769 22.9276 28.7315 22.8146 27.6338 22.7086L27.8147 21.9778C28.7314 21.8878 29.6524 21.7875 30.5692 21.6777Z" fill="#043E6D"/>
</g>
<defs>
<clipPath id="clip0_407_8585">
<rect width="96" height="96" fill="white"/>
</clipPath>
</defs>
</svg>
