<svg width="96" height="96" viewBox="0 0 96 96" fill="none" xmlns="http://www.w3.org/2000/svg">
<g clip-path="url(#clip0_407_8937)">
<rect width="96" height="96" fill="white"/>
<path d="M39.4778 26.6712L40.4336 26.1445L41.1995 26.4042L42.2044 26.2816L42.4493 26.5836C45.4626 30.2645 47.924 31.8651 51.9247 28.5775C53.3751 28.21 55.3341 29.215 56.633 29.9675L57.42 29.5181L57.9399 29.8784C58.6884 31.1255 59.3001 32.244 59.98 33.5239L60.327 33.5284C60.7738 29.3605 60.9392 28.0303 65.2895 29.2318C66.0707 28.592 66.8474 27.9461 67.6187 27.2946L68.3218 27.3776C69.5712 29.7885 66.3004 30.5783 70.2237 31.4553L70.5147 32.0155C69.1598 33.5673 66.3308 35.2174 64.3616 35.8803L64.1681 36.2832C66.8534 37.2829 67.4636 34.8982 69.604 35.0936L69.9163 35.5517C68.8604 36.5053 67.4092 36.8297 66.0174 37.2947L67.6061 38.0334C65.3005 38.4908 54.4112 38.2219 51.7853 37.9135C51.7879 39.4169 51.4581 47.6916 51.711 48.3557C53.2194 49.1212 57.2173 47.0579 58.8248 48.0324C57.3259 49.3519 50.8562 48.8538 50.3584 52.0686C52.5436 54.8318 58.2286 53.6936 60.2752 51.4144C61.1178 50.4765 66.8942 50.8759 68.7412 50.7C65.6536 46.4974 65.5531 45.81 68.2373 41.2509L69.2836 41.2365C72.1975 43.7391 70.0618 48.2632 68.0872 50.8207C67.1311 52.0595 63.3548 51.8097 61.6743 51.8413C59.1912 54.2629 59.6007 54.6208 59.1516 58.2393L58.7078 57.8471C58.7429 56.4152 58.7562 55.9602 58.5037 54.51L58.4473 54.1997C56.5896 54.2812 54.6603 54.1273 52.771 54.2358C34.9771 55.2602 32.0453 57.4091 31.5413 38.201C30.8675 37.0129 31.192 34.8125 31.4232 33.5037C33.2969 29.6647 35.7987 28.5928 39.4778 26.6712Z" fill="#F9F8F9"/>
<path d="M39.4778 26.6719L38.9892 27.8623C28.8472 31.5318 32.1527 41.4317 33.3765 50.1257C34.0785 55.1147 45.8367 53.9947 50.1432 53.8968C50.2776 52.4996 50.3988 50.8252 50.6106 49.4665C47.0963 48.7197 45.2284 48.3199 41.8395 47.1268C40.9756 47.7475 40.0126 48.6797 39.1168 48.7403C40.4412 47.1431 41.0617 46.7018 42.7193 45.4299C39.8355 45.9268 38.2571 46.0167 35.8288 47.7399L35.4799 47.5594C36.2653 45.5997 38.7778 45.9131 40.752 45.3807C41.158 42.8807 39.9974 38.6522 40.5231 37.3144C40.9916 39.3079 41.9484 45.9977 43.213 46.8526C43.8377 45.9127 43.859 38.9111 44.2255 36.8125L53.4578 36.4203C52.4473 35.2538 51.2299 34.3014 51.0855 33.0208C53.0563 31.1932 56.5542 32.7595 58.517 33.9423C58.6537 32.8163 57.8458 31.4373 57.3461 30.3185L57.9399 29.8791C58.6884 31.1262 59.3001 32.2447 59.98 33.5246L60.327 33.5291C60.7738 29.3611 60.9392 28.031 65.2895 29.2324C66.0707 28.5927 66.8474 27.9468 67.6187 27.2952L68.3218 27.3783C69.5712 29.7892 66.3004 30.579 70.2237 31.456L70.5147 32.0162C69.1598 33.568 66.3308 35.218 64.3616 35.881L64.1681 36.2839C66.8534 37.2836 67.4636 34.8989 69.604 35.0943L69.9163 35.5524C68.8604 36.5059 67.4092 36.8304 66.0174 37.2954L67.6061 38.0341C65.3005 38.4915 54.4112 38.2226 51.7853 37.9142C51.7879 39.4176 51.4581 47.6923 51.711 48.3564C53.2194 49.1218 57.2173 47.0586 58.8248 48.0331C57.3259 49.3526 50.8562 48.8545 50.3584 52.0693C52.5436 54.8325 58.2286 53.6942 60.2752 51.4151C61.1178 50.4771 66.8942 50.8766 68.7412 50.7007C65.6536 46.4981 65.5531 45.8107 68.2373 41.2516L69.2836 41.2371C72.1975 43.7398 70.0618 48.2639 68.0872 50.8214C67.1311 52.0602 63.3548 51.8104 61.6743 51.842C59.1912 54.2635 59.6007 54.6215 59.1516 58.24L58.7078 57.8478C58.7429 56.4159 58.7562 55.9608 58.5037 54.5107L58.4473 54.2003C56.5896 54.2818 54.6603 54.128 52.771 54.2365C34.9771 55.2609 32.0453 57.4098 31.5413 38.2017C30.8675 37.0136 31.192 34.8132 31.4232 33.5044C33.2969 29.6654 35.7987 28.5934 39.4778 26.6719Z" fill="#032C4D"/>
<path d="M31.4232 33.5039C31.5135 34.6319 31.8342 37.2793 31.5413 38.2012C30.8675 37.0131 31.192 34.8128 31.4232 33.5039Z" fill="#919192"/>
<path d="M44.591 37.5C46.7656 37.6706 48.9413 37.8256 51.1182 37.965C50.9411 41.5187 50.5697 45.2084 50.9312 48.7503C48.797 48.2434 46.6529 47.7792 44.5 47.3584L44.591 37.5Z" fill="#F9F8F9"/>
<path d="M62.9064 28.9492C63.3528 29.0768 63.2602 29.0208 63.5909 29.1971C64.3203 29.5856 64.27 29.6099 64.5039 30.3738C64.1531 31.6656 63.3067 32.4881 62.4474 33.4717C61.9537 33.5392 61.8098 33.3727 61.3732 33.1595C61.3024 32.8925 61.2506 32.7642 61.2346 32.5033C61.1508 31.1598 62.1179 29.9367 62.9064 28.9492Z" fill="#F9F8F9"/>
<path d="M64.3252 33.028C64.8687 31.6746 65.263 30.3068 66.395 29.4001L67.1572 29.25C67.8954 30.9473 65.9265 32.2333 64.8318 33.4511L64.3252 33.028Z" fill="#F9F8F9"/>
<path d="M51.7773 33.0858C54.1492 32.8718 55.6774 33.3067 57.7236 34.4587C56.5162 34.531 55.2177 34.6235 54.014 34.5207C52.781 34.4156 52.4694 34.0005 51.7773 33.0858Z" fill="#F9F8F9"/>
<path d="M53.0693 35.0078C54.8459 35.0558 56.6053 35.0558 58.3487 35.4366L58.8267 36.2622C57.0795 36.3102 55.1079 36.4042 53.4441 35.8151L53.0693 35.0078Z" fill="#E9E8E9"/>
<path d="M68.2466 45.3307L67.4943 44.8715C68.1072 44.1266 67.7092 44.4251 68.8968 44.2188L69.7375 44.7378C69.8148 45.5596 69.8514 45.5817 69.6857 46.3791C68.7292 46.485 68.1236 46.6617 67.2578 46.2649C67.8444 45.8738 68.0958 45.6834 68.7441 45.3878L68.2466 45.3307Z" fill="#B7B6B7"/>
<path d="M67.7139 31.6797C68.211 31.7696 68.3721 31.8587 68.7861 32.1191C68.1698 33.1264 67.0664 33.4531 66.0295 33.9916L65.3496 33.9748C65.6543 33.0377 66.9414 32.3088 67.7139 31.6797Z" fill="#E9E8E9"/>
<path d="M64.3252 33.0273L64.8318 33.4504C64.049 34.2791 62.7669 35.0323 61.6227 34.9809L61.7613 35.2174L61.5156 35.1427C61.6973 34.6229 63.7146 33.4261 64.3252 33.0273Z" fill="#B7B6B7"/>
<path d="M69.6858 46.3809C69.2516 47.0808 69.0878 47.2704 68.5732 47.8813L67.9961 47.6768L67.7676 47.2362L69.6858 46.3809Z" fill="#B7B6B7"/>
<path d="M68.8048 42.2539L69.7761 43.0342L68.9899 43.2193L67.9668 43.3842L68.8048 42.2539Z" fill="#E9E8E9"/>
<path d="M39.4779 26.6712L40.4336 26.1445L41.1996 26.4042L38.9893 27.8616L39.4779 26.6712Z" fill="#757575"/>
<path d="M57.4198 29.5176L57.9397 29.8778L57.3459 30.3173L56.6328 29.967L57.4198 29.5176Z" fill="#919192"/>
<path d="M58.9199 59.5449L58.9039 59.8382C58.5238 68.0523 60.7977 80.4096 58.0251 88.2505C57.6545 89.2977 52.0895 89.6976 50.8668 89.4234C49.9062 87.6412 49.945 82.7401 49.8582 80.4705L49.3203 78.8216L48.7082 79.3433C48.7135 83.6846 49.9831 91.297 43.6829 90.6801C41.9891 90.5163 40.7858 90.6991 39.5021 89.3624C38.8291 86.6891 39.2187 64.3508 39.1799 59.7544C47.2672 61.5175 50.6908 62.1154 58.9199 59.5449Z" fill="#032C4D"/>
<path d="M48.709 79.3446C48.832 77.5433 49.2545 69.5615 49.7649 68.1602C50.1042 69.9919 49.8696 78.3011 49.859 80.4718L49.3211 78.8229L48.709 79.3446Z" fill="#B7B6B7"/>
<path d="M71.8559 59.7598C77.7116 58.4003 84.7731 61.1612 90.8063 61.0812C90.8067 63.1795 90.2833 70.2473 91.0474 71.8429C91.255 72.277 92.2141 72.357 92.6701 72.4751C94.0436 74.0859 93.094 80.613 93.1808 82.9055C93.3062 86.2148 94.1605 84.2003 95.7401 85.6626C93.3766 86.4889 82.6892 87.1135 79.85 86.866C79.9094 86.706 80.0636 86.2871 80.1162 86.1805C81.4227 83.4881 80.798 78.7927 80.9313 75.6891L81.2117 76.188L81.0407 74.878L81.0845 75.3121C81.9899 76.485 81.5606 84.642 81.5404 86.4356C85.1502 85.8378 88.7955 85.556 92.4468 85.3846L92.3292 74.1811L92.3162 73.5414C91.0569 72.8711 78.3134 73.4385 75.4494 73.2443L75.3881 87.2925C71.0145 86.9878 65.7032 86.9268 61.5342 85.5483C65.7969 85.1485 70.3936 86.0434 74.6053 86.6374L74.6064 73.1186C70.8385 72.6769 63.0174 73.2672 59.9961 71.5192L60.1065 71.0585C60.9796 71.0661 61.6553 71.0699 62.4754 70.7538C63.1241 68.1452 62.4693 64.162 62.5973 61.3363C65.5394 60.4909 68.8213 60.2129 71.8559 59.7598Z" fill="#032C4D"/>
<path d="M63.2233 61.8685C67.0411 61.8875 71.5247 62.2416 75.4694 62.3521C76.1432 62.3597 76.3474 62.2378 76.7957 62.5539C78.6934 62.6415 79.0282 62.3178 80.2733 63.3193C81.5623 66.343 79.9259 69.0239 81.0138 72.6378C81.0968 69.6218 80.7556 65.4976 81.1928 62.7138C82.7241 62.7329 88.0053 61.9903 90.1258 61.8418C90.082 65.1206 90.0786 68.3956 90.1159 71.6705C86.5594 71.8152 82.7127 72.4854 79.1055 72.3598C73.8338 72.177 68.4326 71.484 63.1494 71.0194L63.2233 61.8685Z" fill="#F9F8F9"/>
<path d="M81.0139 72.6388C81.097 69.6228 80.7557 65.4986 81.193 62.7148C81.4718 65.0911 81.8927 70.4339 81.0139 72.6388Z" fill="#757575"/>
<path d="M75.4697 62.3528C76.1435 62.3604 76.3477 62.2386 76.796 62.5547C75.9904 62.6499 76.3039 62.6422 75.4697 62.3528Z" fill="#757575"/>
<path d="M65.1865 64.7664C66.7315 64.5037 68.1504 64.3056 69.5513 65.1396C68.0094 65.3833 66.5989 65.5471 65.1865 64.7664Z" fill="#032C4D"/>
<path d="M85.0303 65.152L86.2419 64.9121L86.6533 65.2739C86.2263 65.5862 85.973 65.628 85.4664 65.7385L85.0303 65.152Z" fill="#032C4D"/>
<path d="M73.016 60.1923L74.0033 59.9219L74.5103 60.2646L86.5039 61.1633C79.9371 62.6294 74.6345 61.685 67.8818 61.3271C69.5548 60.8853 71.3165 60.5464 73.016 60.1923Z" fill="#F9F8F9"/>
<path d="M40.9966 16.6512C41.1089 15.6318 40.92 13.7102 41.1329 12.8488C43.7414 2.28548 57.6901 4.72113 56.1196 15.8473C56.7123 18.024 55.2241 21.1764 53.5851 22.5176C48.3103 26.8333 53.7763 28.0607 57.42 29.5188L56.6331 29.9682C55.3342 29.2157 53.3752 28.2107 51.9247 28.5782C47.9241 31.8658 45.4627 30.2652 42.4493 26.5843L42.2044 26.2823L41.1996 26.4049L40.4336 26.1452C41.3801 25.8101 41.8528 25.5294 42.7388 25.0443C45.4391 20.8725 40.7337 20.3039 40.9966 16.6512Z" fill="#F9F8F9"/>
<path d="M40.9961 16.6512C41.1085 15.6318 40.9195 13.7102 41.1325 12.8488C43.7409 2.28548 57.6896 4.72113 56.1191 15.8473L54.7879 17.0907C54.1487 16.0358 54.0966 16.0259 52.963 15.4535C51.6252 14.9943 51.2756 14.4768 50.3888 13.4352C48.9772 14.596 47.809 15.8146 45.8542 15.5175C45.4382 14.7532 45.5239 14.548 45.5986 13.6908L44.9008 13.805C44.2052 15.9212 44.847 15.7011 43.5047 16.9269C42.7696 16.7434 42.4279 16.6249 41.7335 16.3702L40.9961 16.6512Z" fill="#032C4D"/>
<path d="M56.1196 15.8477C56.7123 18.0244 55.2241 21.1767 53.5851 22.518C48.3103 26.8337 53.7763 28.061 57.42 29.5192L56.6331 29.9685C55.3342 29.2161 53.3752 28.2111 51.9247 28.5786C47.9241 31.8661 45.4627 30.2656 42.4493 26.5846L42.2044 26.2827L41.1996 26.4053L40.4336 26.1456C41.3801 25.8105 41.8528 25.5298 42.7388 25.0446C45.4391 20.8728 40.7337 20.3043 40.9966 16.6516L41.734 16.3705C42.5034 21.4776 52.1224 30.4777 54.3389 18.3332L54.7883 17.091L56.1196 15.8477Z" fill="#032C4D"/>
<path d="M44.1835 22.4316C45.9589 24.0364 49.0534 24.8033 50.3218 26.616C50.5503 27.7352 50.465 28.4964 50.1919 29.6004C49.5287 29.6202 48.8793 29.608 48.2184 29.5425C46.9573 29.4176 45.1655 29.1335 44.382 28.0318C43.1958 26.3639 43.8758 24.2812 44.1835 22.4316Z" fill="#F9F8F9"/>
<path d="M52.9633 15.4531C54.0969 16.0255 54.149 16.0354 54.7882 17.0902L54.3387 18.3325L53.9898 17.9094C53.0197 17.7449 52.8784 17.6318 52.0381 17.1912C52.1063 16.1157 52.0808 16.4581 52.9633 15.4531Z" fill="#E9E8E9"/>
<path d="M16.7474 13.7832C20.0369 14.0006 22.9543 15.025 25.8884 16.4672C23.1954 16.3301 20.369 15.2257 17.7835 14.4755C18.7178 38.5892 17.6105 62.7437 18.1369 86.8567C22.1787 85.8133 26.4822 85.5048 30.6211 85.0479C32.513 84.827 36.0973 83.9892 37.8049 84.5947C35.2121 86.1598 19.843 87.626 16.6015 86.9138C14.4662 78.079 15.3343 60.6074 15.4668 51.1103C15.6001 41.5512 15.5556 31.9715 15.9685 22.4189C16.0945 19.5007 16.688 16.688 16.7474 13.7832Z" fill="#757575"/>
<path d="M16.4453 76.1348C16.726 76.3975 16.6468 77.022 16.6712 77.4105C16.5188 77.1591 16.4964 76.447 16.4453 76.1348Z" fill="#757575"/>
<path d="M23.0343 46.3867C23.0731 46.7016 23.1108 47.0189 23.168 47.3311C23.4826 49.0509 24.4695 48.8852 25.5715 49.8498C26.3085 50.4945 26.2034 51.1777 26.2601 52.0734C25.6663 53.3255 24.9369 53.4576 24.0006 54.3807C22.9375 55.4287 23.4807 77.3261 23.4719 80.5402C24.8279 80.5097 26.104 80.5325 27.4543 80.6963L26.9218 80.9971C25.7014 81.2142 24.6382 81.4389 23.4007 81.1685C21.1259 78.1525 23.9416 62.4402 22.7006 57.76C22.3913 56.5944 21.3868 57.3716 20.3607 56.8274C19.7474 53.8925 20.2533 50.0315 20.5565 47.0516C21.38 46.1563 21.8733 46.9652 23.0343 46.3867Z" fill="#032C4D"/>
<path d="M21.585 50.5645L22.5289 51.1174C22.637 51.4407 22.7422 51.7686 22.8035 52.1048C23.0305 53.352 22.6161 54.5835 21.9529 55.6243L21.4707 55.472C21.8493 54.1852 21.3823 52.0599 21.585 50.5645Z" fill="#E9E8E9"/>
<path d="M24.5984 50.4844C24.8121 50.6451 25.0261 51.0152 25.1876 51.2338C25.041 52.4056 24.7785 52.6851 24.0632 53.6493L23.5703 52.1653C23.7596 51.1306 23.7631 51.1238 24.5984 50.4844Z" fill="#E9E8E9"/>
<path d="M11.7138 32.5417C11.7146 30.5173 11.4419 18.5914 12.1568 17.7129C13.3155 19.0465 11.5679 59.8322 12.046 65.0569C12.2307 67.0828 12.7762 84.9048 11.8944 85.792L11.7687 85.6397C10.8869 68.6289 11.0675 54.7198 11.4434 37.75C11.3497 35.6125 11.4495 34.6834 11.7138 32.5417Z" fill="#032C4D"/>
<path d="M11.7141 32.541C11.8874 34.9013 11.9453 35.4656 11.4436 37.7494C11.3499 35.6119 11.4497 34.6827 11.7141 32.541Z" fill="#606A72"/>
<path d="M21.6973 26.3418C21.9677 26.5269 21.9791 26.5132 22.229 26.8072C24.7373 29.7592 23.5671 38.7475 23.4357 42.6135C23.1321 42.3629 22.9748 42.1459 22.8613 41.7491C22.157 39.286 22.8575 34.1823 22.675 31.3841C22.5646 29.6933 22.09 27.9842 21.6973 26.3418Z" fill="#57646F"/>
<path d="M11.8953 85.7907C10.2105 86.3124 1.63065 86.9636 0.194255 86.3657L-0.259766 86.4762C1.19834 85.4822 9.64565 85.5546 11.7696 85.6383L11.8953 85.7907Z" fill="#57646F"/>
<path d="M57.3568 58.1562L57.7998 58.2286L57.4859 58.6818C54.401 59.7328 51.1077 60.1212 47.8616 60.0908L47.1299 59.7404C48.0719 58.9978 55.4016 58.6932 57.3568 58.1562Z" fill="#043E6D"/>
<path d="M22.6191 22.8555C25.2954 23.523 29.3874 24.7991 31.5692 26.4431L30.7263 26.4397C28.4016 25.7534 26.1078 24.8262 23.8228 24.0112C23.4388 24.5348 23.4529 24.785 23.3748 25.4065L23.344 25.6681L22.912 25.5242L22.6191 22.8555Z" fill="#57646F"/>
<path d="M28.4404 18.0938C31.899 18.43 36.9445 20.7358 40.0957 22.2629C36.3541 22.0671 31.6294 19.9434 28.4404 18.0938Z" fill="#57646F"/>
<path d="M60.1414 47.7656C60.9082 47.9709 61.3809 48.1918 62.0437 48.6289C62.2196 49.5669 62.1031 49.5554 61.6022 50.3148C60.9341 50.6392 60.7159 50.9138 59.9898 50.6815L60.7715 49.3605C61.0488 49.1472 60.8956 49.3037 61.1124 48.7991C60.1022 49.1004 59.1309 49.477 58.1485 49.857L58.0225 49.6141L60.1414 47.7656Z" fill="#032C4D"/>
<path d="M32.5966 79.9722C33.3446 79.8503 33.5534 79.679 34.2005 80.1131C33.15 80.928 32.0751 80.9204 30.801 81.0385C30.0963 80.9966 29.4926 80.8557 28.8184 80.6691C29.9024 80.0674 31.3758 80.094 32.5966 79.9722Z" fill="#043E6D"/>
<path d="M38.4693 55.2812C38.688 55.4686 38.8544 55.7687 39.0216 56.004C38.8967 56.6099 38.7497 57.1533 39.0087 57.7451C39.3321 58.4839 40.6782 58.8266 41.408 59.1046C41.2994 59.1313 41.1916 59.1579 41.0819 59.177C39.8821 59.3826 39.2826 59.3559 38.2762 58.6933C37.8313 57.4976 38.1943 56.4762 38.4693 55.2812Z" fill="#57646F"/>
<path d="M13.7034 37.7227C14.5581 39.2764 14.1201 41.661 14.0245 43.4021C13.3537 41.7608 13.6539 39.4862 13.7034 37.7227Z" fill="#757575"/>
<path d="M84.2549 76.5848C85.6117 76.3297 86.8732 76.1011 88.1416 76.7371C86.6652 77.1217 85.6501 77.3464 84.2549 76.5848Z" fill="#043E6D"/>
<path d="M68.2373 41.2517C68.0914 40.4082 68.1755 40.1835 68.3184 39.3633C68.9808 39.8644 68.9412 40.2936 69.2836 41.2373L68.2373 41.2517Z" fill="#606A72"/>
</g>
<defs>
<clipPath id="clip0_407_8937">
<rect width="96" height="96" fill="white"/>
</clipPath>
</defs>
</svg>
