<svg width="96" height="96" viewBox="0 0 96 96" fill="none" xmlns="http://www.w3.org/2000/svg">
<g clip-path="url(#clip0_407_9113)">
<rect width="96" height="96" fill="white"/>
<path d="M49.5113 30.1542C54.2453 19.3711 60.4538 17.6751 69.3817 15.6529C69.794 14.6744 69.8514 14.4884 70.1176 13.4316C70.8065 14.5439 70.5821 14.1362 70.9266 15.5648C74.2801 16.7064 77.015 16.7618 80.2615 18.3698C87.9419 22.1794 91.1127 28.2852 93.0334 37.8386C93.0621 37.9724 94.8577 38.6769 95.0273 38.7421L94.8811 39.189L93.2005 39.7337C90.5334 46.1037 92.8038 45.608 88.0802 53.2436C90.1419 56.1171 95.1656 62.1316 94.1008 66.163C90.5725 68.407 85.5436 60.0897 83.5628 57.1836C78.7609 60.7682 77.7614 60.2822 72.3906 61.8054C69.3555 62.6665 72.1114 64.7083 69.9558 64.2288L69.4991 62.2849C67.8811 61.339 66.584 61.6358 64.7703 61.2803C69.366 68.7691 74.0869 76.3133 73.9721 86.1831C76.4879 86.1603 85.3426 85.8504 87.0963 87.0344C79.1759 87.9933 74.2592 87.3182 66.4457 90.2276C63.682 91.255 49.8923 89.7644 46.7659 88.8577C45.2809 90.3874 44.592 91.3854 42.7913 91.9986L42.1102 91.5126C42.0084 89.8231 42.1415 89.8133 42.6791 88.2053L42.1728 87.7357C39.6492 87.3639 33.7591 87.142 31.3138 87.8009L31.0737 89.6079C29.6618 91.1833 27.2661 92.1715 25.4419 93.1076C19.2125 82.8791 9.33219 90.57 5.88477 86.5288C8.61974 85.2307 14.3298 86.9137 16.0783 85.5895C14.2306 79.6076 14.228 82.3082 15.7912 75.7947C14.93 72.7646 10.6866 64.8681 9.10772 61.7043L15.7103 58.0382C18.5549 63.9516 21.4804 69.803 24.4816 75.5924C26.2953 69.7867 27.193 66.7044 30.2594 61.8674C32.1228 60.093 33.0284 59.4962 35.1188 58.123C32.6317 55.8333 32.0497 55.8006 29.4113 54.4079C27.2452 53.2631 24.385 46.7495 24.064 43.8271C22.9262 33.5007 31.3008 28.3701 38.2661 27.2872C42.8331 26.5761 45.5341 27.5253 49.5113 30.1542Z" fill="#3F5160"/>
<path d="M51.385 54.3281L53.5929 55.2316C54.9186 56.109 54.4749 55.8416 56.3435 55.3556L61.7012 58.2128L61.0671 59.3706C59.3995 68.0989 59.6814 71.5497 63.0531 79.8539L61.4585 81.2141L55.6702 82.0751L54.3392 82.9199C51.8391 81.736 51.6095 81.6087 48.8302 81.7881C48.8876 82.8807 48.9711 83.2983 48.851 84.3681L47.8463 84.0843C46.5754 84.8116 46.4136 85.1085 45.0513 84.7856L44.8399 86.8078C43.9239 87.5026 44.3832 87.4112 43.4959 87.2905L42.6791 88.2038L42.1728 87.7342C39.6492 87.3623 33.7591 87.1405 31.3138 87.7994L31.0737 89.6064C29.6618 91.1817 27.2661 92.17 25.4419 93.1061C19.2125 82.8775 9.33219 90.5685 5.88477 86.5273C8.61974 85.2291 14.3298 86.9122 16.0783 85.588C14.2306 79.6061 14.228 82.3067 15.7912 75.7932C14.93 72.7631 10.6866 64.8666 9.10772 61.7028L15.7103 58.0367C18.5549 63.9501 21.4804 69.8014 24.4816 75.5909C26.2953 69.7851 27.193 66.7029 30.2594 61.8659C32.1228 60.0915 33.0284 59.4946 35.1188 58.1215C35.2362 57.9649 36.4367 57.081 36.6193 56.944C39.798 60.0295 37.7285 62.6128 40.9906 64.1719C42.9296 62.6063 42.6451 62.3127 44.6311 62.1627C46.0691 63.1151 46.351 63.3336 47.648 64.56L48.1464 63.5325C49.1799 61.494 51.2755 57.2897 51.2128 54.9316L51.385 54.3281Z" fill="#01335B"/>
<path d="M9.10772 61.7032L15.7103 58.0371C18.5549 63.9505 21.4804 69.8019 24.4816 75.5913C26.2953 69.7856 27.193 66.7034 30.2594 61.8663L30.9484 63.3177C32.4725 69.6617 33.6677 79.9 32.6734 86.4854C34.9282 87.5063 40.6356 86.2375 43.4959 87.291L42.6791 88.2043L42.1728 87.7346C39.6492 87.3628 33.7591 87.141 31.3138 87.7998L31.0737 89.6068C29.6618 91.1822 27.2661 92.1705 25.4419 93.1066C19.2125 82.878 9.33219 90.5689 5.88477 86.5277C8.61974 85.2296 14.3298 86.9126 16.0783 85.5884C14.2306 79.6065 14.228 82.3071 15.7912 75.7936C14.93 72.7635 10.6866 64.867 9.10772 61.7032Z" fill="#3F5160"/>
<path d="M30.9483 63.3184C32.4724 69.6623 33.6676 79.9007 32.6733 86.486C28.409 85.5695 27.48 81.6489 25.4209 77.2391C26.6527 72.4608 28.4247 67.2291 30.9483 63.3184Z" fill="#FEFEFE"/>
<path d="M14.745 60.1094L15.1599 60.4062C15.6975 61.936 14.7267 61.1466 14.5414 62.6731C15.1443 62.5981 15.7106 62.5621 16.3134 62.5491C17.7749 66.9817 19.8208 70.7033 21.5667 74.9076L22.0939 75.3218C21.1257 76.1372 18.9179 75.4784 17.7018 75.3284C15.1051 72.8756 12.7642 66.2153 11.1201 62.5296C11.8013 61.189 13.5967 60.6573 14.745 60.1094Z" fill="#FEFEFE"/>
<path d="M25.1023 80.6777L25.7835 81.3595C25.9557 83.972 28.2887 86.3009 28.8916 89.0831C27.1875 92.7394 21.861 88.5155 22.8057 81.7443C23.4295 81.3953 24.4316 80.9843 25.1023 80.6777Z" fill="#FEFEFE"/>
<path d="M18.1688 76.2051C18.6438 76.4008 19.0848 76.6617 19.5389 76.9161L19.2596 76.6258L19.5885 77.2945L18.1165 78.4361L18.02 79.2189C18.8551 79.059 19.5728 78.984 20.4157 79.0623L19.1344 80.4648C19.8364 80.654 20.2539 80.8138 20.9141 81.2215L20.22 82.4903L20.2461 82.686L20.7915 82.9959L20.661 84.1211L19.6694 84.8158C18.5315 84.6397 17.6521 84.1994 16.9292 83.035C16.2245 81.8999 15.9218 80.7942 16.1071 79.3493C16.3159 77.738 17.2032 77.0923 18.1688 76.2051Z" fill="#EDEDED"/>
<path d="M22.8059 81.7433C22.5684 79.9918 22.0674 78.2664 22.571 76.9062C23.9933 77.8554 24.2073 79.0492 25.1024 80.6768C24.4318 80.9834 23.4296 81.3943 22.8059 81.7433Z" fill="#EDEDED"/>
<path d="M17.8682 86.0453C18.3353 86.0062 18.7999 85.9508 19.267 85.9443C20.9711 85.9117 21.4226 86.7564 22.5108 88.1198C20.6214 87.8164 19.4392 87.4511 17.8682 86.0453Z" fill="#EDEDED"/>
<path d="M40.9902 64.1733C42.9292 62.6077 42.6448 62.3141 44.6308 62.1641C46.0687 63.1165 46.3506 63.335 47.6476 64.5614L44.5186 69.4245C42.9084 67.3697 42.2325 66.5608 40.9902 64.1733Z" fill="#FEFEFE"/>
<path d="M45.0508 84.7866C46.6479 83.0318 46.8697 82.947 48.8296 81.7891C48.8871 82.8817 48.9705 83.2993 48.8505 84.3691L47.8458 84.0853C46.5748 84.8126 46.4131 85.1095 45.0508 84.7866Z" fill="#C8C8C8"/>
<path d="M52.5231 75.8926L53.7836 76.6003C52.9329 78.0387 51.7742 80.4393 50.2031 80.136C50.3754 78.303 51.4531 77.3081 52.5231 75.8926Z" fill="#EDEDED"/>
<path d="M52.5225 75.8922C53.5376 74.2516 53.2506 74.1178 54.4954 73.8145L54.7198 74.7962L53.783 76.5999L52.5225 75.8922Z" fill="#034173"/>
<path d="M50.3809 30.973C53.5751 23.2625 62.4064 15.4997 69.5257 17.5839L70.0033 18.9831C70.3503 18.7646 72.1537 17.3783 72.245 17.3751C79.3669 17.0098 87.825 23.7386 90.4921 32.0102C91.155 34.0651 91.7604 36.5896 91.262 38.152L89.9128 38.7455C92.9061 43.0118 90.0485 51.6259 85.1683 50.9931C81.9714 47.7706 84.6515 42.8096 86.3583 39.3979L88.0207 39.1793L88.0807 38.7651C85.959 38.1487 84.8812 34.2705 83.7304 31.8895C80.4108 25.0302 75.0504 27.3069 70.3947 25.8717C70.5696 24.3224 70.6427 24.8541 70.3582 23.4255L69.8675 23.4874C69.8258 24.6779 69.7893 25.0922 69.617 26.2664C57.3931 33.1094 57.2052 45.1515 69.7449 50.9311C71.5795 51.1366 73.2967 51.3291 75.1444 51.4106C77.8924 50.2723 80.403 49.359 82.0158 53.4165C81.8514 59.6234 75.7577 60.5629 71.7596 60.6673C70.9036 60.103 70.8592 60.0704 70.1285 59.281C66.4593 61.2446 65.1205 60.8075 61.7018 58.2145L56.344 55.3572C55.1462 54.2776 54.9165 54.0167 53.917 52.7805C51.8632 46.3583 59.2356 43.55 50.3809 30.973Z" fill="#FEFEFE"/>
<path d="M69.7443 50.9297C71.5789 51.1352 73.2961 51.3276 75.1438 51.4091C73.9694 52.28 73.2465 52.055 71.8712 51.9832C71.0648 53.314 71.3649 52.5932 71.1796 54.2925L69.5042 54.5404C69.1258 52.7334 69.2719 52.6682 69.7443 50.9297Z" fill="#EDEDED"/>
<path d="M69.5039 54.54L70.018 52.7754L70.6 52.87L71.1793 54.2921L69.5039 54.54Z" fill="#034173"/>
<path d="M61.0668 59.3711C65.6625 63.4808 74.8487 79.5576 71.7797 86.805C69.1856 89.3263 59.0756 90.7353 56.7034 87.9107C56.3954 85.8102 56.1893 84.1043 55.6699 82.0756L61.4582 81.2145L63.0528 79.8544C59.6811 71.5502 59.3992 68.0993 61.0668 59.3711Z" fill="#FEFEFE"/>
<path d="M63.0535 79.8542C64.7159 79.7955 64.2096 79.4302 65.3214 80.2848C64.1209 81.4394 63.0248 81.1883 61.459 81.2144L63.0535 79.8542Z" fill="#034173"/>
<path d="M30.6062 51.2631L30.7106 49.9617C32.5269 49.3778 32.4643 49.3778 34.051 48.0862L33.8527 47.7176L30.3426 48.2851C29.2491 46.3346 29.4109 43.983 30.9089 42.4174C32.5791 42.1075 33.9284 43.484 35.4551 44.6028C36.2067 44.5343 37 44.4788 37.7072 44.1428C39.8681 43.1121 41.186 43.7449 43.3259 43.4644L44.2132 43.3437L45.5442 42.8153C47.2535 44.1004 48.2165 44.6386 50.0381 43.2361L49.7328 45.0463C50.5026 44.9158 51.1342 44.7691 51.8962 44.5799C51.1864 46.775 51.4917 45.516 50.44 46.9675C45.9591 53.1516 49.8007 52.6721 43.2242 57.6298C40.4292 57.7212 39.3879 57.8679 36.619 56.9449C34.8 56.1066 33.6022 54.7172 32.0572 53.2233L30.6062 51.2631Z" fill="#FEFEFE"/>
<path d="M35.4551 44.6028C36.2067 44.5343 37 44.4788 37.7072 44.1428C39.8681 43.1122 41.186 43.7449 43.3259 43.4644L44.2132 43.3438C43.9601 44.4331 43.9392 44.8278 43.5164 45.8161L43.9496 48.3047C41.9558 48.3667 41.8723 48.3765 40.0064 49.3061L39.8524 48.0438C38.5032 45.4932 37.3054 45.9009 35.4551 44.6028Z" fill="#EDEDED"/>
<path d="M39.0879 45.4967C40.458 45.1771 41.9664 44.5377 43.1329 45.2162L43.5166 45.8163C41.635 46.6546 40.8938 46.9481 39.0879 45.4967Z" fill="#3F5160"/>
<path d="M33.7564 50.6992L34.7663 51.1819L33.9938 51.2798L32.0575 53.2237L30.6064 51.2635L33.7564 50.6992Z" fill="#C8C8C8"/>
<path d="M40.0068 49.306C41.8728 48.3765 41.9563 48.3667 43.9501 48.3047C42.2694 50.1312 42.2199 50.4802 40.0068 49.306Z" fill="#034173"/>
<path d="M37.1097 53.5242C36.7991 51.9717 36.8774 52.4903 36.9635 50.8333L37.4568 50.8301L38.6624 52.8425C39.4845 53.5829 39.5159 53.8308 40.3979 54.0754L41.6558 54.4049L41.5253 55.0964C39.9882 55.7193 39.9465 55.8857 38.3206 55.4812L37.1097 53.5242Z" fill="#EDEDED"/>
<path d="M40.3986 54.0742L41.6565 54.4037L41.526 55.0952C39.9889 55.7181 39.9471 55.8845 38.3213 55.48C38.898 54.9745 39.7514 54.4852 40.3986 54.0742Z" fill="#727273"/>
<path d="M37.1097 53.5242C36.7991 51.9717 36.8774 52.4903 36.9635 50.8333L37.4568 50.8301L38.6624 52.8425L37.1097 53.5242Z" fill="#3F5160"/>
<path d="M48.8307 81.7886C51.61 81.6093 51.8397 81.7365 54.3398 82.9205C54.9896 85.5853 55.2767 85.2232 54.7417 87.4215C51.3464 90.3538 50.0807 87.7706 48.0869 85.1939L48.8515 84.3687C48.9716 83.2988 48.8881 82.8813 48.8307 81.7886Z" fill="#FEFEFE"/>
<path d="M48.1463 63.5326C46.9876 62.6422 46.7658 62.6389 46.0742 61.1581C46.5466 57.4202 48.2011 55.31 51.2127 54.9316C51.2754 57.2898 49.1798 61.4941 48.1463 63.5326Z" fill="#FEFEFE"/>
<path d="M51.3852 54.3286L50.8398 53.6665L51.3435 52.8772C53.0633 52.9 52.3639 52.5314 53.5748 53.8328C53.7314 54.9777 53.8097 54.5211 53.5931 55.2321L51.3852 54.3286Z" fill="#EDEDED"/>
<path d="M72.1792 27.2079C74.4235 27.1883 76.7905 27.5047 78.8626 28.6397C81.3157 29.9803 83.4087 32.358 84.2699 35.5903C84.9354 38.0823 84.7527 40.8025 83.7636 43.1216C81.9551 47.4204 78.7452 48.8588 75.2612 50.1341C72.2157 50.232 69.3893 49.9319 66.7222 47.9031C64.4883 46.2038 62.7372 43.588 62.2231 40.3296C61.816 37.7757 62.2466 35.1206 63.4157 32.9614C65.4826 29.1322 68.7135 27.8961 72.1792 27.2079Z" fill="#EDEDED"/>
<path d="M64.692 43.9601C62.4372 38.5001 62.8052 33.9729 67.1347 30.6656C73.1449 26.0731 86.0682 30.4079 82.9522 41.3215C80.4547 49.5996 72.3255 50.4345 66.5815 46.3216C65.6342 45.4768 65.454 45.056 64.692 43.9601Z" fill="#3F5160"/>
<path d="M64.6924 43.9609C65.6371 44.9623 65.8668 45.0569 66.5819 46.3224C65.6345 45.4776 65.4544 45.0569 64.6924 43.9609Z" fill="#9B9B9B"/>
<path d="M64.4414 38.3991C65.0129 34.4557 67.6905 29.9872 71.1484 30.1242C71.8374 31.2299 71.6077 30.7472 71.7982 32.2769L72.3619 31.8007L72.5707 30.3949C80.0136 25.7666 87.2686 43.5883 76.467 47.0718C74.7811 47.6165 74.5749 47.734 72.9465 46.8044L72.0226 44.8636C70.8926 46.0607 72.1897 47.5154 70.3629 47.1468C67.3852 46.5466 64.9321 42.6523 64.5275 39.2993L64.4414 38.3991Z" fill="#FEFEFE"/>
<path d="M64.4414 38.3999C66.3987 38.2303 66.2186 37.8357 67.5209 38.8924C66.7223 40.1514 65.7124 39.6328 64.5275 39.3002L64.4414 38.3999Z" fill="#ABACAC"/>
<path d="M72.1088 37.4922C72.9334 37.9162 73.1239 38.0531 73.7659 38.9077L72.0383 40.3592C71.3258 39.609 71.6886 39.8699 70.783 39.4296C69.7861 38.9469 70.3524 39.2926 69.4912 38.699C70.3341 38.5685 70.8639 38.4837 71.6077 37.9194C71.7799 37.7889 71.9417 37.6357 72.1088 37.4922Z" fill="#034173"/>
<path d="M75.2666 38.2002C76.0939 38.0926 76.5976 38.073 77.3883 38.4187L77.3022 39.4722L75.8251 39.4397L75.2666 38.2002Z" fill="#9B9B9B"/>
<path d="M30.2208 38.4189C29.524 41.5338 28.8272 45.5261 27.5537 48.2301L26.836 48.4356C25.7582 46.6515 25.2467 42.7831 25.4659 40.5749C26.1705 33.4319 31.4317 30.6628 36.3849 29.1102C45.4745 26.2595 52.6304 31.4684 53.7082 43.2756L53.7342 43.5431L53.0453 43.455C50.6835 41.1849 47.2596 42.5678 43.9896 40.6565C43.5982 40.4282 43.225 40.6304 42.7552 40.7413L43.2563 42.4439C40.1194 43.3278 38.6188 40.1477 35.8812 39.7595C36.2988 42.3167 37.6324 41.7426 37.0634 43.1223C33.9527 43.1125 32.5591 41.0413 30.2208 38.4189Z" fill="#FEFEFE"/>
<path d="M83.2549 51.5625C83.6724 51.5755 83.983 51.5658 84.4031 51.6702C86.6945 52.2246 91.9714 60.2385 93.0674 62.9522C93.5607 64.1786 93.2605 64.5048 92.8925 65.7214C92.5037 65.679 92.2949 65.6758 91.8982 65.5355C89.4921 64.6842 84.103 56.8105 83.0409 53.9403C82.6494 52.8835 82.9626 52.6095 83.2549 51.5625Z" fill="#FEFEFE"/>
<path d="M53.0447 43.4551L53.7336 43.5431C53.2743 47.7311 52.7159 48.9575 50.3359 51.9941L50.0879 51.6647C50.709 47.6365 52.4106 47.7409 53.0447 43.4551Z" fill="#C8C8C8"/>
<path d="M46.121 56.9277L46.3376 57.1626C45.7243 58.7477 44.5187 59.5763 43.4043 60.5678L42.9424 59.5045C43.5348 58.0107 44.9336 57.6323 46.121 56.9277Z" fill="#C8C8C8"/>
<path d="M28.0986 49.0215C29.2652 50.411 30.0742 52.3615 30.8493 54.0999C30.3665 53.8292 29.7375 53.3628 29.3513 52.9322C28.3596 51.8298 28.2578 50.5447 28.0986 49.0215Z" fill="#C8C8C8"/>
<path d="M80.5986 48.3672C81.4207 48.5596 81.8591 48.8076 82.5402 49.411L82.6342 50.5264L82.1879 50.9244L81.4442 50.7026L80.5986 48.3672Z" fill="#EDEDED"/>
<path d="M21.4079 0.195312L94.3884 0.244285C94.3936 3.74731 94.3623 7.24707 94.2945 10.7468L21.2695 10.7044C21.293 7.20136 21.3374 3.69834 21.4079 0.195312Z" fill="#3F5160"/>
<path d="M39.9916 3.4527C40.31 1.8186 39.9368 2.34697 40.8659 1.55765L41.6801 1.88708L42.1786 3.45923L42.8075 3.39075L43.4886 1.71747L44.1802 1.54141L44.402 2.04037C44.7543 2.81339 44.6134 2.52316 45.0727 3.32553C45.9496 2.3666 45.6938 2.7221 46.3123 1.51529L47.2309 1.68817C48.2279 4.36599 47.1553 5.08351 48.3479 5.63147C48.9038 4.44096 48.8411 3.53425 48.9142 2.15456L49.5719 1.50549C50.7384 2.07302 50.193 1.6555 50.9837 3.35157C53.0454 2.02733 50.681 0.96081 52.9645 1.6849L53.6169 3.42658C56.057 2.18715 52.8027 1.44676 55.7569 1.56745C56.3545 3.07107 55.9056 2.62095 56.8895 3.3483L57.7324 1.51855L58.6641 1.72073C59.0451 3.3744 59.1338 4.06588 59.3478 5.72933L59.828 5.837C60.7258 2.93411 59.5879 2.79708 60.8797 1.55765L61.4904 1.80554L62.0593 3.30267C64.3246 2.49052 61.5217 2.25565 63.9774 1.56418C64.7395 2.6601 64.4368 2.0437 64.8726 3.4136L65.512 3.42013L66.1827 1.70122L66.8586 1.49243C67.2057 2.2948 67.438 2.72208 67.9234 3.4429C68.7846 2.61118 68.4845 2.99282 68.9881 1.67837L69.7319 1.57071C70.4365 2.80036 70.3321 3.83109 70.3947 5.36407L70.9845 5.76525C72.2242 2.83627 70.7888 2.95696 72.2633 1.52835C73.2445 2.2557 72.7957 1.83818 73.4168 3.37442L73.91 3.14612L74.2624 1.80881L74.9487 1.47611C76.1596 2.3959 75.6377 1.77297 76.2797 3.73324C78.3048 1.86756 75.8099 2.24265 78.1143 1.52182C78.464 2.25895 78.7536 2.83954 79.132 3.57015C80.9667 2.1285 78.4196 1.88386 80.891 1.60336C82.2585 3.45599 81.152 4.39208 82.4751 6.33277C82.5743 4.64976 82.543 3.51472 83.078 1.95238C84.3985 2.00457 84.0827 2.13497 85.3406 3.51465L85.6277 2.20027C86.7394 2.00131 86.2435 1.85122 87.1282 2.55574L87.6632 2.38613C89.7666 1.74032 90.1894 1.64245 92.3294 1.72073L92.9218 2.18394C93.2297 4.94658 93.1854 6.76659 93.1801 9.52922L22.5535 9.45421C22.5405 7.21019 22.363 3.82451 22.8797 1.79901L23.8245 1.35547C25.4425 4.1866 23.6522 5.6348 25.2911 6.02946C25.6538 4.38558 25.5834 4.00719 25.5834 2.32417C26.3011 1.34894 25.8652 1.6327 26.87 1.43048C27.4989 2.38941 27.4102 2.22303 27.9243 3.3483C29.9729 1.79575 27.6947 1.28699 30.0695 1.78277L30.5784 3.39727L31.129 3.43311L32.3086 1.55439L32.9454 1.63919L33.697 3.42013C34.3912 2.66668 34.5242 2.45792 35.1375 1.60662L35.9101 1.9132C36.1736 3.30919 36.2467 4.02027 36.3798 5.45214L36.92 6.07836C37.1496 4.29096 37.2097 3.72021 37.6585 1.95564C38.9295 1.84475 38.6633 2.06975 39.9916 3.4527Z" fill="#FEFEFE"/>
<path d="M82.4746 6.33352C82.5738 4.6505 82.5425 3.51546 83.0775 1.95312C84.398 2.00531 84.0822 2.13571 85.3401 3.5154C83.602 4.45149 83.7012 4.46132 82.4746 6.33352Z" fill="#EDEDED"/>
<path d="M36.9189 6.07892C37.1486 4.29153 37.2086 3.72077 37.6575 1.95621C38.9284 1.84531 38.6622 2.07032 39.9906 3.45327C37.8506 4.60137 38.062 4.03712 36.9189 6.07892Z" fill="#EDEDED"/>
<path d="M88.5992 4.25531C89.0142 3.66821 89.6588 3.43015 90.2643 3.63889C90.8671 3.84764 91.3238 4.47059 91.436 5.24034C91.5508 6.0101 91.3029 6.79288 90.8018 7.25929C90.1259 7.88227 89.1838 7.76818 88.6175 6.99516C88.0512 6.22215 88.0434 5.04137 88.5992 4.25531Z" fill="#034173"/>
<path d="M10.0629 6.01953C10.4439 6.02932 11.2868 6.03904 11.6444 6.11732C14.2593 6.68485 16.8063 30.7364 19.0324 35.1559C19.9406 35.2766 20.6818 35.3255 21.4934 35.8833L21.3394 36.5096C20.4286 36.627 20.2016 36.6172 19.4317 37.3087C19.771 41.9892 22.4694 46.4739 21.8039 51.161C21.5743 52.7787 21.4281 54.3476 21.3107 55.985L21.0158 56.1644C18.32 51.7644 16.7854 38.6297 14.2592 36.5879C12.8996 36.8227 12.7221 37.0445 11.6495 38.1469L11.3885 38.3295C10.7805 37.9675 11.0363 38.2023 10.5039 37.4424C9.92975 36.6139 9.8149 36.7574 8.98501 36.5324C8.68229 36.7313 8.29344 36.7966 8.07684 37.126C6.12477 40.0909 5.06784 51.4969 2.52859 56.5688L1.96753 56.2198C1.35686 53.679 1.81618 50.8674 1.27076 48.5516C1.10112 47.8341 0.286884 47.7916 0.673121 46.5718C1.69352 43.3395 4.25362 40.9226 3.71341 36.9923L1.99359 36.5194L1.88139 35.7626C2.73998 35.4658 3.34807 35.306 4.06052 34.6015C6.14568 32.5368 7.70365 18.0192 8.47091 14.066C8.79712 12.3928 9.49393 11.0033 9.5931 9.25181C9.66095 8.05152 9.81493 7.17416 10.0629 6.01953Z" fill="#3F5160"/>
<path d="M8.60432 21.793L9.46293 22.3605C10.1336 25.1199 4.17563 47.6874 3.24658 52.0058L2.54458 51.8753C1.84779 48.5549 7.61263 26.1669 8.60432 21.793Z" fill="#EDEDED"/>
<path d="M11.2715 23.0234C11.3655 23.118 11.4699 23.1996 11.5534 23.3072C13.1714 25.4208 14.2518 32.0941 14.2805 34.9253L13.6412 35.6037C12.4772 35.2351 12.4329 34.8633 11.6474 33.7935L11.342 33.5717C10.5147 34.9579 10.366 34.9677 9.03505 35.5091L8.48438 34.9937C9.1368 30.946 10.2903 26.9635 11.2715 23.0234Z" fill="#FEFEFE"/>
<path d="M13.4138 21.3477L14.4499 22.4892C16.1514 28.7875 21.2168 46.6712 20.5357 52.5259C18.9777 48.2237 12.8005 24.8213 13.4138 21.3477Z" fill="#EDEDED"/>
<path d="M9.13089 14.0921C9.87466 14.0334 10.702 13.8996 11.4405 13.9844C12.7167 14.1279 12.8863 14.3595 13.7318 15.4457C14.0842 17.3994 13.8962 19.1574 13.737 21.134C12.119 21.4699 11.0856 21.6396 9.64499 20.5828C8.81771 18.6682 9.09957 16.2154 9.13089 14.0921Z" fill="#EDEDED"/>
<path d="M10.9394 15.7625C11.4405 15.4559 12.0355 15.5244 12.4844 15.9354C12.9333 16.3464 13.1629 17.0346 13.082 17.7228C13.0011 18.411 12.6227 18.9851 12.0982 19.2166C11.3466 19.5493 10.5192 19.0895 10.2139 18.1729C9.90595 17.2564 10.2243 16.1963 10.9394 15.7625Z" fill="#034173"/>
<path d="M11.1905 6.9668L11.8612 7.73659C12.5162 9.57943 12.1874 11.1939 11.9682 13.1378L11.1905 12.3485C10.6425 10.5155 10.9713 8.84225 11.1905 6.9668Z" fill="#EDEDED"/>
<path d="M12.2314 94.9848C16.2974 93.9867 72.1608 93.9541 74.4731 95.1348C74.2878 95.2262 74.1051 95.3272 73.9198 95.4088C71.404 96.5438 20.8721 96.2471 14.3296 95.7741C13.4893 95.7121 12.9726 95.4512 12.2314 94.9848Z" fill="#032C4D"/>
</g>
<defs>
<clipPath id="clip0_407_9113">
<rect width="96" height="96" fill="white"/>
</clipPath>
</defs>
</svg>
