<svg width="96" height="96" viewBox="0 0 96 96" fill="none" xmlns="http://www.w3.org/2000/svg">
<g clip-path="url(#clip0_407_8981)">
<rect width="96" height="96" fill="white"/>
<path d="M33.0971 30.7785C33.0796 30.6722 33.0621 30.5663 33.0446 30.46C32.7229 22.3365 35.7933 22.3652 41.9937 22.0547C42.6791 22.4858 43.347 22.9403 43.9975 23.4175C46.0713 24.9618 46.9071 26.376 47.2778 28.8731C54.7126 23.3228 58.4685 30.8177 61.0843 36.6756C61.448 37.4885 63.77 40.2869 63.9239 40.8323C65.4696 46.2735 74.3033 47.8401 70.4285 52.8405C71.8483 55.3787 75.1356 60.3329 74.3557 63.1649L74.069 63.1334L73.4675 61.0147L71.2328 60.5776L69.8725 61.2909C71.7504 62.1579 72.1141 62.4831 73.3346 64.0249C77.2618 62.7208 82.4305 62.2069 86.5256 61.2944C88.6868 60.8119 91.5054 60.8049 93.3239 62.1649C93.7995 62.5216 93.7751 62.6159 94.4046 62.6963C95.1564 59.7001 94.9011 49.6781 95.4397 45.971C95.646 44.5635 95.2648 42.429 94.1632 41.2774L93.7646 40.0869C97.7687 43.6156 95.3488 56.3961 95.4292 61.588C95.5341 68.3882 96.4573 75.1465 93.5023 81.4397C94.7053 74.0696 94.3311 71.8495 94.5375 64.6682C91.0404 61.2034 87.6622 61.7209 83.1719 62.6404C75.821 64.1473 73.4185 62.7628 70.995 70.7377C70.8586 72.7095 70.7048 76.4331 70.1557 78.1462L69.6067 77.842L70.2431 77.8246C70.1872 78.0588 69.2465 76.4296 69.89 75.143C70.0753 74.7724 70.1802 72.5627 69.9564 72.0942C67.5119 70.395 58.9406 70.7622 55.4575 70.423L53.9327 69.2203L53.8208 69.4895L54.1705 70.1014C52.1597 71.0628 49.2187 70.0699 47.4072 72.0243L46.7987 71.8984C47.7289 70.2098 49.6872 68.3043 49.6103 66.259C49.5718 65.1542 48.9564 64.6263 48.2604 63.8851C47.4701 63.046 45.9034 62.8607 44.7948 62.976C40.1752 63.4515 38.0489 70.1748 36.0731 73.6081C35.1079 75.2898 34.2091 76.454 32.9747 77.926C32.1843 76.6533 35.7654 74.0346 36.0556 72.1607C35.4226 70.5734 35.4086 70.9545 33.6601 69.8567C33.4572 68.9371 33.3069 67.3324 33.181 66.3429C32.3627 68.1155 29.4461 77.482 29.1349 77.7721C28.9215 77.1813 30.9883 65.4339 31.422 64.7032C31.8661 64.2592 32.3907 63.4655 32.7648 62.9411C31.2086 57.4275 26.1413 55.7668 23.2597 61.2419C21.3049 64.9514 20.3047 72.1257 20.0424 76.3526C20.1788 77.4155 20.1893 77.454 19.7207 78.384C18.8884 75.5241 20.2138 72.7305 19.5144 71.1432C16.4404 70.6293 4.69372 72.8145 0.0810547 72.9159C1.53235 72.325 4.93849 71.9823 6.57513 71.5733C7.72917 71.2866 7.89353 69.1434 8.75031 68.4547C9.41826 67.9162 12.3348 67.4547 13.1287 67.2974L14.9611 62.7033L15.7725 62.4551C16.2726 58.3191 20.8293 39.8142 23.6514 35.9617C24.8334 34.3503 29.53 34.5863 31.7052 34.5013C33.1006 34.2674 33.0656 34.1408 33.7335 33.2112C33.8979 32.0151 33.7335 31.8309 33.0971 30.7785Z" fill="#032C4D"/>
<path d="M57.7902 42.2451C61.2733 40.284 62.0986 41.6955 64.7914 44.0565L65.4663 44.3802L65.6656 45.206C66.9805 47.8202 68.3304 50.4172 69.7153 52.9904L70.4287 52.8401C71.8485 55.3783 75.1357 60.3325 74.3559 63.1645L74.0691 63.133L73.4677 61.0143L71.233 60.5772L70.649 60.1787C69.9076 60.1122 69.1627 60.0353 68.4248 59.9479L67.9667 59.4654L67.6205 60.2206L65.4243 60.0948L64.4976 59.4619C61.8783 58.5354 59.0247 57.7942 56.3389 57.0356L54.9156 57.4481C50.9359 57.1789 50.4743 57.8012 46.9527 59.6857L46.6205 59.9444L45.4385 59.6857C44.5467 58.8955 44.4628 58.6613 43.9417 57.5705L43.8018 57.2698L43.3787 57.3502L43.043 56.2419C44.5222 55.8398 47.1031 55.263 48.2886 54.4798C47.3514 54.4903 46.8513 54.4903 45.9246 54.3889C46.7429 53.2456 48.3446 53.6617 49.8553 51.7737L50.1246 52.1793L51.9641 51.2003L52.9117 50.7353C53.0551 49.5078 53.3069 48.0768 53.4958 46.837C55.8773 45.249 56.8704 44.8917 57.7902 42.2451Z" fill="#F9F8F9"/>
<path d="M65.6651 45.2051C66.98 47.8192 68.3299 50.4162 69.7148 52.9895L70.4281 52.8391C71.848 55.3774 75.1352 60.3316 74.3554 63.1635L74.0686 63.132L73.4671 61.0133L71.2325 60.5763L70.6485 60.1777C69.9071 60.1113 69.1622 60.0344 68.4243 59.947L67.9662 59.4645L67.62 60.2197L65.4238 60.0938C66.7877 57.2584 65.763 48.6359 65.6651 45.2051Z" fill="#F9F8F9"/>
<path d="M69.7148 52.9902L70.4282 52.8398C71.848 55.3781 75.1353 60.3323 74.3554 63.1642L74.0687 63.1327L73.4672 61.014L71.2326 60.577L70.6485 60.1784L72.7153 60.1819L73.107 59.7624L72.6908 58.3324C72.0054 57.4304 70.3373 54.1474 69.7148 52.9902Z" fill="#043E6D"/>
<path d="M71.5967 58.9544L72.6912 58.332L73.1074 59.762L72.7157 60.1816L70.6489 60.1781C69.9076 60.1116 69.1627 60.0347 68.4248 59.9473C69.2676 59.5627 70.586 59.4928 71.5477 59.3844L71.5967 58.9544Z" fill="#B7B6B7"/>
<path d="M67.9668 59.4646C69.6314 58.7443 69.8622 58.7513 71.5968 58.9541L71.5478 59.3842C70.5861 59.4925 69.2677 59.5625 68.4249 59.947L67.9668 59.4646Z" fill="#043E6D"/>
<path d="M59.4933 48.2617C59.7835 50.0507 59.9899 53.998 60.5319 55.1692L62.4903 56.0608C61.7069 56.337 57.9895 55.3196 56.762 55.4384C53.786 55.7251 47.2989 54.8161 45.0853 56.8055L44.9734 57.5816C47.2325 59.557 49.1873 57.8683 51.2786 56.5258C52.8103 56.6097 54.9121 56.6481 56.3389 57.0362L54.9156 57.4488C50.9359 57.1796 50.4743 57.8019 46.9527 59.6863L46.6205 59.9451L45.4385 59.6863C44.5467 58.8962 44.4628 58.662 43.9417 57.5712L43.8018 57.2705L43.3787 57.3509L43.043 56.2426C44.5222 55.8405 47.1031 55.2636 48.2886 54.4805C47.3514 54.491 46.8513 54.491 45.9246 54.3896C46.7429 53.2463 48.3446 53.6624 49.8553 51.7744L50.1246 52.1799L51.9641 51.201L52.9117 50.736C52.9677 54.5853 55.8038 56.2461 59.0596 54.2917C59.6157 53.2323 59.3779 52.8442 59.3079 51.5157L59.4933 48.2617Z" fill="#032C4D"/>
<path d="M51.9636 51.1992C52.4532 53.1221 53.359 54.5941 50.939 55.1954C49.7744 54.2794 49.8724 54.65 49.5996 53.4962C49.8059 52.7795 49.736 52.7935 50.1242 52.1782L51.9636 51.1992Z" fill="#F9F8F9"/>
<path d="M64.7908 44.0566L65.4658 44.3804L65.6651 45.2062C65.763 48.637 66.7877 57.2595 65.4238 60.0949L64.4971 59.4621C66.1757 57.0602 65.0426 47.3784 64.7908 44.0566Z" fill="#032C4D"/>
<path d="M58.6156 47.6415C57.9686 45.6301 57.7099 44.0526 59.3675 42.6094L59.5598 42.8845C58.9968 44.6071 58.815 45.0546 59.0737 46.8521L59.1332 47.231L58.6156 47.6415Z" fill="#032C4D"/>
<path d="M59.1328 47.2305L59.493 48.2605L59.3077 51.5144C59.0279 50.3432 58.9405 49.0314 58.6152 47.6409L59.1328 47.2305Z" fill="#B7B6B7"/>
<path d="M47.2782 28.8722C54.713 23.3219 58.4689 30.8168 61.0847 36.6747C61.4484 37.4876 63.7705 40.286 63.9243 40.8314C65.4701 46.2726 74.3037 47.8393 70.4289 52.8396L69.7155 52.9899C68.3307 50.4167 66.9808 47.8197 65.6659 45.2055L65.4666 44.3797L64.7916 44.056C62.0989 41.695 61.2735 40.2835 57.7904 42.2446C57.2134 41.8586 56.6329 41.4768 56.0524 41.0992L54.7305 41.3891C52.4539 39.4368 55.1012 36.2006 54.136 34.7154C53.6464 34.9818 53.6114 35.0371 53.2827 35.4682L53.0029 35.8461C52.1392 35.2699 50.3836 34.0323 49.5303 33.3921C49.5688 33.4204 48.2294 33.947 47.8133 33.5662C46.8865 32.7135 47.3097 32.6387 46.25 32.3254L45.743 33.1131C45.7919 34.0574 46.0857 34.4567 46.5158 35.3255C45.9633 34.8846 45.2184 33.8977 44.7498 33.3218L44.2567 32.9827L43.8301 30.7657C44.9561 30.3728 45.6696 29.8707 46.6802 29.2533L47.2782 28.8722Z" fill="#032C4D"/>
<path d="M33.0969 30.7785C33.0794 30.6722 33.0619 30.5663 33.0444 30.46C32.7227 22.3365 35.7931 22.3652 41.9935 22.0547C42.6789 22.4858 43.3469 22.9403 43.9973 23.4175C46.0711 24.9618 46.9069 26.376 47.2776 28.8731L46.6796 29.2542C45.6689 29.8716 44.9555 30.3736 43.8295 30.7666L44.2561 32.9836C43.5707 34.7174 42.8363 36.5882 41.2521 37.7038C40.6086 37.871 39.8917 37.9584 39.4546 38.4087C36.3387 37.7409 36.0414 36.8004 33.9432 34.3062C34.2614 33.6328 34.6251 32.0459 34.8279 31.2589L33.4326 30.5596L33.0969 30.7785Z" fill="#032C4D"/>
<path d="M36.3109 29.2112C41.2628 30.2555 39.6646 28.5297 43.1687 27.9473C42.8749 28.564 42.5707 29.1748 42.2524 29.7789C42.7141 30.3978 42.4168 30.1915 43.1931 30.3887L43.8296 30.7649L44.2563 32.9819C43.5708 34.7156 42.8365 36.5865 41.2523 37.7021C40.6088 37.8692 39.8919 37.9566 39.4548 38.407C36.3389 37.7392 36.0416 36.7987 33.9434 34.3045C34.2616 33.6311 34.6253 32.0441 34.8281 31.2571L34.7162 30.724C35.2198 29.759 35.2687 29.6115 35.5415 28.5514L36.3109 29.2112Z" fill="#F9F8F9"/>
<path d="M33.4327 30.5595C33.4292 30.1872 33.5271 29.4918 33.5691 29.0928C34.3979 28.3041 34.0342 28.5348 35.5414 28.553C35.2686 29.6131 35.2197 29.7606 34.7161 30.7256L34.828 31.2587L33.4327 30.5595Z" fill="#E9E8E9"/>
<path d="M43.1934 30.3899C43.9767 30.0896 45.2497 29.4061 46.0435 29.0117L46.68 29.2537C45.6693 29.8711 44.9559 30.3732 43.8299 30.7661L43.1934 30.3899Z" fill="#757575"/>
<path d="M35.542 28.5517C36.4303 28.3279 37.4479 27.9402 38.2837 28.1993C37.427 29.0447 37.0807 28.7831 36.3114 29.2114L35.542 28.5517Z" fill="#B7B6B7"/>
<path d="M33.097 30.7775L33.4327 30.5586L34.828 31.2578C34.6252 32.0448 34.2615 33.6318 33.9433 34.3052C36.0415 36.7994 36.3388 37.7399 39.4547 38.4076L39.0246 39.0933C37.853 45.7151 37.276 55.0595 35.8317 61.4891C33.5516 62.5205 32.3171 60.1151 31.1211 58.4789C33.0445 52.4408 32.7612 46.5588 32.0478 40.382C31.845 38.6223 31.5268 36.4659 32.0304 34.7779L31.7051 34.5003C33.1005 34.2664 33.0655 34.1398 33.7335 33.2102C33.8978 32.0141 33.7334 31.8298 33.097 30.7775Z" fill="#F9F8F9"/>
<path d="M33.0969 30.7775L33.4327 30.5586L34.828 31.2578C34.6252 32.0448 34.2615 33.6318 33.9432 34.3052L33.7998 34.4775C33.1878 35.2131 33.1319 35.31 32.7227 36.161C32.4849 35.697 32.2506 35.252 32.0303 34.7779L31.7051 34.5003C33.1004 34.2664 33.0655 34.1398 33.7334 33.2102C33.8978 32.0141 33.7334 31.8298 33.0969 30.7775Z" fill="#043E6D"/>
<path d="M33.9434 34.3047C36.0416 36.7989 36.3389 37.7394 39.4548 38.4072L39.0246 39.0928C35.9052 38.5107 35.024 37.0108 33.9434 34.3047Z" fill="#032C4D"/>
<path d="M32.9678 39.5234C33.6742 40.0374 34.5869 40.8503 35.4262 41.0856C36.1361 41.2845 36.4719 40.9656 37.0629 40.6492L37.3566 40.9093C37.2307 41.1453 37.1783 41.2768 36.972 41.4785C36.5488 41.8942 35.9508 42.0421 35.3878 41.9058C34.2337 41.6275 33.5168 40.4755 32.9678 39.5234Z" fill="#032C4D"/>
<path d="M46.5149 35.3263C46.0848 34.4575 45.791 34.0582 45.7421 33.1139L46.2491 32.3262C47.3087 32.6394 46.8856 32.7143 47.8123 33.567C48.2285 33.9477 49.5679 33.4212 49.5294 33.3929C50.3827 34.033 52.1382 35.2707 53.002 35.8469L53.2818 35.4689C53.6105 35.0379 53.6455 34.9826 54.1351 34.7162C55.1003 36.2014 52.453 39.4375 54.7296 41.3898L56.0515 41.1C56.632 41.4776 57.2125 41.8594 57.7895 42.2453C56.639 43.3788 56.2683 44.5025 54.8835 45.3552C53.8973 44.764 54.1736 44.0197 53.5406 42.7247C52.0089 39.5914 50.8898 42.8481 47.9767 41.7709L47.8123 42.0482C46.8472 41.2524 46.8926 40.5472 47.0954 39.5043L45.8085 38.8848L45.6406 37.5079C46.1232 35.8794 45.5322 37.5897 47.4172 36.0532L47.4381 35.3822L46.5149 35.3263Z" fill="#F9F8F9"/>
<path d="M47.0963 39.5039L48.0965 39.8189C48.0895 40.5122 48.0475 40.5283 47.8237 41.1947L47.9776 41.7705L47.8132 42.0478C46.848 41.252 46.8935 40.5468 47.0963 39.5039Z" fill="#57646F"/>
<path d="M47.4389 35.3809L48.4461 35.5924L48.2992 35.9039L47.418 36.0518L47.4389 35.3809Z" fill="#606A72"/>
<path d="M47.9769 41.7701C50.8899 42.8473 52.009 39.5906 53.5408 42.7239C54.1737 44.0189 53.8974 44.7632 54.8836 45.3545C56.2685 44.5017 56.6391 43.378 57.7897 42.2445C56.8699 44.8912 55.8768 45.2485 53.4953 46.8365C53.3064 48.0763 53.0546 49.5073 52.9113 50.7348L51.9636 51.1998L50.1241 52.1788L49.8548 51.7732C48.998 51.1229 48.5189 50.7908 47.5152 50.8712L46.2982 52.4759L46.043 52.3011C46.2458 50.4901 46.5151 48.3714 46.4381 46.5659L46.55 46.254C47.4103 45.3702 47.7321 43.2525 47.8125 42.0474L47.9769 41.7701Z" fill="#032C4D"/>
<path d="M43.0431 56.2422C40.3434 54.064 41.0392 46.7345 45.2462 46.2094C42.7738 45.3318 42.1653 43.9312 43.0151 41.4863L43.141 42.0286C44.1342 42.0006 44.0957 41.9632 44.9315 42.4663C46.4458 44.1505 44.9245 44.8717 46.4388 46.5667C46.5157 48.3722 46.2464 50.4909 46.0436 52.3019L46.2989 52.4767L47.5159 50.872C48.5195 50.7916 48.9986 51.1237 49.8554 51.774C48.3447 53.662 46.743 53.2459 45.9247 54.3892C46.8514 54.4906 47.3515 54.4906 48.2887 54.4801C47.1032 55.2632 44.5224 55.8401 43.0431 56.2422Z" fill="#F9F8F9"/>
<path d="M44.2565 32.9824L44.7496 33.3215C45.2182 33.8974 45.9631 34.8844 46.5156 35.3252L47.4388 35.3812L47.4179 36.0521C45.5329 37.5887 46.1239 35.8783 45.6413 37.5069L45.435 37.5765L45.0608 38.4586C44.1376 38.7795 43.3228 39.0319 42.3785 39.2998C41.9309 38.3757 42.1512 38.6907 41.207 38.0862L41.2525 37.7027C42.8367 36.587 43.5711 34.7162 44.2565 32.9824Z" fill="#032C4D"/>
<path d="M44.749 33.3223C45.2176 33.8981 45.9625 34.8851 46.515 35.326L47.4383 35.3819L47.4173 36.0528C45.5324 37.5894 46.1234 35.8791 45.6408 37.5076L45.4344 37.5772C45.2701 36.122 45.0113 34.7613 44.749 33.3223Z" fill="#E9E8E9"/>
<path d="M59.7445 69.668C62.6575 70.0281 67.6723 70.6539 70.512 70.7448L70.9946 70.7378C70.8582 72.7097 70.7043 76.4332 70.1553 78.1463L69.6062 77.8422L70.2427 77.8247C70.1867 78.0589 69.2461 76.4297 69.8895 75.1431C70.0749 74.7725 70.1798 72.5628 69.956 72.0943C67.5115 70.3952 58.9401 70.7623 55.457 70.4232C57.0657 70.3393 58.5694 70.5665 59.7445 69.668Z" fill="#032C4D"/>
<path d="M46.9521 59.686C50.4737 57.8015 50.9353 57.1792 54.915 57.4484C55.4011 58.4798 54.929 59.0147 54.4989 60.4027L54.1037 60.7454C51.2466 59.0427 50.0681 59.8363 46.9521 59.686Z" fill="#F9F8F9"/>
<path d="M43.3789 57.35L43.802 57.2695L43.9419 57.5702C44.463 58.661 44.5469 58.8953 45.4387 59.6854L46.6207 59.9441C46.0332 60.5805 42.2843 63.2306 41.3506 63.9019C42.2843 61.7517 43.0537 59.6715 43.3789 57.35Z" fill="#F9F8F9"/>
<path d="M45.8087 38.8848L47.0957 39.5043C46.8928 40.5472 46.8474 41.2524 47.8126 42.0482C47.7322 43.2533 47.4104 45.371 46.5501 46.2548C46.6061 42.6796 44.896 41.6629 45.8087 38.8848Z" fill="#E9E8E9"/>
<path d="M59.7451 69.6675L59.9969 69.1641C64.4312 69.1676 66.1692 69.4717 70.5126 70.7444C67.673 70.6535 62.6582 70.0277 59.7451 69.6675Z" fill="#B7B6B7"/>
<path d="M31.4226 64.7035C31.8667 64.2595 32.3913 63.4658 32.7655 62.9414C32.6431 65.595 32.2374 67.004 31.3701 69.5283C31.4051 67.969 31.4785 66.2489 31.4226 64.7035Z" fill="#E9E8E9"/>
<path d="M33.1808 66.3422C33.0758 65.1535 32.922 64.8144 33.534 63.8809C34.1494 65.8318 33.8347 67.8246 33.6599 69.856C33.457 68.9364 33.3066 67.3317 33.1808 66.3422Z" fill="#B7B6B7"/>
<path d="M67.9664 59.4648L68.4245 59.9473C69.1624 60.0347 69.9072 60.1117 70.6486 60.1781L71.2326 60.5767L69.8723 61.2899C69.5435 61.1885 68.2076 60.4438 67.6201 60.22L67.9664 59.4648Z" fill="#757575"/>
<path d="M41.207 38.0859C42.1512 38.6904 41.9308 38.3754 42.3785 39.2995C41.5881 39.3411 41.9973 39.4082 41.1895 38.8125L41.207 38.0859Z" fill="#B7B6B7"/>
<path d="M34.1885 66.0927C35.325 63.4041 36.542 62.1839 39.3816 63.3691C41.2491 65.8375 37.9199 68.0891 36.0629 69.3267L35.7027 67.5611C35.4684 68.1765 35.367 68.4317 35.2411 69.0855L35.1572 69.5435L34.6466 69.5051C34.3179 68.7149 34.2619 67.0157 34.1885 66.0927Z" fill="#F9F8F9"/>
<path d="M35.7027 67.5622C35.4684 68.1775 35.367 68.4327 35.2411 69.0865L35.1572 69.5445L34.6466 69.5061C34.3179 68.7159 34.2619 67.0168 34.1885 66.0938L34.783 66.6636L35.8041 66.5727C35.7971 67.0692 35.8461 67.1006 35.7027 67.5622Z" fill="#B7B6B7"/>
<path d="M14.9227 67.8105C16.0138 67.842 16.0034 67.863 16.7797 68.6322L16.8461 68.37L16.8881 69.2125C16.2551 69.9468 15.4927 70.4153 14.559 70.674C13.2966 71.0236 11.0655 71.3418 9.96039 70.7509L10.2052 69.73L9.48824 71.0096L9.1875 70.618C9.22247 70.0971 9.38335 69.6881 9.55121 69.1986C11.2088 68.5413 13.0798 68.6042 14.7444 67.891C14.8038 67.8665 14.8633 67.8385 14.9227 67.8105Z" fill="#F9F8F9"/>
<path d="M24.9588 37.4062C25.0602 37.4573 25.1651 37.5038 25.263 37.559C26.445 38.2188 27.2494 39.9592 27.5396 41.2182C28.5923 45.8283 25.1232 56.6604 22.6717 60.7719L22.3779 60.4993C23.9411 56.4017 25.3645 52.0663 26.501 47.831C27.6271 43.6435 27.106 41.1553 24.9588 37.4062Z" fill="#B7B6B7"/>
<path d="M20.3715 66.7305C20.4624 67.7898 20.4729 68.6254 20.1967 69.6568C19.3748 70.5064 19.214 70.4435 18.0215 70.5903C18.0984 69.7198 19.847 67.6745 20.3715 66.7305Z" fill="#F9F8F9"/>
<path d="M37.1084 61.7911C37.5106 61.5499 37.7204 61.5604 38.1785 61.5254L38.5982 62.0463L37.4721 62.2107L37.1084 61.7911Z" fill="#919192"/>
<path d="M58.1013 13.918C59.6015 14.3162 60.6961 15.1399 62.053 15.8343C62.4587 16.0423 64.494 15.1001 65.078 14.912C65.655 14.9777 66.295 15.0109 66.7915 15.3343C67.3651 15.7084 67.6938 16.1724 67.7463 16.8775C67.8967 18.8365 66.6866 20.2189 65.3997 21.4737C64.1093 22.2474 62.6195 22.8309 61.2557 23.4704C60.3569 22.6163 59.4512 21.7607 58.6014 20.8594C57.5138 19.7046 56.3632 18.117 56.4821 16.4562C56.5731 15.2542 57.2235 14.6529 58.1013 13.918Z" fill="#032C4D"/>
<path d="M89.092 39.591C81.3844 39.2082 73.6594 40.5693 66.6162 40.3144C68.8648 38.9624 85.6159 38.8355 89.3648 38.8673L89.092 39.591Z" fill="#032C4D"/>
<path d="M8.33383 59.1501C8.98429 59.1046 9.34449 59.1535 9.95299 59.3913C9.0927 60.3702 4.58844 61.1569 3.12316 61.8806L2.75595 62.0624C2.60907 64.5832 2.71398 67.1809 2.70698 69.7087L2.51467 70.7261C2.3538 70.5128 2.29085 70.4569 2.19992 70.1667C1.58094 68.1634 1.6019 63.7511 2.66152 61.954C3.68617 60.2129 6.51534 59.706 8.33383 59.1501Z" fill="#032C4D"/>
<path d="M83.9378 68.2559L84.4868 68.2804C84.8505 71.1997 84.5742 75.8847 83.672 78.7341C83.4027 75.3917 83.8119 71.6752 83.9378 68.2559Z" fill="#032C4D"/>
<path d="M13.8141 45.5971C9.76093 50.2181 11.1143 51.4487 9.9498 55.9519L9.69802 55.7946C9.52317 53.6968 9.77841 51.5816 10.4429 49.5852C11.0409 47.8259 12.2089 45.8051 13.9225 44.9492L13.8141 45.5971Z" fill="#57646F"/>
<path d="M85.5254 53.5498C85.6338 51.1409 86.7948 46.5255 87.83 44.4512C87.7111 46.5056 86.6444 50.5151 86.2108 52.9135L85.5254 53.5498Z" fill="#043E6D"/>
<path d="M13.9229 44.9484C16.3009 44.3187 16.3778 44.1268 18.8188 44.2652C17.6333 45.0778 15.3427 45.3124 13.8145 45.5962L13.9229 44.9484Z" fill="#032C4D"/>
<path d="M11.2787 60.6738C12.3628 62.345 11.8523 64.1945 11.576 66.044C10.8136 64.3938 11.0584 62.4219 11.2787 60.6738Z" fill="#032C4D"/>
<path d="M89.3656 38.8672C90.6315 39.0172 92.8661 39.1853 93.7649 40.0863L94.1636 41.2768C92.1108 39.5098 91.8065 39.5458 89.0928 39.5909L89.3656 38.8672Z" fill="#919192"/>
<path d="M85.4806 56.3438L85.8583 56.4347C85.9702 57.7108 86.1206 58.459 85.7079 59.6931L85.3617 59.6442C85.0225 58.3156 85.2428 57.6898 85.4806 56.3438Z" fill="#032C4D"/>
<path d="M83.9374 68.2551C83.6192 66.9056 83.4478 66.4581 82.71 65.2833L82.7799 64.8184C84.1997 66.2483 84.0704 66.4127 84.4865 68.2796L83.9374 68.2551Z" fill="#57646F"/>
<path d="M85.525 53.5504L86.2104 52.9141C86.081 54.0049 85.8746 55.3614 85.8572 56.4348L85.4795 56.3439C85.5389 55.5362 85.5145 54.393 85.525 53.5504Z" fill="#919192"/>
</g>
<defs>
<clipPath id="clip0_407_8981">
<rect width="96" height="96" fill="white"/>
</clipPath>
</defs>
</svg>
