<svg width="96" height="96" viewBox="0 0 96 96" fill="none" xmlns="http://www.w3.org/2000/svg">
<g clip-path="url(#clip0_407_8849)">
<rect width="96" height="96" fill="white"/>
<path d="M46.1394 58.3767C47.5219 58.4452 48.9247 58.5852 50.291 58.3652L50.321 59.3166L51.4413 61.0708L52.1931 60.5908L53.7948 60.5537C56.1671 61.3537 58.3696 61.9279 60.5622 63.4392C76.0039 74.0757 79.5494 80.4953 62.1333 92.4774C61.9591 92.5974 61.6794 94.0544 61.6092 94.4087C54.3524 97.2513 42.8845 96.1114 35.5136 94.6543C35.0045 92.8573 34.7997 92.8031 33.5523 91.766C18.8613 80.3724 20.252 75.5013 34.2881 64.8105C36.7729 62.9164 38.8624 62.0421 41.6352 61.0822C43.0102 60.9479 44.3968 60.4051 45.3887 61.6708L46.0868 59.211L46.1394 58.3767Z" fill="#01335B"/>
<path d="M31.8477 78.8672C33.189 77.5273 35.0511 75.856 36.67 75.1875C36.5589 77.953 36.7486 82.9041 35.5554 84.724C34.6497 83.0327 32.9179 80.5214 31.8477 78.8672Z" fill="#FEFEFE"/>
<path d="M37.0315 84.709C38.1317 84.889 38.7325 84.8546 39.6455 85.6489C39.1935 86.3203 38.4977 86.1945 37.5719 86.3631C38.2021 86.7916 39.3519 87.4174 39.7056 88.0459C38.8968 88.0345 38.1013 88.1087 37.2956 88.1859C37.9749 88.8144 38.4051 89.1716 39.1288 89.7172C36.5078 90.0286 36.8091 89.1373 35.163 91.7599C34.2784 91.0457 34.2288 90.6343 33.7305 89.4601C34.5445 87.7288 34.6599 87.506 35.7103 86.0003L37.0315 84.709Z" fill="#C8C8C8"/>
<path d="M46.1394 58.3767C47.5219 58.4452 48.9247 58.5852 50.291 58.3652L50.321 59.3166L51.4413 61.0708C49.7193 63.4593 47.5351 62.8307 45.3887 61.6708L46.0868 59.211L46.1394 58.3767Z" fill="#FEFEFE"/>
<path d="M46.1385 58.3767C47.521 58.4452 48.9239 58.5852 50.2902 58.3652L50.3201 59.3166C48.5268 59.8823 47.8378 59.7738 46.0859 59.211L46.1385 58.3767Z" fill="#034173"/>
<path d="M36.6703 75.1875C37.3896 78.5359 36.8209 81.4728 37.0317 84.7098L35.7104 86.0011L35.5557 84.724C36.7489 82.9041 36.5592 77.953 36.6703 75.1875Z" fill="#032C4D"/>
<path d="M33.5518 91.7665L33.7298 89.4609C34.2282 90.6351 34.2777 91.0466 35.1624 91.7608L35.5131 94.6549C35.004 92.8578 34.7992 92.8036 33.5518 91.7665Z" fill="#034173"/>
<path d="M59.9766 74.6543C61.6021 76.0028 63.5565 77.5227 65.0503 79.0398L61.2795 84.7108C60.9456 84.0823 60.7657 83.5109 60.5046 82.8224C60.3046 80.1797 60.0287 77.2913 59.9766 74.6543Z" fill="#FEFEFE"/>
<path d="M60.5045 82.8223C60.7655 83.5108 60.9454 84.0822 61.2794 84.7107L61.1976 85.6164L61.2335 86.222C62.0799 87.5248 62.7179 88.2562 63.0302 89.8847L62.6946 90.6818C61.444 90.9732 59.1778 90.3904 58.3695 89.1819L59.2296 88.6391C58.6534 88.4191 58.2051 88.2591 57.6313 88.0734L57.6775 87.4106L59.5076 86.4249C58.4792 86.3364 58.1182 86.3935 57.1611 85.9107L57.2219 85.125C57.7578 84.9136 59.386 84.525 60.0379 84.3279L60.5045 82.8223Z" fill="#ABACAC"/>
<path d="M61.2331 86.2207C62.0796 87.5235 62.7176 88.2549 63.0299 89.8833L62.6943 90.6804C61.4437 90.9719 59.1774 90.389 58.3691 89.1805L59.2293 88.6377L60.351 88.6749C60.3266 86.9064 60.1261 87.7349 61.2331 86.2207Z" fill="#FEFEFE"/>
<path d="M60.5052 82.8223C60.7663 83.5108 60.9462 84.0822 61.2801 84.7107L61.1983 85.6164C59.4141 84.9621 59.1307 85.0564 57.2227 85.125C57.7585 84.9136 59.3867 84.525 60.0386 84.3279L60.5052 82.8223Z" fill="#3F5160"/>
<path d="M34.2656 57.9113C34.8572 52.2688 34.152 45.2549 36.0351 39.9696C39.1536 31.2073 50.3471 30.1073 56.336 34.2385C60.8179 37.3297 62.2768 44.7379 62.1193 50.6489C62.061 52.8431 62.5458 55.9029 61.7375 57.7827C60.5763 58.7998 59.5744 58.6855 58.1352 58.8226C55.8516 60.3625 55.1987 59.0855 53.7947 60.554L52.193 60.5911L51.4412 61.0711L50.3209 59.3169L50.2909 58.3655C48.9246 58.5855 47.5218 58.4455 46.1393 58.3769L46.0867 59.2112L45.3886 61.671C44.3967 60.4054 43.0101 60.9482 41.6351 61.0825C42.3701 60.8339 43.1024 60.5711 43.8319 60.2997L44.0934 59.6626C42.4473 58.9683 37.0306 58.5884 34.2656 57.9113Z" fill="#3F5160"/>
<path d="M49.0619 40.0391C50.6774 42.3103 51.0545 42.7246 53.0508 44.4616L55.3541 45.4873C60.0688 48.7042 54.5483 56.8065 50.2906 58.3664C48.9243 58.5864 47.5214 58.4464 46.1389 58.3779C40.7726 55.9237 40.4384 52.9925 39.5254 46.4701C44.0012 45.7273 45.9993 43.796 49.0619 40.0391Z" fill="#FEFEFE"/>
<path d="M52.4896 46L54.2982 46.8054C53.6532 48.3331 52.8886 49.845 51.4708 49.6364C50.8546 48.6224 51.0655 49.2012 51 47.7543C51.5304 46.3791 51.2615 46.8457 52.4896 46Z" fill="#EDEDED"/>
<path d="M43.6736 49.6325L43.3682 48.4897C42.5412 47.7212 42.791 47.9869 42.1592 46.9298L42.4244 46.4527C43.995 45.6413 43.2235 45.7356 44.8069 45.987L45.3357 46.8698L44.9043 48.5954L44.6243 49.6725L43.6736 49.6325Z" fill="#EDEDED"/>
<path d="M42.6738 49.6329L43.0357 48.4473L43.9046 48.5958L43.6245 49.6729L42.6738 49.6329Z" fill="#3F5160"/>
<path d="M51 49.1857L51.3619 48L52.2307 48.1486L51.9507 49.2256L51 49.1857Z" fill="#3F5160"/>
<path d="M45.7744 53.5493C47.4566 53.5064 49.5464 53.1379 51.098 54.0092C50.3794 54.4121 49.3779 54.8606 48.5872 54.9035C47.3343 54.9721 46.7233 54.4207 45.7744 53.5493Z" fill="#034173"/>
<path d="M47.8029 49.7614L48.1652 49.6328L48.5614 50.1985L48.4133 52.0298C47.9097 51.5869 47.7215 51.3327 47.3643 50.7356L47.8029 49.7614Z" fill="#727273"/>
<path d="M52.193 60.5907L52.127 59.5023C53.074 58.7509 56.6288 58.9365 58.1352 58.8223C55.8516 60.3622 55.1987 59.0851 53.7947 60.5536L52.193 60.5907Z" fill="#EDEDED"/>
<path d="M36.0713 44.2245C37.2702 39.162 39.1966 35.1651 43.5727 33.8966C50.5598 31.8682 58.2214 33.4452 60.3359 43.1246C60.3301 44.6759 60.4938 46.8644 59.8899 48.07C58.0749 46.3816 57.6515 45.4273 55.4203 44.3331C52.5873 42.9389 50.8508 41.0762 49.2282 37.8621C45.2807 43.3903 44.3234 43.2446 38.8413 46.1187C38.655 46.2158 37.057 47.8472 36.4558 48.2929C36.2544 47.5843 36.1348 45.1216 36.0713 44.2245Z" fill="#FEFEFE"/>
<path d="M36.0718 44.2246C36.1354 45.1217 36.2549 47.5845 36.4563 48.293C36.6307 49.2529 36.8833 50.1757 36.8232 51.1128C40.5442 53.364 40.197 55.4782 43.3963 58.4295C40.9778 58.0981 37.8624 57.798 35.5934 57.0238C35.5445 53.9354 35.6144 47.0644 36.0718 44.2246Z" fill="#FEFEFE"/>
<path d="M36.0718 44.2246C36.1354 45.1217 36.2549 47.5845 36.4563 48.293C36.6307 49.2529 36.8833 50.1757 36.8232 51.1128C35.5769 52.8212 36.3827 54.6639 35.5934 57.0238C35.5445 53.9354 35.6144 47.0644 36.0718 44.2246Z" fill="#EDEDED"/>
<path d="M60.0401 51.1914C60.9021 52.4828 60.711 53.1627 60.9679 55.134C61.085 56.6425 61.2381 55.9882 60.5224 57.1767C58.4966 58.1195 55.9687 58.0766 53.7529 58.2338C56.1296 55.0311 56.8938 53.0227 60.0401 51.1914Z" fill="#FEFEFE"/>
<path d="M60.3366 43.123C61.2014 46.8085 61.0443 51.2797 60.9687 55.1337C60.7117 53.1624 60.9028 52.4824 60.0408 51.1911L59.8906 48.0685C60.4946 46.8628 60.3309 44.6744 60.3366 43.123Z" fill="#EDEDED"/>
<path d="M37.8059 47.8672C37.9293 47.9872 38.061 48.0957 38.1764 48.2243C38.9765 49.1357 38.9749 50.4642 39.089 51.7156C38.8396 51.507 38.4348 51.1899 38.2395 50.9213C37.5122 49.91 37.7373 49.1185 37.8059 47.8672Z" fill="#EDEDED"/>
<path d="M58.2149 47.9238C58.3422 48.041 58.491 48.1295 58.5969 48.2781C59.3251 49.298 58.8879 50.2236 58.6666 51.3893L58.0574 51.2865C57.5858 50.1465 58.0041 49.1466 58.2149 47.9238Z" fill="#EDEDED"/>
<path d="M48.1475 0.162109C50.27 2.09341 51.9526 7.45878 53.211 10.37C56.9738 10.5557 60.7325 10.9558 64.4883 11.2957L56.0577 19.2809C56.7965 23.1407 57.6578 26.9318 58.5628 30.7344C55.2923 28.6146 51.874 26.7575 48.5338 24.8062C45.172 26.6318 41.8496 28.5689 38.5708 30.6173C39.2126 26.8118 40.0664 23.055 40.8567 19.2952C38.0173 16.6811 35.2004 14.0755 32.498 11.2414L43.6338 10.3729C45.1699 6.99309 46.6464 3.5676 48.1475 0.162109Z" fill="#3F5160"/>
<path d="M48.1756 3.04688C50.0542 4.77248 51.3062 8.88362 52.392 11.4492L61.8636 12.2348L54.7528 18.9373L56.7937 28.3938L48.6083 23.4684C45.7073 24.5512 42.6979 26.8225 39.9436 28.4566C40.7721 25.314 41.4523 22.0999 42.1722 18.9144L34.999 12.2806C38.1394 11.9549 41.2846 11.7006 44.4325 11.5177C45.7053 8.7122 46.9531 5.88955 48.1756 3.04688Z" fill="#FEFEFE"/>
<path d="M62.6934 18.4238C65.0245 18.541 67.5443 18.3781 69.5579 20.0237C69.3439 20.0523 69.1304 20.0923 68.9156 20.1123C66.8507 20.3008 64.299 20.2151 62.6934 18.4238Z" fill="#034173"/>
<path d="M33.1248 18.4551L33.7662 18.4865L33.765 19.0779C32.1151 19.7836 30.5282 19.9293 28.806 20.1178L27.8926 19.955L27.984 19.5264C29.692 18.8036 31.3447 18.6408 33.1248 18.4551Z" fill="#034173"/>
<path d="M35.5007 23.9434L35.8877 24.7062C34.9946 26.4204 33.2689 27.6946 31.9671 28.9231C31.7676 28.7288 31.6556 28.4259 31.5127 28.1688C32.4908 26.3775 34.1081 25.2004 35.5007 23.9434Z" fill="#034173"/>
<path d="M60.9326 24.0488C61.0698 24.1145 61.2099 24.1717 61.3443 24.2459C62.8587 25.083 64.9857 26.9229 65.6477 28.8314C65.2831 28.7628 65.2441 28.7771 64.8456 28.5771C63.3522 27.8286 61.4762 25.8916 60.9326 24.0488Z" fill="#3F5160"/>
<path d="M36.7471 2.13281C37.0701 2.20709 37.2596 2.23278 37.5837 2.38705C39.0855 3.107 40.2267 4.99265 40.9184 6.72396C39.0878 6.04115 37.8832 3.9127 36.7471 2.13281Z" fill="#3F5160"/>
<path d="M58.9197 2.1875L59.5245 2.6189C59.143 4.02453 57.662 5.34446 56.7776 6.35583L56.167 5.94437C56.5668 4.54161 58.0364 3.21315 58.9197 2.1875Z" fill="#3F5160"/>
</g>
<defs>
<clipPath id="clip0_407_8849">
<rect width="96" height="96" fill="white"/>
</clipPath>
</defs>
</svg>
