<svg width="96" height="96" viewBox="0 0 96 96" fill="none" xmlns="http://www.w3.org/2000/svg">
<g clip-path="url(#clip0_407_9025)">
<rect width="96" height="96" fill="white"/>
<path d="M61.1432 29.2104C64.063 28.1238 66.6655 26.9622 69.7541 27.0694C79.1 27.3839 85.1371 33.7568 80.1324 45.2016L79.6577 45.6092C77.4985 47.4499 74.0209 49.3836 72.5624 50.9455C78.3193 55.181 83.2239 55.6063 84.4107 65.1889C85.24 71.8692 86.65 89.4976 83.7444 94.8196C83.1638 93.1254 83.2497 93.9904 83.5442 92.1246C83.1925 92.2855 81.345 93.1933 81.1105 93.1111C79.6262 95.2879 80.5071 94.4765 78.305 95.5381C74.7645 96.4173 66.7227 96.0385 63.1136 95.5345C61.4577 95.5452 60.1765 95.8633 58.9268 94.6624C58.2662 92.5643 59.0326 89.6799 59.4187 87.3387C59.0154 83.2748 60.0078 77.7382 58.2375 75.1039C55.5035 79.343 51.414 83.482 51.8945 88.8149C51.1194 90.8057 51.2081 90.7557 49.6895 92.1497C45.0223 92.9289 43.4523 87.2851 41.2473 83.0174C39.4313 79.5003 37.7383 76.2191 35.8022 72.795L35.7679 81.3947C34.8757 77.3736 34.3351 74.214 36.234 70.7041C37.1377 69.1314 38.4676 68.9491 40.1577 68.1735C41.2816 67.8768 40.8841 67.8804 41.9651 66.5901C42.1282 69.8034 46.0061 78.1742 47.456 82.2632C48.8916 79.3144 50.9479 75.1218 52.006 71.9872C55.6151 61.2966 55.5665 56.264 64.9868 51.8284C62.1412 50.2592 60.8257 49.5551 59.8362 45.8343C58.0345 39.0468 57.148 34.5718 61.1432 29.2104Z" fill="#3F5160"/>
<path d="M54.9287 66.1328C56.6846 61.7579 61.2404 51.0601 65.8819 54.7487C71.6616 59.3452 71.8188 51.3817 77.4441 55.2634C80.2839 57.2256 81.5251 60.4926 82.8492 63.9203L84.3592 67.7876C82.506 68.4703 80.7844 69.4211 78.9827 68.7884C77.3955 67.155 76.8321 63.8631 75.6053 61.0573C76.5061 68.5311 78.0904 74.543 77.8988 82.1991C77.1381 83.2714 77.5528 82.8854 76.7177 83.4608C73.2745 84.4187 69.1478 84.0363 65.4929 84.2686C64.0801 84.022 62.3156 83.518 60.8857 83.1534C61.0544 79.8937 61.8495 66.4616 60.6855 64.4207C60.2537 65.7003 59.962 66.7332 59.6016 68.0485C58.1746 68.1808 56.3329 66.9084 54.9287 66.1328Z" fill="#FEFEFE"/>
<path d="M65.4931 84.2676C69.1479 84.0352 73.2747 84.4177 76.7179 83.4598L75.8542 84.4391C76.2861 87.4737 76.8523 88.0027 78.7884 89.7505C79.2517 89.7183 79.9467 89.6933 80.3928 89.629L80.1554 90.3795C81.2021 92.0809 80.9591 91.1695 81.1106 93.1103C79.6264 95.287 80.5072 94.4757 78.3051 95.5372C74.7647 96.4165 66.7228 96.0376 63.1137 95.5337C61.4578 95.5444 60.1767 95.8625 58.9269 94.6616C58.2663 92.5635 59.0327 89.679 59.4188 87.3379L59.9136 84.5464L60.8859 83.1523C62.3158 83.5169 64.0803 84.0209 65.4931 84.2676Z" fill="#01335B"/>
<path d="M65.4927 84.2668C69.1475 84.0344 73.2743 84.4169 76.7175 83.459L75.8538 84.4383C76.2857 87.4729 76.8519 88.0019 78.788 89.7497C79.2513 89.7176 79.9463 89.6925 80.3924 89.6282L80.155 90.3787C81.2017 92.0801 80.9587 91.1687 81.1102 93.1095C79.626 95.2862 80.5068 94.4749 78.3047 95.5364C74.7643 96.4157 66.7224 96.0368 63.1133 95.5329C68.5355 92.5519 70.0313 90.3966 73.463 84.6921C70.9006 84.7421 67.8892 85.096 65.4927 84.2668Z" fill="#858585"/>
<path d="M40.1571 68.1738C42.4707 72.2699 43.6289 76.7949 45.7052 81.0983C47.1065 83.9971 48.9596 84.6405 49.463 87.5463C45.0588 90.127 38.4412 74.8077 36.2334 70.7044C37.1371 69.1318 38.4669 68.9494 40.1571 68.1738Z" fill="#FEFEFE"/>
<path d="M80.3931 89.63C81.5685 82.8746 79.3378 74.9505 80.0099 71.0653C81.6886 70.136 80.8764 70.1645 82.5093 70.7471C84.843 74.2678 84.3683 87.9858 83.5446 92.1248C83.1929 92.2857 81.3454 93.1935 81.1109 93.1113C80.9594 91.1705 81.2024 92.0819 80.1557 90.3805L80.3931 89.63Z" fill="#FEFEFE"/>
<path d="M58.2373 75.1042L58.8808 73.2778L59.4814 73.1992C60.1849 76.9808 59.6043 80.6444 59.9132 84.5475L59.4184 87.339C59.0152 83.2751 60.0075 77.7385 58.2373 75.1042Z" fill="#EDEDED"/>
<path d="M63.2427 37.7638L62.0388 37.2992C62.1846 35.294 63.4716 34.8186 64.9243 34.4219C65.9796 36.3663 66.6631 37.6959 68.0816 39.29L68.7279 38.5287L68.542 37.3742C69.8661 38.0712 70.3437 38.5858 70.8671 40.255L71.9938 40.0191L73.175 39.9191C74.1101 41.0878 74.0501 41.4989 74.4648 43.1287C76.8928 44.6943 76.0462 41.8313 76.7526 44.2796C75.1225 48.9941 67.6154 50.5132 63.8176 50.0307C62.5421 49.0585 62.7051 49.012 61.6927 47.5179L60.5631 43.5719C60.4573 41.3023 60.1827 41.4382 60.8862 39.7082C61.8071 39.0935 62.4591 38.6252 63.2427 37.7638Z" fill="#FEFEFE"/>
<path d="M68.0815 39.2888L68.7278 38.5275L68.5419 37.373C69.866 38.07 70.3436 38.5847 70.8669 40.2538L71.9937 40.018C70.8069 41.5013 70.1691 41.0438 69.3655 42.7844C69.1282 42.9024 68.4246 43.0061 68.1358 43.0633C67.7183 41.3762 67.7497 42.2662 68.5133 40.3111L68.0815 39.2888Z" fill="#C8C8C8"/>
<path d="M68.1348 43.0645L68.8011 41.6133L69.3645 42.7857C69.1271 42.9036 68.4236 43.0073 68.1348 43.0645Z" fill="#034173"/>
<path d="M63.2427 37.7637C63.8919 39.6616 63.7862 38.693 63.5202 40.7768C62.4163 41.7419 62.2819 42.0564 60.9949 42.3888L60.5631 43.5719C60.4573 41.3022 60.1827 41.4381 60.8862 39.7081C61.8071 39.0934 62.4591 38.6251 63.2427 37.7637Z" fill="#C8C8C8"/>
<path d="M61.6924 47.5176C62.6047 48.4111 63.1766 48.8329 63.8172 50.0303C62.5417 49.0581 62.7048 49.0116 61.6924 47.5176Z" fill="#ABACAC"/>
<path d="M66.6282 45.5078C66.9114 45.6865 67.2574 46.1654 67.4976 46.4335C66.7627 47.8275 65.9419 48.0026 64.7579 48.6781L63.4824 46.9017L63.7141 46.0653L66.6282 45.5078Z" fill="#3F5160"/>
<path d="M70.0686 28.1094C71.2526 28.2774 72.4909 28.4275 73.6034 28.9958C76.4632 30.4577 80.058 33.9105 81.016 37.7242C81.4336 39.3791 81.3678 40.2118 80.8273 41.7774C79.9322 42.8818 79.4145 43.368 78.2019 43.8112C75.9741 41.6988 74.5156 38.5641 72.2106 36.634L70.795 37.1451C70.7721 37.1273 70.7435 37.113 70.7264 37.088C70.0972 36.1444 69.6797 35.451 68.8446 34.7719L67.3203 35.837C66.428 35.0721 66.4738 33.4815 66.2564 32.1769L65.5415 31.7373C63.2765 32.8239 61.921 35.1864 59.8791 36.7091C59.6045 35.1721 59.6817 34.1356 60.3767 32.7452C62.1526 29.1995 67.0801 28.8564 70.0686 28.1094Z" fill="#FEFEFE"/>
<path d="M55.3551 68.1152C56.6392 68.6478 57.3799 68.73 58.2664 70.0417C57.9004 75.0743 53.7279 79.8424 51.1998 83.6382C50.7136 84.3781 50.5106 84.3352 49.8099 84.6355L49.2666 83.8456C49.1922 79.5422 53.5878 71.9826 55.3551 68.1152Z" fill="#FEFEFE"/>
<path d="M70.6345 51.2129L71.8014 52.2959L71.8213 53.1787C70.8004 54.5763 69.7738 54.855 68.3782 55.359C67.6346 54.6084 67.3429 54.0794 66.9482 52.9929C67.9463 51.6311 69.2218 51.6311 70.6345 51.2129Z" fill="#FEFEFE"/>
<path d="M11.6655 70.0984C9.33193 68.7402 11.3509 63.915 12.3605 61.6847C14.8828 56.1195 16.9048 54.1608 21.7693 52.3594L22.6902 53.2601C25.6816 55.0651 26.0619 55.5118 29.0847 53.6604L30.0142 52.4452C37.5756 54.6147 38.7395 58.3248 41.9654 66.5886C40.8844 67.8789 41.2819 67.8753 40.158 68.1719C38.4678 68.9475 37.138 69.1299 36.2343 70.7025C34.3354 74.2125 34.8759 77.3721 35.7682 81.3931L35.8254 84.5778L34.2324 85.1747C29.1362 86.2649 24.5633 87.0119 19.4242 85.5286L17.757 85.9789C16.5072 89.0993 18.3261 91.6084 16.982 95.2542C8.59126 101.899 10.9592 74.6413 11.6655 70.0984Z" fill="#01335B"/>
<path d="M11.6653 70.0996L12.8406 70.7001C15.2 71.4007 15.2057 70.8609 16.3439 72.7124C16.7929 75.6147 16.078 77.7915 15.9779 80.9404L16.3611 84.5504C17.7338 85.326 18.3887 84.9222 19.424 85.5298L17.7567 85.9801C16.507 89.1005 18.3258 91.6096 16.9817 95.2553C8.59099 101.9 10.9589 74.6425 11.6653 70.0996Z" fill="#FEFEFE"/>
<path d="M11.6653 70.0996L12.8406 70.7001C12.3573 75.0107 11.8397 89.004 13.3583 92.589C14.5537 92.5532 14.9655 91.9813 16.1123 91.1664C16.0837 87.0989 15.4803 85.2045 15.9779 80.9404L16.3611 84.5504C17.7338 85.326 18.3887 84.9222 19.424 85.5298L17.7567 85.9801C16.507 89.1005 18.3258 91.6096 16.9817 95.2553C8.59099 101.9 10.9589 74.6425 11.6653 70.0996Z" fill="#3F5160"/>
<path d="M16.1609 44.2973C11.8082 32.3307 16.0436 27.3911 26.4019 25.9256C28.8671 25.5789 32.5591 27.3303 35.0157 28.2525C37.1034 31.6302 39.1682 32.3021 36.5257 37.4562C36.2855 40.4407 36.1196 43.2823 35.6106 46.2132C34.4638 47.8466 30.1597 51.8462 30.0139 52.4467L29.0844 53.6619C26.0616 55.5134 25.6813 55.0666 22.6899 53.2616L21.769 52.3609L22.2923 50.9133C21.4487 46.5348 18.5059 47.4248 16.1609 44.2973Z" fill="#FEFEFE"/>
<path d="M16.1609 44.2973C11.8082 32.3307 16.0436 27.3911 26.4019 25.9256C28.8671 25.5789 32.5591 27.3303 35.0157 28.2525C37.1034 31.6302 39.1682 32.3021 36.5257 37.4562L34.7812 37.2025C31.684 35.4404 30.6231 38.3676 24.5574 34.9792C23.4878 35.9157 22.2151 38.6893 21.4372 40.1619L20.708 41.5952C19.3524 41.5594 18.463 41.6488 17.1475 41.8954L16.1609 44.2973Z" fill="#01335B"/>
<path d="M34.7815 37.2012L36.526 37.4549C36.2857 40.4394 36.1199 43.281 35.6108 46.2119C34.464 47.8453 30.16 51.8449 30.0141 52.4454L29.0847 53.6606C26.0618 55.5121 25.6815 55.0653 22.6901 53.2603L21.7693 52.3596L22.2926 50.912C21.4489 46.5335 18.5062 47.4235 16.1611 44.296L17.1478 41.8941C18.366 45.5113 25.4842 50.812 28.9674 49.9756C32.9969 49.0105 33.8005 46.9339 34.7242 42.4768L34.7815 37.2012Z" fill="#3F5160"/>
<path d="M22.6895 53.2611C24.4254 49.7405 25.6493 50.2122 28.4234 52.1817L29.084 53.6614C26.0612 55.5128 25.6808 55.0661 22.6895 53.2611Z" fill="#FEFEFE"/>
<path d="M21.4375 40.1612C22.2154 38.6886 23.488 35.915 24.5576 34.9785C30.6233 38.3669 31.6843 35.4397 34.7815 37.2018L34.7242 42.4774L33.0141 42.0092C31.9273 39.9146 31.3325 38.4885 29.6338 37.2054C27.5461 36.9444 27.9493 36.6013 26.3564 37.6021C25.0952 38.392 24.6462 38.2848 24.2287 39.5179L21.4375 40.1612Z" fill="#EDEDED"/>
<path d="M24.2285 39.5174C24.6461 38.2843 25.095 38.3915 26.3562 37.6016C26.1532 39.2779 26.0932 39.8676 26.3334 41.5297L25.9645 42.3911C24.4974 40.8578 25.1065 40.5575 24.2285 39.5174Z" fill="#ABACAC"/>
<path d="M29.8736 42.374L30.8517 41.416C31.3579 42.3775 31.2321 41.8128 31.0347 43.1567L30.9118 44.8867C31.4323 45.4943 31.7954 45.698 32.0271 46.5344C30.9003 47.1456 30.5171 47.2314 29.3217 47.6639C27.54 47.1671 28.1806 47.7425 27.1797 46.1877C28.0634 44.011 28.2836 43.9288 29.8736 42.374Z" fill="#EDEDED"/>
<path d="M27.1797 46.1875C28.4981 46.2733 30.8031 46.3305 32.0271 46.5342C30.9003 47.1454 30.5171 47.2312 29.3217 47.6637C27.54 47.1669 28.1806 47.7423 27.1797 46.1875Z" fill="#727273"/>
<path d="M29.874 42.374L30.8521 41.416C31.3583 42.3775 31.2325 41.8128 31.0351 43.1567L30.4775 43.7751L29.874 42.374Z" fill="#034173"/>
<path d="M57.9798 9.44747C58.343 9.44032 58.7663 9.62619 59.1209 9.72627C60.8196 13.6008 61.4202 19.0301 62.2953 23.3299C55.3946 27.4547 48.7626 23.7553 41.6159 26.1536C42.3194 29.903 43.0515 33.6453 43.8179 37.3768C42.8971 37.4662 43.3546 37.5698 42.4595 36.9765C40.226 29.0809 38.8476 20.5992 37.2061 12.4713C45.9114 8.69686 50.8789 13.0503 57.9798 9.44747Z" fill="#034173"/>
<path d="M59.3266 19.1777L59.6698 19.8819C57.2304 23.1094 46.6376 20.0928 41.1954 22.3517C40.9065 21.8871 41.038 22.2123 41.0895 21.2687C46.4288 17.7731 53.3696 21.5796 59.3266 19.1777Z" fill="#EDEDED"/>
<path d="M57.703 11.375L58.2492 11.8075C55.9328 15.5033 45.5373 12.2935 40.2695 13.8984C39.8405 14.1307 40.1036 14.0699 39.4688 13.8054C42.5145 9.79868 48.8204 12.4366 52.7269 12.4509C54.4057 12.4544 56.0872 11.8825 57.703 11.375Z" fill="#C8C8C8"/>
<path d="M45.5393 22.125C50.178 22.1715 54.8052 22.6469 59.4753 22.6183L59.2894 23.3045L57.0673 24.2696C53.0235 24.5019 46.0112 24.2982 41.9131 23.9658C42.9912 22.6862 44.1151 22.5932 45.5393 22.125Z" fill="#EDEDED"/>
<path d="M58.3606 16.811L58.9297 16.7109L58.7495 17.4865C56.8848 18.7161 55.2319 19.0807 53.1557 19.4238L52.4922 18.7769L52.8011 18.1728C54.6571 17.7439 56.5131 17.29 58.3606 16.811Z" fill="#EDEDED"/>
<path d="M43.1345 0.51171C48.6997 0.0685014 53.9961 0.215022 59.4641 1.73766C70.4201 4.79008 80.7269 12.65 86.7297 24.6988C89.0661 29.3561 90.6763 34.5209 91.4741 39.9287C92.4722 46.8056 92.8097 90.5511 91.7372 96.2163L91.1309 96.2699C90.1614 92.9566 90.6848 87.6702 90.6848 84.0852L90.6877 61.1277C90.682 46.6805 90.7706 34.0348 83.5695 21.918C76.4715 9.96927 65.4897 4.18966 53.999 2.06297C42.1593 0.661861 29.8477 3.91798 20.2559 13.0109C7.02916 25.5494 5.91093 40.0753 5.92237 59.3692L5.94814 83.5205C5.94242 87.7202 6.15115 92.0952 5.70216 96.2628L5.14165 96.1412C4.85566 95.4478 4.59258 94.858 4.51822 94.0681C3.9005 87.5523 4.5125 79.9534 4.5125 73.3589C4.51536 55.3803 2.57352 36.3866 11.7907 21.1603C19.4179 8.56454 30.9659 2.72061 43.1345 0.51171Z" fill="#3F5160"/>
<path d="M34.2324 85.1751L35.8254 84.5781C36.0284 88.5563 36.4945 91.2156 35.9455 95.0758C35.9254 95.0436 35.9083 95.0079 35.8911 94.9757L35.5079 94.2752L35.7625 95.1437L35.9426 93.8355L35.3278 93.5746C34.7444 90.2791 34.527 88.5027 34.2324 85.1751Z" fill="#3F5160"/>
</g>
<defs>
<clipPath id="clip0_407_9025">
<rect width="96" height="96" fill="white"/>
</clipPath>
</defs>
</svg>
