<svg width="96" height="96" viewBox="0 0 96 96" fill="none" xmlns="http://www.w3.org/2000/svg">
<g clip-path="url(#clip0_407_8717)">
<rect width="96" height="96" fill="white"/>
<path d="M5.50184 82.6938C5.48732 86.6631 5.96898 90.9833 2.92385 93.3824C2.10568 93.1494 1.45697 93.3007 1.00431 92.3295C-0.537621 89.0138 -0.731297 38.8083 0.31199 34.1886C0.575837 33.0178 0.902646 32.7335 1.60947 31.959C6.94451 32.7032 5.03223 51.9201 5.06369 57.6562C6.84043 55.7109 7.98296 54.2163 10.2124 53.1151L10.1567 52.4708C8.37753 33.4989 26.6435 32.5156 35.6191 43.425C41.92 40.4571 55.4779 41.3436 62.0184 44.1208C65.8188 45.4066 69.6095 47.8995 73.3905 49.0824C77.7161 50.4347 81.7755 49.9204 86.0188 52.3225C89.1705 54.1075 90.8528 57.0934 94.2683 57.3476C95.0986 58.1402 95.6093 58.7574 95.5803 60.3457C95.481 65.8851 96.1273 88.6416 94.8735 92.0845C93.6753 92.986 93.622 93.2039 92.2084 93.1736C90.284 91.3191 91.0973 88.7082 90.2452 87.607C88.3378 85.1474 72.8265 86.9263 69.4424 86.7871C65.5961 86.6298 61.7449 85.7524 57.8937 85.8432C51.0772 86.0005 38.7732 88.3059 32.4264 85.6103C31.3855 85.1656 30.6738 84.0341 29.9597 83.0388C24.6319 82.2643 11.58 82.6968 5.50184 82.6938Z" fill="#3F5160"/>
<path d="M10.212 53.1158L10.1563 52.4715C8.37713 33.4996 26.6431 32.5163 35.6188 43.4257L36.1682 44.2516L35.8632 46.6265C35.3283 46.9411 34.5247 47.2437 34.3044 47.7035L32.8472 49.2827L31.7458 49.5217C32.1137 58.4223 27.8897 58.2468 22.0851 58.5856L23.9562 59.3299L24.2878 60.1861C23.961 60.8698 23.6536 61.5656 23.2833 62.2039C18.8342 57.312 14.7336 60.8093 10.8945 54.1959L10.212 53.1158Z" fill="#01335B"/>
<path d="M21.3207 46.9468L21.2408 46.1754C22.6157 45.2224 26.8566 42.07 27.9193 41.9883C29.3765 44.4963 30.0422 46.7805 31.7463 49.5214C32.1142 58.4219 27.8903 58.2465 22.0856 58.5853C19.6311 57.1906 17.6559 54.3982 17.743 50.8677C18.6411 50.3382 19.1688 50.0448 19.999 49.3641L20.5582 48.8951L21.3207 46.9468Z" fill="#FEFEFE"/>
<path d="M21.3201 46.9473C21.8623 47.032 22.2399 47.0652 22.7894 46.9926L23.2276 47.9819C22.4433 49.2132 21.8042 49.1225 20.5576 48.8956L21.3201 46.9473Z" fill="#727273"/>
<path d="M25.1355 47.3984C25.6317 48.0156 25.6656 48.2486 25.8569 49.0654L25.2227 49.7975C24.6466 49.979 24.9298 50.0002 24.373 49.7219L25.1355 47.3984Z" fill="#034173"/>
<path d="M23.0543 54.0625C23.3811 54.4891 23.5142 54.8975 23.7175 55.4239L23.3229 56.4404L22.7517 56.6159L22.4951 55.9957L23.0543 54.0625Z" fill="#727273"/>
<path d="M28.5386 53.3972L29.3035 53.373L28.5942 55.4273C28.2142 55.0309 28.0883 54.7102 27.8535 54.1717L28.5386 53.3972Z" fill="#034173"/>
<path d="M36.1686 44.2514C38.2769 43.6554 39.0322 43.3468 41.2035 43.3862C41.7748 43.8914 41.8788 43.7734 41.9756 44.926C42.7987 54.7341 40.5112 62.9661 38.5626 72.1752C38.2697 73.5548 38.4682 83.2237 38.5214 85.2386C36.2194 84.924 33.9755 84.679 31.7074 84.1011C29.8895 63.5561 35.9532 65.0022 35.8636 46.6263L36.1686 44.2514Z" fill="#FEFEFE"/>
<path d="M23.819 64.7023C20.0598 64.6327 5.48286 65.8459 6.04203 58.9028C7.29349 56.2616 8.61994 55.3056 10.8953 54.1953C14.7344 60.8087 18.835 57.3114 23.2841 62.2034L23.6713 62.6148L23.819 64.7023Z" fill="#FEFEFE"/>
<path d="M34.3051 47.7031C34.9199 50.9251 35.3532 57.7805 32.1047 58.9846L31.456 58.5913C31.3083 56.8033 32.2427 55.0365 32.9543 53.4422C32.9592 51.9174 32.9519 50.8253 32.8478 49.2823L34.3051 47.7031Z" fill="#FEFEFE"/>
<path d="M23.6709 62.6152L25.5614 63.6408L25.6244 64.2973C24.8522 64.5181 24.6053 64.618 23.8186 64.7027L23.6709 62.6152Z" fill="#EDEDED"/>
<path d="M43.731 43.148L44.4257 43.0694C50.8404 42.4098 57.7488 43.2993 63.8246 46.013C66.9932 47.4289 70.1763 49.2501 73.4223 50.3423C79.9701 52.5387 85.155 51.5342 90.7128 57.4941C90.0713 66.6276 91.3543 76.0606 90.4659 85.0216L89.7204 85.7235C87.8347 86.2378 86.0555 85.6267 84.1892 85.1941C79.6748 84.3137 75.5138 85.7417 71.038 85.8416C66.9496 85.9293 62.9435 84.3924 58.8696 84.3954C52.2032 84.3954 46.6721 86.0382 39.7249 85.3C39.4369 81.3399 39.4368 77.7245 39.783 73.7674C40.3058 67.8136 42.3247 62.1713 42.7628 56.2205C43.0387 52.4449 42.3682 46.4426 43.731 43.148Z" fill="#FEFEFE"/>
<path d="M5.39256 65.4871C14.0826 65.2329 22.7363 65.8108 31.4627 65.4023C30.5017 69.0963 30.187 72.5633 30.1119 76.4266C28.1246 78.1844 8.73785 76.9258 5.26426 76.6445C5.14081 72.9082 5.25701 69.2173 5.39256 65.4871Z" fill="#FEFEFE"/>
<path d="M1.45181 33.3574L2.9381 33.7719C3.13659 34.0291 3.40527 34.2227 3.53114 34.5434C4.60348 37.239 3.78771 70.9079 3.99346 77.6241C12.4027 79.1761 21.1968 77.6514 29.6908 78.4773L30.2112 79.3002C30.1749 80.5648 30.2354 80.5587 29.5262 81.4482C26.9143 81.6781 24.2323 81.4905 21.6131 81.4391C15.8666 81.3695 10.1201 81.3695 4.37351 81.4452C4.31784 84.3162 4.49939 88.7211 3.41011 91.2502L2.59682 91.4711L1.7181 90.6331C0.757117 84.0893 0.701419 39.0935 1.45181 33.3574Z" fill="#FEFEFE"/>
<path d="M92.0363 57.832C92.9537 58.1618 93.5323 58.2858 94.1471 59.2418C94.6215 64.4393 95.2557 89.0353 93.4015 92.0485L92.1355 91.0713C90.993 87.6709 91.3101 62.4789 92.0363 57.832Z" fill="#FEFEFE"/>
<path d="M29.3763 59.1055C30.3905 59.3777 31.2087 59.6924 32.1648 60.2309C32.6441 61.7103 32.3149 62.1611 31.9349 63.6465C30.8868 63.4801 29.95 63.229 28.9406 62.8811C28.4104 61.4077 28.9575 60.5909 29.3763 59.1055Z" fill="#FEFEFE"/>
<path d="M4.85547 61.7266C5.92538 62.4163 6.93966 63.5055 7.91759 64.3949C6.71454 64.5522 6.21345 64.876 5.17743 64.0319L4.85547 61.7266Z" fill="#EDEDED"/>
<path d="M70.8733 13.291L72.3717 13.9898L73.4029 14.3015C73.5844 15.2242 73.7781 16.0803 74.1097 16.9335C77.1839 18.0438 80.5751 14.2077 82.9715 20.0314C84.7991 24.4696 82.4463 29.7548 79.3818 32.0844C75.7509 34.8495 68.5157 29.9 67.2279 30.8621C66.8963 32.2447 66.9713 32.5261 66.2644 33.5729L64.2529 33.6878C63.2363 32.6955 63.0184 31.7455 63.0451 30.1693C64.8266 25.2834 70.5949 26.9776 73.2261 24.76C74.2791 19.7834 67.6466 18.6156 70.8733 13.291Z" fill="#EDEDED"/>
<path d="M72.3712 13.9902L73.4023 14.3019C73.5839 15.2246 73.7775 16.0807 74.1092 16.9339C77.1833 18.0442 80.5746 14.208 82.971 20.0318C84.7986 24.47 82.4458 29.7552 79.3813 32.0847C75.7503 34.8499 68.5151 29.9004 67.2274 30.8625C66.8957 32.2451 66.9707 32.5265 66.2639 33.5733C65.8524 32.0818 65.896 32.1604 65.9637 30.569C68.1592 27.1807 72.4704 33.5158 78.914 30.5267L79.0399 28.5693L79.4127 27.3683L78.9625 27.0234C79.6282 26.1642 79.4539 26.5 79.7468 25.2657L79.0738 24.1281C77.6094 23.7893 78.3331 23.7167 76.8541 24.594C75.9173 23.7954 76.1182 24.0041 74.9902 23.5473L73.5257 20.1044L74.7361 18.8277C72.6011 17.6721 72.6689 16.6525 72.3712 13.9902Z" fill="#034173"/>
<path d="M74.7367 18.8264C81.1295 15.6316 84.2643 21.3495 81.0594 28.4016L79.4133 27.3669L78.9631 27.022C79.6288 26.1628 79.4545 26.4986 79.7474 25.2643L79.0745 24.1268C77.61 23.7879 78.3337 23.7153 76.8547 24.5927C75.9179 23.794 76.1189 24.0027 74.9909 23.5459L73.5264 20.1031L74.7367 18.8264Z" fill="#FEFEFE"/>
<path d="M79.4127 27.3672L81.0588 28.4019L78.9141 30.5257L79.0399 28.5683L79.4127 27.3672Z" fill="#EDEDED"/>
<path d="M70.8733 13.291L72.3717 13.9898C72.6694 16.6521 72.6016 17.6717 74.7366 18.8274L73.5263 20.104L74.9908 23.5469C70.6264 32.6834 65.364 21.3565 64.2529 33.6878C63.2363 32.6955 63.0184 31.7455 63.0451 30.1693C64.8266 25.2834 70.5949 26.9776 73.2261 24.76C74.2791 19.7834 67.6466 18.6156 70.8733 13.291Z" fill="#3F5160"/>
<path d="M70.873 13.291L72.3715 13.9898C72.6692 16.6521 72.6014 17.6717 74.7363 18.8274L73.526 20.104C71.2724 18.4915 71.3354 16.2468 70.873 13.291Z" fill="#EDEDED"/>
<path d="M76.855 24.5939C78.334 23.7166 77.6102 23.7892 79.0747 24.128L79.7476 25.2655C79.4547 26.4999 79.629 26.164 78.9634 27.0232L79.4136 27.3681L79.0408 28.5692L77.9394 27.7342C76.7993 27.7493 76.671 27.8371 75.6035 27.4256L75.8528 26.6269C75.7197 25.441 75.7682 26.0158 75.7004 24.8995L76.855 24.5939Z" fill="#034173"/>
<path d="M47.7508 9.10156L48.385 9.84582C48.6803 11.3282 48.8474 12.4173 49.7261 13.5609C51.4205 13.7485 53.0011 13.21 54.681 13.1616C56.2472 13.1162 57.7867 13.7061 58.9123 15.119C60.1226 16.6377 60.9698 19.3665 60.9141 21.5175C60.8439 24.3039 59.5102 26.7181 57.869 28.4879C56.3488 30.1337 54.5527 31.3317 52.6138 31.9973C46.693 34.0757 46.1944 29.453 41.5443 29.0204C40.6947 30.3122 40.7795 31.4406 40.6003 33.0773C39.9952 32.5207 39.9201 32.2907 39.6006 31.4739C39.6635 29.9854 39.6708 29.7162 40.334 28.491C43.5825 26.6788 45.6885 30.7872 48.8135 31.2894C51.5609 31.7281 54.4583 30.3031 56.6006 28.2338C58.3507 26.5426 59.7256 22.6763 59.8636 19.9474C59.9313 18.6374 59.6481 17.3547 58.8372 16.4562C56.1116 13.4429 52.839 15.6635 49.8592 15.1159C49.2347 15.001 48.9127 14.762 48.5085 14.169C47.6758 12.9498 47.5523 11.6368 47.6661 10.103C47.6903 9.76715 47.7217 9.43435 47.7508 9.10156Z" fill="#3F5160"/>
<path d="M22.8991 11.2461L23.8262 11.2642C24.2111 12.5046 24.2643 12.8253 24.4773 14.1353C26.1621 15.0338 28.0114 13.0946 30.3715 14.1534C34.1937 15.8749 34.8521 19.475 33.1988 23.7316C32.0418 26.7116 29.6066 28.9836 27.0843 29.867C22.369 32.1542 19.3528 25.3018 17.4309 28.0488C17.3462 28.1698 17.0896 29.74 17.0581 29.9184L16.5159 29.8186C16.223 28.4753 16.2133 28.5752 16.5425 27.2471C19.2609 25.2655 30.4054 33.4823 32.5331 22.1796C33.7362 15.7931 29.4735 13.3971 25.2519 16.126C23.1484 14.695 23.1847 14.0385 22.8991 11.2461Z" fill="#3F5160"/>
<path d="M21.0954 10.7246L22.8988 11.245C23.1844 14.0374 23.1481 14.6939 25.2516 16.1249L23.8622 16.9538L25.1911 19.8884C25.8156 20.6205 26.0674 20.9956 26.7766 21.5856C26.1351 22.6626 26.0456 23.1557 25.651 24.3991C24.949 23.9242 24.5907 23.9272 23.7823 23.6912C19.7326 25.3188 15.2593 22.1846 15.0971 29.0158L15.0801 29.9173L14.5162 30.4407C13.8771 29.5301 13.8868 29.3607 13.9522 27.7936C14.2596 20.1667 20.345 25.6304 23.47 21.7005C24.6126 16.6785 18.3964 15.8889 21.0954 10.7246Z" fill="#034173"/>
<path d="M21.0957 10.7246L22.8991 11.245C23.1847 14.0374 23.1484 14.6939 25.2519 16.1249L23.8625 16.9538C21.8679 15.8375 21.8122 13.163 21.0957 10.7246Z" fill="#EDEDED"/>
<path d="M25.191 19.8887C25.8156 20.6208 26.0673 20.9959 26.7766 21.5859C26.1351 22.6629 26.0456 23.156 25.651 24.3995C24.949 23.9245 24.5907 23.9275 23.7822 23.6915C24.5568 22.4088 24.7602 21.3892 25.191 19.8887Z" fill="#EDEDED"/>
<path d="M44.9092 9.08203L45.541 9.78995L45.7007 10.6764C45.7419 10.9003 45.8799 11.593 45.9065 11.8199C46.3543 15.6924 50.1426 17.8978 50.162 21.9215C50.1813 26.3022 42.4958 24.8803 40.2737 25.7849C37.2261 27.0223 38.8698 30.931 37.018 33.0276C36.5411 31.3788 36.3135 28.8133 36.9792 27.2008C38.4945 23.525 44.7155 25.0679 47.5065 23.5794C48.2593 22.4479 48.3537 22.2331 48.5425 20.787C48.0632 18.5574 46.9232 17.1113 45.8508 15.29C44.8632 13.617 44.396 12.1649 44.73 10.0713C44.7833 9.74156 44.8486 9.41179 44.9092 9.08203Z" fill="#3F5160"/>
<path d="M36.9528 3.08594L37.4878 3.23418C38.2067 4.18111 39.0515 4.39591 39.8092 5.16737C40.6419 6.01144 40.499 6.48945 40.5498 7.74496C40.1069 8.78567 39.7196 9.45732 39.0297 10.259L37.3692 9.70234L35.3818 10.5555C34.1449 9.87481 35.3141 8.80987 33.3945 6.6044C33.6681 6.03564 33.852 5.79364 34.3482 5.53346C35.2439 5.06453 35.8248 4.83157 36.4663 3.85741C36.6333 3.60328 36.7906 3.34309 36.9528 3.08594Z" fill="#3F5160"/>
<path d="M37.2726 5.40039C38.2118 5.99638 38.5724 5.89354 38.9742 7.16418L37.9963 8.78879C36.7933 8.56189 36.5367 8.48927 35.5781 7.5726L35.6701 6.52883L37.2726 5.40039Z" fill="#FEFEFE"/>
<path d="M81.4896 35.2598L81.9978 35.3627C82.6103 36.0736 82.39 35.8951 82.9516 36.3338C83.3171 36.6212 83.8569 36.9388 84.1571 37.3261C84.8784 38.27 84.7429 39.0384 84.7768 40.2576C84.2926 41.3195 84.1764 41.7219 83.3558 42.3482L81.8599 41.6856C81.1967 41.7279 80.4027 42.1878 79.7612 42.4389C79.0883 41.6432 78.931 39.4619 78.718 38.276L78.2266 37.6286C78.3355 37.5863 78.4371 37.5016 78.5509 37.5016C78.747 37.4986 78.9382 37.5772 79.1319 37.6165C80.0275 37.1022 80.5528 36.4669 81.2257 35.6017L81.4896 35.2598Z" fill="#3F5160"/>
<path d="M63.4391 5.32227C64.0927 5.40395 64.3081 5.53103 64.8479 6.05441C66.1139 7.28875 66.2373 7.37344 66.4455 9.36411C66.0873 10.4563 65.8549 10.8647 65.0779 11.5424L63.4391 10.9675L61.8004 11.618C61.1516 10.8344 61.292 9.56984 61.2073 8.46256L60.7305 7.71834C61.7423 7.02252 62.558 6.25407 63.4391 5.32227Z" fill="#3F5160"/>
<path d="M62.7738 7.19141C63.7711 7.44856 64.1511 7.4667 64.9185 8.27143L64.887 9.86276C63.8485 9.64494 63.316 9.75386 62.5293 8.80995L62.7738 7.19141Z" fill="#EDEDED"/>
<path d="M53.5366 22.6216L54.2071 21.5566C55.0422 22.2131 55.9088 22.7879 56.7778 23.3658L56.0008 23.6592L55.6304 24.346C55.7248 25.6287 55.7176 25.3383 55.6014 26.5999C53.5318 28.6329 55.1681 25.7467 51.3459 26.5333L50.915 25.9434C51.0482 24.113 51.2781 23.8075 52.1157 22.2585L53.5366 22.6216Z" fill="#034173"/>
<path d="M53.5361 22.6216L54.2066 21.5566C55.0418 22.2131 55.9083 22.7879 56.7773 23.3658L56.0003 23.6592C54.9498 23.8438 54.2962 23.3386 53.5361 22.6216Z" fill="#034173"/>
<path d="M26.7769 21.5853C28.3431 21.1496 28.2729 21.2041 29.8559 21.7275L30.2505 22.7561C29.6599 24.6197 30.1028 23.815 28.7473 25.137C27.5104 25.0311 26.7479 25.0675 25.6514 24.3989C26.0459 23.1555 26.1355 22.6623 26.7769 21.5853Z" fill="#034173"/>
</g>
<defs>
<clipPath id="clip0_407_8717">
<rect width="96" height="96" fill="white"/>
</clipPath>
</defs>
</svg>
