<svg width="96" height="96" viewBox="0 0 96 96" fill="none" xmlns="http://www.w3.org/2000/svg">
<g clip-path="url(#clip0_407_13839)">
<rect width="96" height="96" fill="white"/>
<path d="M38.6296 31.2379C42.9004 30.3869 45.5241 27.7197 50.6203 29.8085C51.5637 30.1953 54.0289 31.2011 54.8322 31.2342C57.817 35.3493 58.4987 38.0497 58.6388 43.1595C62.0142 43.4284 65.5112 43.7047 67.7406 46.6482C71.3887 51.4633 73.3859 60.9902 75.1141 66.8773C71.923 71.1066 70.1321 75.6342 64.4352 71.4713L63.6945 70.8708C63.0902 70.0787 62.449 69.0177 61.8926 68.163C60.2639 68.3693 59.6927 68.4688 58.0418 68.3251C56.2436 68.4136 54.2722 68.3435 52.4555 68.3141L50.7567 68.4651L49.9571 68.7377C46.3348 67.9052 43.7332 70.1156 40.0667 70.7492C38.8839 70.9518 37.2514 70.9039 36.0206 70.8745C38.6038 70.1892 41.0653 69.4745 43.7222 69.1724L43.1879 68.4062L33.3454 68.3988C30.9244 72.8602 24.1957 78.493 21.5426 70.7787C21.0672 69.3972 20.1865 67.8425 19.4863 66.5457C20.286 64.0295 21.6052 61.4065 22.5227 58.8866C25.5001 50.6749 24.4721 44.5299 34.8525 43.9221C35.2468 40.4701 35.4163 36.6498 37.2772 33.7394L38.4601 32.0631L38.6296 31.2379Z" fill="#F9F8F9"/>
<path d="M38.6297 31.2379C42.9006 30.3869 45.5242 27.7197 50.6205 29.8085C51.5638 30.1953 54.0291 31.2011 54.8324 31.2342C57.8172 35.3493 58.4989 38.0497 58.6389 43.1595C62.0143 43.4284 65.5113 43.7047 67.7407 46.6482C71.3888 51.4633 73.3861 60.9902 75.1143 66.8773C71.9231 71.1066 70.1323 75.6342 64.4353 71.4713L63.6947 70.8708C63.0903 70.0787 62.4492 69.0177 61.8927 68.163C60.3524 63.7606 57.3381 55.2799 55.433 51.1722L54.7071 48.6561L55.094 48.3171C54.1912 47.3372 53.7638 47.013 53.3253 45.742C53.41 44.2241 53.5426 43.4026 53.0673 41.9253L53.1705 40.3485C51.2175 40.5622 50.6279 41.3359 49.0618 40.8312C47.164 40.3965 46.8803 40.1496 45.2773 39.037L44.9088 40.437C43.597 42.4742 43.0774 41.5938 40.9733 41.7522L40.2069 42.1906C39.8789 39.7186 40.1332 39.1439 40.5496 36.7161L40.3285 36.4766L39.2046 38.0645C39.2414 36.414 40.9438 35.9498 40.2142 34.0857C39.0019 33.5883 38.6039 33.6731 37.2773 33.7394L38.4602 32.0631L38.6297 31.2379Z" fill="#F9F8F9"/>
<path d="M38.6297 31.2379C42.9006 30.3869 45.5242 27.7197 50.6205 29.8085C51.5638 30.1953 54.0291 31.2011 54.8324 31.2342C54.9798 32.6305 55.89 34.5793 55.8863 35.2277C56.5422 36.4324 57.165 37.405 57.3898 38.7681C57.0102 38.7571 56.7043 38.8086 56.3211 38.8492C55.5141 36.9335 53.4431 34.8962 52.0097 33.4115L50.521 32.9289L50.2041 33.231C51.1733 34.3657 53.539 36.333 53.8116 37.2466C52.9789 37.4271 52.7946 37.2724 52.0097 36.9556L51.6633 37.3608C52.5219 38.5913 52.7614 38.8676 53.1705 40.3485C51.2175 40.5622 50.6279 41.3359 49.0618 40.8312C47.164 40.3965 46.8803 40.1496 45.2773 39.037L44.9088 40.437C43.597 42.4742 43.0774 41.5938 40.9733 41.7522L40.2069 42.1906C39.8789 39.7186 40.1332 39.1439 40.5496 36.7161L40.3285 36.4766L39.2046 38.0645C39.2414 36.414 40.9438 35.9498 40.2142 34.0857C39.0019 33.5883 38.6039 33.6731 37.2773 33.7394L38.4602 32.0631L38.6297 31.2379Z" fill="#032C4D"/>
<path d="M52.009 33.4131L50.8262 32.2526L50.933 31.7773C53.0593 32.5068 54.3084 33.7078 55.8856 35.2293C56.5415 36.434 57.1643 37.4066 57.3891 38.7697C57.0095 38.7586 56.7037 38.8102 56.3204 38.8507C55.5134 36.935 53.4425 34.8977 52.009 33.4131Z" fill="#E9E8E9"/>
<path d="M51.662 37.3622C50.667 36.9643 49.2704 36.6549 48.9277 35.6381L49.6279 35.5312C50.8844 35.9586 51.0208 36.0654 52.0083 36.957L51.662 37.3622Z" fill="#E9E8E9"/>
<path d="M45.277 39.0373L45.207 38.3926C46.4525 38.6726 47.9597 39.9988 49.0615 40.8314C47.1637 40.3967 46.88 40.1499 45.277 39.0373Z" fill="#B7B6B7"/>
<path d="M42.0343 38.123C42.6903 38.7899 42.8377 39.1325 42.9593 40.0535L42.2223 40.4919L41.8906 40.2929L42.0343 38.123Z" fill="#E9E8E9"/>
<path d="M58.6973 44.8446C60.1676 43.1868 64.5121 44.4872 65.9861 45.7693C68.8493 48.267 68.7682 52.3268 70.9497 55.3772L70.8023 56.6593C71.8451 57.4624 72.2726 59.9454 72.6853 61.4006L71.7272 61.7616C70.5406 60.0265 68.3407 57.4661 66.9736 55.6646C64.5747 52.4963 61.4389 47.6002 58.6973 44.8446Z" fill="#F9F8F9"/>
<path d="M70.9497 55.377L70.8023 56.659C70.1316 56.4711 69.8184 56.2721 69.2178 55.948L69.402 55.6238L70.9497 55.377Z" fill="#57646F"/>
<path d="M55.8859 35.2279C55.8896 34.5795 54.9794 32.6306 54.832 31.2344C57.8168 35.3494 58.4985 38.0498 58.6386 43.1596C62.014 43.4285 65.511 43.7048 67.7404 46.6484C71.3885 51.4634 73.3857 60.9903 75.1139 66.8774C71.9228 71.1067 70.1319 75.6344 64.435 71.4714L63.6943 70.8709C63.09 70.0788 62.4488 69.0178 61.8924 68.1632C60.3521 63.7607 57.3378 55.2801 55.4327 51.1724L56.2249 51.1282C59.6851 59.1594 63.8454 82.1404 73.9974 66.9032C73.9569 66.638 73.7615 66.1591 73.662 65.8828L72.9619 66.8332C72.9656 66.6306 72.9693 66.428 72.9767 66.2253L72.9693 65.9343C72.9398 64.3355 72.3502 63.2265 71.7275 61.7603L72.6855 61.3993C72.2728 59.9441 71.8454 57.461 70.8025 56.6579L70.9499 55.3759C68.7685 52.3255 68.8495 48.2657 65.9863 45.7679C64.5124 44.4859 60.1678 43.1854 58.6975 44.8432L58.4838 44.729C57.78 43.3954 57.5884 40.4003 57.3894 38.7683C57.1646 37.4052 56.5418 36.4325 55.8859 35.2279Z" fill="#032C4D"/>
<path d="M71.7266 61.7614L72.6846 61.4004C73.3664 63.3014 74.096 64.8781 73.9965 66.9044C73.956 66.6391 73.7606 66.1602 73.6612 65.8839L72.961 66.8343C72.9647 66.6317 72.9684 66.4291 72.9758 66.2265L72.9684 65.9355C72.9389 64.3366 72.3493 63.2277 71.7266 61.7614Z" fill="#E9E8E9"/>
<path d="M58.6973 44.8438C61.4389 47.5994 64.5747 52.4955 66.9736 55.6638C68.3407 57.4653 70.5406 60.0256 71.7272 61.7608C72.3499 63.2271 72.9395 64.336 72.969 65.9349L72.9764 66.2259C72.969 66.4285 72.9653 66.6311 72.9616 66.8337C72.1473 65.047 71.6019 63.4149 70.5591 61.7534C67.6259 57.0931 60.665 49.6293 58.6973 44.8438Z" fill="#032C4D"/>
<path d="M55.0939 48.3184C55.4624 49.2025 55.9267 50.2341 56.2252 51.1293L55.433 51.1735L54.707 48.6573L55.0939 48.3184Z" fill="#757575"/>
<path d="M37.2772 33.7402C38.6038 33.6739 39.0017 33.5892 40.2141 34.0865C40.9437 35.9506 39.2413 36.4148 39.2044 38.0653L40.3283 36.4774L40.5494 36.7169C40.133 39.1447 39.8788 39.7194 40.2068 42.1914L40.9732 41.753C40.999 42.6667 41.1575 45.2602 40.9437 45.9786C41.596 47.6659 42.2666 48.3511 43.6632 49.5411L43.0184 50.1194C42.0934 49.239 41.5702 48.7527 40.531 47.979C38.4417 50.1784 34.7236 64.2183 33.6144 67.7328C38.2685 67.6813 58.6351 67.0844 61.8926 68.1638C60.2639 68.3702 59.6927 68.4696 58.0418 68.326C56.2436 68.4144 54.2722 68.3444 52.4555 68.3149L50.7567 68.466L49.9571 68.7386C46.3348 67.906 43.7332 70.1164 40.0667 70.75C38.8839 70.9527 37.2514 70.9048 36.0206 70.8753C38.6038 70.1901 41.0653 69.4754 43.7222 69.1733L43.1879 68.407L33.3454 68.3996C30.9244 72.861 24.1957 78.4939 21.5426 70.7795C21.0672 69.398 20.1865 67.8433 19.4863 66.5466C20.286 64.0304 21.6052 61.4074 22.5227 58.8875C25.5001 50.6758 24.4721 44.5308 34.8525 43.9229C35.2468 40.471 35.4163 36.6506 37.2772 33.7402Z" fill="#F9F8F9"/>
<path d="M37.2772 33.7402C38.6038 33.6739 39.0017 33.5892 40.2141 34.0865C40.9437 35.9506 39.2413 36.4148 39.2044 38.0653L38.0953 38.0358L37.8484 38.6326L37.6715 38.3195L36.566 37.4058L36.4739 37.7374C35.8733 39.9294 35.7627 44.4424 35.2173 45.6691C32.0188 52.8456 24.0188 60.0921 21.6604 67.4786L21.3546 67.6112C20.9972 64.2846 25.7213 60.0737 26.5172 56.6844L26.0897 56.3971C22.567 57.9075 21.6862 63.0725 20.2344 66.5466C22.1874 69.7369 23.4587 76.1729 28.5697 72.8168C29.7194 72.0616 30.7217 70.8458 31.4697 69.678C35.2026 61.9783 36.2123 54.2787 40.251 46.5128L40.7042 45.6396L40.9437 45.9786C41.596 47.6659 42.2666 48.3511 43.6632 49.5411L43.0184 50.1194C42.0934 49.239 41.5702 48.7527 40.531 47.979C38.4417 50.1784 34.7236 64.2183 33.6144 67.7328C38.2685 67.6813 58.6351 67.0844 61.8926 68.1638C60.2639 68.3702 59.6927 68.4696 58.0418 68.326C56.2436 68.4144 54.2722 68.3444 52.4555 68.3149L50.7567 68.466L49.9571 68.7386C46.3348 67.906 43.7332 70.1164 40.0667 70.75C38.8839 70.9527 37.2514 70.9048 36.0206 70.8753C38.6038 70.1901 41.0653 69.4754 43.7222 69.1733L43.1879 68.407L33.3454 68.3996C30.9244 72.861 24.1957 78.4939 21.5426 70.7795C21.0672 69.398 20.1865 67.8433 19.4863 66.5466C20.286 64.0304 21.6052 61.4074 22.5227 58.8875C25.5001 50.6758 24.4721 44.5308 34.8525 43.9229C35.2468 40.471 35.4163 36.6506 37.2772 33.7402Z" fill="#032C4D"/>
<path d="M40.2145 34.0859C40.9442 35.9501 39.2417 36.4143 39.2049 38.0647L38.0957 38.0352C38.7479 36.2632 39.168 35.6774 40.2145 34.0859Z" fill="#E9E8E9"/>
<path d="M36.5664 37.4062C37.1191 36.2125 37.3992 35.3836 38.3057 34.4258C38.4236 36.1978 37.554 36.5551 37.6719 38.3198L36.5664 37.4062Z" fill="#E9E8E9"/>
<path d="M52.4551 68.3136C54.4302 67.8568 56.0515 67.691 58.0414 68.3247C56.2432 68.4131 54.2718 68.3431 52.4551 68.3136Z" fill="#919192"/>
<path d="M43.1875 68.4062L45.2253 68.5352C44.6025 69.062 44.5583 68.9662 43.7218 69.1725L43.1875 68.4062Z" fill="#E9E8E9"/>
<path d="M30.8981 44.8849C32.1288 44.8113 33.2748 44.6565 34.4614 45.0728C34.454 45.1944 34.454 45.3197 34.443 45.4412C34.2624 47.578 29.5052 54.0103 27.8432 55.3181C26.8078 55.5723 25.4996 56.0807 24.4568 55.9297C24.1767 55.0344 24.2947 54.4118 24.5784 53.5314C25.6728 50.1126 27.6369 46.5317 30.8981 44.8849Z" fill="#F9F8F9"/>
<path d="M40.207 42.1903L40.9735 41.752C40.9993 42.6656 41.1577 45.2591 40.944 45.9775L40.7045 45.6386L40.2512 46.5117C40.3581 45.1707 40.2513 43.5571 40.207 42.1903Z" fill="#57646F"/>
<path d="M40.9728 41.7527C43.0769 41.5943 43.5965 42.4748 44.9083 40.4375L45.2916 40.618C48.479 42.0879 51.0659 41.2996 52.912 43.7016C53.4353 45.9267 52.0018 48.1261 50.3326 49.5445C47.5246 50.9886 46.5002 51.2833 43.6628 49.5408C42.2663 48.3508 41.5956 47.6656 40.9434 45.9783C41.1571 45.2599 40.9986 42.6664 40.9728 41.7527Z" fill="#F9F8F9"/>
<path d="M46.2168 47.9897L46.9685 47.7871L47.3223 48.266L46.5816 48.5239L46.2168 47.9897Z" fill="#57646F"/>
<path d="M45.2767 39.0371C46.8796 40.1497 47.1634 40.3965 49.0611 40.8312C50.6272 41.3359 51.2168 40.5623 53.1698 40.3486L53.0667 41.9254C53.542 43.4027 53.4094 44.2242 53.3246 45.742C53.7631 47.013 54.1906 47.3372 55.0934 48.3172L54.7065 48.6561L54.1721 48.8956C53.3246 52.1044 53.2177 53.438 50.9036 55.8326L50.5351 55.2763C53.0372 52.8007 53.0814 49.835 53.5531 46.4825C52.6282 48.0335 52.2228 48.8551 50.8926 50.0855L50.3325 49.544C52.0017 48.1256 53.4352 45.9262 52.9119 43.7011C51.0658 41.2991 48.4789 42.0875 45.2915 40.6175L44.9082 40.437L45.2767 39.0371Z" fill="#032C4D"/>
<path d="M53.0667 41.9258C53.5421 43.4031 53.4094 44.2246 53.3247 45.7424C52.8199 43.9704 52.7719 43.7199 53.0667 41.9258Z" fill="#757575"/>
<path d="M50.3322 49.5447L50.8923 50.0862C47.598 52.024 46.1682 52.1419 43.0176 50.1194L43.6624 49.541C46.4998 51.2836 47.5242 50.9888 50.3322 49.5447Z" fill="#043E6D"/>
<path d="M44.5176 54.8945C46.8022 56.3829 47.9998 56.8766 50.5351 55.2777L50.9036 55.834C49.1385 56.7808 48.3978 57.3371 46.419 56.696C45.8994 56.5302 45.3909 56.3276 44.9008 56.0918L44.5176 54.8945Z" fill="#57646F"/>
<path d="M44.9011 56.0908C43.4272 54.9966 42.5317 53.4051 41.7173 51.8173L42.4322 51.9352L41.5957 51.0879C42.6201 51.6147 43.7698 53.7625 44.5179 54.8935L44.9011 56.0908Z" fill="#606A72"/>
<path d="M38.2314 54.9648C39.5138 55.569 41.7616 61.4635 42.8597 62.996C42.7529 62.9408 42.646 62.8855 42.5428 62.8229C40.0555 61.3014 38.88 57.621 38.2314 54.9648Z" fill="#57646F"/>
<path d="M81.3782 67.9685C83.1285 67.6295 84.0829 67.5006 85.8996 67.9943L87.0861 68.5248C88.6449 71.4352 91.6923 70.0242 96.0332 72.0983C92.842 71.7483 90.5315 71.3615 87.3809 70.7389C87.1709 72.7614 87.2446 75.8892 86.6218 77.6464C83.0917 81.4484 72.9839 74.9571 78.5408 69.2616C79.8563 67.9132 79.4031 68.44 81.3782 67.9685Z" fill="#032C4D"/>
<path d="M81.3779 67.9685C83.1283 67.6295 84.0827 67.5006 85.8994 67.9943C84.3738 68.1564 82.9072 68.0385 81.3779 67.9685Z" fill="#919192"/>
<path d="M85.8512 70.4635L86.1976 70.4082L86.5587 70.7545C86.4592 72.3866 86.4408 74.1217 86.1349 75.728C85.9912 76.4685 85.7443 77.2384 85.0921 77.6584C83.8797 78.4394 81.7314 77.8463 80.3864 77.6068C80.2906 75.2085 79.4947 72.8692 78.8535 70.5703C81.2414 70.7066 83.4634 70.6956 85.8512 70.4635Z" fill="#F9F8F9"/>
<path d="M82.9591 68.5572C84.002 68.4651 84.7795 68.4725 85.7818 68.7856L85.966 69.2571C85.1406 70.005 84.1752 69.924 83.1176 69.9866C81.9826 69.994 80.4055 70.1818 79.5469 69.375C80.505 68.6235 81.7836 68.6677 82.9591 68.5572Z" fill="#F9F8F9"/>
<path d="M77.5946 71.9297C78.667 72.5818 79.2123 74.9985 79.5882 76.1995C79.0207 75.8311 78.4016 75.2822 78.0147 74.7296C77.4067 73.8602 77.4509 72.9281 77.5946 71.9297Z" fill="#F9F8F9"/>
<path d="M50.0041 77.7344C51.1685 79.0643 51.6623 79.1785 53.6374 79.3148C54.7908 79.3812 55.9442 79.4327 57.0976 79.4659C58.1994 78.6959 59.0948 78.3607 60.3145 77.8228L60.3588 78.4307L59.8466 78.9059L60.0419 79.4401C61.151 78.777 61.3279 78.6665 62.5882 78.4086C60.9705 79.8748 59.268 81.5989 57.3224 82.5273C55.0819 83.5994 42.6084 81.7463 41.2266 79.9006L41.643 79.6538L43.8171 80.2616L44.134 79.8822C44.871 78.8101 44.4804 79.1564 45.7812 78.6628C46.894 78.6812 48.8581 78.0475 50.0041 77.7344Z" fill="#B7B6B7"/>
<path d="M57.3224 82.5278C55.0819 83.5999 42.6084 81.7468 41.2266 79.9011L41.643 79.6543L43.8171 80.2621L44.134 79.8827C45.3942 80.2106 45.4458 80.45 46.4776 80.1258C48.309 80.1295 49.7903 80.7005 51.5407 81.2421L51.994 81.29L51.8908 81.9458C53.7038 82.211 55.3841 82.6715 57.0902 82.1557L57.3224 82.5278Z" fill="#043E6D"/>
<path d="M44.1353 79.8828C45.3955 80.2107 45.4471 80.4501 46.4789 80.1259C48.3103 80.1296 49.7916 80.7006 51.542 81.2422L51.1403 81.8169C49.0694 81.6806 45.7272 81.0432 43.8184 80.2622L44.1353 79.8828Z" fill="#E9E8E9"/>
<path d="M51.5413 81.2422L51.9946 81.2901L51.8914 81.9459L51.1396 81.8169L51.5413 81.2422Z" fill="#919192"/>
<path d="M60.0427 79.4397C61.1518 78.7766 61.3287 78.6661 62.589 78.4082C60.9713 79.8744 59.2688 81.5986 57.3232 82.5269L57.091 82.1548C55.3849 82.6706 53.7046 82.2101 51.8916 81.9449L51.9948 81.2891C56.0003 81.6501 56.612 81.2044 59.8474 78.9055L60.0427 79.4397Z" fill="#E9E8E9"/>
<path d="M60.0425 79.4397C61.1516 78.7766 61.3285 78.6661 62.5888 78.4082C60.9711 79.8744 59.2686 81.5986 57.323 82.5269L57.0908 82.1548C57.861 81.3591 59.1876 80.2207 60.0425 79.4397Z" fill="#032C4D"/>
<path d="M60.3155 77.8242L60.3597 78.4321L59.8475 78.9073C56.6121 81.2062 56.0004 81.6519 51.9949 81.2909L51.5416 81.243C49.7913 80.7015 48.3099 80.1304 46.4785 80.1267L46.6185 79.7583C49.3601 78.8521 53.5905 82.3851 57.0985 79.4673C58.2003 78.6974 59.0958 78.3621 60.3155 77.8242Z" fill="#032C4D"/>
<path d="M16.2837 70.5332C17.5587 71.2811 19.4159 72.3015 20.5914 73.1083L16.0627 71.4947C11.6113 73.0641 7.0714 74.3609 2.46155 75.3777C6.29388 76.9176 10.5574 79.3381 14.3197 81.2648C17.2934 80.0196 26.6384 75.6061 29.0521 76.4018L29.2584 76.855C28.4624 77.3192 28.5251 77.0318 28.0571 77.0502C25.3818 77.146 19.3975 79.8169 17.0907 81.0474L17.3266 81.1874C20.8715 80.1448 24.4311 79.1501 28.0055 78.2033C27.1395 78.6381 24.4643 80.8743 24.0553 80.7822C21.3505 80.1633 20.5214 84.4699 18.6089 83.1952C19.3643 82.1969 20.2008 81.7474 21.2363 81.0401C18.4284 81.1948 17.205 83.571 14.1944 82.8047C10.9185 79.3307 8.42379 81.0032 4.86782 79.1207L4.94519 78.9144C5.74482 78.966 7.03825 79.2202 7.49887 78.8186C4.95258 76.6708 4.41088 76.5087 1.62875 78.3765L1.41504 77.9823C4.47722 75.9229 2.14832 75.3666 4.01658 74.5598C8.25057 72.7325 11.8323 72.4857 16.2837 70.5332Z" fill="#032C4D"/>
<path d="M49.957 68.7375L50.7567 68.4648C53.9773 70.4837 59.7921 71.3052 62.0989 73.7698L61.7083 74.2672L61.6162 74.7756L62.0031 75.4866L61.6014 75.8219L61.7636 76.1608L61.8852 76.9308C61.185 77.4944 61.2145 77.5017 60.3154 77.8223C59.0957 78.3601 58.2002 78.6954 57.0984 79.4654C55.9451 79.4322 54.7917 79.3806 53.6383 79.3143C51.6632 79.178 51.1694 79.0638 50.0049 77.7338C51.6337 77.2181 52.9308 76.6987 54.5116 76.0576L54.46 75.1477C57.0616 74.8124 58.5614 74.8529 60.8681 73.6041C57.419 71.5631 53.6825 70.8926 49.957 68.7375Z" fill="#F9F8F9"/>
<path d="M49.957 68.7375L50.7567 68.4648C53.9773 70.4837 59.7921 71.3052 62.0989 73.7698L61.7083 74.2672L61.6162 74.7756L62.0031 75.4866L61.6014 75.8219L61.7636 76.1608L60.7981 76.1313L60.6286 75.7224L59.2578 76.1129L58.952 75.2324C57.2532 75.4571 56.1661 75.575 54.5116 76.0576L54.46 75.1477C57.0616 74.8124 58.5614 74.8529 60.8681 73.6041C57.419 71.5631 53.6825 70.8926 49.957 68.7375Z" fill="#757575"/>
<path d="M58.9512 75.2328L61.7075 74.2676L61.6154 74.776L62.0023 75.487L61.6006 75.8222L61.7628 76.1612L60.7973 76.1317L60.6278 75.7228L59.257 76.1133L58.9512 75.2328Z" fill="#E9E8E9"/>
<path d="M61.6155 74.7754L62.0024 75.4864L61.6008 75.8216L61.7629 76.1606L60.7975 76.1311L60.6279 75.7222L61.6155 74.7754Z" fill="#919192"/>
<path d="M60.6278 75.7227L60.7974 76.1316L60.4067 76.3121C59.058 76.931 57.7757 77.6384 56.3496 77.1079C57.0719 76.3342 58.1405 76.3158 59.257 76.1132L60.6278 75.7227Z" fill="#032C4D"/>
<path d="M7.31836 43.9375C8.61914 44.2617 9.66194 45.3338 10.9222 45.8864C11.7882 46.2695 12.5731 46.6232 13.3395 47.1795C14.7361 48.1963 16.398 49.8172 16.6597 51.5414L15.6758 52.5176C14.5961 53.2839 12.9637 53.166 11.7145 52.9045C8.00373 52.1271 9.60667 48.0599 8.6228 45.82C8.36117 45.2306 7.69791 44.4864 7.31836 43.9375Z" fill="#032C4D"/>
<path d="M61.2139 18.8164C62.1867 18.9859 62.9679 19.3174 63.7086 19.9916C64.4861 20.6989 64.8952 21.6421 64.8988 22.692C64.9025 23.6167 64.5672 24.6445 63.8339 25.245C62.7616 26.1292 62.3268 26.2876 60.9854 26.0813C60.1821 26.4976 59.6404 26.6929 58.7339 26.7481L58.5645 26.2803C59.5594 25.9008 60.8049 25.6245 61.4313 24.7182C61.4977 23.5725 61.0113 22.9425 60.418 22.0178L60.1637 21.6273C60.2079 20.349 60.569 19.8848 61.2139 18.8164Z" fill="#032C4D"/>
<path d="M60.916 20.3633C61.9146 20.4406 62.4674 20.5991 63.2854 21.1848C63.9782 22.1353 63.9819 22.8795 63.9892 24.0289C63.4733 24.1137 63.1012 24.2905 62.6258 24.0215C61.4761 23.3695 61.2034 21.5459 60.916 20.3633Z" fill="#F9F8F9"/>
<path d="M90.5163 43.3322C91.3786 43.3101 92.4841 43.1001 93.2358 43.5164C91.9977 44.1243 90.8959 44.5295 90.2805 45.8263C90.0004 46.4158 89.8125 46.7473 89.3519 47.2078C87.4026 47.5725 84.801 45.4432 83.1981 44.4006C83.854 46.3568 85.3095 49.2893 84.3551 51.2382C83.3049 51.8276 82.918 51.7023 81.6909 51.6213L80.5044 50.6192L80.8803 50.1293L80.6039 49.9156L80.7144 50.6893L79.9922 49.5767L80.029 49.4404C80.9797 49.8714 81.6799 50.1403 82.7227 50.2029C84.4952 49.2819 82.1331 46.2279 82.8849 44.2827C85.6522 42.8202 86.0944 46.0179 88.7439 46.0031C89.7941 45.34 90.0594 44.43 90.5163 43.3322Z" fill="#032C4D"/>
<path d="M81.986 30.4546L80.1325 31.1399L79.7382 30.6867L80.372 29.5631C80.1915 28.3731 79.3587 27.9495 78.3711 26.7411C78.629 25.4296 79.7751 25.3485 80.6005 24.5086C80.5894 24.516 80.8032 22.9171 81.3264 21.9961C83.2794 22.3903 84.7866 22.615 86.7691 22.8508C87.6166 22.4639 88.0183 22.2061 88.9616 22.1508C88.4199 23.0129 88.4862 22.5782 88.5747 23.455L90.0081 23.9486L90.3656 24.7002C89.5696 26.568 85.402 28.2663 83.6811 27.6805L83.6737 26.8074C85.7299 25.3412 87.1044 27.43 89.2011 25.0354L89.1311 24.4054C87.7529 23.7276 83.3126 22.814 81.787 23.3334C79.3108 26.1075 79.3844 27.7985 82.1334 30.1083L81.986 30.4546Z" fill="#032C4D"/>
<path d="M25.1122 29.9395C26.1735 30.8126 26.6304 31.0852 27.1868 32.382C27.0873 34.504 26.1072 34.7987 26.612 36.4565C27.0358 37.8491 27.0689 37.6354 26.6378 38.7591C25.547 39.4222 25.3407 39.4037 24.0546 39.4332L23.4135 38.9653L23.1776 37.0128C19.7764 36.8544 18.0592 39.2822 14.3301 35.4803C17.6613 36.8139 19.9238 37.5986 23.3213 35.9776L24.8948 35.3366L25.1196 35.3955L26.0297 34.865C27.1831 32.5662 26.225 31.6194 24.1799 30.8715C24.2278 30.5436 24.7658 30.2268 25.1122 29.9395Z" fill="#032C4D"/>
<path d="M25.4121 35.8223L25.9832 36.7506C25.8211 37.9148 25.3826 38.239 24.6529 39.09L24.0449 38.1321C24.2439 37.0343 24.723 36.6401 25.4121 35.8223Z" fill="#F9F8F9"/>
<path d="M70.7212 82.041L70.8171 82.5899C69.1146 83.732 67.4711 84.9145 65.8535 86.1708C58.0009 84.8703 49.9603 84.2293 42.0598 83.2125C41.6581 83.1241 41.6434 83.0578 41.3486 82.7962C43.1395 82.1405 61.8995 84.7451 65.6397 85.1282L70.7212 82.041Z" fill="#032C4D"/>
<path d="M70.3857 76.1133C70.4889 76.117 70.5921 76.1243 70.6916 76.1243C71.1006 76.1206 71.4839 76.0949 71.8855 76.2054C73.1495 76.548 74.9477 77.6311 75.6331 78.7473C75.1835 79.5799 74.5976 79.532 73.7169 79.8046C71.5575 79.8783 69.5935 80.1804 67.7547 78.8616L67.7031 78.11C68.4033 77.0785 69.3171 76.6769 70.3857 76.1133Z" fill="#032C4D"/>
<path d="M70.2087 76.765C70.522 76.7576 70.8462 76.7576 71.1521 76.8203C72.1986 77.0266 73.6615 77.9918 74.2216 78.8944L73.3962 79.0823C71.9923 79.0786 69.6892 79.377 68.5137 78.5923C68.7348 77.5976 69.4202 77.3434 70.2087 76.765Z" fill="#F9F8F9"/>
<path d="M65.909 22.0143C67.2651 21.9849 68.3447 22.0254 69.5055 22.788C70.7178 25.2674 68.3742 26.1626 68.2379 28.2551C68.201 28.8556 68.4184 29.7361 68.4958 30.3439C67.8878 29.6992 67.3719 28.9366 66.8339 28.2293C66.2996 28.384 65.8353 28.4909 65.2789 28.524L65.1904 27.8904C68.6174 25.6137 64.833 24.5047 65.909 22.0143Z" fill="#032C4D"/>
<path d="M66.8086 22.5547C67.5456 22.702 68.2015 23.0189 68.8832 23.321C69.4765 24.3377 69.3512 24.5919 69.2259 25.7855L68.0099 26.1097C67.0444 25.0893 67.0702 23.9104 66.8086 22.5547Z" fill="#F9F8F9"/>
<path d="M20.0393 22.7331C16.8592 24.0999 15.9121 26.244 13.8265 25.5551L13.0526 27.1135L12.6031 27.154C12.5294 25.8867 12.4999 25.6693 12.8573 24.4572C13.259 24.273 13.388 24.1036 13.7159 24.2583C15.8495 25.2456 19.0222 21.8563 20.2456 22.4973C23.5695 24.2436 22.0107 24.9104 26.3332 26.1666L26.709 26.7856C26.2742 27.4008 25.6551 28.3513 25.1429 28.8412C25.0471 28.1081 24.9439 27.375 24.8813 26.6419L23.8827 26.0229L22.7293 26.3803L20.662 24.2178L20.3009 24.0189L20.0393 22.7331Z" fill="#032C4D"/>
<path d="M20.0391 22.7324C20.6729 23.6129 20.6729 23.3292 20.6618 24.2171L20.3007 24.0181L20.0391 22.7324Z" fill="#757575"/>
<path d="M79.3106 36.6067C79.3327 36.603 79.3547 36.5957 79.3769 36.5957C80.3313 36.6104 80.7698 36.7983 81.5325 37.3435C82.0484 38.154 82.1516 38.5335 82.089 39.4914C81.5731 39.4987 80.6039 37.7856 80.0291 37.2883L79.5943 37.3767C79.738 38.154 79.8559 38.8798 79.8633 39.6719C78.8942 39.2261 77.7592 38.2535 76.7274 38.4782C76.44 39.5982 77.0369 40.7329 77.4165 41.7865C77.2949 42.3759 77.0369 42.6338 76.6758 43.0943C75.7619 43.4554 75.6293 43.4701 74.6675 43.2712C74.0226 42.7223 73.7205 42.5675 73.4404 41.7497C74.4059 41.8565 75.1945 41.9338 76.1488 41.7202C76.4436 40.1213 74.8702 38.9277 74.8481 37.3104C76.2704 37.2072 77.7629 37.1999 79.1079 36.6915C79.1742 36.6657 79.2442 36.6325 79.3106 36.6067Z" fill="#032C4D"/>
<path d="M12.694 27.8164C13.3609 27.8643 13.9579 27.8643 14.599 28.0596L13.7847 28.008L14.7244 28.4132L14.3559 28.5901C12.4913 29.4927 10.9547 30.2553 11.6179 32.532C13.0403 33.4051 14.4001 33.4862 14.33 35.4792C13.4088 37.0044 13.8731 36.6839 12.5466 37.3323C9.41067 36.4371 10.3835 30.0379 12.694 27.8164Z" fill="#032C4D"/>
<path d="M11.8794 34.0646C12.4838 33.8693 13.1323 34.1935 13.335 34.7977C13.5376 35.3982 13.2171 36.0539 12.6164 36.2602C12.2221 36.4002 11.7836 36.3155 11.4704 36.0392C11.1572 35.7629 11.0134 35.3429 11.0982 34.934C11.1829 34.5251 11.4815 34.1898 11.8794 34.0646Z" fill="#F9F8F9"/>
<path d="M39.3404 21.3427L39.4695 21.2174L40.0332 21.3279C40.5196 22.4294 40.4312 21.8658 40.2727 23.0852C39.0346 23.5347 38.7803 22.9452 37.7338 22.8163C37.8149 22.8273 35.1544 24.0062 34.9886 24.0836L34.5869 23.8662C35.5708 22.4994 36.1235 22.0095 36.0461 20.4806C35.5671 20.1233 35.4418 20.0053 35.0217 19.5743C35.0475 18.4581 35.0254 17.8281 35.2649 16.7266C36.6799 17.6586 36.2857 19.3828 38.176 20.5506L39.3404 21.3427Z" fill="#032C4D"/>
<path d="M38.1767 20.5508L39.3411 21.3429C38.4788 22.0686 37.8229 22.3302 36.8574 21.8402C37.2112 20.9081 37.108 21.1992 38.1767 20.5508Z" fill="#E9E8E9"/>
<path d="M90.679 76.8613C91.3238 77.0713 92.304 77.414 92.761 77.9076C93.2289 78.4197 93.0778 78.6886 92.9968 79.3149C92.2119 80.4201 91.2169 80.7148 90.012 81.2048C89.0539 81.0501 88.3574 80.9249 87.5836 80.3059C87.2962 80.0812 87.3735 79.7901 87.333 79.4438C88.3427 78.2465 89.5956 78.1876 90.5279 77.0529C90.5795 76.9903 90.6311 76.924 90.679 76.8613Z" fill="#032C4D"/>
<path d="M91.0739 77.8379L92.0541 78.1952L92.301 78.781C91.6488 79.772 90.8934 80.0888 89.8653 80.5899C89.2425 80.4057 88.793 80.1846 88.2402 79.8641L88.3434 79.3852C89.3052 79.0168 90.0606 78.6594 90.8639 78.011C90.9339 77.9558 91.0039 77.8968 91.0739 77.8379Z" fill="#F9F8F9"/>
<path d="M0.0332031 82.9221C0.836519 82.7711 1.56614 82.7416 2.38419 82.7821C6.43394 82.9848 18.3252 83.5189 20.9857 86.4551C18.69 86.1751 16.4533 85.2247 14.1207 84.8562C10.9996 84.3626 2.24785 84.2484 0.0332031 82.9221Z" fill="#032C4D"/>
<path d="M45.7817 78.6639C42.8596 77.5513 38.5261 75.1051 36.0498 73.3036C36.7831 73.1747 44.7868 77.4666 45.9254 78.0597C48.9765 77.1387 51.5228 76.4093 54.4597 75.1493L54.5113 76.0593C52.9305 76.7003 51.6334 77.2197 50.0047 77.7355C48.8586 78.0486 46.8946 78.6823 45.7817 78.6639Z" fill="#032C4D"/>
<path d="M34.4618 76.5039C36.3227 76.8981 38.1283 77.7712 39.8824 78.4933C39.536 78.5891 39.1859 78.6812 38.8358 78.7733C37.2881 79.1748 33.29 80.3501 31.9598 79.569C32.6709 79.0238 33.3674 79.0459 34.2223 78.998L34.6129 78.9796C35.4531 78.8875 36.3043 78.9133 36.9749 78.3349L36.7207 77.8338C34.8561 77.3439 33.0689 77.7712 31.3222 78.4638L30.9316 78.6222C30.9501 78.5412 30.9574 78.4564 30.9869 78.3754C31.1196 77.9812 33.957 76.7618 34.4618 76.5039Z" fill="#043E6D"/>
<path d="M50.9072 15.3613L51.9537 15.7776C51.9021 16.8202 51.4341 17.697 50.9624 18.6143C50.207 20.0953 48.0771 24.5088 46.6621 24.9767C47.5907 22.011 49.201 19.4506 50.4465 16.6176L49.7317 17.1333L49.8238 16.2086L50.9072 15.3613Z" fill="#032C4D"/>
<path d="M1.41489 77.9824L1.6286 78.3766C1.2601 78.6492 1.38169 78.5829 1.15323 79.0471C3.26101 80.8007 9.62861 80.4802 11.3163 81.8359C9.80548 82.6906 1.6802 80.7197 0.257812 79.3234L0.316784 78.7082L1.41489 77.9824Z" fill="#032C4D"/>
<path d="M51.3678 10.0996C51.8616 13.2789 47.6571 15.6441 47.6424 18.4771L48.8252 18.5913L49.2748 19.6376C48.3425 19.5492 47.108 19.6007 46.3379 19.0297C47.3734 16.0383 49.5254 12.6821 51.3678 10.0996Z" fill="#032C4D"/>
<path d="M28.8787 82.4688C29.9695 82.5682 30.4412 82.594 31.1855 83.4045L30.9497 84.2076C30.4744 84.6571 30.0211 84.9776 29.4131 85.2318C27.8544 85.8875 26.4688 85.9464 24.9064 85.2465C24.1621 84.4065 24.1178 84.3881 24.0957 83.2682C24.63 82.9955 24.9543 82.8003 25.5697 82.7634C26.0635 82.7377 26.0782 82.8776 26.432 83.1724C25.8571 83.4597 25.2823 83.6587 24.9617 84.2481C25.5218 84.6828 25.9161 84.7786 26.6273 84.8412C27.8507 84.9481 29.1035 84.9149 30.0837 84.1118L30.0911 83.4819L29.0151 83.2755L28.8787 82.4688Z" fill="#032C4D"/>
<path d="M13.8156 68.5536C14.91 68.4172 15.8201 68.4651 16.9072 68.6383L17.0914 68.9256C14.5046 69.6956 11.4203 69.5335 8.7119 69.983C7.60274 70.2666 6.52304 70.4545 5.38808 70.6092L5.28125 70.3845C8.17392 69.3419 10.7423 68.8372 13.8156 68.5536Z" fill="#043E6D"/>
<path d="M22.3122 32.1851C20.3886 33.7656 17.835 33.784 16.5526 31.4483C16.4163 30.2362 16.5784 29.0426 17.846 28.6484L18.1076 29.1716C17.2417 30.5015 17.1422 30.4463 17.776 31.7504C18.8631 32.4172 19.2058 32.2993 20.4734 32.233C20.9745 32.2146 21.8442 32.1519 22.3122 32.1851Z" fill="#032C4D"/>
<path d="M22.7288 26.3789L23.8822 26.0215C23.7606 27.2888 23.4547 29.0977 24.3096 30.1071L25.1129 29.9376C24.7665 30.225 24.2285 30.5418 24.1806 30.8697L23.2705 32.4538L22.4893 31.6802C23.1562 29.2376 23.1562 28.7588 22.7288 26.3789Z" fill="#043E6D"/>
<path d="M62.0033 75.4863C63.1751 76.3631 63.271 76.8347 62.8177 78.2678L62.5893 78.4078C61.329 78.6657 61.1521 78.7762 60.043 79.4393L59.8477 78.9051L60.3599 78.4299L60.3157 77.822C61.2148 77.5015 61.1853 77.4941 61.8854 76.9305L61.7638 76.1605L61.6017 75.8216L62.0033 75.4863Z" fill="#757575"/>
<path d="M14.2861 73.8781L14.7467 73.7676C16.2244 74.4933 19.7582 76.1327 20.381 77.6321C18.3616 77.3706 16.4529 75.3812 14.5441 74.497L14.1719 74.3275L14.2861 73.8781Z" fill="#032C4D"/>
<path d="M82.1337 30.1081L84.1125 30.9775C85.5386 31.0733 86.5704 30.156 87.7643 29.3418L88.0665 30.0418C86.7952 30.8486 85.8628 31.6296 84.3926 31.788C83.1102 31.4601 82.9776 31.3422 81.9863 30.4544L82.1337 30.1081Z" fill="#57646F"/>
<path d="M20.4727 32.2341C20.2664 31.1252 20.2332 30.4806 21.1176 29.7695C22.1383 30.3 21.8767 30.3369 22.4884 31.6815L23.2696 32.4552L22.3115 32.1862C21.8435 32.1531 20.9739 32.2157 20.4727 32.2341Z" fill="#B7B6B7"/>
<path d="M52.356 72.0566C53.3436 72.355 54.7512 72.5466 55.4698 73.276L54.7844 73.3829C53.4099 73.3608 52.1202 73.3461 50.7715 73.0292L50.801 72.6498L52.356 72.0566Z" fill="#032C4D"/>
<path d="M8.61155 39.9068C9.14218 39.87 9.61758 40.242 9.70601 40.7689C9.79814 41.292 9.47754 41.8004 8.96534 41.9477C8.5821 42.0583 8.16939 41.9367 7.90407 41.642C7.63876 41.3436 7.56506 40.9236 7.71614 40.5515C7.86722 40.1831 8.21358 39.9326 8.61155 39.9068Z" fill="#606A72"/>
<path d="M23.3223 35.9759C23.5581 34.6607 23.5986 34.097 24.2509 32.8887C24.8847 33.5555 24.7631 34.2481 24.8957 35.3349L23.3223 35.9759Z" fill="#032C4D"/>
<path d="M65.3376 30.635C65.6434 30.6276 65.7577 30.8192 65.9935 31.0071L65.8977 31.7586C65.0944 32.5912 65.0612 32.4843 63.9668 32.5138L63.9889 31.4749L64.9912 31.6149L65.3376 30.635Z" fill="#032C4D"/>
<path d="M74.8776 81.9648C75.8799 82.3075 76.1894 82.2853 76.8048 83.1805L76.2926 83.479L75.2424 83.1879L75.1281 83.1732C74.6528 83.5563 74.6749 83.4605 74.1074 83.4495C74.2069 82.6979 74.4096 82.5432 74.8776 81.9648Z" fill="#032C4D"/>
<path d="M38.4591 32.0649C37.3904 32.0612 36.6314 32.1902 35.7617 31.6302C36.6572 31.0444 37.5121 31.2139 38.6286 31.2397L38.4591 32.0649Z" fill="#606A72"/>
<path d="M14.9019 29.666L15.134 29.8907C15.3625 30.9333 14.9572 31.7917 14.6218 32.768L14.1244 32.1712C14.0138 30.9776 14.3307 30.6902 14.9019 29.666Z" fill="#032C4D"/>
<path d="M93.7078 40.3594L94.4779 40.5251L94.4116 40.8972L92.2043 41.6967L91.1836 41.5162C91.6958 40.783 92.8602 40.6357 93.7078 40.3594Z" fill="#043E6D"/>
<path d="M87.7637 29.3427L88.5449 28.5801C89.6504 29.7405 89.6319 29.3464 89.6172 30.5253C88.8728 30.5658 88.7292 30.3926 88.0659 30.0426L87.7637 29.3427Z" fill="#032C4D"/>
<path d="M64.2949 15.9824L64.6339 16.3287C64.726 17.3492 64.3428 17.6955 63.8379 18.5649C63.5026 18.3992 63.5394 18.2886 63.3994 17.9607L64.2949 15.9824Z" fill="#032C4D"/>
<path d="M18.4021 27.3195L18.7927 27.0469L19.268 27.1464L18.6785 27.6105C18.2031 27.7395 17.9083 27.7321 17.4219 27.7137L18.4021 27.3195Z" fill="#032C4D"/>
</g>
<defs>
<clipPath id="clip0_407_13839">
<rect width="96" height="96" fill="white"/>
</clipPath>
</defs>
</svg>
