<svg width="96" height="96" viewBox="0 0 96 96" fill="none" xmlns="http://www.w3.org/2000/svg">
<g clip-path="url(#clip0_404_4097)">
<path d="M50.2479 56.5352L56.263 59.3437L56.2949 59.8368C57.3279 62.8525 61.9152 75.1318 61.0841 77.3822C59.0789 78.4897 55.4665 79.19 53.1324 79.7535L52.3731 79.9155C50.966 80.8393 49.4403 80.7729 48.0939 81.4399C40.6034 85.1085 32.0438 87.7015 23.636 87.4417C15.3495 87.1854 20.62 76.6063 22.0337 72.2135C23.0604 69.0252 28.6638 60.3972 31.6519 58.4562L32.5507 57.8799C35.2147 60.5703 36.4593 61.6534 39.9092 63.1819C44.6285 62.9645 49.6984 63.2319 50.1624 57.2854L50.2479 56.5352Z" fill="#032C4D"/>
<path d="M36.2768 65.2382L37.1225 64.627L37.4063 65.2135L37.0698 65.8199C38.9032 67.9755 42.5957 76.9302 43.1996 79.7626C42.3168 79.0951 41.6354 77.1267 41.1466 76.0139C40.5343 77.3246 38.9271 81.1264 37.6768 81.4849L37.8681 81.9143L37.4926 81.9165C37.4594 82.071 37.4262 82.2259 37.3926 82.3804L37.7636 81.9457L37.5108 81.6801L37.3624 82.3521L37.9708 81.6239L37.6914 81.2154C38.7478 79.0398 39.5275 77.4299 40.8097 75.3907C39.8312 73.0013 37.9664 68.3792 36.1104 66.7158L36.2768 65.2382Z" fill="#919192"/>
<path d="M36.2773 65.2382L37.123 64.627L37.4068 65.2135L37.0703 65.8199L36.5979 66.6365L36.2773 65.2382Z" fill="#E9E8E9"/>
<path d="M49.1875 62.4766C52.1676 65.9163 53.5566 72.4802 54.9734 76.8385C52.8331 75.3401 50.0026 65.3095 49.1875 62.4766Z" fill="#919192"/>
<path d="M34.1314 62.8125C34.8398 64.1046 33.6094 70.2498 33.4455 72.1558C33.3309 71.9384 33.2769 71.8459 33.175 71.6025C32.1217 69.0812 33.202 65.2532 34.1314 62.8125Z" fill="#B7B6B7"/>
<path d="M62.3577 23.386C59.7543 23.7666 55.0528 24.6807 52.7469 23.8844C51.8145 23.0004 51.7632 22.7145 51.2053 21.5189C48.4523 19.3584 46.9066 21.6269 45.543 18.0774C46.757 13.2955 55.3995 14.3349 56.923 10.7782L55.8325 9.16259L56.0007 8.45215C57.5029 7.64168 57.7991 8.09317 59.1664 9.07052C63.0913 8.51855 73.7518 0.950714 76.8281 7.35706C76.763 8.98863 76.3636 9.49767 75.6229 10.9416C77.1933 13.3168 81.9941 13.5381 81.0014 18.2385C80.3267 21.4339 75.6751 21.2644 74.8189 23.5821C74.0472 25.6709 75.1253 26.2392 72.6441 27.7668C71.8334 28.2723 70.9794 28.7043 70.0916 29.0575L69.8645 28.2794C72.0083 27.1551 73.7412 26.6257 74.4828 24.1743L74.1415 23.5436C71.937 23.0969 69.6878 24.0623 67.7362 25.0375C66.2468 27.1338 68.2697 27.7137 64.6272 28.5512C62.7655 28.1917 61.532 26.6111 60.5805 26.7664C58.6926 27.0754 57.8408 27.607 55.7957 27.3034L55.2237 26.7058L55.5225 26.044C61.0892 26.1122 58.1303 26.6239 62.3577 23.386Z" fill="#032C4D"/>
<path d="M73.7517 18.3404L73.1691 17.3834C73.8425 15.1007 73.5848 15.2281 71.6416 13.589C72.1654 12.1345 71.7071 12.6586 73.0159 11.9247C75.3744 11.8087 77.1946 12.8636 78.9412 14.3969C83.8469 18.7029 75.0189 23.8203 72.6365 20.9325C72.8848 19.4076 72.6489 19.9706 73.9829 18.7635L73.7517 18.3404Z" fill="#F9F8F9"/>
<path d="M73.751 18.3399C74.9893 17.556 75.441 16.9513 76.6771 17.0399C75.769 18.289 75.5348 18.1018 73.9821 18.7631L73.751 18.3399Z" fill="#043E6D"/>
<path d="M71.6521 6.05485C71.9133 6.02563 72.217 5.9827 72.4858 5.97916C73.8291 5.9619 74.6176 6.28901 75.5735 7.16809C75.8834 8.3495 75.8989 8.45574 75.4478 9.58624C73.0618 11.5919 68.4399 9.7239 65.4815 9.4924C64.6336 9.67344 63.7601 9.89653 62.9003 10.0023C61.9479 10.1196 61.5472 10.2166 60.7812 9.65219C60.8393 9.55481 60.8835 9.4477 60.9548 9.36005C62.6997 7.20926 69.0288 6.36027 71.6521 6.05485Z" fill="#F9F8F9"/>
<path d="M54.9327 15.8227C53.5836 17.2148 52.1505 18.9009 50.4769 19.8158C48.8608 19.6511 47.9727 19.7206 46.6489 18.7999L46.5059 17.9124C47.9182 15.5793 51.1485 14.3744 53.7554 14.1035C53.8816 15.0016 53.8683 14.9379 54.416 15.6656L54.9327 15.8227Z" fill="#F9F8F9"/>
<path d="M64.3896 10.3647C66.4444 10.3421 70.1064 10.2594 71.7229 11.6391C71.2602 12.7205 70.4372 12.8922 69.4281 13.4074C69.3352 13.3393 69.2439 13.268 69.1492 13.2025C69.0075 13.1047 68.861 13.0135 68.7184 12.917C66.6251 11.4997 63.6808 12.8913 61.7734 11.42C62.5983 10.6104 63.2779 10.6179 64.3896 10.3647Z" fill="#F9F8F9"/>
<path d="M56.5564 21.1758L56.8047 21.2023C56.6901 21.683 56.7197 21.4423 56.7126 21.9238C57.6212 21.7185 58.3867 21.6282 59.3178 21.6122L59.5325 22.1213L57.9723 23.003C56.992 23.0813 55.8732 23.2447 54.8974 23.1482C53.8861 23.0477 53.3274 22.9114 52.7314 22.1159C53.8038 21.1913 55.202 21.2838 56.5564 21.1758Z" fill="#F9F8F9"/>
<path d="M69.9478 21.0195C70.3175 21.3041 70.3905 21.5255 70.5902 21.9367C69.5506 23.3996 67.7478 24.1127 66.1955 24.944C65.8904 24.7581 65.6314 24.4792 65.3662 24.2397C66.2088 22.8105 68.5102 21.8375 69.9478 21.0195Z" fill="#F9F8F9"/>
<path d="M71.4027 16.4062L72.1908 16.9985L72.3125 17.8882C71.5235 18.8904 70.4658 19.1998 69.32 19.6486C68.9636 19.283 68.6736 18.8434 68.3672 18.4344C68.9729 17.1844 70.1674 16.9733 71.4027 16.4062Z" fill="#F9F8F9"/>
<path d="M70.8372 14.4648C71.0763 14.6791 71.3295 15.0938 71.5239 15.3554C71.1843 15.6387 70.9248 15.8601 70.5157 16.0415C69.2358 16.6081 67.8557 17.0521 66.5372 16.6333L65.0234 15.9694C65.1629 15.5679 69.6121 15.32 70.8372 14.4648Z" fill="#E9E8E9"/>
<path d="M60.8087 18.2808C61.9169 18.1953 62.7014 18.2117 63.7729 18.522C63.3793 19.487 62.4287 19.7455 61.5299 20.2275C60.5891 20.2541 59.6487 20.123 58.7136 20.0296L58.7012 19.6078L60.8087 18.2808Z" fill="#F9F8F9"/>
<path d="M59.2479 17.3778L57.4795 18.4592C55.9556 18.4884 56.4528 18.6947 55.372 17.8886L55.2529 16.9174L56.0632 16.2637L57.3697 16.4212L59.2479 17.3778Z" fill="#F9F8F9"/>
<path d="M54.416 15.6665C55.9767 14.0349 56.8007 13.637 59.0184 12.9708L59.5829 13.3918L60.0084 12.9102L60.0221 12.9487C59.1034 14.1726 56.4673 15.115 54.9327 15.8236L54.416 15.6665Z" fill="#E9E8E9"/>
<path d="M53.7668 18.0664C54.5855 18.7485 55.1615 18.9654 55.3745 20.0308L54.1237 21.0715C53.4658 20.9622 52.8371 20.774 52.1973 20.5899L52.1406 19.91L53.7668 18.0664Z" fill="#F9F8F9"/>
<path d="M57.3691 16.4209C58.6097 14.1701 59.7126 15.5338 62.0933 13.9961L62.2956 14.3914C60.8571 15.922 60.785 15.5639 58.4747 16.2576C58.8789 16.9268 58.7 16.6772 59.4735 17.1048L59.2473 17.3774L57.3691 16.4209Z" fill="#B7B6B7"/>
<path d="M64.6186 19.7031L64.8493 19.8638C64.2959 21.1001 62.4593 22.042 61.356 22.8091L61.0098 22.4918C61.383 21.2732 63.5144 20.3941 64.6186 19.7031Z" fill="#E9E8E9"/>
<path d="M65.2504 25.9082L65.3607 26.2924C64.7785 27.2857 63.8018 27.4021 62.7516 27.7934L62.667 27.2689C63.2736 26.3663 64.245 26.2548 65.2504 25.9082Z" fill="#E9E8E9"/>
<path d="M64.3369 13.2543C65.7581 13.0856 65.8414 12.9812 66.9943 13.7956C66.1407 13.8395 65.2897 13.8045 64.4357 13.7806L64.3369 13.2543Z" fill="#E9E8E9"/>
<path d="M60.4493 80.7441C62.6307 82.6891 63.4268 83.6169 66.1608 84.8027C68.7438 85.923 70.7153 86.0302 72.7294 87.8676C72.6851 89.2207 72.9689 89.7992 71.8749 90.7797C70.5661 91.9527 67.5072 92.0213 66.0072 91.2883L65.0039 91.9146C61.2352 95.6598 47.7384 93.0527 44.5303 90.6912L44.5799 89.8015L44.7636 89.0322C44.7534 87.3891 44.6808 86.1315 45.4742 84.7146C49.1796 83.4203 48.3707 87.4077 54.2539 83.2216L54.5891 82.4483C56.6293 81.926 58.4742 81.4895 60.4493 80.7441Z" fill="#032C4D"/>
<path d="M66.2396 90.6752C64.2822 89.8859 61.9556 89.0378 60.1925 87.9414C62.4404 88.4509 66.3255 89.7651 68.2643 89.6575L69.8378 90.6889C68.8058 90.7588 66.7218 90.7336 66.0072 91.2886L65.0039 91.915C61.2352 95.6602 47.7384 93.053 44.5303 90.6915L44.5799 89.8018L44.7636 89.0325C55.3914 91.3152 54.9823 93.5709 66.2396 90.6752Z" fill="#B7B6B7"/>
<path d="M44.5799 89.8008C45.7292 90.1938 46.6595 90.5404 47.8664 90.7799C48.4158 90.883 49.5865 91.0605 50.0522 91.2425C55.9714 93.3924 58.097 93.5796 64.3823 91.9755C64.6705 91.902 64.6736 91.9219 65.0039 91.914C61.2352 95.6591 47.7384 93.052 44.5303 90.6905L44.5799 89.8008Z" fill="#032C4D"/>
<path d="M47.8662 90.7812C48.4157 90.8844 49.5863 91.0619 50.0521 91.2438L49.654 91.4505L47.8662 90.7812Z" fill="#606A72"/>
<path d="M71.2844 89.4098L72.7291 87.8672C72.6848 89.2203 72.9686 89.7989 71.8746 90.7793C70.5658 91.9523 67.5069 92.0209 66.0068 91.2879C66.7214 90.7328 68.8055 90.7581 69.8375 90.6881C71.0126 90.0592 71.0041 90.3252 71.2844 89.4098Z" fill="#032C4D"/>
<path d="M71.2841 89.4102C71.0038 90.3255 71.0123 90.0595 69.8372 90.6885L68.2637 89.6571L71.2841 89.4102Z" fill="#E9E8E9"/>
<path d="M52.6955 45.7468L52.8212 44.6247C51.9109 44.5207 51.667 44.7823 50.8789 45.2594C48.4876 44.8057 46.0728 44.5043 43.6607 44.1785C43.3725 43.1848 43.5722 42.6576 43.767 41.6457L43.0993 41.0446C40.4282 41.2155 38.7808 42.45 35.8931 42.338L35.5947 41.8839C42.8403 32.1387 42.5229 27.6866 54.8344 36.6642C55.4914 38.5724 57.2385 41.5443 57.2182 42.6594C55.6238 44.456 54.7516 44.1891 53.0262 46.2111L52.6955 45.7468Z" fill="#032C4D"/>
<path d="M37.3673 49.4918C33.5672 43.324 31.5275 38.5187 23.5642 45.3544C15.5744 52.2127 9.79576 78.1324 18.176 85.8751L18.5676 86.2327L17.8687 86.3341C11.4219 82.2175 12.9074 65.7535 14.9112 59.5831C16.9966 53.1612 20.5269 45.5058 26.7462 42.1204C32.977 38.7289 35.6313 44.5939 37.8615 49.0265L37.3673 49.4918Z" fill="#043E6D"/>
<path d="M52.6956 45.7461L53.0263 46.2104C52.6491 47.6074 52.6057 47.6654 53.0963 48.9694C56.1942 50.7767 59.8274 52.0015 61.6697 54.9836C62.1908 59.0289 59.8349 60.0328 56.2943 59.8367L56.2624 59.3436C58.1007 59.2936 59.1403 59.0231 60.6412 57.9944C62.5162 54.0306 54.6211 51.0976 52.0253 49.4174C52.3047 49.1987 52.5823 48.9769 52.8581 48.7534C50.5248 47.7836 48.8853 50.138 46.7207 50.8493C46.1965 51.0219 44.2727 49.6949 43.71 49.3461C40.0591 48.9566 40.8574 51.8063 37.3672 49.4908L37.8613 49.0256C40.532 49.1398 45.9866 48.4993 48.7764 48.2461C51.1894 48.027 51.2992 47.4901 52.6956 45.7461Z" fill="#032C4D"/>
<path d="M35.9163 2.20117C37.8458 4.8911 37.14 30.7382 36.989 35.675L36.626 35.3572C35.7516 32.5562 35.7237 6.62227 35.9163 2.20117Z" fill="#606A72"/>
<path d="M64.4873 79.9668C70.9262 80.8326 91.2223 83.2609 96.0009 85.8831C95.7675 85.907 95.3518 85.9588 95.0946 85.9579C92.0201 85.9447 68.3808 81.8378 65.8775 80.8777C65.329 80.6675 64.9115 80.3612 64.4873 79.9668Z" fill="#032C4D"/>
<path d="M47.4304 55.5504C45.9764 55.0414 42.5876 54.3371 40.9725 54.0476C39.5672 53.7953 37.5739 56.3578 36.4299 57.5538C35.7046 55.8226 39.3666 49.9634 42.4207 51.2758L43.0764 53.2044C45.4624 54.7753 45.3619 53.1393 46.7233 53.1995L48.0007 55.2654L47.4304 55.5504Z" fill="#57646F"/>
<path d="M10.8083 82.0575L11.4976 82.0234L11.45 82.4966C8.16978 84.0136 4.45844 84.905 0.998577 85.9581L0 85.889C1.1995 84.1105 8.62285 82.6923 10.8083 82.0575Z" fill="#043E6D"/>
<path d="M69.8647 28.2793L70.0918 29.0575C66.6353 30.5045 64.4392 32.8071 62.9635 33.3312L62.6328 33.0439C64.8001 30.5275 66.9053 29.6471 69.8647 28.2793Z" fill="#043E6D"/>
<path d="M30.0327 57.6641L30.363 58.255C28.7966 59.7135 26.1126 60.4974 24.1264 61.326L23.8271 61.056C24.5603 59.6843 28.5305 58.3648 30.0327 57.6641Z" fill="#043E6D"/>
<path d="M31.6517 58.4563C30.4568 56.9089 28.8447 55.0954 28.3271 53.2712L28.587 53.1172C28.5844 53.7019 28.5016 53.948 28.7734 54.4783L29.5903 53.9604C30.5869 55.2596 31.5738 56.5658 32.5505 57.88L31.6517 58.4563Z" fill="#032C4D"/>
<path d="M52.373 79.9159L53.1324 79.7539C53.642 80.5577 54.3721 81.5656 54.5894 82.4483L54.2543 83.2215C53.0761 81.8719 52.9902 81.6095 52.373 79.9159Z" fill="#032C4D"/>
<path d="M48.0009 55.2656L48.863 55.6711L49.3274 57.1544L47.4307 55.5507L48.0009 55.2656Z" fill="#757575"/>
<path d="M48.8633 55.6699L50.2478 56.5344L50.1623 57.2847L49.3277 57.1532L48.8633 55.6699Z" fill="#032C4D"/>
</g>
<defs>
<clipPath id="clip0_404_4097">
<rect width="96.0008" height="91.5959" fill="white" transform="translate(0 2.20117)"/>
</clipPath>
</defs>
</svg>
