<svg viewBox="0 0 179 65" fill="none" xmlns="http://www.w3.org/2000/svg">
  <path
    d="M12.3913 12.0383C16.8894 7.73895 23.2942 6.65097 28.8722 9.46165C30.654 10.3595 31.3089 10.8219 32.6821 12.2626L32.5945 12.3494C30.8298 14.1016 29.1413 15.9328 27.3754 17.6869C25.6261 19.3585 24.2962 20.8076 24.2666 23.3636C24.229 26.6159 27.5638 29.8119 30.7973 29.7855C33.2375 29.7656 34.2465 28.6618 35.8406 27.0506C36.6008 26.2846 37.3545 25.5122 38.1018 24.7337C39.6029 23.175 41.1157 21.6278 42.6404 20.0923L56.0781 33.6079C58.6342 36.173 59.1527 36.1412 56.6279 38.5994L56.374 38.8454C55.6022 39.4 55.2292 39.442 54.4958 38.7455C53.7725 38.0586 53.0757 37.3054 52.371 36.5996C51.0339 35.2705 49.6874 33.9507 48.3327 32.6402C47.716 32.0409 46.9413 31.1974 46.2367 30.7883C45.4466 30.3296 44.383 30.8493 44.2457 31.7546C44.1632 32.2986 44.2727 32.7389 44.5992 33.1958C45.3058 34.126 46.3211 35.0449 47.1633 35.8782L50.7888 39.4924C51.4402 40.1325 52.1792 40.7767 52.7009 41.5332C53.1332 42.1602 52.1797 43.2109 51.7645 43.5711C51.1381 44.1148 50.1323 45.4259 49.2979 44.5292C48.4491 43.7435 47.6776 42.9407 46.8687 42.129L42.8575 38.156C42.2805 37.5896 41.5006 36.6847 40.824 36.3198C39.3795 35.5405 38.1523 37.3738 39.0057 38.5991C39.7447 39.6601 40.8132 40.5832 41.7345 41.4919L45.2569 44.9889C47.5381 47.2529 47.943 47.295 45.5298 49.6315L44.9796 50.1504L44.922 50.2187C44.6193 50.4674 44.3354 50.7236 43.9652 50.8644C42.0203 49.5773 41.6095 47.6314 38.8699 47.2778L38.8674 47.2463L38.8627 47.194C38.8147 46.6274 38.649 46.2449 38.3612 45.7556C38.3086 45.6632 38.2518 45.5734 38.191 45.4863C37.6044 44.6559 36.6862 43.8692 35.9653 43.1434C35.14 42.3124 34.337 41.7452 33.1562 41.528C33.074 40.8779 32.9331 40.489 32.5812 39.9268C32.2164 39.078 30.2151 37.415 29.4518 36.7398C28.99 36.3313 28.21 36.0738 27.592 36.0215C27.2779 33.8313 25.517 32.6811 23.9975 31.2645C23.0382 30.3079 21.0399 29.8645 19.8917 30.7453C18.3644 31.9168 16.5554 33.7298 15.2493 35.1635C14.985 34.876 14.5585 34.4865 14.2625 34.2203C10.242 30.6053 7.99972 27.5302 8.12789 21.8243C8.18942 18.1248 9.72388 14.6025 12.3913 12.0383Z"
    fill="url(#paint0_linear_675_16390)" />
  <path
    d="M47.1733 7.46131C47.6195 7.3844 48.6606 7.4172 49.1234 7.43944C56.3484 7.78707 62.7019 13.8274 62.9206 21.154C63.0068 24.0535 62.3169 26.9112 60.642 29.3061C60.1046 30.0758 59.4731 30.7521 58.8332 31.4305C58.6062 31.0807 57.8542 30.3381 57.541 30.0199C56.7038 29.1661 55.8587 28.3201 55.0057 27.4819L46.2039 18.7297C45.3283 17.8441 43.9306 16.082 42.527 16.6598C41.2923 17.1681 40.1058 18.5615 39.1425 19.5223L34.7355 23.9761C33.3272 25.417 31.7478 27.6569 29.649 25.9902C27.8896 24.5932 27.0476 23.3228 28.6557 21.2958C29.0875 20.7516 29.6548 20.2337 30.1343 19.7326C31.0402 18.7783 31.9526 17.8302 32.8713 16.8882C34.084 15.6304 35.3031 14.3789 36.5285 13.1336C39.8493 9.7989 42.2679 7.88576 47.1733 7.46131Z"
    fill="url(#paint1_linear_675_16390)" />
  <path
    d="M19.7928 41.3078C19.347 41.3129 19.0807 41.2326 18.7206 40.9681C18.1056 40.5164 16.99 39.4129 16.8778 38.6381C16.811 38.1777 17.0121 37.8579 17.2772 37.4995C17.7305 36.8866 21.043 33.4132 21.6014 33.361C21.9391 33.3295 22.3354 33.657 22.5706 33.8655C23.1533 34.3821 24.5133 35.5531 24.5336 36.3377C24.5494 36.9479 23.1434 38.1706 22.6899 38.6331C21.9117 39.357 20.6288 40.9186 19.7928 41.3078Z"
    fill="#9488EE" />
  <path
    d="M25.3527 46.6823C24.9069 46.6875 24.6407 46.6072 24.2806 46.3427C23.6656 45.891 22.55 44.7875 22.4377 44.0126C22.3709 43.5522 22.5721 43.2325 22.8372 42.874C23.2904 42.2611 26.603 38.7877 27.1614 38.7356C27.4991 38.7041 27.8953 39.0316 28.1305 39.2401C28.7132 39.7566 30.0732 40.9277 30.0935 41.7123C30.1093 42.3225 28.7033 43.5452 28.2498 44.0077C27.4716 44.7316 26.1887 46.2931 25.3527 46.6823Z"
    fill="#9488EE" />
  <path
    d="M30.9125 52.4278C30.4667 52.4329 30.2005 52.3526 29.8404 52.0881C29.2254 51.6364 28.1098 50.5329 27.9975 49.7581C27.9308 49.2977 28.1319 48.9779 28.397 48.6195C28.8502 48.0066 32.1628 44.5332 32.7212 44.4811C33.0589 44.4496 33.4551 44.7771 33.6903 44.9856C34.2731 45.5021 35.633 46.6732 35.6533 47.4578C35.6691 48.0679 34.2631 49.2906 33.8096 49.7531C33.0315 50.477 31.7485 52.0386 30.9125 52.4278Z"
    fill="#9488EE" />
  <path
    d="M38.281 50.4114C38.6187 50.3799 39.015 50.7074 39.2502 50.9159C39.8329 51.4325 41.1929 52.6036 41.2132 53.3882C41.2289 53.9984 39.823 55.2209 39.3695 55.6834C38.5913 56.4073 37.3085 57.969 36.4724 58.3582C36.0267 58.3633 35.7604 58.283 35.4003 58.0185C34.7853 57.5668 33.6696 56.4633 33.5573 55.6885C33.4906 55.2281 33.6918 54.9083 33.9569 54.5499C34.4102 53.9371 37.7226 50.4635 38.281 50.4114Z"
    fill="#9488EE" />
  <path
    d="M93.2452 30.2215L81.0382 14.6785C80.8546 14.4465 80.671 14.2242 80.4875 14.0116C80.3243 13.7796 80.1509 13.5476 79.9674 13.3156H79.9368L80.0286 25.7268C80.0286 26.2101 80.0286 26.6934 80.0286 27.1767C80.0286 27.66 80.0082 28.1336 79.9674 28.5976C80.3345 28.5782 80.7016 28.5589 81.0688 28.5396C81.4359 28.5202 81.803 28.5009 82.1701 28.4816V29.7575H76.5714V28.8006C77.2037 28.8006 77.6524 28.6749 77.9176 28.4236C78.2031 28.1529 78.3867 27.8436 78.4683 27.4956C78.5498 27.1283 78.5906 26.7997 78.5906 26.5097L78.6212 12.5617C78.6212 12.233 78.6212 11.9044 78.6212 11.5757C78.6212 11.2471 78.6212 10.9281 78.6212 10.6188C78.2949 10.6381 77.9583 10.6574 77.6116 10.6768C77.2649 10.6961 76.9181 10.7154 76.5714 10.7348V9.45886H80.2121L91.6849 24.0159C91.9501 24.3445 92.205 24.6732 92.4498 25.0018C92.7149 25.3305 92.9801 25.6591 93.2452 25.9877H93.2758L93.3064 12.7066C93.3064 12.32 93.3166 11.9527 93.337 11.6047C93.3574 11.2374 93.3778 10.9088 93.3982 10.6188C93.0311 10.6381 92.6639 10.6574 92.2968 10.6768C91.9297 10.6961 91.5626 10.7154 91.1954 10.7348V9.45886H96.8248V10.4158C96.0701 10.4351 95.55 10.5995 95.2645 10.9088C94.9789 11.2181 94.8259 11.6337 94.8055 12.1557C94.7851 12.6776 94.7749 13.2866 94.7749 13.9826L94.7138 30.2215H93.2452Z"
    fill="#032C4D" />
  <path
    d="M99.4778 28.8876C100.11 28.8876 100.549 28.7426 100.793 28.4526C101.038 28.1433 101.181 27.7276 101.222 27.2057C101.263 26.6644 101.283 26.0457 101.283 25.3498V18.7382C101.283 18.4289 101.293 18.1389 101.313 17.8683C101.334 17.5783 101.364 17.24 101.405 16.8534C101.038 16.8727 100.671 16.892 100.304 16.9114C99.9572 16.9307 99.6002 16.95 99.2331 16.9694V15.7514C100.131 15.7514 100.824 15.7128 101.313 15.6354C101.803 15.5581 102.17 15.4615 102.415 15.3455C102.68 15.2295 102.884 15.1038 103.027 14.9685H103.914V26.6837C103.914 27.0703 103.904 27.4183 103.883 27.7276C103.883 28.0176 103.853 28.3269 103.792 28.6556C104.118 28.6362 104.434 28.6266 104.74 28.6266C105.066 28.6072 105.393 28.5879 105.719 28.5686V29.7575H99.4778V28.8876Z"
    fill="#032C4D" />
  <path
    d="M106.553 28.8876C107.185 28.8876 107.624 28.7426 107.868 28.4526C108.113 28.1433 108.256 27.7276 108.297 27.2057C108.337 26.6644 108.358 26.0457 108.358 25.3498V18.7382C108.358 18.4289 108.358 18.1196 108.358 17.8103C108.378 17.501 108.419 17.182 108.48 16.8534C108.113 16.8727 107.746 16.892 107.379 16.9114C107.032 16.9114 106.675 16.921 106.308 16.9404V15.7514H107.256C108.133 15.7514 108.735 15.6741 109.061 15.5195C109.408 15.3455 109.694 15.1618 109.918 14.9685H110.805C110.846 15.2778 110.877 15.6644 110.897 16.1284C110.918 16.573 110.938 17.1433 110.958 17.8393C111.264 17.356 111.682 16.8824 112.213 16.4184C112.743 15.9544 113.334 15.5678 113.987 15.2585C114.66 14.9492 115.364 14.7945 116.098 14.7945C116.669 14.7945 117.169 14.9395 117.597 15.2295C118.026 15.5195 118.24 15.9834 118.24 16.6214C118.24 16.776 118.189 16.9694 118.087 17.2013C117.985 17.414 117.822 17.6073 117.597 17.7813C117.373 17.936 117.077 18.0133 116.71 18.0133C116.261 17.994 115.904 17.8296 115.639 17.5203C115.374 17.1917 115.272 16.8147 115.333 16.3894C114.823 16.3701 114.293 16.4957 113.742 16.7664C113.212 17.037 112.712 17.414 112.243 17.8973C111.774 18.3613 111.356 18.9122 110.989 19.5502L111.019 26.6837C111.019 27.0703 111.009 27.4183 110.989 27.7276C110.989 28.0176 110.958 28.3269 110.897 28.6556C111.223 28.6362 111.54 28.6266 111.846 28.6266C112.172 28.6072 112.498 28.5879 112.825 28.5686V29.7575H106.553V28.8876Z"
    fill="#032C4D" />
  <path
    d="M125.81 29.8445L121.435 20.3911C121.109 19.6565 120.854 19.0282 120.671 18.5063C120.487 17.9843 120.354 17.5493 120.273 17.2013C120.212 16.8534 120.171 16.573 120.15 16.3604L118.835 16.4474V15.2585H124.464V16.1284C123.852 16.1284 123.455 16.2831 123.271 16.5924C123.108 16.8824 123.087 17.2787 123.21 17.7813C123.332 18.2646 123.516 18.7866 123.761 19.3472L126.116 24.4508C126.279 24.7795 126.432 25.1275 126.575 25.4948C126.738 25.8428 126.891 26.2101 127.034 26.5967H127.065C127.167 26.3067 127.279 25.9974 127.401 25.6688C127.544 25.3401 127.666 25.0211 127.768 24.7118L130.216 18.3613C130.379 17.8973 130.552 17.4913 130.736 17.1433C130.92 16.7954 131.052 16.5344 131.134 16.3604L129.176 16.4474V15.2585H134.01V16.1284C133.561 16.1284 133.184 16.2734 132.878 16.5634C132.572 16.8534 132.276 17.2883 131.99 17.8683C131.725 18.4483 131.409 19.1732 131.042 20.0431L127.034 29.8445H125.81Z"
    fill="#032C4D" />
  <path
    d="M142.61 29.7575C142.549 29.4288 142.508 29.1389 142.488 28.8876C142.467 28.6362 142.437 28.3752 142.396 28.1046C141.703 28.7619 140.948 29.2839 140.132 29.6705C139.337 30.0378 138.49 30.2215 137.593 30.2215C136.043 30.2215 134.89 29.8928 134.136 29.2355C133.381 28.5589 133.004 27.7373 133.004 26.7707C133.004 25.8814 133.289 25.1178 133.86 24.4798C134.452 23.8226 135.206 23.2909 136.124 22.885C137.062 22.4597 138.072 22.1503 139.153 21.957C140.254 21.7444 141.315 21.6477 142.335 21.667V19.8692C142.335 19.1925 142.274 18.5546 142.151 17.9553C142.029 17.356 141.764 16.863 141.356 16.4764C140.948 16.0897 140.295 15.8868 139.398 15.8674C138.806 15.8481 138.194 15.9544 137.562 16.1864C136.95 16.4184 136.502 16.8147 136.216 17.3753C136.379 17.53 136.481 17.7136 136.522 17.9263C136.583 18.1196 136.614 18.3033 136.614 18.4773C136.614 18.7092 136.512 18.9799 136.308 19.2892C136.104 19.5792 135.747 19.7145 135.237 19.6952C134.809 19.6952 134.482 19.5598 134.258 19.2892C134.034 18.9992 133.921 18.6609 133.921 18.2743C133.921 17.617 134.176 17.0273 134.686 16.5054C135.217 15.9834 135.941 15.5678 136.858 15.2585C137.776 14.9492 138.816 14.7945 139.979 14.7945C141.692 14.7945 142.957 15.2295 143.773 16.0994C144.589 16.95 144.986 18.3033 144.966 20.1591C144.966 20.8744 144.966 21.5994 144.966 22.334C144.966 23.0493 144.956 23.7742 144.935 24.5088C144.935 25.2241 144.935 25.9491 144.935 26.6837C144.935 26.993 144.925 27.3023 144.905 27.6116C144.884 27.9209 144.854 28.2689 144.813 28.6556C145.18 28.6362 145.537 28.6169 145.884 28.5976C146.251 28.5782 146.618 28.5589 146.985 28.5396V29.7575H142.61ZM142.335 22.653C141.641 22.6723 140.907 22.7593 140.132 22.914C139.377 23.0493 138.674 23.2619 138.021 23.5519C137.389 23.8419 136.869 24.2285 136.461 24.7118C136.073 25.1758 135.89 25.7461 135.91 26.4227C135.951 27.138 136.196 27.6793 136.644 28.0466C137.113 28.3946 137.664 28.5686 138.296 28.5686C139.133 28.5686 139.857 28.4236 140.469 28.1336C141.101 27.8243 141.723 27.399 142.335 26.8577C142.314 26.645 142.304 26.413 142.304 26.1617C142.304 25.9104 142.304 25.6494 142.304 25.3788C142.304 25.2821 142.304 24.9728 142.304 24.4508C142.325 23.9289 142.335 23.3296 142.335 22.653Z"
    fill="#032C4D" />
  <path
    d="M147.861 29.7575V28.8876C148.493 28.8876 148.932 28.7426 149.176 28.4526C149.421 28.1433 149.564 27.7276 149.605 27.2057C149.646 26.6644 149.666 26.0457 149.666 25.3498L149.697 18.7382C149.697 18.4289 149.697 18.1196 149.697 17.8103C149.717 17.501 149.758 17.182 149.819 16.8534C149.452 16.8727 149.085 16.892 148.718 16.9114C148.371 16.9307 148.014 16.95 147.647 16.9694V15.7514C148.544 15.7514 149.217 15.7128 149.666 15.6354C150.135 15.5581 150.482 15.4615 150.706 15.3455C150.93 15.2295 151.114 15.1038 151.257 14.9685H152.144C152.164 15.1038 152.175 15.2585 152.175 15.4325C152.195 15.6064 152.215 15.7998 152.236 16.0124C152.256 16.2251 152.266 16.4667 152.266 16.7374C152.715 16.3701 153.205 16.0414 153.735 15.7514C154.286 15.4615 154.857 15.2295 155.448 15.0555C156.06 14.8815 156.662 14.7945 157.253 14.7945C159.028 14.7945 160.323 15.3261 161.139 16.3894C161.955 17.4333 162.363 19.0669 162.363 21.2901V26.6837C162.363 27.0703 162.352 27.4183 162.332 27.7276C162.332 28.0176 162.301 28.3269 162.24 28.6556C162.566 28.6362 162.883 28.6266 163.189 28.6266C163.515 28.6072 163.841 28.5879 164.168 28.5686V29.7575H157.926V28.8876C158.559 28.8876 158.997 28.7426 159.242 28.4526C159.487 28.1433 159.629 27.7276 159.67 27.2057C159.711 26.6644 159.731 26.0457 159.731 25.3498V21.2901C159.711 19.6275 159.415 18.3709 158.844 17.5203C158.293 16.6697 157.416 16.2541 156.213 16.2734C155.479 16.2927 154.755 16.4764 154.041 16.8244C153.347 17.1723 152.766 17.617 152.297 18.1583C152.317 18.3129 152.328 18.4869 152.328 18.6802C152.328 18.8736 152.328 19.0765 152.328 19.2892L152.297 26.6837C152.297 27.0703 152.287 27.4183 152.266 27.7276C152.266 28.0176 152.236 28.3269 152.175 28.6556C152.501 28.6362 152.817 28.6266 153.123 28.6266C153.449 28.6072 153.776 28.5879 154.102 28.5686V29.7575H147.861Z"
    fill="#032C4D" />
  <path
    d="M174.521 29.7575C174.46 29.4288 174.419 29.1389 174.399 28.8876C174.379 28.6362 174.348 28.3752 174.307 28.1046C173.614 28.7619 172.859 29.2839 172.043 29.6705C171.248 30.0378 170.401 30.2215 169.504 30.2215C167.954 30.2215 166.801 29.8928 166.047 29.2355C165.292 28.5589 164.915 27.7373 164.915 26.7707C164.915 25.8814 165.2 25.1178 165.771 24.4798C166.363 23.8226 167.118 23.2909 168.035 22.885C168.974 22.4597 169.983 22.1503 171.064 21.957C172.166 21.7444 173.226 21.6477 174.246 21.667V19.8692C174.246 19.1925 174.185 18.5546 174.062 17.9553C173.94 17.356 173.675 16.863 173.267 16.4764C172.859 16.0897 172.206 15.8868 171.309 15.8674C170.717 15.8481 170.106 15.9544 169.473 16.1864C168.861 16.4184 168.413 16.8147 168.127 17.3753C168.29 17.53 168.392 17.7136 168.433 17.9263C168.494 18.1196 168.525 18.3033 168.525 18.4773C168.525 18.7092 168.423 18.9799 168.219 19.2892C168.015 19.5792 167.658 19.7145 167.148 19.6952C166.72 19.6952 166.393 19.5598 166.169 19.2892C165.945 18.9992 165.833 18.6609 165.833 18.2743C165.833 17.617 166.088 17.0273 166.597 16.5054C167.128 15.9834 167.852 15.5678 168.77 15.2585C169.687 14.9492 170.728 14.7945 171.89 14.7945C173.603 14.7945 174.868 15.2295 175.684 16.0994C176.5 16.95 176.897 18.3033 176.877 20.1591C176.877 20.8744 176.877 21.5994 176.877 22.334C176.877 23.0493 176.867 23.7742 176.846 24.5088C176.846 25.2241 176.846 25.9491 176.846 26.6837C176.846 26.993 176.836 27.3023 176.816 27.6116C176.795 27.9209 176.765 28.2689 176.724 28.6556C177.091 28.6362 177.448 28.6169 177.795 28.5976C178.162 28.5782 178.529 28.5589 178.896 28.5396V29.7575H174.521ZM174.246 22.653C173.552 22.6723 172.818 22.7593 172.043 22.914C171.289 23.0493 170.585 23.2619 169.932 23.5519C169.3 23.8419 168.78 24.2285 168.372 24.7118C167.984 25.1758 167.801 25.7461 167.821 26.4227C167.862 27.138 168.107 27.6793 168.555 28.0466C169.025 28.3946 169.575 28.5686 170.208 28.5686C171.044 28.5686 171.768 28.4236 172.38 28.1336C173.012 27.8243 173.634 27.399 174.246 26.8577C174.226 26.645 174.215 26.413 174.215 26.1617C174.215 25.9104 174.215 25.6494 174.215 25.3788C174.215 25.2821 174.215 24.9728 174.215 24.4508C174.236 23.9289 174.246 23.3296 174.246 22.653Z"
    fill="#032C4D" />
  <path
    d="M100.694 11.7509C101.246 12.2834 101.885 12.5496 102.609 12.5496C103.369 12.5496 104.024 12.2834 104.576 11.7509C105.163 11.2185 105.456 10.5608 105.456 9.77774C105.456 8.99474 105.18 8.33701 104.628 7.80457C104.11 7.24081 103.455 6.95892 102.661 6.95892C101.936 6.95892 101.281 7.24081 100.694 7.80457C100.142 8.33701 99.8657 8.99474 99.8657 9.77774C99.8657 10.5608 100.142 11.2185 100.694 11.7509Z"
    fill="#77A4FD" />
  <path
    d="M93.0795 41.5992C93.0597 40.4334 92.9412 39.4653 92.7239 38.6947C92.5065 37.9241 92.1212 37.3511 91.568 36.9757C91.0345 36.5806 90.2541 36.3929 89.2266 36.4126H86.7074L86.6778 52.5651C86.6778 53.0985 86.6679 53.5628 86.6482 53.958C86.6482 54.3334 86.6284 54.6496 86.5889 54.9064C87.0038 54.8867 87.4089 54.8669 87.804 54.8471C88.219 54.8274 88.6339 54.8076 89.0488 54.7879V56.0919H82.084V55.1139C82.8348 55.0744 83.3386 54.8965 83.5955 54.5804C83.8721 54.2643 84.0203 53.8395 84.0401 53.306C84.0796 52.7528 84.0993 52.1402 84.0993 51.4685L84.129 36.4423L81.0763 36.4719C79.8315 36.4719 78.9523 36.8868 78.4386 37.7167C77.9249 38.5465 77.668 39.8407 77.668 41.5992H76.5714L76.7492 35.3457H94.0279L94.2057 41.5992H93.0795Z"
    fill="#032C4D" />
  <path
    d="M105.398 55.2028C106.011 55.2028 106.436 55.0546 106.673 54.7582C106.91 54.4421 107.048 54.0173 107.088 53.4838C107.127 52.9306 107.147 52.2983 107.147 51.587V47.4378C107.147 45.7386 106.87 44.4641 106.317 43.6145C105.784 42.7649 104.934 42.35 103.768 42.3698C103.037 42.3895 102.316 42.5673 101.605 42.9032C100.913 43.2391 100.35 43.6738 99.9153 44.2073V52.9503C99.9153 53.3455 99.9055 53.7012 99.8857 54.0173C99.8659 54.3137 99.8264 54.6298 99.7672 54.9657C100.083 54.9459 100.39 54.9361 100.686 54.9361C101.002 54.9163 101.318 54.8965 101.634 54.8768V56.0919H95.5883V55.2028C96.2008 55.2028 96.6256 55.0546 96.8627 54.7582C97.0998 54.4421 97.2381 54.0173 97.2776 53.4838C97.3369 52.9306 97.3665 52.2983 97.3665 51.587V37.5685C97.3665 37.2523 97.3665 36.956 97.3665 36.6794C97.3863 36.383 97.4159 36.0372 97.4554 35.642C97.0998 35.6618 96.7441 35.6816 96.3885 35.7013C96.0526 35.7211 95.7068 35.7408 95.3512 35.7606V34.5158C96.2205 34.5158 96.8923 34.4763 97.3665 34.3973C97.8605 34.3182 98.226 34.2194 98.4631 34.1009C98.72 33.9823 98.9175 33.8539 99.0559 33.7156H99.9153V42.755C100.35 42.3796 100.834 42.0536 101.368 41.777C101.921 41.4806 102.484 41.2435 103.057 41.0657C103.65 40.8879 104.223 40.799 104.776 40.799C106.495 40.799 107.73 41.3423 108.481 42.429C109.251 43.496 109.646 45.1656 109.666 47.4378L109.696 52.9503C109.696 53.3455 109.686 53.7012 109.666 54.0173C109.666 54.3137 109.636 54.6298 109.577 54.9657C109.893 54.9459 110.2 54.9361 110.496 54.9361C110.812 54.9163 111.128 54.8965 111.444 54.8768V56.0919H105.398V55.2028Z"
    fill="#032C4D" />
  <path
    d="M118.132 56.5661C116.768 56.5661 115.533 56.25 114.427 55.6177C113.34 54.9657 112.481 54.0568 111.848 52.8911C111.216 51.7056 110.9 50.3126 110.9 48.7122C110.9 47.3291 111.206 46.0349 111.819 44.8297C112.451 43.6244 113.33 42.6562 114.456 41.9252C115.583 41.1744 116.887 40.799 118.369 40.799C119.198 40.799 119.969 40.9373 120.68 41.2139C121.411 41.4708 122.054 41.8758 122.607 42.429C123.16 42.9625 123.595 43.6442 123.911 44.474C124.227 45.2841 124.385 46.2424 124.385 47.3489L113.953 47.5267C113.953 49.0283 114.111 50.3521 114.427 51.4981C114.763 52.6243 115.296 53.5036 116.027 54.1358C116.758 54.7483 117.697 55.0546 118.843 55.0546C119.455 55.0546 120.078 54.9459 120.71 54.7286C121.362 54.5112 121.965 54.2149 122.518 53.8395C123.071 53.4641 123.516 53.0491 123.852 52.5947L124.563 53.1874C124.029 54.0173 123.387 54.6792 122.636 55.1732C121.886 55.6671 121.115 56.0228 120.325 56.2401C119.534 56.4574 118.803 56.5661 118.132 56.5661ZM114.042 46.2819H121.599C121.599 45.5706 121.49 44.8889 121.273 44.2369C121.076 43.5651 120.74 43.0218 120.265 42.6069C119.791 42.1722 119.169 41.9548 118.398 41.9548C117.252 41.9548 116.294 42.3006 115.523 42.9921C114.773 43.6639 114.279 44.7605 114.042 46.2819Z"
    fill="#032C4D" />
  <path
    d="M125.244 55.2028C125.857 55.2028 126.282 55.0546 126.519 54.7582C126.756 54.4421 126.894 54.0173 126.934 53.4838C126.973 52.9306 126.993 52.2983 126.993 51.587V44.8297C126.993 44.5135 126.993 44.1974 126.993 43.8813C127.013 43.5651 127.052 43.2391 127.111 42.9032C126.756 42.923 126.4 42.9427 126.045 42.9625C125.709 42.9625 125.363 42.9724 125.007 42.9921V41.777H125.926C126.776 41.777 127.358 41.698 127.675 41.5399C128.01 41.3621 128.287 41.1744 128.504 40.9768H129.364C129.403 41.2929 129.433 41.6881 129.453 42.1623C129.473 42.6167 129.492 43.1996 129.512 43.9109C129.808 43.4169 130.214 42.9329 130.727 42.4587C131.241 41.9845 131.814 41.5893 132.446 41.2732C133.098 40.957 133.78 40.799 134.491 40.799C135.044 40.799 135.529 40.9472 135.943 41.2435C136.358 41.5399 136.566 42.0141 136.566 42.6661C136.566 42.8242 136.516 43.0218 136.418 43.2589C136.319 43.4762 136.161 43.6738 135.943 43.8516C135.726 44.0097 135.44 44.0887 135.084 44.0887C134.649 44.069 134.303 43.901 134.047 43.5849C133.79 43.249 133.691 42.8637 133.75 42.429C133.256 42.4093 132.743 42.5377 132.209 42.8143C131.695 43.0909 131.211 43.4762 130.757 43.9702C130.302 44.4444 129.897 45.0075 129.542 45.6595L129.571 52.9503C129.571 53.3455 129.561 53.7012 129.542 54.0173C129.542 54.3137 129.512 54.6298 129.453 54.9657C129.769 54.9459 130.075 54.9361 130.372 54.9361C130.688 54.9163 131.004 54.8965 131.32 54.8768V56.0919H125.244V55.2028Z"
    fill="#032C4D" />
  <path
    d="M145.095 56.0919C145.036 55.756 144.996 55.4597 144.976 55.2028C144.957 54.9459 144.927 54.6792 144.887 54.4026C144.216 55.0744 143.485 55.6078 142.694 56.003C141.924 56.3784 141.104 56.5661 140.234 56.5661C138.733 56.5661 137.616 56.2302 136.885 55.5584C136.154 54.8669 135.789 54.0272 135.789 53.0393C135.789 52.1304 136.065 51.3499 136.619 50.6979C137.192 50.0261 137.923 49.4828 138.812 49.0678C139.721 48.6331 140.699 48.317 141.746 48.1194C142.813 47.9021 143.84 47.8033 144.828 47.8231V45.9855C144.828 45.294 144.769 44.642 144.65 44.0295C144.532 43.4169 144.275 42.9131 143.88 42.5179C143.485 42.1228 142.852 41.9153 141.983 41.8956C141.41 41.8758 140.817 41.9845 140.205 42.2216C139.612 42.4587 139.177 42.8637 138.901 43.4367C139.059 43.5948 139.158 43.7825 139.197 43.9998C139.256 44.1974 139.286 44.3851 139.286 44.5629C139.286 44.8 139.187 45.0766 138.99 45.3928C138.792 45.6892 138.446 45.8275 137.952 45.8077C137.537 45.8077 137.221 45.6694 137.004 45.3928C136.787 45.0964 136.678 44.7506 136.678 44.3555C136.678 43.6837 136.925 43.0811 137.419 42.5476C137.933 42.0141 138.634 41.5893 139.523 41.2732C140.412 40.957 141.42 40.799 142.546 40.799C144.206 40.799 145.431 41.2435 146.221 42.1327C147.011 43.002 147.397 44.3851 147.377 46.2819C147.377 47.013 147.377 47.7539 147.377 48.5047C147.377 49.2358 147.367 49.9767 147.347 50.7275C147.347 51.4586 147.347 52.1995 147.347 52.9503C147.347 53.2665 147.338 53.5826 147.318 53.8987C147.298 54.2149 147.268 54.5705 147.229 54.9657C147.584 54.9459 147.93 54.9262 148.266 54.9064C148.622 54.8867 148.977 54.8669 149.333 54.8471V56.0919H145.095ZM144.828 48.8307C144.156 48.8505 143.445 48.9394 142.694 49.0975C141.963 49.2358 141.282 49.4531 140.649 49.7495C140.037 50.0459 139.533 50.441 139.138 50.935C138.762 51.4092 138.585 51.9921 138.604 52.6836C138.644 53.4147 138.881 53.9679 139.316 54.3433C139.77 54.699 140.304 54.8768 140.916 54.8768C141.726 54.8768 142.428 54.7286 143.02 54.4322C143.633 54.1161 144.235 53.6814 144.828 53.1282C144.808 52.9108 144.799 52.6737 144.799 52.4169C144.799 52.16 144.799 51.8933 144.799 51.6167C144.799 51.5179 144.799 51.2017 144.799 50.6683C144.818 50.1348 144.828 49.5223 144.828 48.8307Z"
    fill="#032C4D" />
  <path
    d="M148.729 63.6495V62.7604C149.342 62.7604 149.767 62.6023 150.004 62.2862C150.241 61.9898 150.379 61.565 150.419 61.0117C150.458 60.4783 150.478 59.8559 150.478 59.1446L150.537 44.8297C150.537 44.5135 150.537 44.1974 150.537 43.8813C150.557 43.5651 150.596 43.2391 150.656 42.9032C150.3 42.923 149.944 42.9427 149.589 42.9625C149.253 42.9823 148.907 43.002 148.551 43.0218V41.777C149.421 41.777 150.073 41.7375 150.507 41.6585C150.962 41.5794 151.288 41.4806 151.486 41.3621C151.703 41.2435 151.881 41.1151 152.019 40.9768H152.908C152.928 41.1744 152.948 41.4115 152.967 41.6881C152.987 41.9449 153.007 42.2413 153.027 42.5772C153.619 42.0437 154.321 41.6189 155.131 41.3028C155.961 40.9669 156.791 40.799 157.62 40.799C158.766 40.799 159.833 41.0953 160.821 41.6881C161.809 42.2808 162.609 43.1305 163.222 44.2369C163.834 45.3236 164.141 46.6277 164.141 48.1491C164.141 49.8285 163.785 51.3005 163.074 52.5651C162.382 53.8296 161.463 54.8175 160.318 55.5288C159.172 56.2203 157.927 56.5661 156.583 56.5661C155.892 56.5661 155.249 56.4772 154.657 56.2994C154.084 56.1413 153.54 55.9042 153.027 55.5881V60.5079C153.027 60.9031 153.017 61.2488 152.997 61.5452C152.997 61.8613 152.967 62.1874 152.908 62.5233C153.224 62.5035 153.531 62.4837 153.827 62.464C154.143 62.464 154.459 62.4541 154.775 62.4343V63.6495H148.729ZM156.524 55.3806C157.472 55.3806 158.282 55.0941 158.954 54.5211C159.646 53.9284 160.169 53.1282 160.525 52.1205C160.9 51.0931 161.088 49.9273 161.088 48.6233C161.088 47.5563 160.93 46.5388 160.614 45.5706C160.317 44.5827 159.833 43.7825 159.162 43.17C158.51 42.5575 157.64 42.2512 156.554 42.2512C155.882 42.2512 155.23 42.4192 154.597 42.755C153.985 43.0712 153.471 43.4565 153.056 43.9109C153.056 43.9899 153.056 44.1085 153.056 44.2666C153.076 44.4049 153.086 44.6617 153.086 45.0371C153.086 45.3928 153.086 45.9361 153.086 46.6672C153.086 47.3785 153.076 48.3467 153.056 49.5717C153.056 50.7967 153.056 52.3477 153.056 54.2248C153.55 54.6002 154.084 54.8867 154.657 55.0842C155.249 55.2818 155.872 55.3806 156.524 55.3806Z"
    fill="#032C4D" />
  <path
    d="M166.952 64.1237C166.34 64.1237 165.816 63.9755 165.382 63.6791C164.947 63.3827 164.73 62.9283 164.73 62.3158C164.73 61.9601 164.848 61.6341 165.085 61.3378C165.322 61.0414 165.629 60.8932 166.004 60.8932C166.478 60.8734 166.794 61.0216 166.952 61.3378C167.13 61.6539 167.219 61.9305 167.219 62.1676C167.219 62.2269 167.219 62.2862 167.219 62.3454C167.219 62.4245 167.209 62.5035 167.189 62.5825C167.249 62.622 167.357 62.6418 167.515 62.6418C167.753 62.6418 168.009 62.543 168.286 62.3454C168.563 62.1478 168.81 61.8613 169.027 61.4859C169.284 61.0513 169.58 60.3992 169.916 59.5299C170.272 58.6605 170.667 57.6232 171.102 56.4179L166.478 46.519C165.964 45.4125 165.589 44.5333 165.352 43.8813C165.135 43.2292 164.986 42.7452 164.907 42.429L163.485 42.4883V41.2732H169.62V42.1623H169.501C168.671 42.2216 168.217 42.5377 168.138 43.1107C168.059 43.6639 168.286 44.5135 168.82 45.6595L172.287 53.0985C172.742 51.834 173.176 50.5892 173.591 49.3642C174.006 48.1194 174.421 46.8845 174.836 45.6595C174.994 45.2248 175.152 44.7803 175.31 44.3258C175.488 43.8516 175.656 43.4367 175.814 43.0811C175.992 42.7056 176.15 42.4685 176.288 42.3698L174.243 42.4883V41.2732H178.896V42.1623C178.165 42.4389 177.612 42.9032 177.237 43.5553C176.881 44.1875 176.515 45.0075 176.14 46.0152L172.435 56.3587C171.843 58.0184 171.299 59.4212 170.805 60.5672C170.311 61.7329 169.768 62.6122 169.175 63.2049C168.582 63.8174 167.841 64.1237 166.952 64.1237Z"
    fill="#032C4D" />
  <defs>
    <linearGradient id="paint0_linear_675_16390" x1="-5.09643" y1="21.5909" x2="36.7877"
      y2="35.7685" gradientUnits="userSpaceOnUse">
      <stop stop-color="white" />
      <stop offset="1" stop-color="#77A4FD" />
    </linearGradient>
    <linearGradient id="paint1_linear_675_16390" x1="49.2974" y1="32.7104" x2="72.8341" y2="11.9536"
      gradientUnits="userSpaceOnUse">
      <stop stop-color="#9488EE" />
      <stop offset="1" stop-color="white" />
    </linearGradient>
  </defs>
</svg>