<svg width="180" height="180" viewBox="0 0 180 180" fill="none" xmlns="http://www.w3.org/2000/svg">
  <path
    d="M16.2544 22.7146C30.5932 8.83802 51.01 5.32649 68.7913 14.3982C74.4713 17.2961 76.559 18.7885 80.9364 23.4383L80.6571 23.7187C75.0318 29.3738 69.6493 35.2841 64.02 40.9455C58.4438 46.3408 54.2044 51.018 54.11 59.2677C53.9901 69.7645 64.6207 80.0799 74.9282 79.9947C82.7069 79.9304 85.9235 76.3678 91.005 71.1678C93.4283 68.6954 95.8311 66.2023 98.2133 63.6896C102.998 58.659 107.821 53.6653 112.681 48.7094L155.517 92.3317C163.666 100.611 165.319 100.508 157.27 108.442L156.461 109.236C154 111.026 152.811 111.162 150.473 108.914C148.168 106.697 145.946 104.266 143.7 101.988C139.438 97.698 135.145 93.4383 130.827 89.2083C128.861 87.274 126.391 84.5517 124.145 83.2314C121.627 81.751 118.236 83.4281 117.798 86.3501C117.536 88.106 117.885 89.5269 118.925 91.0016C121.178 94.0041 124.414 96.9697 127.099 99.6592L138.656 111.324C140.733 113.39 143.089 115.47 144.752 117.911C146.13 119.935 143.09 123.326 141.767 124.489C139.77 126.244 136.564 130.475 133.904 127.581C131.198 125.045 128.739 122.454 126.16 119.834L113.373 107.011C111.534 105.183 109.048 102.262 106.891 101.084C102.286 98.5693 98.3743 104.487 101.094 108.441C103.45 111.866 106.857 114.845 109.794 117.778L121.022 129.065C128.294 136.372 129.585 136.508 121.892 144.049L120.138 145.724L119.954 145.944C118.989 146.747 118.084 147.574 116.904 148.028C110.704 143.874 109.395 137.593 100.662 136.452C100.659 136.418 100.656 136.385 100.654 136.351L100.639 136.182C100.486 134.353 99.9575 133.118 99.04 131.539C98.8725 131.241 98.6913 130.951 98.4977 130.67C96.6277 127.99 93.7006 125.451 91.4025 123.108C88.7717 120.426 86.2119 118.596 82.4479 117.894C82.1858 115.796 81.7367 114.541 80.615 112.726C79.4521 109.987 73.0723 104.619 70.6392 102.44C69.167 101.122 66.6805 100.291 64.7106 100.122C63.7093 93.0529 58.0959 89.3405 53.2521 84.7683C50.194 81.6809 43.8241 80.2497 40.1638 83.0924C35.2951 86.8735 29.5283 92.7252 25.3648 97.3524C24.5225 96.4247 23.163 95.1675 22.2193 94.3084C9.40298 82.6407 2.255 72.7157 2.66358 54.2996C2.85972 42.3591 7.75122 30.9905 16.2544 22.7146Z"
    fill="url(#paint0_linear_803_11434)" />
  <path
    d="M127.133 7.94105C128.555 7.69282 131.874 7.79869 133.35 7.87047C156.381 8.99247 176.635 28.488 177.332 52.1351C177.606 61.4935 175.407 70.7168 170.068 78.4465C168.355 80.9309 166.342 83.1136 164.302 85.303C163.578 84.1741 161.181 81.7773 160.183 80.7504C157.514 77.9947 154.82 75.2641 152.101 72.5586L124.043 44.3106C121.252 41.4522 116.796 35.765 112.322 37.6298C108.386 39.2702 104.603 43.7675 101.533 46.8688L87.4843 61.2437C82.9951 65.8943 77.9603 73.1235 71.2697 67.7444C65.6611 63.2353 62.9772 59.1349 68.1033 52.5929C69.4798 50.8362 71.2883 49.1647 72.8167 47.5475C75.7046 44.4675 78.613 41.4073 81.5416 38.3669C85.4074 34.3074 89.2936 30.2679 93.2 26.2486C103.786 15.4858 111.496 9.31099 127.133 7.94105Z"
    fill="url(#paint1_linear_803_11434)" />
  <path
    d="M39.8499 117.183C38.4289 117.199 37.5801 116.94 36.4322 116.086C34.4717 114.629 30.9155 111.067 30.5576 108.566C30.3448 107.08 30.9859 106.048 31.831 104.891C33.2758 102.913 43.8354 91.7024 45.6155 91.5342C46.692 91.4325 47.9551 92.4896 48.705 93.1625C50.5625 94.8296 54.8978 98.6093 54.9625 101.142C55.0129 103.111 50.5309 107.057 49.0851 108.55C46.6046 110.887 42.5149 115.927 39.8499 117.183Z"
    fill="#9488EE" />
  <path
    d="M57.5736 134.53C56.1527 134.547 55.3038 134.288 54.156 133.434C52.1954 131.976 48.6392 128.414 48.2814 125.914C48.0685 124.428 48.7097 123.395 49.5548 122.239C50.9996 120.261 61.5592 109.05 63.3392 108.882C64.4158 108.78 65.6789 109.837 66.4287 110.51C68.2863 112.177 72.6216 115.957 72.6863 118.489C72.7366 120.459 68.2547 124.405 66.8089 125.898C64.3283 128.234 60.2387 133.274 57.5736 134.53Z"
    fill="#9488EE" />
  <path
    d="M75.2973 153.072C73.8763 153.089 73.0275 152.83 71.8796 151.976C69.9191 150.518 66.3629 146.957 66.005 144.456C65.7922 142.97 66.4333 141.938 67.2784 140.781C68.7232 138.803 79.2828 127.592 81.0629 127.424C82.1394 127.322 83.4025 128.379 84.1523 129.052C86.0099 130.719 90.3452 134.499 90.4099 137.031C90.4603 139.001 85.9783 142.947 84.5325 144.44C82.052 146.776 77.9623 151.816 75.2973 153.072Z"
    fill="#9488EE" />
  <path
    d="M98.7867 146.565C99.8633 146.463 101.126 147.52 101.876 148.193C103.734 149.86 108.069 153.64 108.134 156.173C108.184 158.142 103.702 162.088 102.256 163.581C99.7759 165.917 95.6865 170.957 93.0214 172.214C91.6005 172.23 90.7515 171.971 89.6037 171.117C87.6432 169.659 84.0867 166.098 83.7287 163.597C83.5159 162.111 84.1575 161.079 85.0026 159.922C86.4474 157.944 97.0066 146.733 98.7867 146.565Z"
    fill="#9488EE" />
  <defs>
    <linearGradient id="paint0_linear_803_11434" x1="-39.4924" y1="53.546" x2="94.3616" y2="98.2962"
      gradientUnits="userSpaceOnUse">
      <stop stop-color="white" />
      <stop offset="1" stop-color="#77A4FD" />
    </linearGradient>
    <linearGradient id="paint1_linear_803_11434" x1="133.904" y1="89.4341" x2="209.747" y2="23.3741"
      gradientUnits="userSpaceOnUse">
      <stop stop-color="#9488EE" />
      <stop offset="1" stop-color="white" />
    </linearGradient>
  </defs>
</svg>