<svg width="58" height="64" viewBox="0 0 58 64" fill="none" xmlns="http://www.w3.org/2000/svg">
<path fill-rule="evenodd" clip-rule="evenodd" d="M52.9867 55.4932C54.2858 54.7347 55.3909 53.6847 56.2147 52.4259C57.0384 51.1671 57.5583 49.7341 57.7333 48.2399C58.0961 45.313 57.5565 42.3451 56.1867 39.7332C54.9205 37.3248 52.9478 35.3613 50.5333 34.1066C48.0532 32.8815 45.2205 32.5699 42.5333 33.2266C40.3171 33.7001 38.192 34.5285 36.24 35.6799C34.8806 36.4999 33.6867 37.5672 32.72 38.8266C31.734 40.2695 31.0488 41.8962 30.7052 43.6097C30.3616 45.3232 30.3666 47.0884 30.72 48.7999C30.9794 50.5114 31.6134 52.1446 32.5768 53.5828C33.5402 55.021 34.8093 56.2288 36.2933 57.1199C37.939 57.9843 39.7679 58.4415 41.6267 58.4532C44.2371 58.4665 46.8347 58.089 49.3333 57.3332C49.4247 57.3174 49.511 57.2802 49.5851 57.2245C49.6593 57.1689 49.7192 57.0965 49.76 57.0132C50.1067 57.7866 50.4267 58.5332 50.8533 59.2799C51.0702 59.6965 51.3294 60.0897 51.6267 60.4532C51.8933 60.7999 52.2133 61.1466 52.5333 61.4932C53.28 62.2666 54.1067 62.9599 54.9333 63.7066C55.0918 63.8566 55.3018 63.9402 55.52 63.9402C55.7383 63.9402 55.9482 63.8566 56.1067 63.7066C56.1882 63.6293 56.2531 63.5363 56.2974 63.4331C56.3418 63.33 56.3647 63.2189 56.3647 63.1066C56.3647 62.9943 56.3418 62.8832 56.2974 62.78C56.2531 62.6769 56.1882 62.5838 56.1067 62.5066C55.5733 61.5732 55.0933 60.6666 54.5333 59.8399C54.32 59.4666 54.0533 59.0932 53.7867 58.7199C53.525 58.3551 53.24 58.0077 52.9333 57.6799C52.4267 57.1466 51.92 56.6666 51.3867 56.1866C51.9452 56.0185 52.4821 55.7858 52.9867 55.4932ZM41.6267 56.6399C40.0971 56.5414 38.6103 56.0944 37.28 55.3332C36.1294 54.5427 35.1657 53.5101 34.4563 52.3078C33.7469 51.1055 33.309 49.7626 33.1733 48.3732C32.9344 47.0133 32.9693 45.6193 33.2761 44.2731C33.5829 42.9268 34.1554 41.6554 34.96 40.5332C35.9208 39.3113 37.1414 38.3185 38.5333 37.6266C40.011 36.8982 41.568 36.3433 43.1733 35.9732C45.2294 35.4389 47.4073 35.6369 49.3333 36.5332C51.3194 37.4731 52.9608 39.0119 54.0267 40.9332C55.3101 43.0544 55.8802 45.531 55.6533 47.9999C55.5691 49.1996 55.2042 50.3627 54.5882 51.3956C53.9722 52.4285 53.1222 53.3023 52.1067 53.9466C51.6478 54.2365 51.1553 54.4694 50.64 54.6399C47.6533 55.6266 47.0933 57.0666 41.68 56.6399H41.6267Z" fill="#77A4FD"/>
<path fill-rule="evenodd" clip-rule="evenodd" d="M30.2133 55.2533C28.9867 55.2533 26.5067 55.4133 23.7867 55.4133H14.1067L8.77333 55.28L5.97333 54.9333C3.70667 54.48 2.85333 53.5733 2.85333 52.2667C3.46048 49.2206 4.35331 46.2385 5.52 43.36C6.32908 40.0666 6.87304 36.7136 7.14667 33.3333C7.46667 29.6603 7.46667 25.9664 7.14667 22.2933C6.64 16.96 5.68 11.4667 4.85333 6.10667C4.82145 5.96141 4.74537 5.82959 4.63555 5.72932C4.52573 5.62905 4.38755 5.56524 4.24 5.54667C9.04 4.93333 13.92 4.08 18.8267 3.52C22.1957 3.09412 25.5915 2.91587 28.9867 2.98667C29.7067 2.98667 31.6533 2.82667 33.52 2.85333C34.4 2.85333 35.2 2.85333 35.52 3.06667C37.6533 4.82667 39.92 6.82667 42.0267 8.93333C43.3629 10.3347 44.6267 11.8033 45.8133 13.3333C45.9733 13.52 45.8133 13.9733 45.8133 14.4V16.2933L45.6533 28.7733C45.6886 28.9705 45.7921 29.1489 45.9456 29.2774C46.0992 29.406 46.2931 29.4764 46.4933 29.4764C46.6936 29.4764 46.8875 29.406 47.041 29.2774C47.1946 29.1489 47.2981 28.9705 47.3333 28.7733L48.0533 16.32C48.1003 15.4317 48.1003 14.5416 48.0533 13.6533C48.116 12.9791 47.9768 12.3015 47.6533 11.7067C46.128 9.69689 44.471 7.79048 42.6933 6C40.96 4.16 39.0667 2.42667 37.2533 0.88C36.3763 0.319811 35.3605 0.0150816 34.32 0C32.3733 0 29.8133 0.16 28.9867 0C26.3059 0.0626284 23.6327 0.312122 20.9867 0.746667C14.8533 1.57333 8.77333 3.12 2.85333 4.13333C2.68019 4.19303 2.53277 4.31033 2.4357 4.46564C2.33863 4.62095 2.29779 4.80487 2.32 4.98667C2.35287 5.1825 2.45981 5.35819 2.61867 5.47733C2.77753 5.59648 2.97613 5.64995 3.17333 5.62667H3.70667C3.56682 5.68381 3.44946 5.78506 3.37244 5.91503C3.29543 6.04499 3.26297 6.19656 3.28 6.34667C3.86667 11.68 4.58667 17.0133 4.82667 22.3467C5.02126 25.9055 4.90527 29.4746 4.48 33.0133C4.29333 34.64 4.05333 36.2667 3.76 37.8667C3.46667 39.4667 3.04 41.0667 2.66667 42.6667C1.86667 46 0 49.5733 0 52.2667C0 54.96 1.25333 56.8 5.33333 57.6L8.61333 57.84H13.9467C15.6533 57.84 19.8667 57.68 23.68 57.52C26.3467 57.52 29.0133 57.28 30.2133 57.12C30.3244 57.1134 30.433 57.0844 30.5326 57.0348C30.6322 56.9851 30.7208 56.9159 30.793 56.8313C30.8652 56.7466 30.9196 56.6482 30.9529 56.542C30.9861 56.4359 30.9976 56.3241 30.9867 56.2133C31.0015 56.0991 30.993 55.9831 30.9618 55.8722C30.9306 55.7613 30.8772 55.6579 30.805 55.5682C30.7327 55.4785 30.643 55.4044 30.5414 55.3503C30.4397 55.2961 30.3281 55.2632 30.2133 55.2533Z" fill="#77A4FD"/>
<path fill-rule="evenodd" clip-rule="evenodd" d="M38.32 30.4533C38.524 30.4421 38.7172 30.3581 38.8645 30.2166C39.0118 30.0751 39.1035 29.8855 39.1229 29.6821C39.1423 29.4787 39.088 29.2752 38.9701 29.1084C38.8521 28.9416 38.6782 28.8227 38.48 28.7733C37.04 28.5599 35.6 28.4533 34.16 28.3733H33.6C33.5793 27.2553 33.418 26.1443 33.12 25.0666C32.9752 24.576 32.7786 24.1022 32.5334 23.6533C32.3061 23.1847 32.0094 22.7532 31.6534 22.3733C31.192 21.977 30.6917 21.6285 30.16 21.3333C30.7589 20.6457 31.2157 19.8463 31.504 18.9812C31.7923 18.1162 31.9065 17.2026 31.84 16.2933C31.8578 15.4521 31.7074 14.616 31.3978 13.8337C31.0881 13.0515 30.6254 12.339 30.0367 11.7379C29.4481 11.1368 28.7454 10.6593 27.9698 10.3334C27.1942 10.0075 26.3613 9.83973 25.52 9.83992C23.7315 9.78906 21.9946 10.4424 20.683 11.6593C19.3713 12.8761 18.5898 14.5593 18.5067 16.3466C18.4848 17.3899 18.7428 18.4201 19.254 19.3299C19.7652 20.2398 20.5108 20.996 21.4134 21.5199C20.7226 21.8583 20.07 22.2695 19.4667 22.7466C18.7395 23.312 18.1245 24.0084 17.6534 24.7999C16.8082 26.1498 16.5213 27.7756 16.8534 29.3333C15.4667 29.5999 14.1867 29.9199 12.7467 30.2933C12.6514 30.3092 12.5603 30.3442 12.4788 30.3961C12.3973 30.448 12.3271 30.5158 12.2723 30.5955C12.2176 30.6751 12.1794 30.7649 12.1601 30.8596C12.1408 30.9543 12.1408 31.0519 12.16 31.1466C12.1987 31.3304 12.3053 31.493 12.4585 31.6017C12.6118 31.7104 12.8004 31.7574 12.9867 31.7333C14.4534 31.5466 15.92 31.4399 17.4134 31.3333C18.9067 31.2266 20.8534 31.3333 22.5867 31.3333C24.32 31.3333 26.0534 31.1733 27.92 31.1466C30.3467 30.9599 32.8267 30.6933 35.28 30.5866C36.2905 30.4915 37.3051 30.447 38.32 30.4533ZM25.5734 12.6933C26.5829 12.6716 27.5603 13.0485 28.2939 13.7422C29.0276 14.436 29.4585 15.3908 29.4934 16.3999C30.3734 23.5999 20.4534 21.7333 20.9334 16.3999C21.0863 15.306 21.6524 14.3122 22.5154 13.6228C23.3784 12.9334 24.4727 12.6008 25.5734 12.6933ZM27.76 28.2133C25.76 28.2133 23.7334 28.2133 21.7334 28.5333C20.6934 28.5333 19.6534 28.8266 18.64 28.9866C18.7423 28.2862 19.0071 27.6195 19.4134 27.0399C19.6534 26.7199 19.92 26.4266 20.1867 26.1066L21.4134 24.6399C22.16 23.8133 22.8267 22.9866 23.4667 22.2933C27.1734 23.0399 27.2 22.9866 28.4534 22.4266C28.7467 22.8533 29.04 23.2533 29.28 23.6799C29.52 24.1066 29.5467 24.2133 29.7067 24.4533C29.8667 24.6933 30.1334 25.2266 30.3734 25.5999C30.8839 26.4585 31.3382 27.3492 31.7334 28.2666L27.76 28.2133Z" fill="#77A4FD"/>
<path fill-rule="evenodd" clip-rule="evenodd" d="M29.12 35.9733C29.1236 35.8626 29.1048 35.7522 29.0649 35.6488C29.025 35.5454 28.9646 35.4511 28.8875 35.3715C28.8104 35.2919 28.718 35.2286 28.616 35.1854C28.5139 35.1422 28.4042 35.1199 28.2933 35.12C26.6933 34.9333 25.1733 34.72 23.6 34.5867H21.52C20.2133 34.5867 18.8533 34.72 17.6 34.9067C15.68 35.2 13.84 35.7067 11.92 35.9467C11.722 35.9467 11.5321 36.0253 11.392 36.1654C11.252 36.3054 11.1733 36.4953 11.1733 36.6933C11.1733 36.8914 11.252 37.0813 11.392 37.2213C11.5321 37.3613 11.722 37.44 11.92 37.44C13.8792 37.6176 15.8465 37.6888 17.8133 37.6533C19.0933 37.6533 20.48 37.44 21.6267 37.3867L28.2133 36.9067C28.338 36.9199 28.464 36.9047 28.5819 36.8621C28.6998 36.8195 28.8065 36.7506 28.8938 36.6607C28.9812 36.5707 29.0469 36.4621 29.0861 36.3431C29.1253 36.224 29.1369 36.0976 29.12 35.9733Z" fill="#77A4FD"/>
<path fill-rule="evenodd" clip-rule="evenodd" d="M20.1601 40.8799H18.0801C17.4004 40.9204 16.7237 41.0005 16.0534 41.1199C14.4801 41.4132 13.0134 41.8665 11.4934 42.1865C11.2978 42.2067 11.1172 42.3007 10.9884 42.4493C10.8596 42.5979 10.7922 42.79 10.8001 42.9866C10.8068 43.0847 10.8329 43.1805 10.8768 43.2686C10.9207 43.3566 10.9816 43.4351 11.0559 43.4995C11.1303 43.5639 11.2166 43.613 11.31 43.644C11.4034 43.6749 11.5019 43.6871 11.6001 43.6799C13.3601 43.6799 15.1467 43.8932 16.9334 43.8132C17.9467 43.8132 18.9867 43.6532 20.0001 43.5999C21.5159 43.4402 23.0442 43.4402 24.5601 43.5999C24.7786 43.641 25.0045 43.5978 25.1925 43.4791C25.3805 43.3603 25.5166 43.1748 25.5734 42.9599C25.6009 42.8512 25.6059 42.738 25.5883 42.6273C25.5707 42.5166 25.5307 42.4106 25.4709 42.3159C25.411 42.2211 25.3325 42.1395 25.2401 42.076C25.1477 42.0125 25.0433 41.9684 24.9334 41.9465C23.3973 41.3786 21.7918 41.0199 20.1601 40.8799Z" fill="#77A4FD"/>
</svg>
