<svg width="64" height="64" viewBox="0 0 64 64" fill="none" xmlns="http://www.w3.org/2000/svg">
<rect x="63" y="63" width="62" height="62" transform="rotate(-180 63 63)" stroke="#77A4FD" stroke-width="2"/>
<path d="M17.3656 31.1157L28.6156 19.8657C28.8502 19.6311 29.1683 19.4993 29.5 19.4993C29.8317 19.4993 30.1498 19.6311 30.3844 19.8657C30.6189 20.1002 30.7507 20.4183 30.7507 20.75C30.7507 21.0817 30.6189 21.3999 30.3844 21.6344L21.2672 30.75L45.75 30.75C46.0815 30.75 46.3995 30.8817 46.6339 31.1162C46.8683 31.3506 47 31.6685 47 32C47 32.3316 46.8683 32.6495 46.6339 32.8839C46.3995 33.1183 46.0815 33.25 45.75 33.25H21.2672L30.3844 42.3657C30.6189 42.6002 30.7507 42.9183 30.7507 43.25C30.7507 43.5817 30.6189 43.8999 30.3844 44.1344C30.1498 44.369 29.8317 44.5007 29.5 44.5007C29.1683 44.5007 28.8502 44.369 28.6156 44.1344L17.3656 32.8844C17.2494 32.7683 17.1572 32.6305 17.0943 32.4787C17.0314 32.327 16.999 32.1643 16.999 32C16.999 31.8358 17.0314 31.6731 17.0943 31.5214C17.1572 31.3696 17.2494 31.2318 17.3656 31.1157Z" fill="#77A4FD"/>
</svg>
