<svg width="64" height="64" viewBox="0 0 64 64" fill="none" xmlns="http://www.w3.org/2000/svg">
<rect x="1" y="1" width="62" height="62" stroke="#77A4FD" stroke-width="2"/>
<path d="M46.6344 32.8843L35.3844 44.1343C35.1498 44.3689 34.8317 44.5007 34.5 44.5007C34.1683 44.5007 33.8502 44.3689 33.6156 44.1343C33.3811 43.8998 33.2493 43.5817 33.2493 43.25C33.2493 42.9183 33.3811 42.6001 33.6156 42.3656L42.7328 33.25H18.25C17.9185 33.25 17.6005 33.1183 17.3661 32.8838C17.1317 32.6494 17 32.3315 17 32C17 31.6684 17.1317 31.3505 17.3661 31.1161C17.6005 30.8817 17.9185 30.75 18.25 30.75H42.7328L33.6156 21.6343C33.3811 21.3998 33.2493 21.0817 33.2493 20.75C33.2493 20.4183 33.3811 20.1001 33.6156 19.8656C33.8502 19.631 34.1683 19.4993 34.5 19.4993C34.8317 19.4993 35.1498 19.631 35.3844 19.8656L46.6344 31.1156C46.7506 31.2317 46.8428 31.3695 46.9057 31.5213C46.9686 31.673 47.001 31.8357 47.001 32C47.001 32.1642 46.9686 32.3269 46.9057 32.4786C46.8428 32.6304 46.7506 32.7682 46.6344 32.8843Z" fill="#77A4FD"/>
</svg>
