<svg width="64" height="64" viewBox="0 0 64 64" fill="none" xmlns="http://www.w3.org/2000/svg">
<path fill-rule="evenodd" clip-rule="evenodd" d="M21.3334 52.4816C20.9872 51.8306 20.5666 51.2221 20.08 50.6682C19.4061 49.9714 18.6545 49.354 17.84 48.8282C18.7466 47.8915 19.4419 46.7712 19.8789 45.543C20.3159 44.3148 20.4845 43.0071 20.3734 41.7082C20.3592 39.4851 19.4644 37.3581 17.8848 35.7936C16.3053 34.229 14.1699 33.3545 11.9467 33.3616C9.56871 33.3036 7.2632 34.1825 5.52724 35.8087C3.79128 37.4349 2.76393 39.6782 2.66669 42.0549C2.62399 43.5522 3.01707 45.0297 3.79816 46.3079C4.57926 47.5861 5.71476 48.6099 7.06669 49.2549C5.94603 49.8472 4.88357 50.5436 3.89335 51.3349C2.94338 52.1537 2.11702 53.1058 1.44002 54.1616C0.829556 55.082 0.411005 56.1161 0.2094 57.202C0.0077956 58.2879 0.0272793 59.4034 0.266686 60.4816C0.266458 60.5983 0.290167 60.7138 0.336347 60.8209C0.382527 60.9281 0.450197 61.0247 0.535173 61.1047C0.62015 61.1846 0.720627 61.2463 0.830395 61.2859C0.940162 61.3255 1.05689 61.3422 1.17335 61.3349C1.39745 61.3018 1.60013 61.1835 1.73921 61.0047C1.87829 60.8258 1.94305 60.6003 1.92002 60.3749C1.90767 59.1367 2.28041 57.9253 2.98669 56.9082C3.6739 55.8499 4.45962 54.8588 5.33335 53.9482C6.64002 52.5082 8.00002 51.0682 9.12002 49.9749C9.93211 50.1778 10.7634 50.294 11.6 50.3216C11.7772 50.2882 11.9372 50.194 12.0523 50.0553C12.1674 49.9165 12.2304 49.7419 12.2304 49.5616C12.2304 49.3813 12.1674 49.2067 12.0523 49.0679C11.9372 48.9291 11.7772 48.8349 11.6 48.8016C6.88002 48.3216 4.82669 45.3349 5.06669 42.1616C5.24879 40.4802 6.07581 38.9349 7.37383 37.8507C8.67186 36.7665 10.3397 36.228 12.0267 36.3482C13.5666 36.3195 15.0555 36.9003 16.1692 37.9641C17.283 39.0279 17.9314 40.4886 17.9734 42.0282C18.2908 43.5899 17.9825 45.2138 17.1147 46.5504C16.2469 47.887 14.889 48.8294 13.3334 49.1749C13.1044 49.2018 12.8951 49.3174 12.7505 49.4969C12.6059 49.6764 12.5375 49.9055 12.56 50.1349C12.5991 50.3562 12.7189 50.5551 12.8963 50.6931C13.0736 50.831 13.2959 50.8982 13.52 50.8816C14.45 50.7784 15.3535 50.5074 16.1867 50.0816C16.8243 50.8336 17.4123 51.6264 17.9467 52.4549C18.2667 52.9349 18.56 53.4416 18.8267 53.9216C19.0934 54.4016 19.4134 54.9083 19.68 55.4149C20.3365 56.6746 20.8895 57.9856 21.3334 59.3349C21.3845 59.5548 21.5182 59.7466 21.7068 59.8707C21.8954 59.9948 22.1245 60.0417 22.3467 60.0016C22.459 59.9829 22.5663 59.9411 22.6617 59.879C22.7572 59.8168 22.8387 59.7357 22.9013 59.6405C22.9639 59.5454 23.0062 59.4383 23.0255 59.3261C23.0447 59.2138 23.0406 59.0988 23.0134 58.9883C22.9233 57.4338 22.6549 55.8948 22.2134 54.4016C21.9758 53.7375 21.6813 53.0951 21.3334 52.4816Z" fill="#77A4FD"/>
<path fill-rule="evenodd" clip-rule="evenodd" d="M63.1733 54.4005C62.9529 53.7382 62.6763 53.0958 62.3466 52.4805C62.002 51.8681 61.5906 51.2957 61.12 50.7739C60.446 50.077 59.6945 49.4596 58.88 48.9339C59.8105 48.0088 60.5304 46.8938 60.9906 45.665C61.4509 44.4362 61.6405 43.1226 61.5466 41.8139C61.5325 39.5907 60.6377 37.4637 59.0581 35.8992C57.4786 34.3346 55.3432 33.4601 53.12 33.4672C50.7505 33.3942 48.4467 34.2521 46.7022 35.8571C44.9576 37.4621 43.911 39.6866 43.7866 42.0539C43.7205 43.5324 44.083 44.9985 44.8305 46.2758C45.578 47.5531 46.6786 48.5873 48 49.2539C46.8757 49.84 45.8126 50.5367 44.8266 51.3339C43.8697 52.1456 43.0424 53.0989 42.3733 54.1605C41.7628 55.081 41.3443 56.1151 41.1427 57.201C40.9411 58.2869 40.9606 59.4023 41.2 60.4805C41.2517 60.6847 41.3771 60.8626 41.5521 60.9799C41.7271 61.0972 41.9393 61.1456 42.1479 61.1158C42.3564 61.086 42.5466 60.9801 42.6817 60.8185C42.8169 60.6569 42.8875 60.4511 42.88 60.2405C42.8907 59.0018 43.2714 57.7946 43.9733 56.7739C44.6334 55.7662 45.3831 54.8201 46.2133 53.9472C47.52 52.5072 48.88 51.0672 50 49.9739C50.8121 50.1768 51.6434 50.293 52.48 50.3205C52.6572 50.2872 52.8171 50.193 52.9322 50.0542C53.0473 49.9154 53.1103 49.7408 53.1103 49.5605C53.1103 49.3802 53.0473 49.2056 52.9322 49.0668C52.8171 48.9281 52.6572 48.8339 52.48 48.8005C48 48.3205 45.8666 45.3339 46.1066 42.1605C46.2887 40.4791 47.1158 38.9338 48.4138 37.8497C49.7118 36.7655 51.3797 36.2269 53.0666 36.3472C54.6065 36.3185 56.0955 36.8993 57.2092 37.9631C58.323 39.0269 58.9714 40.4876 59.0133 42.0272C59.3279 43.604 59.005 45.2412 58.1155 46.5805C57.2259 47.9199 55.842 48.8523 54.2666 49.1739C54.1546 49.1861 54.046 49.2203 53.9472 49.2745C53.8483 49.3287 53.7612 49.4019 53.6906 49.4898C53.62 49.5777 53.5674 49.6786 53.5359 49.7869C53.5043 49.8951 53.4944 50.0085 53.5066 50.1205C53.5189 50.2326 53.5531 50.3411 53.6073 50.44C53.6615 50.5388 53.7347 50.626 53.8226 50.6966C53.9105 50.7672 54.0114 50.8197 54.1196 50.8513C54.2279 50.8828 54.3412 50.8928 54.4533 50.8805C55.3833 50.7774 56.2868 50.5063 57.12 50.0805C57.7576 50.8325 58.3456 51.6253 58.88 52.4539C59.2 52.9339 59.4933 53.4405 59.76 53.9205C60.0266 54.4005 60.3466 54.9072 60.6133 55.4139C61.2607 56.6744 61.8047 57.9853 62.24 59.3339C62.2911 59.5538 62.4248 59.7456 62.6134 59.8697C62.802 59.9937 63.0311 60.0406 63.2533 60.0005C63.3639 59.9783 63.469 59.9344 63.5625 59.8713C63.656 59.8082 63.736 59.7272 63.798 59.6329C63.86 59.5387 63.9027 59.4331 63.9237 59.3223C63.9446 59.2114 63.9433 59.0975 63.92 58.9872C63.8473 57.4348 63.5968 55.8958 63.1733 54.4005Z" fill="#77A4FD"/>
<path fill-rule="evenodd" clip-rule="evenodd" d="M34.4801 17.2006C34.0801 18.0006 33.7334 18.8006 33.3067 19.8673L32.4267 22.1873L31.8134 24.0006L31.4134 25.3339L29.7067 23.8139L27.5734 21.9473L24.1867 18.8273C24.1172 18.7563 24.0342 18.6999 23.9427 18.6615C23.8511 18.623 23.7527 18.6032 23.6534 18.6032C23.5541 18.6032 23.4557 18.623 23.3642 18.6615C23.2726 18.6999 23.1896 18.7563 23.1201 18.8273C23.0491 18.8968 22.9928 18.9798 22.9543 19.0713C22.9158 19.1629 22.896 19.2613 22.896 19.3606C22.896 19.4599 22.9158 19.5583 22.9543 19.6499C22.9928 19.7414 23.0491 19.8244 23.1201 19.8939L26.2667 23.3606L28.2134 25.3873L30.1334 27.4406C30.4001 27.7073 30.6667 28.4006 30.9067 28.6139C31.1676 28.8388 31.4961 28.9702 31.8401 28.9873C32.061 28.9863 32.2789 28.9355 32.4775 28.8385C32.6761 28.7415 32.8501 28.601 32.9867 28.4273C33.2864 28.0662 33.5292 27.6616 33.7067 27.2273C34.0534 26.4539 34.2934 25.5206 34.5067 24.9339L35.1467 23.1206L36.0267 20.9339L38.2667 16.0006C39.3907 13.8115 40.6742 11.7081 42.1067 9.70727C43.5334 7.7481 45.1797 5.95868 47.0134 4.37394C47.1902 4.23249 47.3036 4.02659 47.3286 3.80155C47.3536 3.57651 47.2882 3.35075 47.1467 3.17394C47.0053 2.99712 46.7994 2.88375 46.5744 2.85874C46.3493 2.83374 46.1236 2.89915 45.9467 3.0406C43.8742 4.58883 41.9942 6.37931 40.3467 8.37394C38.6839 10.3614 37.1772 12.4743 35.8401 14.6939C35.3067 15.6273 34.8801 16.4006 34.4801 17.2006Z" fill="#77A4FD"/>
<path fill-rule="evenodd" clip-rule="evenodd" d="M52.8267 17.5735C52.331 16.3051 51.6769 15.1045 50.8801 14.0002C49.7282 12.4225 48.4908 10.9091 47.1734 9.46683C47.0461 9.31477 46.8636 9.21951 46.666 9.20201C46.4685 9.1845 46.2721 9.24619 46.1201 9.37349C45.968 9.5008 45.8727 9.68329 45.8552 9.88083C45.8377 10.0784 45.8994 10.2748 46.0267 10.4268C47.2557 11.8736 48.4041 13.387 49.4667 14.9602C50.1587 15.967 50.7147 17.0609 51.1201 18.2135C51.8259 19.9731 51.9949 21.9024 51.6058 23.758C51.2166 25.6136 50.2867 27.3124 48.9334 28.6402C46.6974 30.5485 44.0912 31.9742 41.2782 32.8278C38.4652 33.6813 35.5061 33.9443 32.5867 33.6002C24.7467 33.2002 19.4401 31.2268 16.2401 28.4535C14.8248 27.3574 13.7727 25.8602 13.2209 24.1573C12.6691 22.4543 12.6432 20.6247 13.1467 18.9068C15.1467 12.1335 24.3734 6.40016 37.7867 8.45349C37.8988 8.47275 38.0135 8.46975 38.1244 8.44466C38.2353 8.41957 38.3402 8.37289 38.4331 8.30727C38.5259 8.24165 38.605 8.15838 38.6656 8.06222C38.7263 7.96606 38.7675 7.85889 38.7867 7.74683C38.806 7.63476 38.803 7.52001 38.7779 7.4091C38.7528 7.2982 38.7061 7.19333 38.6405 7.10047C38.5749 7.00761 38.4916 6.92859 38.3954 6.86791C38.2993 6.80723 38.1921 6.76609 38.0801 6.74683C23.2801 4.08016 13.0934 10.6668 10.6667 18.1335C9.01338 23.2268 10.6667 28.8002 17.0401 32.5602C21.7801 35.0543 27.0442 36.3886 32.4001 36.4535C35.7109 36.7345 39.044 36.325 42.1884 35.2509C45.3327 34.1768 48.2198 32.4614 50.6667 30.2135C52.2357 28.556 53.2782 26.4706 53.6627 24.2209C54.0471 21.9712 53.7562 19.658 52.8267 17.5735Z" fill="#77A4FD"/>
</svg>
