<svg width="64" height="64" viewBox="0 0 64 64" fill="none" xmlns="http://www.w3.org/2000/svg">
<g clip-path="url(#clip0_457_10683)">
<path fill-rule="evenodd" clip-rule="evenodd" d="M56.56 14.5329C55.125 14.8439 53.8483 15.6572 52.96 16.8263C52.8794 16.8946 52.8131 16.978 52.7649 17.072C52.7166 17.1659 52.6873 17.2684 52.6786 17.3736C52.6611 17.5861 52.7287 17.7969 52.8667 17.9596C53.0046 18.1223 53.2015 18.2235 53.414 18.241C53.6265 18.2585 53.8373 18.1909 54 18.0529C55.3867 17.0929 55.5733 16.9329 56.8533 16.9063C58.1333 16.8796 61.1733 18.9063 61.2267 20.3196C61.3587 21.8115 60.9204 23.298 60 24.4796C58.2133 23.0929 53.8133 19.9729 52.6667 19.1463C52.4967 18.9769 52.2666 18.8818 52.0267 18.8818C51.7867 18.8818 51.5566 18.9769 51.3867 19.1463C50.3467 20.3196 52.4 20.9329 58.48 26.1329C57.68 27.4929 57.36 27.7063 48.48 38.0529C47.8601 36.8473 47.0051 35.7778 45.9655 34.9077C44.9259 34.0375 43.7227 33.3842 42.4267 32.9863C50.0533 22.3196 51.4133 22.0263 50.4267 21.1729C49.44 20.3196 49.0933 21.5729 48.16 22.6396C41.5467 30.3463 37.8933 34.5596 37.8133 35.9729C37.52 41.8129 37.2533 44.6396 38.1333 45.4663C39.8667 47.1196 46.1333 44.7463 47.5733 43.8129C53.2375 37.4935 58.4503 30.7836 63.1733 23.7329C63.8256 22.7039 64.1551 21.5034 64.1196 20.2856C64.0841 19.0678 63.6851 17.8885 62.974 16.8992C62.2629 15.91 61.2722 15.1561 60.1292 14.7344C58.9862 14.3127 57.7432 14.2426 56.56 14.5329ZM45.7067 41.1996C44.0407 42.072 42.2363 42.6494 40.3733 42.9063C40 34.7196 40.16 36.2396 41.2533 34.6396C43.0205 36.4934 44.9779 38.1559 47.0933 39.5996C46.3467 40.5063 45.84 41.0929 45.7067 41.1996Z" fill="#032C4D"/>
<path fill-rule="evenodd" clip-rule="evenodd" d="M45.7867 49.5198C45.12 52.3998 44.32 53.3598 40.8 53.9198C31.1274 54.779 21.39 54.5823 11.76 53.3332C9.94666 53.0132 8.23999 52.9332 6.42666 52.6665C4.61333 52.3998 4.95999 52.3198 3.03999 51.8932C2.69333 50.2665 4.66666 46.2665 5.09333 44.3732C5.09333 44.3732 10.9067 16.7198 11.3333 14.2132C11.8947 11.1028 12.2422 7.9577 12.3733 4.79984C15.6533 4.79984 20.6933 5.43984 23.7333 5.7865C33.2533 6.85317 43.5467 4.13317 50.0267 7.83984C50.418 9.22599 50.5446 10.6735 50.4 12.1065C50.4 12.3187 50.4843 12.5222 50.6343 12.6722C50.7843 12.8222 50.9878 12.9065 51.2 12.9065C51.4122 12.9065 51.6157 12.8222 51.7657 12.6722C51.9157 12.5222 52 12.3187 52 12.1065C52.2133 10.3198 52.5067 7.35984 51.2533 6.05317C48.3733 3.11984 40 2.6665 35.6267 2.6665C31.7333 2.8265 27.84 3.3065 24 3.09317C22.2933 3.09317 13.3333 2.71984 11.6267 2.8265C10.3733 2.8265 10.8533 4.61317 10.8 4.85317C9.89333 12.8532 10.5067 8.87984 2.18666 43.5732C1.59999 46.1332 -0.853339 50.2132 0.293327 53.3332C0.90666 54.9332 2.74666 54.9865 3.62666 55.2532C6.14333 55.7778 8.69062 56.143 11.2533 56.3465C19.2201 57.304 27.2673 57.3934 35.2533 56.6132C38.32 56.3998 42.56 56.3732 45.2 54.5598C46.5397 53.395 47.3879 51.7654 47.5733 49.9998C47.6048 49.8825 47.6129 49.7601 47.5972 49.6397C47.5814 49.5193 47.542 49.4031 47.4814 49.2979C47.4207 49.1926 47.3399 49.1004 47.2436 49.0263C47.1473 48.9523 47.0373 48.898 46.92 48.8665C46.8027 48.835 46.6803 48.8269 46.5599 48.8427C46.4394 48.8584 46.3233 48.8978 46.218 48.9584C46.1128 49.0191 46.0205 49.0999 45.9465 49.1962C45.8725 49.2926 45.8182 49.4025 45.7867 49.5198Z" fill="#032C4D"/>
<path fill-rule="evenodd" clip-rule="evenodd" d="M41.68 15.9997C38.72 15.9997 34.48 15.5997 30.4533 15.4397C23.3067 15.1464 25.3067 15.9997 18.96 15.2264C18.3733 15.2264 16.1067 14.3731 15.68 15.6531C15.2533 16.9331 17.0933 16.4531 18.6133 17.1197C20.1333 17.7864 22.56 18.6664 32.2933 18.4797C35.7867 18.4797 39.2533 18.1064 41.7867 17.8397C41.9075 17.8327 42.0257 17.802 42.1347 17.7493C42.2436 17.6966 42.3411 17.6229 42.4216 17.5326C42.5021 17.4422 42.5639 17.3368 42.6037 17.2225C42.6435 17.1082 42.6603 16.9872 42.6533 16.8664C42.6463 16.7456 42.6156 16.6273 42.5629 16.5184C42.5102 16.4094 42.4365 16.312 42.3461 16.2315C42.2558 16.151 42.1504 16.0891 42.0361 16.0493C41.9218 16.0096 41.8008 15.9927 41.68 15.9997Z" fill="#032C4D"/>
<path fill-rule="evenodd" clip-rule="evenodd" d="M34.6667 27.1464C19.5733 26.2931 17.12 26.0531 14.7733 24.8264C14.593 24.7132 14.3751 24.6763 14.1675 24.7239C13.96 24.7714 13.7798 24.8994 13.6667 25.0797C13.5535 25.2601 13.5166 25.478 13.5641 25.6855C13.6116 25.8931 13.7396 26.0732 13.92 26.1864C16.3554 27.8983 19.1775 28.9795 22.1333 29.3331C26.3121 29.6694 30.5153 29.5442 34.6667 28.9597C34.9071 28.9597 35.1377 28.8642 35.3078 28.6942C35.4778 28.5241 35.5733 28.2935 35.5733 28.0531C35.5733 27.8126 35.4778 27.582 35.3078 27.4119C35.1377 27.2419 34.9071 27.1464 34.6667 27.1464Z" fill="#032C4D"/>
<path fill-rule="evenodd" clip-rule="evenodd" d="M26.2133 39.6529C20.2933 39.3329 14.6933 38.9596 11.68 36.5329C10.8533 35.8663 9.36 37.2263 11.12 38.7196C12.4146 39.6331 13.8105 40.3937 15.28 40.9863C21.3867 43.1463 26.6133 42.4796 33.36 41.7329C33.6005 41.7329 33.8311 41.6374 34.0011 41.4674C34.1711 41.2973 34.2667 41.0667 34.2667 40.8263C34.2667 40.5858 34.1711 40.3552 34.0011 40.1852C33.8311 40.0151 33.6005 39.9196 33.36 39.9196C30.9867 39.9996 28.6133 39.7863 26.2133 39.6529Z" fill="#032C4D"/>
</g>
<defs>
<clipPath id="clip0_457_10683">
<rect width="64" height="64" fill="white"/>
</clipPath>
</defs>
</svg>
